<?xml version="1.0" encoding="UTF-8"?>
<svg id="Layer_2" data-name="Layer 2" xmlns="http://www.w3.org/2000/svg" viewBox="0 0 31.49 31.49">
  <g id="Layer_1-2" data-name="Layer 1">
    <g>
      <path d="M24.08,5.62c-1.02,0-1.85.83-1.85,1.85s.83,1.85,1.85,1.85,1.85-.83,1.85-1.85-.83-1.85-1.85-1.85Z" fill="#b8babc"/>
      <path d="M15.88,7.99c-4.28,0-7.76,3.48-7.76,7.76s3.48,7.76,7.76,7.76,7.76-3.48,7.76-7.76-3.48-7.76-7.76-7.76ZM15.88,20.71c-2.74,0-4.97-2.23-4.97-4.97s2.23-4.97,4.97-4.97,4.97,2.23,4.97,4.97-2.23,4.97-4.97,4.97Z" fill="#b8babc"/>
      <path d="M22.03,31.49h-12.57c-5.22,0-9.46-4.24-9.46-9.46v-12.57C0,4.24,4.24,0,9.46,0h12.57c5.22,0,9.46,4.24,9.46,9.46v12.57c0,5.22-4.24,9.46-9.46,9.46ZM9.46,2.96c-3.58,0-6.5,2.91-6.5,6.5v12.57c0,3.58,2.91,6.5,6.5,6.5h12.57c3.58,0,6.5-2.91,6.5-6.5v-12.57c0-3.58-2.91-6.5-6.5-6.5h-12.57Z" fill="#b8babc"/>
    </g>
  </g>
</svg>