<?xml version="1.0" encoding="UTF-8"?>
<svg id="Layer_2" data-name="Layer 2" xmlns="http://www.w3.org/2000/svg" viewBox="0 0 31.49 31.49">
  <g id="Layer_1-2" data-name="Layer 1">
    <path d="M31.01,3.86c-.99-2.36-3.25-3.86-5.82-3.86h-9.43c-3.13,0-6.25,0-9.38,0-.41,0-.81.02-1.21.09C2.11.69,0,3.25,0,6.38,0,12.54,0,18.72,0,24.88c0,.45.03.9.1,1.35.28,1.68,1.13,3.03,2.49,4.04,1.16.86,2.49,1.23,3.92,1.22,6.18,0,12.36,0,18.54,0,.39,0,.79-.04,1.18-.09,3.02-.48,5.25-3.09,5.26-6.17,0-6.3,0-12.59,0-18.89,0-.86-.15-1.68-.48-2.47ZM10.59,24.13c0,.26-.08.33-.32.33-.98-.01-1.97-.01-2.95,0-.24,0-.34-.06-.34-.33.01-3.76.01-7.53,0-11.3,0-.22.05-.31.29-.31,1.01,0,2.02.01,3.04,0,.24,0,.28.09.28.31,0,1.88,0,3.77,0,5.65s0,3.76,0,5.65ZM8.79,10.88c-1.16,0-2.14-.99-2.14-2.17s.96-2.17,2.11-2.17,2.17.97,2.17,2.17-.97,2.17-2.14,2.18ZM24.49,24.14c0,.25-.09.31-.32.31-.99-.01-1.97-.01-2.95,0-.24,0-.29-.08-.29-.31,0-1.98,0-3.97,0-5.95,0-.48-.08-.95-.31-1.38-.79-1.44-2.86-1.57-3.91-.25-.36.46-.54.97-.54,1.56,0,2,0,4,0,6.01,0,.27-.08.33-.32.33-.97-.01-1.95-.01-2.92,0-.24,0-.31-.07-.31-.31,0-3.76,0-7.52,0-11.27,0-.26.07-.35.34-.35.96.02,1.93.02,2.89,0,.27,0,.35.08.33.34-.02.4,0,.79,0,1.25.76-.96,1.67-1.57,2.82-1.66,1.16-.1,2.34-.17,3.41.47,1.34.8,2.06,1.98,2.08,3.53.04,2.57.01,5.13.02,7.7Z" fill="#b8babc"/>
  </g>
</svg>