<?xml version="1.0" encoding="UTF-8"?>
<svg id="Layer_2" data-name="Layer 2" xmlns="http://www.w3.org/2000/svg" viewBox="0 0 138.39 61.35">
  <g id="Layer_1-2" data-name="Layer 1">
    <g>
      <g>
        <path d="M13.97,7.01l-1.33.86-4.2,8.69c.53-.44,1.08-.85,1.67-1.22l1.03-2.12,3.22-1.28.41,1.36c.34-.1.68-.17,1.02-.24l-1.82-6.05ZM11.82,11.81l1.54-3.17.69,2.28-2.23.88Z" fill="#444"/>
        <path d="M15.65,9.06c0-2.05,1.67-3.69,3.71-3.69,1.07,0,2.05.46,2.72,1.19l-.79.73c-.48-.51-1.17-.84-1.93-.84-1.45,0-2.63,1.17-2.63,2.62s1.18,2.62,2.63,2.62c.76,0,1.45-.32,1.93-.84l.79.73c-.68.73-1.65,1.19-2.72,1.19h0c-2.05,0-3.71-1.66-3.71-3.71Z" fill="#444"/>
        <path d="M23.37,13.3c-.33-.09-.68-.17-1.02-.25l1.84-6.04.88.59.77,3.63.91-2.27.64.51,2.04,6.87c-.44-.34-.88-.65-1.35-.95h0s-1.18-4-1.18-4l-1.11,2.76c-.19-.08-.37-.16-.56-.24l-.79-4.14-1.08,3.53Z" fill="#444"/>
        <path d="M12.59,47.15c-.08.22-.71.75-1.5.48l-.15-.05-.21.61-.1.29.19.06c.54.19.9.19,1.14.1l-1.09,3.22,1.04.35h0s1.61-4.73,1.61-4.73l-.94-.33ZM17.8,49.74c.12-.7-.38-1.41-1.51-1.62-.96-.17-1.79.21-1.95,1.08-.08.46.1.83.49,1.09-.89.21-1.01.89-1.06,1.13-.11.69.22,1.62,1.63,1.87,1.45.26,2.08-.65,2.19-1.29.11-.64-.12-1.02-.61-1.36.48-.12.73-.47.81-.9ZM15.56,52.49c-.49-.08-.82-.47-.74-.95.1-.55.6-.7,1-.63h0c.6.11.78.58.71.93-.06.35-.41.75-.97.64ZM15.97,50.16c-.47-.09-.69-.47-.64-.76.07-.37.41-.57.9-.48h0c.35.06.63.36.57.74-.07.36-.4.57-.82.5ZM22.61,50.73c-.06-.71-.25-2.59-2.17-2.43-1.08.09-1.84.73-1.74,1.97.07.84.75,1.52,1.82,1.43.37-.04.79-.16,1.02-.51h0c.08,1.08-.35,1.39-.78,1.49-.45.1-.78-.09-.94-.43h0s-.78.28-.78.28c.24.66.91,1.02,1.77.95,1.01-.1,1.95-.81,1.79-2.75ZM20.68,50.88c-.41.04-.93-.08-.99-.85-.06-.73.54-.89.81-.93.56-.04.86.28.91.86.05.59-.34.88-.73.91ZM27.3,49.3c-.24-.66-.88-2.44-2.7-1.82-1.04.35-1.61,1.15-1.21,2.34.27.8,1.1,1.29,2.11.94.35-.12.73-.34.86-.75l.02.02c.34,1.01,0,1.43-.41,1.63-.14.07-.28.1-.41.1-.24,0-.45-.11-.6-.29l-.69.47c.4.58,1.14.76,1.95.48.95-.33,1.7-1.25,1.08-3.11ZM25.46,49.94c-.4.13-.93.14-1.17-.58-.02-.06-.04-.13-.04-.19-.03-.18,0-.32.05-.44h0c.13-.26.39-.41.56-.46.33-.11.59-.07.79.11.1.08.18.2.24.34.03.04.04.1.06.15.2.58-.12.94-.48,1.07ZM27.3,49.3c-.24-.66-.88-2.44-2.7-1.82-1.04.35-1.61,1.15-1.21,2.34.27.8,1.1,1.29,2.11.94.35-.12.73-.34.86-.75l.02.02c.34,1.01,0,1.43-.41,1.63-.14.07-.28.1-.41.1-.24,0-.45-.11-.6-.29l-.69.47c.4.58,1.14.76,1.95.48.95-.33,1.7-1.25,1.08-3.11ZM25.46,49.94c-.4.13-.93.14-1.17-.58-.02-.06-.04-.13-.04-.19-.03-.18,0-.32.05-.44h0c.13-.26.39-.41.56-.46.33-.11.59-.07.79.11.1.08.18.2.24.34.03.04.04.1.06.15.2.58-.12.94-.48,1.07ZM22.61,50.73c-.06-.71-.25-2.59-2.17-2.43-1.08.09-1.84.73-1.74,1.97.07.84.75,1.52,1.82,1.43.37-.04.79-.16,1.02-.51h0c.08,1.08-.35,1.39-.78,1.49-.45.1-.78-.09-.94-.43h0s-.78.28-.78.28c.24.66.91,1.02,1.77.95,1.01-.1,1.95-.81,1.79-2.75ZM20.68,50.88c-.41.04-.93-.08-.99-.85-.06-.73.54-.89.81-.93.56-.04.86.28.91.86.05.59-.34.88-.73.91ZM17.8,49.74c.12-.7-.38-1.41-1.51-1.62-.96-.17-1.79.21-1.95,1.08-.08.46.1.83.49,1.09-.89.21-1.01.89-1.06,1.13-.11.69.22,1.62,1.63,1.87,1.45.26,2.08-.65,2.19-1.29.11-.64-.12-1.02-.61-1.36.48-.12.73-.47.81-.9ZM15.56,52.49c-.49-.08-.82-.47-.74-.95.1-.55.6-.7,1-.63h0c.6.11.78.58.71.93-.06.35-.41.75-.97.64ZM15.97,50.16c-.47-.09-.69-.47-.64-.76.07-.37.41-.57.9-.48h0c.35.06.63.36.57.74-.07.36-.4.57-.82.5ZM12.59,47.15c-.08.22-.71.75-1.5.48l-.15-.05-.21.61-.1.29.19.06c.54.19.9.19,1.14.1l-1.09,3.22,1.04.35h0s1.61-4.73,1.61-4.73l-.94-.33ZM12.59,47.15c-.08.22-.71.75-1.5.48l-.15-.05-.21.61-.1.29.19.06c.54.19.9.19,1.14.1l-1.09,3.22,1.04.35h0s1.61-4.73,1.61-4.73l-.94-.33ZM17.8,49.74c.12-.7-.38-1.41-1.51-1.62-.96-.17-1.79.21-1.95,1.08-.08.46.1.83.49,1.09-.89.21-1.01.89-1.06,1.13-.11.69.22,1.62,1.63,1.87,1.45.26,2.08-.65,2.19-1.29.11-.64-.12-1.02-.61-1.36.48-.12.73-.47.81-.9ZM15.56,52.49c-.49-.08-.82-.47-.74-.95.1-.55.6-.7,1-.63h0c.6.11.78.58.71.93-.06.35-.41.75-.97.64ZM15.97,50.16c-.47-.09-.69-.47-.64-.76.07-.37.41-.57.9-.48h0c.35.06.63.36.57.74-.07.36-.4.57-.82.5ZM22.61,50.73c-.06-.71-.25-2.59-2.17-2.43-1.08.09-1.84.73-1.74,1.97.07.84.75,1.52,1.82,1.43.37-.04.79-.16,1.02-.51h0c.08,1.08-.35,1.39-.78,1.49-.45.1-.78-.09-.94-.43h0s-.78.28-.78.28c.24.66.91,1.02,1.77.95,1.01-.1,1.95-.81,1.79-2.75ZM20.68,50.88c-.41.04-.93-.08-.99-.85-.06-.73.54-.89.81-.93.56-.04.86.28.91.86.05.59-.34.88-.73.91ZM27.3,49.3c-.24-.66-.88-2.44-2.7-1.82-1.04.35-1.61,1.15-1.21,2.34.27.8,1.1,1.29,2.11.94.35-.12.73-.34.86-.75l.02.02c.34,1.01,0,1.43-.41,1.63-.14.07-.28.1-.41.1-.24,0-.45-.11-.6-.29l-.69.47c.4.58,1.14.76,1.95.48.95-.33,1.7-1.25,1.08-3.11ZM25.46,49.94c-.4.13-.93.14-1.17-.58-.02-.06-.04-.13-.04-.19-.03-.18,0-.32.05-.44h0c.13-.26.39-.41.56-.46.33-.11.59-.07.79.11.1.08.18.2.24.34.03.04.04.1.06.15.2.58-.12.94-.48,1.07ZM27.3,49.3c-.24-.66-.88-2.44-2.7-1.82-1.04.35-1.61,1.15-1.21,2.34.27.8,1.1,1.29,2.11.94.35-.12.73-.34.86-.75l.02.02c.34,1.01,0,1.43-.41,1.63-.14.07-.28.1-.41.1-.24,0-.45-.11-.6-.29l-.69.47c.4.58,1.14.76,1.95.48.95-.33,1.7-1.25,1.08-3.11ZM25.46,49.94c-.4.13-.93.14-1.17-.58-.02-.06-.04-.13-.04-.19-.03-.18,0-.32.05-.44h0c.13-.26.39-.41.56-.46.33-.11.59-.07.79.11.1.08.18.2.24.34.03.04.04.1.06.15.2.58-.12.94-.48,1.07ZM20.44,48.3c-1.08.09-1.84.73-1.74,1.97.07.84.75,1.52,1.82,1.43.37-.04.79-.16,1.02-.51h0c.08,1.08-.35,1.39-.78,1.49-.45.1-.78-.09-.94-.43h0s-.78.28-.78.28c.24.66.91,1.02,1.77.95,1.01-.1,1.95-.81,1.79-2.75-.06-.71-.25-2.59-2.17-2.43ZM20.68,50.88c-.41.04-.93-.08-.99-.85-.06-.73.54-.89.81-.93.56-.04.86.28.91.86.05.59-.34.88-.73.91ZM16.29,48.11c-.96-.17-1.79.21-1.95,1.08-.08.46.1.83.49,1.09-.89.21-1.01.89-1.06,1.13-.11.69.22,1.62,1.63,1.87,1.45.26,2.08-.65,2.19-1.29.11-.64-.12-1.02-.61-1.36.48-.12.73-.47.81-.9.12-.7-.38-1.41-1.51-1.62ZM15.56,52.49c-.49-.08-.82-.47-.74-.95.1-.55.6-.7,1-.63h0c.6.11.78.58.71.93-.06.35-.41.75-.97.64ZM15.97,50.16c-.47-.09-.69-.47-.64-.76.07-.37.41-.57.9-.48h0c.35.06.63.36.57.74-.07.36-.4.57-.82.5ZM11.09,47.63l-.15-.05-.21.61-.1.29.19.06c.54.19.9.19,1.14.1l-1.09,3.22,1.04.35h0s1.61-4.73,1.61-4.73l-.94-.33c-.08.22-.71.75-1.5.48ZM19.07,0C8.41.04,0,13.82,0,30.67c0,16.85,8.41,30.63,19.07,30.67,10.67-.05,19.06-13.82,19.08-30.67C38.14,13.82,29.74.04,19.07,0ZM19.15,57.52h-.09c-4.21,0-8.05-2.98-10.83-7.83-1.75-3.05-3.06-6.85-3.81-11.06,2.82,5.18,8.32,8.7,14.64,8.7s11.81-3.52,14.64-8.7c-.76,4.21-2.06,8.01-3.81,11.06-2.77,4.82-6.58,7.79-10.76,7.83ZM13.11,5.91c1.83-1.35,3.85-2.1,5.95-2.1h.02c4.21,0,8.04,2.99,10.84,7.84,1.75,3.04,3.07,6.85,3.81,11.09-2.11-3.89-5.7-6.82-10.02-8.07l-.05-.03v.02c-1.46-.42-2.99-.65-4.58-.65-6.33,0-11.83,3.52-14.65,8.72.74-4.23,2.06-8.03,3.81-11.07,1.39-2.42,3.04-4.39,4.88-5.75ZM23.65,33.05v12.5c-1.19.36-2.43.61-3.72.68v-13.2l3.72.02ZM19.93,27.79v-12.68c1.3.07,2.54.32,3.72.68v12h-3.72ZM29.46,27.79v-8.75c2.51,2.25,4.3,5.29,4.95,8.75h-4.95ZM29.46,42.29v-9.25h5.02c-.56,3.66-2.37,6.89-5.02,9.25ZM24.6,47.49c-1.04.35-1.61,1.15-1.21,2.34.27.8,1.1,1.29,2.11.94.35-.12.73-.34.86-.75l.02.02c.34,1.01,0,1.43-.41,1.63-.14.07-.28.1-.41.1-.24,0-.45-.11-.6-.29l-.69.47c.4.58,1.14.76,1.95.48.95-.33,1.7-1.25,1.08-3.11-.24-.66-.88-2.44-2.7-1.82ZM25.46,49.94c-.4.13-.93.14-1.17-.58-.02-.06-.04-.13-.04-.19-.03-.18,0-.32.05-.44h0c.13-.26.39-.41.56-.46.33-.11.59-.07.79.11.1.08.18.2.24.34.03.04.04.1.06.15.2.58-.12.94-.48,1.07ZM20.44,48.3c-1.08.09-1.84.73-1.74,1.97.07.84.75,1.52,1.82,1.43.37-.04.79-.16,1.02-.51h0c.08,1.08-.35,1.39-.78,1.49-.45.1-.78-.09-.94-.43h0s-.78.28-.78.28c.24.66.91,1.02,1.77.95,1.01-.1,1.95-.81,1.79-2.75-.06-.71-.25-2.59-2.17-2.43ZM20.68,50.88c-.41.04-.93-.08-.99-.85-.06-.73.54-.89.81-.93.56-.04.86.28.91.86.05.59-.34.88-.73.91ZM16.29,48.11c-.96-.17-1.79.21-1.95,1.08-.08.46.1.83.49,1.09-.89.21-1.01.89-1.06,1.13-.11.69.22,1.62,1.63,1.87,1.45.26,2.08-.65,2.19-1.29.11-.64-.12-1.02-.61-1.36.48-.12.73-.47.81-.9.12-.7-.38-1.41-1.51-1.62ZM15.56,52.49c-.49-.08-.82-.47-.74-.95.1-.55.6-.7,1-.63h0c.6.11.78.58.71.93-.06.35-.41.75-.97.64ZM15.97,50.16c-.47-.09-.69-.47-.64-.76.07-.37.41-.57.9-.48h0c.35.06.63.36.57.74-.07.36-.4.57-.82.5ZM11.09,47.63l-.15-.05-.21.61-.1.29.19.06c.54.19.9.19,1.14.1l-1.09,3.22,1.04.35h0s1.61-4.73,1.61-4.73l-.94-.33c-.08.22-.71.75-1.5.48ZM12.59,47.15c-.08.22-.71.75-1.5.48l-.15-.05-.21.61-.1.29.19.06c.54.19.9.19,1.14.1l-1.09,3.22,1.04.35h0s1.61-4.73,1.61-4.73l-.94-.33ZM17.8,49.74c.12-.7-.38-1.41-1.51-1.62-.96-.17-1.79.21-1.95,1.08-.08.46.1.83.49,1.09-.89.21-1.01.89-1.06,1.13-.11.69.22,1.62,1.63,1.87,1.45.26,2.08-.65,2.19-1.29.11-.64-.12-1.02-.61-1.36.48-.12.73-.47.81-.9ZM15.56,52.49c-.49-.08-.82-.47-.74-.95.1-.55.6-.7,1-.63h0c.6.11.78.58.71.93-.06.35-.41.75-.97.64ZM15.97,50.16c-.47-.09-.69-.47-.64-.76.07-.37.41-.57.9-.48h0c.35.06.63.36.57.74-.07.36-.4.57-.82.5ZM22.61,50.73c-.06-.71-.25-2.59-2.17-2.43-1.08.09-1.84.73-1.74,1.97.07.84.75,1.52,1.82,1.43.37-.04.79-.16,1.02-.51h0c.08,1.08-.35,1.39-.78,1.49-.45.1-.78-.09-.94-.43h0s-.78.28-.78.28c.24.66.91,1.02,1.77.95,1.01-.1,1.95-.81,1.79-2.75ZM20.68,50.88c-.41.04-.93-.08-.99-.85-.06-.73.54-.89.81-.93.56-.04.86.28.91.86.05.59-.34.88-.73.91ZM27.3,49.3c-.24-.66-.88-2.44-2.7-1.82-1.04.35-1.61,1.15-1.21,2.34.27.8,1.1,1.29,2.11.94.35-.12.73-.34.86-.75l.02.02c.34,1.01,0,1.43-.41,1.63-.14.07-.28.1-.41.1-.24,0-.45-.11-.6-.29l-.69.47c.4.58,1.14.76,1.95.48.95-.33,1.7-1.25,1.08-3.11ZM25.46,49.94c-.4.13-.93.14-1.17-.58-.02-.06-.04-.13-.04-.19-.03-.18,0-.32.05-.44h0c.13-.26.39-.41.56-.46.33-.11.59-.07.79.11.1.08.18.2.24.34.03.04.04.1.06.15.2.58-.12.94-.48,1.07ZM27.3,49.3c-.24-.66-.88-2.44-2.7-1.82-1.04.35-1.61,1.15-1.21,2.34.27.8,1.1,1.29,2.11.94.35-.12.73-.34.86-.75l.02.02c.34,1.01,0,1.43-.41,1.63-.14.07-.28.1-.41.1-.24,0-.45-.11-.6-.29l-.69.47c.4.58,1.14.76,1.95.48.95-.33,1.7-1.25,1.08-3.11ZM25.46,49.94c-.4.13-.93.14-1.17-.58-.02-.06-.04-.13-.04-.19-.03-.18,0-.32.05-.44h0c.13-.26.39-.41.56-.46.33-.11.59-.07.79.11.1.08.18.2.24.34.03.04.04.1.06.15.2.58-.12.94-.48,1.07ZM22.61,50.73c-.06-.71-.25-2.59-2.17-2.43-1.08.09-1.84.73-1.74,1.97.07.84.75,1.52,1.82,1.43.37-.04.79-.16,1.02-.51h0c.08,1.08-.35,1.39-.78,1.49-.45.1-.78-.09-.94-.43h0s-.78.28-.78.28c.24.66.91,1.02,1.77.95,1.01-.1,1.95-.81,1.79-2.75ZM20.68,50.88c-.41.04-.93-.08-.99-.85-.06-.73.54-.89.81-.93.56-.04.86.28.91.86.05.59-.34.88-.73.91ZM17.8,49.74c.12-.7-.38-1.41-1.51-1.62-.96-.17-1.79.21-1.95,1.08-.08.46.1.83.49,1.09-.89.21-1.01.89-1.06,1.13-.11.69.22,1.62,1.63,1.87,1.45.26,2.08-.65,2.19-1.29.11-.64-.12-1.02-.61-1.36.48-.12.73-.47.81-.9ZM15.56,52.49c-.49-.08-.82-.47-.74-.95.1-.55.6-.7,1-.63h0c.6.11.78.58.71.93-.06.35-.41.75-.97.64ZM15.97,50.16c-.47-.09-.69-.47-.64-.76.07-.37.41-.57.9-.48h0c.35.06.63.36.57.74-.07.36-.4.57-.82.5ZM12.59,47.15c-.08.22-.71.75-1.5.48l-.15-.05-.21.61-.1.29.19.06c.54.19.9.19,1.14.1l-1.09,3.22,1.04.35h0s1.61-4.73,1.61-4.73l-.94-.33ZM12.59,47.15c-.08.22-.71.75-1.5.48l-.15-.05-.21.61-.1.29.19.06c.54.19.9.19,1.14.1l-1.09,3.22,1.04.35h0s1.61-4.73,1.61-4.73l-.94-.33ZM17.8,49.74c.12-.7-.38-1.41-1.51-1.62-.96-.17-1.79.21-1.95,1.08-.08.46.1.83.49,1.09-.89.21-1.01.89-1.06,1.13-.11.69.22,1.62,1.63,1.87,1.45.26,2.08-.65,2.19-1.29.11-.64-.12-1.02-.61-1.36.48-.12.73-.47.81-.9ZM15.56,52.49c-.49-.08-.82-.47-.74-.95.1-.55.6-.7,1-.63h0c.6.11.78.58.71.93-.06.35-.41.75-.97.64ZM15.97,50.16c-.47-.09-.69-.47-.64-.76.07-.37.41-.57.9-.48h0c.35.06.63.36.57.74-.07.36-.4.57-.82.5ZM22.61,50.73c-.06-.71-.25-2.59-2.17-2.43-1.08.09-1.84.73-1.74,1.97.07.84.75,1.52,1.82,1.43.37-.04.79-.16,1.02-.51h0c.08,1.08-.35,1.39-.78,1.49-.45.1-.78-.09-.94-.43h0s-.78.28-.78.28c.24.66.91,1.02,1.77.95,1.01-.1,1.95-.81,1.79-2.75ZM20.68,50.88c-.41.04-.93-.08-.99-.85-.06-.73.54-.89.81-.93.56-.04.86.28.91.86.05.59-.34.88-.73.91ZM27.3,49.3c-.24-.66-.88-2.44-2.7-1.82-1.04.35-1.61,1.15-1.21,2.34.27.8,1.1,1.29,2.11.94.35-.12.73-.34.86-.75l.02.02c.34,1.01,0,1.43-.41,1.63-.14.07-.28.1-.41.1-.24,0-.45-.11-.6-.29l-.69.47c.4.58,1.14.76,1.95.48.95-.33,1.7-1.25,1.08-3.11ZM25.46,49.94c-.4.13-.93.14-1.17-.58-.02-.06-.04-.13-.04-.19-.03-.18,0-.32.05-.44h0c.13-.26.39-.41.56-.46.33-.11.59-.07.79.11.1.08.18.2.24.34.03.04.04.1.06.15.2.58-.12.94-.48,1.07ZM27.3,49.3c-.24-.66-.88-2.44-2.7-1.82-1.04.35-1.61,1.15-1.21,2.34.27.8,1.1,1.29,2.11.94.35-.12.73-.34.86-.75l.02.02c.34,1.01,0,1.43-.41,1.63-.14.07-.28.1-.41.1-.24,0-.45-.11-.6-.29l-.69.47c.4.58,1.14.76,1.95.48.95-.33,1.7-1.25,1.08-3.11ZM25.46,49.94c-.4.13-.93.14-1.17-.58-.02-.06-.04-.13-.04-.19-.03-.18,0-.32.05-.44h0c.13-.26.39-.41.56-.46.33-.11.59-.07.79.11.1.08.18.2.24.34.03.04.04.1.06.15.2.58-.12.94-.48,1.07ZM22.61,50.73c-.06-.71-.25-2.59-2.17-2.43-1.08.09-1.84.73-1.74,1.97.07.84.75,1.52,1.82,1.43.37-.04.79-.16,1.02-.51h0c.08,1.08-.35,1.39-.78,1.49-.45.1-.78-.09-.94-.43h0s-.78.28-.78.28c.24.66.91,1.02,1.77.95,1.01-.1,1.95-.81,1.79-2.75ZM20.68,50.88c-.41.04-.93-.08-.99-.85-.06-.73.54-.89.81-.93.56-.04.86.28.91.86.05.59-.34.88-.73.91ZM17.8,49.74c.12-.7-.38-1.41-1.51-1.62-.96-.17-1.79.21-1.95,1.08-.08.46.1.83.49,1.09-.89.21-1.01.89-1.06,1.13-.11.69.22,1.62,1.63,1.87,1.45.26,2.08-.65,2.19-1.29.11-.64-.12-1.02-.61-1.36.48-.12.73-.47.81-.9ZM15.56,52.49c-.49-.08-.82-.47-.74-.95.1-.55.6-.7,1-.63h0c.6.11.78.58.71.93-.06.35-.41.75-.97.64ZM15.97,50.16c-.47-.09-.69-.47-.64-.76.07-.37.41-.57.9-.48h0c.35.06.63.36.57.74-.07.36-.4.57-.82.5ZM12.59,47.15c-.08.22-.71.75-1.5.48l-.15-.05-.21.61-.1.29.19.06c.54.19.9.19,1.14.1l-1.09,3.22,1.04.35h0s1.61-4.73,1.61-4.73l-.94-.33Z" fill="#444"/>
        <path d="M24.3,48.72c.13-.26.39-.4.56-.45h0c-.17.04-.43.19-.56.45ZM24.25,49.17c-.03-.18,0-.32.05-.44-.06.12-.09.27-.05.44ZM24.3,48.72c.13-.26.39-.4.56-.45h0c-.17.04-.43.19-.56.45ZM24.25,49.17c-.03-.18,0-.32.05-.44-.06.12-.09.27-.05.44ZM24.3,48.72c.13-.26.39-.4.56-.45h0c-.17.04-.43.19-.56.45ZM24.25,49.17c-.03-.18,0-.32.05-.44-.06.12-.09.27-.05.44ZM24.3,48.72c.13-.26.39-.4.56-.45h0c-.17.04-.43.19-.56.45ZM24.25,49.17c-.03-.18,0-.32.05-.44-.06.12-.09.27-.05.44ZM24.3,48.72c.13-.26.39-.4.56-.45h0c-.17.04-.43.19-.56.45ZM24.25,49.17c-.03-.18,0-.32.05-.44-.06.12-.09.27-.05.44ZM24.3,48.72c.13-.26.39-.4.56-.45h0c-.17.04-.43.19-.56.45ZM24.25,49.17c-.03-.18,0-.32.05-.44-.06.12-.09.27-.05.44ZM24.3,48.72c.13-.26.39-.4.56-.45h0c-.17.04-.43.19-.56.45ZM24.25,49.17c-.03-.18,0-.32.05-.44-.06.12-.09.27-.05.44ZM24.3,48.72c.13-.26.39-.4.56-.45h0c-.17.04-.43.19-.56.45ZM24.25,49.17c-.03-.18,0-.32.05-.44-.06.12-.09.27-.05.44ZM24.3,48.72c.13-.26.39-.4.56-.45h0c-.17.04-.43.19-.56.45ZM24.25,49.17c-.03-.18,0-.32.05-.44-.06.12-.09.27-.05.44ZM24.3,48.72c.13-.26.39-.4.56-.45h0c-.17.04-.43.19-.56.45ZM24.25,49.17c-.03-.18,0-.32.05-.44-.06.12-.09.27-.05.44ZM24.3,48.72c.13-.26.39-.4.56-.45h0c-.17.04-.43.19-.56.45ZM24.25,49.17c-.03-.18,0-.32.05-.44-.06.12-.09.27-.05.44ZM24.3,48.72c.13-.26.39-.4.56-.45h0c-.17.04-.43.19-.56.45ZM24.25,49.17c-.03-.18,0-.32.05-.44-.06.12-.09.27-.05.44ZM24.3,48.72c.13-.26.39-.4.56-.45h0c-.17.04-.43.19-.56.45ZM24.25,49.17c-.03-.18,0-.32.05-.44-.06.12-.09.27-.05.44ZM24.3,48.72c.13-.26.39-.4.56-.45h0c-.17.04-.43.19-.56.45ZM24.25,49.17c-.03-.18,0-.32.05-.44-.06.12-.09.27-.05.44ZM24.3,48.72c.13-.26.39-.4.56-.45h0c-.17.04-.43.19-.56.45ZM24.25,49.17c-.03-.18,0-.32.05-.44-.06.12-.09.27-.05.44Z" fill="#fff"/>
        <path d="M3.47,30.67c0,2.71.69,5.25,1.9,7.48v-14.96c-1.22,2.23-1.9,4.78-1.9,7.49ZM8.29,19.41v22.53c.88.84,1.86,1.57,2.91,2.19v-26.91c-1.05.63-2.03,1.36-2.91,2.2ZM14.11,15.89v29.57c.93.32,1.91.54,2.92.67V15.22c-1.01.13-1.98.36-2.92.67ZM34.53,28.61h-5.9v-10.24c-1.24-.97-2.65-1.75-4.16-2.31v12.56h-4.54v3.61h4.54v13.08c1.52-.56,2.92-1.36,4.17-2.33v-10.75h5.96c.05-.5.08-1.02.08-1.54,0-.71-.06-1.38-.15-2.06ZM34.53,28.61h-5.9v-10.24c-1.24-.97-2.65-1.75-4.16-2.31v12.56h-4.54v3.61h4.54v13.08c1.52-.56,2.92-1.36,4.17-2.33v-10.75h5.96c.05-.5.08-1.02.08-1.54,0-.71-.06-1.38-.15-2.06ZM14.11,15.89v29.57c.93.32,1.91.54,2.92.67V15.22c-1.01.13-1.98.36-2.92.67ZM8.29,19.41v22.53c.88.84,1.86,1.57,2.91,2.19v-26.91c-1.05.63-2.03,1.36-2.91,2.2ZM3.47,30.67c0,2.71.69,5.25,1.9,7.48v-14.96c-1.22,2.23-1.9,4.78-1.9,7.49ZM3.47,30.67c0,2.71.69,5.25,1.9,7.48v-14.96c-1.22,2.23-1.9,4.78-1.9,7.49ZM8.29,19.41v22.53c.88.84,1.86,1.57,2.91,2.19v-26.91c-1.05.63-2.03,1.36-2.91,2.2ZM14.11,15.89v29.57c.93.32,1.91.54,2.92.67V15.22c-1.01.13-1.98.36-2.92.67ZM34.53,28.61h-5.9v-10.24c-1.24-.97-2.65-1.75-4.16-2.31v12.56h-4.54v3.61h4.54v13.08c1.52-.56,2.92-1.36,4.17-2.33v-10.75h5.96c.05-.5.08-1.02.08-1.54,0-.71-.06-1.38-.15-2.06ZM34.53,28.61h-5.9v-10.24c-1.24-.97-2.65-1.75-4.16-2.31v12.56h-4.54v3.61h4.54v13.08c1.52-.56,2.92-1.36,4.17-2.33v-10.75h5.96c.05-.5.08-1.02.08-1.54,0-.71-.06-1.38-.15-2.06ZM14.11,15.89v29.57c.93.32,1.91.54,2.92.67V15.22c-1.01.13-1.98.36-2.92.67ZM8.29,19.41v22.53c.88.84,1.86,1.57,2.91,2.19v-26.91c-1.05.63-2.03,1.36-2.91,2.2ZM3.47,30.67c0,2.71.69,5.25,1.9,7.48v-14.96c-1.22,2.23-1.9,4.78-1.9,7.49ZM3.47,30.67c0,2.71.69,5.25,1.9,7.48v-14.96c-1.22,2.23-1.9,4.78-1.9,7.49ZM8.29,19.41v22.53c.88.84,1.86,1.57,2.91,2.19v-26.91c-1.05.63-2.03,1.36-2.91,2.2ZM14.11,15.89v29.57c.93.32,1.91.54,2.92.67V15.22c-1.01.13-1.98.36-2.92.67ZM34.53,28.61h-5.9v-10.24c-1.24-.97-2.65-1.75-4.16-2.31v12.56h-4.54v3.61h4.54v13.08c1.52-.56,2.92-1.36,4.17-2.33v-10.75h5.96c.05-.5.08-1.02.08-1.54,0-.71-.06-1.38-.15-2.06ZM34.53,28.61h-5.9v-10.24c-1.24-.97-2.65-1.75-4.16-2.31v12.56h-4.54v3.61h4.54v13.08c1.52-.56,2.92-1.36,4.17-2.33v-10.75h5.96c.05-.5.08-1.02.08-1.54,0-.71-.06-1.38-.15-2.06ZM14.11,15.89v29.57c.93.32,1.91.54,2.92.67V15.22c-1.01.13-1.98.36-2.92.67ZM8.29,19.41v22.53c.88.84,1.86,1.57,2.91,2.19v-26.91c-1.05.63-2.03,1.36-2.91,2.2ZM3.47,30.67c0,2.71.69,5.25,1.9,7.48v-14.96c-1.22,2.23-1.9,4.78-1.9,7.49ZM3.47,30.67c0,2.71.69,5.25,1.9,7.48v-14.96c-1.22,2.23-1.9,4.78-1.9,7.49ZM8.29,19.41v22.53c.88.84,1.86,1.57,2.91,2.19v-26.91c-1.05.63-2.03,1.36-2.91,2.2ZM14.11,15.89v29.57c.93.32,1.91.54,2.92.67V15.22c-1.01.13-1.98.36-2.92.67ZM34.53,28.61h-5.9v-10.24c-1.24-.97-2.65-1.75-4.16-2.31v12.56h-4.54v3.61h4.54v13.08c1.52-.56,2.92-1.36,4.17-2.33v-10.75h5.96c.05-.5.08-1.02.08-1.54,0-.71-.06-1.38-.15-2.06ZM34.53,28.61h-5.9v-10.24c-1.24-.97-2.65-1.75-4.16-2.31v12.56h-4.54v3.61h4.54v13.08c1.52-.56,2.92-1.36,4.17-2.33v-10.75h5.96c.05-.5.08-1.02.08-1.54,0-.71-.06-1.38-.15-2.06ZM14.11,15.89v29.57c.93.32,1.91.54,2.92.67V15.22c-1.01.13-1.98.36-2.92.67ZM8.29,19.41v22.53c.88.84,1.86,1.57,2.91,2.19v-26.91c-1.05.63-2.03,1.36-2.91,2.2ZM3.47,30.67c0,2.71.69,5.25,1.9,7.48v-14.96c-1.22,2.23-1.9,4.78-1.9,7.49ZM3.47,30.67c0,2.71.69,5.25,1.9,7.48v-14.96c-1.22,2.23-1.9,4.78-1.9,7.49ZM8.29,19.41v22.53c.88.84,1.86,1.57,2.91,2.19v-26.91c-1.05.63-2.03,1.36-2.91,2.2ZM14.11,15.89v29.57c.93.32,1.91.54,2.92.67V15.22c-1.01.13-1.98.36-2.92.67ZM34.53,28.61h-5.9v-10.24c-1.24-.97-2.65-1.75-4.16-2.31v12.56h-4.54v3.61h4.54v13.08c1.52-.56,2.92-1.36,4.17-2.33v-10.75h5.96c.05-.5.08-1.02.08-1.54,0-.71-.06-1.38-.15-2.06ZM34.53,28.61h-5.9v-10.24c-1.24-.97-2.65-1.75-4.16-2.31v12.56h-4.54v3.61h4.54v13.08c1.52-.56,2.92-1.36,4.17-2.33v-10.75h5.96c.05-.5.08-1.02.08-1.54,0-.71-.06-1.38-.15-2.06ZM14.11,15.89v29.57c.93.32,1.91.54,2.92.67V15.22c-1.01.13-1.98.36-2.92.67ZM8.29,19.41v22.53c.88.84,1.86,1.57,2.91,2.19v-26.91c-1.05.63-2.03,1.36-2.91,2.2ZM3.47,30.67c0,2.71.69,5.25,1.9,7.48v-14.96c-1.22,2.23-1.9,4.78-1.9,7.49ZM3.47,30.67c0,2.71.69,5.25,1.9,7.48v-14.96c-1.22,2.23-1.9,4.78-1.9,7.49ZM8.29,19.41v22.53c.88.84,1.86,1.57,2.91,2.19v-26.91c-1.05.63-2.03,1.36-2.91,2.2ZM14.11,15.89v29.57c.93.32,1.91.54,2.92.67V15.22c-1.01.13-1.98.36-2.92.67ZM34.53,28.61h-5.9v-10.24c-1.24-.97-2.65-1.75-4.16-2.31v12.56h-4.54v3.61h4.54v13.08c1.52-.56,2.92-1.36,4.17-2.33v-10.75h5.96c.05-.5.08-1.02.08-1.54,0-.71-.06-1.38-.15-2.06ZM34.53,28.61h-5.9v-10.24c-1.24-.97-2.65-1.75-4.16-2.31v12.56h-4.54v3.61h4.54v13.08c1.52-.56,2.92-1.36,4.17-2.33v-10.75h5.96c.05-.5.08-1.02.08-1.54,0-.71-.06-1.38-.15-2.06ZM14.11,45.46c.93.32,1.91.54,2.92.67V15.22c-1.01.13-1.98.36-2.92.67v29.57ZM8.29,41.94c.88.84,1.86,1.57,2.91,2.19v-26.91c-1.05.63-2.03,1.36-2.91,2.2v22.53ZM5.38,38.15v-14.96c-1.22,2.23-1.9,4.78-1.9,7.49s.69,5.25,1.9,7.48ZM32.08,9.36C28.72,3.92,24.1.61,19.07.62c-5.03,0-9.64,3.31-13,8.75C2.71,14.8.61,22.34.62,30.67c0,8.34,2.09,15.88,5.45,21.31,3.37,5.43,7.97,8.75,13,8.74,5.04,0,9.65-3.31,13-8.74,3.37-5.44,5.46-12.97,5.45-21.31,0-8.33-2.08-15.87-5.45-21.31ZM19.07,59c-9.44-.05-16.81-12.78-16.83-28.33.02-15.54,7.39-28.28,16.83-28.33,9.44.05,16.81,12.78,16.82,28.33,0,15.54-7.39,28.28-16.82,28.33ZM34.53,28.61h-5.9v-10.24c-1.24-.97-2.65-1.75-4.16-2.31v12.56h-4.54v3.61h4.54v13.08c1.52-.56,2.92-1.36,4.17-2.33v-10.75h5.96c.05-.5.08-1.02.08-1.54,0-.71-.06-1.38-.15-2.06ZM14.11,45.46c.93.32,1.91.54,2.92.67V15.22c-1.01.13-1.98.36-2.92.67v29.57ZM8.29,41.94c.88.84,1.86,1.57,2.91,2.19v-26.91c-1.05.63-2.03,1.36-2.91,2.2v22.53ZM5.38,38.15v-14.96c-1.22,2.23-1.9,4.78-1.9,7.49s.69,5.25,1.9,7.48ZM3.47,30.67c0,2.71.69,5.25,1.9,7.48v-14.96c-1.22,2.23-1.9,4.78-1.9,7.49ZM8.29,19.41v22.53c.88.84,1.86,1.57,2.91,2.19v-26.91c-1.05.63-2.03,1.36-2.91,2.2ZM14.11,15.89v29.57c.93.32,1.91.54,2.92.67V15.22c-1.01.13-1.98.36-2.92.67ZM34.53,28.61h-5.9v-10.24c-1.24-.97-2.65-1.75-4.16-2.31v12.56h-4.54v3.61h4.54v13.08c1.52-.56,2.92-1.36,4.17-2.33v-10.75h5.96c.05-.5.08-1.02.08-1.54,0-.71-.06-1.38-.15-2.06ZM34.53,28.61h-5.9v-10.24c-1.24-.97-2.65-1.75-4.16-2.31v12.56h-4.54v3.61h4.54v13.08c1.52-.56,2.92-1.36,4.17-2.33v-10.75h5.96c.05-.5.08-1.02.08-1.54,0-.71-.06-1.38-.15-2.06ZM14.11,15.89v29.57c.93.32,1.91.54,2.92.67V15.22c-1.01.13-1.98.36-2.92.67ZM8.29,19.41v22.53c.88.84,1.86,1.57,2.91,2.19v-26.91c-1.05.63-2.03,1.36-2.91,2.2ZM3.47,30.67c0,2.71.69,5.25,1.9,7.48v-14.96c-1.22,2.23-1.9,4.78-1.9,7.49ZM3.47,30.67c0,2.71.69,5.25,1.9,7.48v-14.96c-1.22,2.23-1.9,4.78-1.9,7.49ZM8.29,19.41v22.53c.88.84,1.86,1.57,2.91,2.19v-26.91c-1.05.63-2.03,1.36-2.91,2.2ZM14.11,15.89v29.57c.93.32,1.91.54,2.92.67V15.22c-1.01.13-1.98.36-2.92.67ZM34.53,28.61h-5.9v-10.24c-1.24-.97-2.65-1.75-4.16-2.31v12.56h-4.54v3.61h4.54v13.08c1.52-.56,2.92-1.36,4.17-2.33v-10.75h5.96c.05-.5.08-1.02.08-1.54,0-.71-.06-1.38-.15-2.06ZM34.53,28.61h-5.9v-10.24c-1.24-.97-2.65-1.75-4.16-2.31v12.56h-4.54v3.61h4.54v13.08c1.52-.56,2.92-1.36,4.17-2.33v-10.75h5.96c.05-.5.08-1.02.08-1.54,0-.71-.06-1.38-.15-2.06ZM14.11,15.89v29.57c.93.32,1.91.54,2.92.67V15.22c-1.01.13-1.98.36-2.92.67ZM8.29,19.41v22.53c.88.84,1.86,1.57,2.91,2.19v-26.91c-1.05.63-2.03,1.36-2.91,2.2ZM3.47,30.67c0,2.71.69,5.25,1.9,7.48v-14.96c-1.22,2.23-1.9,4.78-1.9,7.49ZM3.47,30.67c0,2.71.69,5.25,1.9,7.48v-14.96c-1.22,2.23-1.9,4.78-1.9,7.49ZM8.29,19.41v22.53c.88.84,1.86,1.57,2.91,2.19v-26.91c-1.05.63-2.03,1.36-2.91,2.2ZM14.11,15.89v29.57c.93.32,1.91.54,2.92.67V15.22c-1.01.13-1.98.36-2.92.67ZM34.53,28.61h-5.9v-10.24c-1.24-.97-2.65-1.75-4.16-2.31v12.56h-4.54v3.61h4.54v13.08c1.52-.56,2.92-1.36,4.17-2.33v-10.75h5.96c.05-.5.08-1.02.08-1.54,0-.71-.06-1.38-.15-2.06ZM34.53,28.61h-5.9v-10.24c-1.24-.97-2.65-1.75-4.16-2.31v12.56h-4.54v3.61h4.54v13.08c1.52-.56,2.92-1.36,4.17-2.33v-10.75h5.96c.05-.5.08-1.02.08-1.54,0-.71-.06-1.38-.15-2.06ZM14.11,15.89v29.57c.93.32,1.91.54,2.92.67V15.22c-1.01.13-1.98.36-2.92.67ZM8.29,19.41v22.53c.88.84,1.86,1.57,2.91,2.19v-26.91c-1.05.63-2.03,1.36-2.91,2.2ZM3.47,30.67c0,2.71.69,5.25,1.9,7.48v-14.96c-1.22,2.23-1.9,4.78-1.9,7.49ZM3.47,30.67c0,2.71.69,5.25,1.9,7.48v-14.96c-1.22,2.23-1.9,4.78-1.9,7.49ZM8.29,19.41v22.53c.88.84,1.86,1.57,2.91,2.19v-26.91c-1.05.63-2.03,1.36-2.91,2.2ZM14.11,15.89v29.57c.93.32,1.91.54,2.92.67V15.22c-1.01.13-1.98.36-2.92.67ZM34.53,28.61h-5.9v-10.24c-1.24-.97-2.65-1.75-4.16-2.31v12.56h-4.54v3.61h4.54v13.08c1.52-.56,2.92-1.36,4.17-2.33v-10.75h5.96c.05-.5.08-1.02.08-1.54,0-.71-.06-1.38-.15-2.06ZM34.53,28.61h-5.9v-10.24c-1.24-.97-2.65-1.75-4.16-2.31v12.56h-4.54v3.61h4.54v13.08c1.52-.56,2.92-1.36,4.17-2.33v-10.75h5.96c.05-.5.08-1.02.08-1.54,0-.71-.06-1.38-.15-2.06ZM14.11,15.89v29.57c.93.32,1.91.54,2.92.67V15.22c-1.01.13-1.98.36-2.92.67ZM8.29,19.41v22.53c.88.84,1.86,1.57,2.91,2.19v-26.91c-1.05.63-2.03,1.36-2.91,2.2ZM3.47,30.67c0,2.71.69,5.25,1.9,7.48v-14.96c-1.22,2.23-1.9,4.78-1.9,7.49ZM3.47,30.67c0,2.71.69,5.25,1.9,7.48v-14.96c-1.22,2.23-1.9,4.78-1.9,7.49ZM8.29,19.41v22.53c.88.84,1.86,1.57,2.91,2.19v-26.91c-1.05.63-2.03,1.36-2.91,2.2ZM14.11,15.89v29.57c.93.32,1.91.54,2.92.67V15.22c-1.01.13-1.98.36-2.92.67ZM34.53,28.61h-5.9v-10.24c-1.24-.97-2.65-1.75-4.16-2.31v12.56h-4.54v3.61h4.54v13.08c1.52-.56,2.92-1.36,4.17-2.33v-10.75h5.96c.05-.5.08-1.02.08-1.54,0-.71-.06-1.38-.15-2.06ZM34.53,28.61h-5.9v-10.24c-1.24-.97-2.65-1.75-4.16-2.31v12.56h-4.54v3.61h4.54v13.08c1.52-.56,2.92-1.36,4.17-2.33v-10.75h5.96c.05-.5.08-1.02.08-1.54,0-.71-.06-1.38-.15-2.06ZM14.11,15.89v29.57c.93.32,1.91.54,2.92.67V15.22c-1.01.13-1.98.36-2.92.67ZM8.29,19.41v22.53c.88.84,1.86,1.57,2.91,2.19v-26.91c-1.05.63-2.03,1.36-2.91,2.2ZM3.47,30.67c0,2.71.69,5.25,1.9,7.48v-14.96c-1.22,2.23-1.9,4.78-1.9,7.49Z" fill="#969696"/>
      </g>
      <g>
        <path d="M56.87,10.03v-.02c-.09-.58-.29-1.12-.6-1.59-.64-.98-1.67-1.56-2.77-1.56h-.38c-.52,0-1.02.12-1.49.37-1.01.54-1.72,1.59-1.89,2.83l-2.64,19.13v.08s3.58,0,3.58,0l.82-6.27h3.58l.67,6.21v.06h3.71l-2.59-19.2s0-.03,0-.04h0ZM54.75,20.26h-2.87l1.12-9.96s.02-.17.24-.17c.1,0,.22.03.24.17l1.27,9.96Z" fill="#444"/>
        <path d="M65.86,6.86c-3.75,0-5.49,1.56-5.49,4.91v12.98c0,3.35,1.75,4.91,5.49,4.91s5.41-1.56,5.41-4.91v-1.93h-3.73v2.27c0,1.27-.42,1.7-1.68,1.7s-1.68-.43-1.68-1.7v-13.67c0-1.27.42-1.7,1.68-1.7s1.68.43,1.68,1.7v2.21h3.73v-1.86c0-3.35-1.72-4.91-5.41-4.91h0Z" fill="#444"/>
        <path d="M92.25,6.77c-1.59,0-2.92.49-3.77,1.39-.85-.9-2.18-1.39-3.77-1.39-3.31,0-4.99,1.59-4.99,4.73v17.78h3.81V11.3c0-1.09.42-1.52,1.52-1.52s1.52.42,1.52,1.52v17.98h3.81V11.3c0-1.09.42-1.52,1.52-1.52s1.52.42,1.52,1.52v17.98h3.81V11.5c0-3.14-1.68-4.73-4.99-4.73h0Z" fill="#444"/>
        <rect x="99.09" y="6.97" width="3.81" height="22.3" fill="#444"/>
        <path d="M109.69,29.27h7.48l.82-6.27h3.58l.67,6.21v.06h3.71l-2.59-19.2s0-.03,0-.04v-.02c-.09-.58-.29-1.12-.6-1.59-.64-.98-1.67-1.56-2.77-1.56h-.38c-.52,0-1.02.12-1.49.37-1.01.54-1.72,1.59-1.89,2.83l-2.26,16.35h-3.88c-1.08,0-1.54-.42-1.54-1.42V6.97h-3.81v17.7c0,2.8,1.94,4.61,4.95,4.61h0ZM118.37,20.26l1.12-9.97s.02-.17.24-.17c.1,0,.22.03.24.17l1.27,9.96h-2.87Z" fill="#444"/>
        <path d="M130.73,11.45c0-1.33.52-1.82,1.92-1.82s1.92.49,1.92,1.82v17.82h3.81V11.76c0-3.4-1.82-4.99-5.73-4.99s-5.73,1.59-5.73,4.99v17.51h3.81V11.45Z" fill="#444"/>
        <path d="M56.87,36.27v-.02c-.09-.58-.29-1.12-.6-1.59-.64-.98-1.67-1.56-2.77-1.56h-.38c-.52,0-1.02.12-1.49.37-1.01.54-1.72,1.59-1.89,2.83l-2.64,19.13v.08s3.58,0,3.58,0l.82-6.27h3.58l.67,6.21v.06h3.71l-2.59-19.2s0-.03,0-.04h0ZM54.75,46.5h-2.87l1.12-9.96s.02-.17.24-.17c.1,0,.22.03.24.17l1.27,9.96Z" fill="#444"/>
        <path d="M65.86,33.1c-3.75,0-5.49,1.56-5.49,4.91v12.98c0,3.35,1.75,4.91,5.49,4.91s5.41-1.56,5.41-4.91v-1.93h-3.73v2.27c0,1.27-.42,1.7-1.68,1.7s-1.68-.43-1.68-1.7v-13.67c0-1.27.42-1.7,1.68-1.7s1.68.43,1.68,1.7v2.21h3.73v-1.86c0-3.35-1.72-4.91-5.41-4.91h0Z" fill="#444"/>
        <path d="M81.46,36.27v-.02c-.09-.58-.29-1.12-.6-1.59-.64-.98-1.67-1.56-2.77-1.56h-.38c-.52,0-1.02.12-1.49.37-1.01.54-1.72,1.59-1.89,2.83l-2.64,19.13v.08s3.58,0,3.58,0l.82-6.27h3.58l.67,6.21v.06h3.71l-2.59-19.2s0-.03,0-.04h0ZM79.34,46.5h-2.87l1.12-9.96s.02-.17.24-.17c.1,0,.22.03.24.17l1.27,9.96Z" fill="#444"/>
        <path d="M91.04,33.21h-5.94v22.3h5.94c3.44,0,5.33-1.77,5.33-4.99v-12.32c0-3.22-1.89-4.99-5.33-4.99h0ZM88.92,36.07h2.12c1.11,0,1.52.49,1.52,1.82v12.93c0,1.33-.41,1.82-1.52,1.82h-2.12v-16.57h0Z" fill="#444"/>
        <path d="M100.4,33.78c-1.63.8-2.49,2.38-2.49,4.58v11.96c0,3.35,1.96,5.19,5.53,5.19h3.6v-2.86h-3.6c-1.17,0-1.72-.51-1.72-1.62v-6.58h5.01v-2.86h-5.01v-3.93c0-.74.25-1.22.76-1.45.25-.11.57-.17.96-.17h3.6v-2.86h-3.6c-1.19,0-2.21.2-3.03.61h0Z" fill="#444"/>
        <path d="M120.72,33.01c-1.59,0-2.92.49-3.77,1.39-.85-.9-2.18-1.39-3.77-1.39-3.31,0-4.99,1.59-4.99,4.73v17.78h3.81v-17.98c0-1.09.42-1.52,1.52-1.52s1.52.42,1.52,1.52v17.98h3.81v-17.98c0-1.09.42-1.52,1.52-1.52s1.52.42,1.52,1.52v17.98h3.81v-17.78c0-3.14-1.68-4.73-4.99-4.73h0Z" fill="#444"/>
        <path d="M134.61,33.21v12.26c0,.82-.2,1.3-.66,1.56-.28.15-.67.23-1.2.23-1.36,0-1.86-.48-1.86-1.78v-12.26h-3.77v11.96c0,2.67,1.25,4.28,3.73,4.77v5.57h3.81v-5.57c.46-.09.88-.23,1.26-.4,1.64-.74,2.47-2.21,2.47-4.38v-11.96h-3.77Z" fill="#444"/>
      </g>
    </g>
  </g>
</svg>