<?xml version="1.0" encoding="UTF-8"?>
<svg id="Layer_2" data-name="Layer 2" xmlns="http://www.w3.org/2000/svg" viewBox="0 0 71.97 72.04">
  <g id="Layer_1-2" data-name="Layer 1">
    <g>
      <polygon points="10 46.39 13.49 46.38 11.78 42.82 10 46.39" fill="#606060"/>
      <path d="M0,0v72.04h71.97V0H0ZM47.52,18.91c.07-.25.5-.31.72-.3l.82.03-.24.83c-.12.41-.36.57-.84.55l-.77-.02.31-1.09ZM48.06,21.13c.37.14.8.21,1.2.24-.68,1.07-.57,2.25-1.99,1.94l-1.36-.3c.23-.33.44-.75.56-1.13.23-.73.88-1.01,1.58-.75ZM48.97,25.05c-.78.63-.98,1.57-1.68,1.8-.83.26-1.5-.58-2.5-.79.8-.56.93-1.53,1.71-1.76.97-.28,1.41.64,2.47.75ZM45.1,16.21c.02-.36.16-.68.54-.74l.96-.15-.07.8c-.03.41-.2.68-.66.75l-.82.12.05-.78ZM46.59,17.64c-.16.55-.15,1.1-.08,1.63.13,1-.48,1.73-1.49,1.79-.55.03-1.07.15-1.54.39.13-.57.16-1.12.07-1.66-.15-.95.5-1.64,1.45-1.73.54-.05,1.09-.16,1.59-.42ZM42.48,14.79c.49-.23.95-.49,1.33-.85.05.57.22,1.1.44,1.61.37.82.09,1.71-.78,2.02-.49.24-.97.51-1.42.87-.1-.58-.28-1.14-.5-1.68-.33-.84.06-1.72.92-1.98ZM42.61,22.68c-.41.67-1.52.54-2.37,1.05,0-.55-.04-1.09-.14-1.6-.17-.84.33-1.52,1.17-1.66.5-.08.98-.27,1.43-.53-.23,1.04.45,1.85-.09,2.73ZM39.98,12.5c.31-.19.57-.49.8-.8.15.39.35.8.61,1.15.78,1.09-.48,1.61-1.18,2.4-.13-.36-.33-.72-.56-1.01-.47-.6-.3-1.35.33-1.74ZM39.15,17.24c.41-.26.78-.59,1.1-1,.16.53.41,1.01.73,1.45.5.7.32,1.57-.41,2.02l-1.18,1.02c-.17-.52-.48-1.01-.76-1.46-.5-.78-.2-1.57.52-2.03ZM35.43,25.27c.89-1.07,2.57-1.08,3.53-.02.92,1.01.76,2.73-.44,3.49l1.04,7.8h-4.61s.97-7.76.97-7.76c-1.2-.8-1.4-2.42-.49-3.51ZM36.35,20.13c.37-.31.64-.73.84-1.15.27.49.59.92.99,1.3.54.52.6,1.41.04,1.95-.41.39-.77.82-1.02,1.33-.27-.47-.62-.9-1-1.3-.63-.64-.52-1.57.15-2.14ZM36.56,11.1l.63-.82c.3.61,1.08.93.57,1.58l-.56.7c-.31-.52-1.03-.95-.64-1.47ZM36.09,14.47c.45-.43.85-.92,1.1-1.49.28.58.65,1.07,1.09,1.49.75.71.78,1.75,0,2.45-.42.41-.77.86-1.1,1.47-.25-.52-.64-1.03-1.1-1.46-.76-.72-.75-1.73,0-2.44ZM35.65,19.44c-.3.41-.5.83-.67,1.38-.48-.92-1.56-1.01-1.81-1.95-.26-.96.73-1.56.96-2.65.33.47.77.8,1.22,1.11.76.52.83,1.4.3,2.12ZM34.14,23.63s.03.05.06.08l-.03.08-.07-.08c-.46-.21-.96-.37-1.47-.49-.8-.18-1.24-.85-1.06-1.66.11-.52.16-1.05.12-1.61.47.29.98.43,1.49.54.81.17,1.28.83,1.11,1.67-.09.45-.17,1.1-.14,1.48ZM32.98,12.86l.63-1.11c.25.31.53.6.83.79.61.39.74,1.08.31,1.66-.24.33-.47.74-.57,1.1-.74-.96-1.93-1.13-1.2-2.43ZM30.55,13.95c.36.34.81.63,1.29.81.86.32,1.35,1.12.97,2.04-.21.5-.44,1.02-.51,1.64-.74-.71-1.81-.75-2.21-1.54-.5-.97.44-1.71.46-2.95ZM28.66,15.46c.43.07.59.42.61.82l.03.68-.84-.1c-.41-.05-.61-.32-.63-.73l-.04-.8.87.14ZM29.45,18.06c.82.08,1.41.69,1.36,1.54-.04.6-.12,1.22.09,1.85-.96-.55-2.04-.21-2.62-.84-.83-.89-.1-1.77-.5-2.92.56.19,1.1.32,1.67.37ZM26.18,18.61c.46-.02.67.19.77.61l.2.79c-.81-.08-1.38.3-1.6-.53l-.22-.83.85-.04ZM27.33,21.17c.65.35.59,1.22,1.13,1.85-.46.05-.9.15-1.34.28-1.45.43-1.38-1.06-2.07-1.95.98.04,1.55-.57,2.27-.18ZM28.39,26.55c-.39.27-.76.38-1.25.32-.86-.27-.91-1.15-1.73-1.79,1.01-.2,1.55-1.01,2.41-.81.8.19.94,1.27,1.77,1.79-.44.09-.81.24-1.21.49ZM29.62,27.13l.87.14-.28.74c-.2.53-.49.88-1.1.78l-.96-.15.34-.9c.19-.51.59-.7,1.13-.62ZM15.51,50.94l-1.27-2.76h-5s-1.26,2.74-1.26,2.74h-2.38s5.28-11,5.28-11h2.02s2.26,4.65,2.26,4.65l3.05,6.35-2.7.02ZM30.59,47.88c-.1.89-.68,1.86-1.62,2.36-2.73,1.46-5.99.65-8.75-.46l.97-1.89c1.99,1,5.53,2.01,6.82.31.21-.27.31-.62.19-.93-.08-.23-.41-.5-.74-.55l-4.43-.59c-.67-.09-1.31-.45-1.75-.93-.73-.78-.92-1.84-.67-2.93.2-.85.89-1.65,1.82-2.07,2.61-1.17,5.29-.36,7.87.6l-.9,1.88c-1.73-.98-5.91-1.84-6.57-.08-.08.22-.04.63.1.79.12.14.39.33.63.36l3.91.5c1.98.25,3.35,1.63,3.12,3.61ZM29.84,24.86c-.12-.42-.29-.86-.57-1.23,1.19-.03,2.5-.88,2.96.51.16.48.38.95.63,1.36-.44.02-.93.11-1.4.26-.77.24-1.39-.16-1.61-.9ZM31.3,28.97c.05-.35.09-.74.03-1.08-.11-.66.32-1.17.99-1.28l1.2-.19c-.2,1.12.32,2.11-1.05,2.34l-1.17.21ZM42.89,48.3c-.21.92-.91,1.73-1.9,2.15-2.82,1.17-5.61.4-8.34-.64l.95-1.9c1.98.98,5.55,2.01,6.85.29.19-.25.28-.62.18-.88-.5-1.29-4.87-.34-6.72-1.9-.82-.69-1.14-1.74-.96-2.8.39-2.35,3.11-3.17,5.23-2.96,1.58.16,3.05.56,4.53,1.19l-.91,1.86c-1.67-.94-5.23-1.71-6.38-.4-.25.28-.31.64-.17.97.1.23.45.45.78.5l3.96.52c.82.11,1.55.43,2.16,1.01.79.76,1.01,1.88.75,3ZM40.92,27.6l-.05-1.22c.35.17.79.2,1.16.24.7.09,1.05.56.98,1.23-.04.35,0,.77.05,1.16-1.23-.4-2.09-.01-2.14-1.41ZM43,25.77c-.46-.11-.94-.2-1.44-.2.58-1.06.59-2.59,2.04-2.21.45.12.94.21,1.45.21-.63,1.06-.56,2.54-2.05,2.19ZM44.25,28.25l-.38-1c.85-.02,1.66-.51,1.99.44l.34.97c-.85.02-1.6.5-1.95-.41ZM53.85,44.53l.02,1.85h-6.46s0,2.66,0,2.66l6.45.03v1.86s-8.8,0-8.8,0v-11.01s8.8,0,8.8,0v1.88s-.75.06-.75.06h-5.14c-.18,0-.39-.11-.54.03l-.02,2.63h6.44ZM62.29,41.88v9.05s-2.47,0-2.47,0v-9.05s-3.91,0-3.91,0v-1.95s9.96,0,9.96,0v1.95s-3.58,0-3.58,0Z" fill="#606060"/>
    </g>
  </g>
</svg>