<?xml version="1.0" encoding="UTF-8"?>
<svg id="Layer_2" data-name="Layer 2" xmlns="http://www.w3.org/2000/svg" viewBox="0 0 201.84 74.2">
  <g id="Layer_1-2" data-name="Layer 1">
    <g>
      <path d="M197.7,26.22c1.88-.61,3.7.57,4.05,2.28.38,1.82-.43,3.42-2.34,4.04-1.48.48-3.43-.49-3.9-2.14-.49-1.68.28-3.56,2.19-4.18ZM201.32,30.06c.27-1.49-.18-2.88-1.41-3.36s-2.55-.28-3.4.73-.95,2.22-.31,3.39c.52.95,1.57,1.65,2.87,1.41,1.05-.19,2-.78,2.25-2.16Z" fill="#606060"/>
      <path d="M84.66,44.31l-3.86-14.8h108.5c5.33.82,9.24,4.75,9.5,10.14v24.55c-.19,5.18-3.74,8.94-8.86,9.9h-98.85c-4.92-2.46-10.27-2.45-15.18-.11-.67.32-2.06.09-2.83.05l-7.08-51.72c-.74.26-1.35.55-1.97.97l6.52,50.77h-2.14s-2.37-21.67-2.37-21.67l-2.88-27.51c-.84,1.12-1.02,2.01-.9,3.3l4.31,45.9h-2.9c-.11-1.93-.09-4.07-.5-5.93l-8.73-12.21-8.69,11.97-.54,6.23-2.67-.13,4.28-46.56-1.01-1.96-5.13,48.56-2.16-.09,6.37-50.35c-.55-.61-1.15-1.01-1.85-1.15l-7.13,51.53c-.73.11-2.29.38-2.92.05-4.97-2.56-10-2.08-15.09-.13-2.77.48-6.01.27-8.91.08C4.06,73.67-.02,69.62,0,64.7l.08-26.36c.01-4.63,4.06-8.71,8.59-8.73l19.67-.1c-1.7,5.13-3.21,9.99-4.25,15.21,2.6-6.93,4.49-14.01,6.64-21.09-.63-.65-.66-1.43-.14-2.1,5.77-2.89,10.8-2.8,15.5,1.24-.21.05-.7.16-.66.23l.34.49c1.24,1.77,2.87,3.6,3.77,5.45-.61.56-1.09,1.3-1.15,2.2l-1.21,17.23,14.68.03-1.34-18.63c-2.37-1.57,1.38-1.81.41-5.36-.9-3.26-.31-6.95,2.39-9.21,2.63-2.2,6.46-2.36,9.48-1.12l2.65,1.09c.11,1.69.49,3.13,1.05,4.61l-2.9-1.01-1.26-3.75c-.08-.24-.53-.5-.97-.67l.75,4.13-1.76-.04-.95-4.11c-.13-.31-1.26-.26-1.45.05l.51,4.36-2.31.68-.39-4.44c-.64.12-1.52.52-1.71.95l.29,4.16-1.22,1.14-.31-4.87c-.38.31-1.04,1.1-1.03,1.62.04,2.79-.22,5.08-.44,8.01l1.72-3.28c3.75-3.85,9.74-4.11,14.47-1.39.45.26,1.01.5,1.22.79s.25,1.2.19,1.45l-.32-.51c-.05-.07-.28.03-.28.11l.03.45c1.77,7.01,3.77,13.84,6.03,20.71l.21-.02ZM74.99,17.36c.23-.67.1-1.19-.33-1.65l.33,1.65ZM75.24,17.56v.15s0,.15,0,.15v.15s0-.15,0-.15v-.3ZM40.53,23.23l-.21-1.72c-.04-.29-.71-.5-1.11-.5l-.55,2.34-3.07-.58c.34-.4.6-1.66.15-1.65-1.01.06-1.05,1.61-1.56,2.1-.9.87-2.07,1.31-2.3,2.65,3.03-2.32,7.06-1.97,9.67.68.16-1.22-.86-2.14-1.01-3.32ZM74.55,23.07c-.51-.68-.33-1.98-1.59-2.04l.13,1.74-2.74.32-.6-1.99c-2.13-.23-.4,1.63-2,3.57-.43.52-.7,1.17-.67,1.88,2.65-2.77,6.55-2.83,9.97-.91-.44-1.19-1.76-1.57-2.51-2.56ZM40.71,29.99c-1.56-3.48-5.92-3.94-8.66-1.96-.52.53-.87,1.02-1.03,1.81,3.03-2.03,6.44-1.68,9.69.15ZM77.85,29.9c-.57-2.4-2.79-3.03-4.75-3.07-2.01.11-4.11.88-4.78,3.05,3.21-1.92,6.71-1.91,9.52.02ZM39.94,34.24c-.99-2.49-3.47-3.23-5.74-3.15-2.03.09-3.98,1.02-4.57,3.13,3.22-2.14,7.18-1.9,10.31.03ZM79.31,34.32c-.44-2.41-2.77-3.24-4.87-3.23-2.22.01-4.8.74-5.38,3.13,3.36-2.01,7.13-2.03,10.26.1ZM129.76,46.96v-3.43s-12.58,0-12.58,0c.12-2.44,2.11-4.54,4.63-4.55l8.27-.05v-3.86s-9.04.06-9.04.06c-5.73.04-9.35,4.52-9.45,10.01-.11,5.65,3.42,10.05,9.32,10.42l9.16.11v-3.84c-5.81-.23-11.58,1.48-12.92-4.84h12.62ZM149.36,52.01l-7.91-.03c-2.17-.22-3.64-1.66-3.64-3.85v-13.04s-5.21-.01-5.21-.01l.05,13.73c.01,3.83,2.99,6.73,6.79,6.77l9.94.1-.03-3.67ZM167.3,52.01l-7.9-.07c-2.1-.02-3.79-1.67-3.79-3.82l-.03-13.02-5.01-.04.02,13.51c0,3.89,2.87,6.93,6.84,6.98l9.87.13v-3.67ZM184.13,50.61l2.15,5.04,5.47-.03-9.1-20.5h-5.65s-8.84,20.49-8.84,20.49l5.05.05,2.2-5.09,8.73.03ZM106.28,45.1c2.07-.67,3.37-2.09,3.6-3.78.26-1.97-.46-3.62-2.06-4.76-1.28-.83-2.82-1.3-4.41-1.3h-11.96s0,20.41,0,20.41l12.5-.04c2.07,0,3.98-.82,5.34-2.26,1.18-1.57,1.54-3.24.83-5.09-.58-1.51-1.9-2.52-3.84-3.18ZM39.11,38.47c-1.26-2.64-4.19-3.23-6.75-2.98-1.92.23-3.74,1.2-3.95,3.22,3.25-2.28,7.15-1.94,10.7-.24ZM80.61,38.8c-.37-2.56-2.67-3.31-4.8-3.36-2.44-.05-5.19.63-6.13,3.19,3.72-2.01,7.58-2.06,10.93.17ZM38.32,43.06c-.23-1.27-1.04-1.86-1.92-2.43-3.33-1.84-8.83-1.41-9.3,2.29,3.47-2.2,7.74-1.91,11.22.15ZM82.06,43.04c-.33-2.41-2.54-3.24-4.63-3.43-2.73-.25-5.65.59-6.78,3.28,3.75-1.95,7.94-2.08,11.41.16ZM37.96,47.32c-1.97-3.27-5.99-3.8-9.28-3.09-1.76.38-3.17,1.71-3.18,3.35,3.78-2.54,8.57-2.16,12.46-.26ZM83.66,47.44c-.42-2.47-2.72-3.28-4.86-3.45-3.01-.23-6.25.55-7.89,3.33,4.22-2.02,8.74-2.12,12.75.11ZM84.64,44.58h0c.07.44.06.35,0,0ZM37.27,51.36c-2.9-3.2-8.13-4.15-12.01-1.84-.88.52-1.18,1.95-1.36,2.68,4.03-2.69,9.04-2.59,13.19-.64l.18-.2ZM85,52.06c-.07-.88-.42-2.01-1.23-2.5-3.84-2.29-9.41-1.6-12,2.26,4.46-2.14,9.15-2.31,13.23.24ZM37.35,51.55l-.08.21.08-.21ZM53.71,52.51l.07-.96h-6.89s-.03.95-.03.95h6.85ZM62.22,52.51v-.95s-7.26,0-7.26,0l.02.72c0,.14.44.23.6.23h6.65ZM36.35,55.72c-3.17-3.13-8.58-4.09-12.59-1.75-.93.54-1.12,1.94-1.29,2.89,3.93-2.77,9.39-2.6,13.66-.85l.23-.28ZM86.28,56.69c-.14-1.88-1.36-3.15-3.24-3.62-4.01-.99-8.43.03-10.88,3.35,4.72-2.14,9.7-2.37,14.12.26ZM53.11,53.48l-6.49-.05-.72,10.41,7.22-10.36ZM62.37,53.46l-6.46.03,7.13,10.38-.67-10.4ZM36.22,56.14l.25-.12c.09-.05-.18.09-.25.12ZM20.97,61.77c4.37-3.01,9.61-2.98,14.81-.99-3.3-3.82-9.28-4.56-13.53-2.1-.95.55-1,2.07-1.28,3.1ZM87.91,61.53c-.18-.79-.34-2.36-1.26-2.88-4.36-2.52-10.26-1.58-13.45,2.32,5.09-2,9.82-2.36,14.7.57ZM112.17,67.93l2.04-.04v-8.01s-2.7.02-2.7.02l-2.69,5.48-2.53-5.43-2.66-.09v8.04s2.08.01,2.08.01l-.04-5.24,2.42,5.21,1.6-.03,2.38-5.15.08,5.23ZM123.73,67.94l2.25-.05-3.79-7.96-2.26-.03-3.69,7.96c.84.06,1.67.13,2.01-.05s.48-.89.73-1.46l4.07-.05.69,1.65ZM134.66,66.42l-4.74.03.04-6.5-2.12-.05.02,8.02h6.76s.03-1.5.03-1.5ZM143.48,67.95l2.24-.06-3.78-7.95-2.24-.03-3.72,7.96c.89.06,1.66.11,2.06-.05.36-.14.48-.82.68-1.49l4.1-.03.65,1.66ZM155.49,60l-2.4-.12-2.27,3.54-2.26-3.45h-2.52s3.58,5.19,3.58,5.19v2.76s2.12,0,2.12,0l-.03-2.73,3.78-5.18ZM164.8,65.7c.02-.91-.64-2.02-1.8-2.27l-3.69-.79c-1.44-.31-.05-1.99,4.66-.79l.13-1.75c-2.79-.42-6.2-.77-7.16,1.26-.34.72-.32,1.81.33,2.31,1.77,1.36,3.81.73,5.17,1.67,1.36.94-1.78,1.8-5.44.75l-.06,1.74c3.33.46,7.77.89,7.85-2.13ZM167.55,59.9v8.05s2.21,0,2.21,0v-8.05s-2.21,0-2.21,0ZM178.69,66.36c.25.66.41,1.54.8,1.53l1.96-.04-3.69-7.91h-2.24s-3.67,7.9-3.67,7.9c.84.08,1.68.15,2-.05s.47-.92.73-1.44h4.09ZM35.29,65.47c-3.78-4.07-10.07-4.66-14.58-1.89-.82.5-.97,2.07-1.13,2.78,5.26-2.94,10.28-2.53,15.71-.89ZM89.39,66.47c-.15-.86-.3-2.39-1.18-2.94-4.42-2.73-10.75-2.12-14.34,1.99,5.31-1.65,10.68-2.22,15.53.95ZM34.18,70.24c-3.51-3.92-9.35-4.75-13.97-2.53-1.74.84-2.44,2.68-2.7,4.45,4.5-4.33,10.83-3.94,16.66-1.92ZM91.18,72.03c-.08-1.58-.61-2.57-1.39-3.67-4.72-2.9-11.22-2.52-14.98,1.87,6-2,11.67-2.41,16.37,1.8Z" fill="#606060"/>
      <path d="M67.53,12.31l-1.67.35-.3-3.45c-2.3.79.38,4.01-2.23,4.66l.07-3.55c-1.21,1.32-.14,3.63-1.84,4.99l.31-4c1.89-2.44,4.83-4.01,7.7-2.89l2.79,1.08,1.14,3.77-2.31-.71c-.57-1.21-.31-2.59-1.82-3.45l.64,3.32c-.23,0-1.01-.04-1.08-.3l-.39-1.31c-.26-.88-.06-2-1.44-2.22l.44,3.71ZM72.48,12.27l-.11.11.11.11.11-.11-.11-.11Z" fill="#606060"/>
      <path d="M67.87,6.86l-.3-.71c-.08-.18-.76-.36-.81-.16l-.22.93-2.8,1.2-.55.24-.64.41c1.68-2.78,2.28-5.22,2.05-8.71,1.08,2.18,1.92,3.85,3.83,5.13.87.58,1.46,1.46,1.85,2.52l-1.73-1.19-.21.69c-.04.12-.4-.24-.46-.36Z" fill="#606060"/>
      <rect x="62.51" y="9.08" width=".16" height=".16" transform="translate(11.85 46.95) rotate(-45)" fill="#606060"/>
      <path d="M42.61,19.45l-2.01-.75.57-4.39c-.16-.23-1.09-.24-1.36-.06l-.87,4.21h-1.91s1.08-4.35,1.08-4.35c-.83.14-1.35.69-1.56,1.42l-.87,3.08-3.22,1.22,1.15-4.36c3.6-2.76,8.59-3.01,12.06-.21.83,1.56,1.63,2.87,2.69,4.24.18,1.87.17,3.8-.52,5.62l-1-3.33c-.46-1.54.73-3.77-.78-4.32l-.3,4-1.22-1.23.62-4.27-1.96-1.22-.61,4.69Z" fill="#606060"/>
      <path d="M42.81,12.67l-1.56-.41.5-3.77c-1.37.19-1.21,1.35-1.46,2.27l-.37,1.34c-.08.29-.98.3-1.14.3l.6-3.42c-1.42.79-1.26,2.1-1.64,3.42l-2.32.96.96-2.68c.61-1.71,3.01-2.75,4.81-2.62,2.35.18,4.77,1.43,5.82,3.56l-.03,3.66c-1.26-1.62-.6-3.63-1.68-4.95l-.1,3.5c-2.39-1.08.07-4.06-2.07-4.82l-.32,3.65ZM46.5,12.04l-.11.11.11.11.11-.11-.11-.11ZM36.39,12.27l-.11.11.11.11.11-.11-.11-.11Z" fill="#606060"/>
      <path d="M46.01,8.77c-2.56-1.54-4.51-2.82-7.28-1.16.92-1.29,2.07-2.32,3.24-3.48,1.08-1.07,1.44-2.65,2.24-4.14.2,1.71-.05,3.55.59,5.14l1.44,3.56.06.18c.05-.13-.04.11-.08.2l-.21-.31Z" fill="#606060"/>
      <path d="M102.6,51.79l-6.09.04v-5.09s6.13.08,6.13.08c1.37.02,2.31,1.26,2.38,2.36.08,1.28-.88,2.6-2.42,2.61Z" fill="#606060"/>
      <path d="M102.59,43.51l-6.08.04v-4.5s6.39.13,6.39.13c1.22.03,1.78,1.2,1.75,2.16-.03.96-.73,2.15-2.06,2.16Z" fill="#606060"/>
      <polygon points="182.68 47.01 176.71 47.02 179.67 40.03 182.68 47.01" fill="#606060"/>
      <polygon points="122.39 64.78 119.7 64.8 121.1 61.88 122.39 64.78" fill="#606060"/>
      <polygon points="142.1 64.79 139.48 64.81 140.77 61.88 142.1 64.79" fill="#606060"/>
      <polygon points="177.94 64.8 175.35 64.8 176.63 61.92 177.94 64.8" fill="#606060"/>
      <path d="M200.21,30.88c-.06.17-.69.19-.79.02l-.48-.85-.35-.47c-.08-.11-.5-.06-.5.08v.8c0,.13-.06.48-.09.61s-.52-.12-.52-.25l.03-3.17c.54-.09,1.61-.1,2.13.08.25.09.68.77.54.98l-.67.97.7,1.21ZM198.15,28.11l-.03.94,1.4.05.03-.94-1.4-.05Z" fill="#606060"/>
    </g>
  </g>
</svg>