<?xml version="1.0" encoding="UTF-8"?>
<svg id="Layer_2" data-name="Layer 2" xmlns="http://www.w3.org/2000/svg" viewBox="0 0 258.45 78.34">
  <g id="Layer_1-2" data-name="Layer 1">
    <g>
      <path d="M125.28,5.81c-.76.07-1.43-.49-1.51-1.24-.07-.76.48-1.43,1.24-1.51.76-.07,1.43.49,1.51,1.24.07.75-.49,1.43-1.24,1.51M150.39,2.33c-9.15.88-16.65,2.55-19.42,3.36-2.41-4.6-6.58-3.72-9.26-3.95-1.74-.15-8.8-1.21-14.05-1.73-.15-.01-.26.1-.27.18,0,.09.11.24.32.27,3.26.59,3.63.65,9.24,1.7,4.93.93,5.09,1.99,6.14,4.8,4.08,11.27,12.09,22.48,12.71,23.28.63.82.74.93.87.88.15-.06.11-.49.07-.78-.21-1.87-1.56-10.15-2.07-13.86,9.09-4.82,15.29-12.32,15.82-12.91.53-.58.94-1.33-.11-1.23" fill="#606060"/>
      <g>
        <path d="M12.92,78.26c-1.48,0-2.9-.07-4.26-.21-1.36-.14-2.57-.29-3.63-.46-1.06-.17-1.93-.33-2.6-.48-.67-.15-1.05-.25-1.13-.27l-1.3-.34v-28.39l1.3-.34c.08-.03.51-.13,1.28-.29.77-.17,1.76-.35,2.96-.55,1.2-.2,2.57-.36,4.09-.5,1.53-.14,3.09-.18,4.7-.13,1.61.06,3.2.25,4.78.57,1.58.32,3.04.85,4.39,1.57,1.45.81,2.58,1.84,3.38,3.08.8,1.25,1.21,2.62,1.24,4.13.03,1.04-.15,2.01-.52,2.92-.38.91-.93,1.73-1.66,2.46-.23.22-.5.46-.84.71,1.4,1.09,2.35,2.53,2.85,4.32.22.84.32,1.72.29,2.64-.03.92-.22,1.83-.57,2.73-.35.89-.86,1.75-1.53,2.56-.67.81-1.55,1.51-2.64,2.1-1.54.84-3.23,1.41-5.06,1.72-1.83.31-3.67.46-5.52.46M3.48,59.92h16.41c1.54-.08,2.74-.55,3.61-1.39.75-.76,1.13-1.68,1.13-2.77-.03-.64-.22-1.35-.57-2.12-.35-.77-1.1-1.48-2.25-2.12-1.37-.76-2.93-1.24-4.68-1.47-1.75-.22-3.5-.31-5.25-.25-1.75.06-3.37.2-4.87.44-1.5.24-2.68.45-3.55.65v9.02ZM3.48,73.73c.87.17,2.05.37,3.55.61,1.5.24,3.12.38,4.87.42,1.75.04,3.5-.05,5.25-.27,1.75-.22,3.31-.71,4.68-1.47.7-.39,1.26-.84,1.68-1.34.42-.5.73-1.03.92-1.57.2-.55.29-1.08.29-1.62s-.06-1.02-.17-1.47c-.11-.42-.29-.84-.54-1.26-.25-.42-.57-.8-.94-1.13-.38-.34-.83-.62-1.36-.84-.53-.22-1.13-.35-1.8-.38H3.48v10.32Z" fill="#606060"/>
        <path d="M49.01,77c-1.96,0-3.86-.1-5.71-.29-1.85-.2-3.57-.53-5.16-1.01l-1.26-.38v-27.9h3.48v25.26c1.34.31,2.84.53,4.49.67,1.65.14,3.4.19,5.24.15,1.85-.04,3.76-.16,5.73-.36,1.97-.2,3.95-.48,5.94-.84l.63,3.44c-1.96.36-4.09.66-6.4.9-2.31.24-4.64.36-6.99.36" fill="#606060"/>
        <path d="M81.49,78.34c-2.63,0-5.08-.39-7.36-1.18-2.28-.78-4.27-1.92-5.98-3.4-1.74-1.51-3.06-3.25-3.97-5.22-.91-1.97-1.36-4.08-1.36-6.32s.45-4.39,1.36-6.36c.91-1.97,2.23-3.71,3.97-5.22,1.7-1.48,3.7-2.62,5.98-3.4,2.28-.78,4.73-1.17,7.36-1.17s5.09.39,7.39,1.17c2.29.78,4.29,1.92,6,3.4,1.73,1.51,3.06,3.25,3.97,5.22.91,1.97,1.36,4.09,1.36,6.36s-.45,4.34-1.36,6.32c-.91,1.97-2.23,3.71-3.97,5.22-1.71,1.48-3.71,2.62-6,3.4-2.29.78-4.76,1.18-7.39,1.18M81.49,49.55c-2.18,0-4.22.32-6.13.97-1.9.64-3.55,1.57-4.95,2.77-1.34,1.17-2.37,2.53-3.06,4.05-.7,1.52-1.05,3.15-1.05,4.89s.35,3.36,1.05,4.87c.7,1.51,1.72,2.85,3.06,4.03,1.4,1.2,3.05,2.13,4.95,2.77,1.9.64,3.94.97,6.13.97s4.22-.32,6.13-.97c1.9-.64,3.55-1.57,4.95-2.77,1.34-1.17,2.37-2.52,3.09-4.05.71-1.52,1.07-3.14,1.07-4.85s-.36-3.36-1.07-4.89c-.71-1.52-1.74-2.87-3.09-4.05-1.4-1.2-3.05-2.13-4.95-2.77-1.9-.64-3.94-.97-6.13-.97" fill="#606060"/>
        <path d="M131.96,61.7c1.13.46,2.06,1.03,2.79,1.72.73.68,1.26,1.45,1.59,2.3.33.85.49,1.71.46,2.57-.03,1.17-.37,2.32-1.02,3.45-.65,1.13-1.6,2.15-2.85,3.06-1.25.91-2.78,1.64-4.59,2.2-1.8.56-3.88.84-6.23.84h-.42c-2.55,0-4.68-.28-6.4-.84-1.72-.56-3.1-1.18-4.15-1.85-1.05-.67-1.8-1.29-2.27-1.87-.46-.57-.71-.89-.74-.94l3.06-1.8s.21.24.55.63c.34.39.91.82,1.72,1.28.81.46,1.89.88,3.23,1.26,1.34.38,3.02.57,5.04.57h.34c1.9,0,3.55-.2,4.95-.59,1.4-.39,2.56-.9,3.48-1.51.92-.62,1.62-1.28,2.08-1.99.46-.71.71-1.39.74-2.04.05-1.06-.44-1.94-1.47-2.62-1.04-.69-2.43-1.07-4.2-1.15l-1.59-.13c-2.49-.22-4.71-.43-6.67-.63-1.96-.2-3.66-.45-5.12-.76-1.26-.2-2.34-.53-3.23-1.01-.9-.48-1.64-1.03-2.22-1.66-.59-.63-1.01-1.31-1.28-2.06-.27-.74-.38-1.49-.36-2.24.03-1.15.37-2.28,1.03-3.4.66-1.12,1.61-2.11,2.85-2.98,1.24-.87,2.76-1.57,4.53-2.1,1.78-.53,3.82-.78,6.15-.76,2.43,0,4.47.27,6.11.8,1.64.53,2.96,1.12,3.97,1.76,1.01.64,1.73,1.24,2.18,1.8.45.56.68.87.71.92l-3.06,1.8s-.2-.23-.52-.61c-.32-.38-.87-.78-1.64-1.22-.77-.43-1.78-.82-3.04-1.17-1.26-.35-2.84-.52-4.74-.52-1.85-.03-3.46.14-4.83.51-1.37.36-2.5.84-3.4,1.41-.9.58-1.57,1.21-2.01,1.9-.45.69-.68,1.34-.71,1.96-.03.59.14,1.12.5,1.6.36.48.87.87,1.51,1.18.25.11.49.2.71.27.22.07.45.13.67.19.22.06.49.11.8.17.31.06.67.13,1.09.21,1.34.23,2.89.42,4.65.59,1.76.17,3.64.34,5.66.51l1.55.17c1.59.08,2.95.36,4.09.82" fill="#606060"/>
        <path d="M168.55,61.7c1.13.46,2.06,1.03,2.79,1.72.73.68,1.26,1.45,1.59,2.3.34.85.49,1.71.46,2.57-.03,1.17-.37,2.32-1.01,3.45-.65,1.13-1.6,2.15-2.85,3.06-1.25.91-2.78,1.64-4.59,2.2-1.81.56-3.88.84-6.23.84h-.42c-2.55,0-4.68-.28-6.4-.84-1.72-.56-3.11-1.18-4.16-1.85-1.05-.67-1.8-1.29-2.26-1.87-.46-.57-.71-.89-.73-.94l3.06-1.8s.21.24.55.63c.34.39.91.82,1.72,1.28.81.46,1.89.88,3.23,1.26,1.34.38,3.02.57,5.04.57h.34c1.9,0,3.55-.2,4.95-.59,1.4-.39,2.56-.9,3.48-1.51.92-.62,1.61-1.28,2.08-1.99.46-.71.71-1.39.73-2.04.06-1.06-.43-1.94-1.47-2.62-1.03-.69-2.43-1.07-4.2-1.15l-1.59-.13c-2.49-.22-4.71-.43-6.67-.63-1.96-.2-3.67-.45-5.12-.76-1.26-.2-2.34-.53-3.23-1.01-.9-.48-1.64-1.03-2.22-1.66-.59-.63-1.01-1.31-1.28-2.06-.27-.74-.38-1.49-.36-2.24.03-1.15.37-2.28,1.03-3.4.66-1.12,1.61-2.11,2.85-2.98,1.25-.87,2.76-1.57,4.53-2.1,1.78-.53,3.83-.78,6.15-.76,2.43,0,4.47.27,6.11.8,1.64.53,2.96,1.12,3.97,1.76,1.01.64,1.73,1.24,2.18,1.8.45.56.68.87.71.92l-3.06,1.8s-.2-.23-.52-.61c-.32-.38-.87-.78-1.64-1.22-.77-.43-1.78-.82-3.04-1.17-1.26-.35-2.84-.52-4.74-.52-1.85-.03-3.46.14-4.83.51-1.37.36-2.5.84-3.4,1.41-.9.58-1.57,1.21-2.01,1.9-.45.69-.69,1.34-.71,1.96-.03.59.14,1.12.5,1.6.36.48.87.87,1.51,1.18.25.11.49.2.71.27.22.07.45.13.67.19.22.06.49.11.8.17.31.06.67.13,1.09.21,1.34.23,2.89.42,4.65.59,1.76.17,3.64.34,5.66.51l1.55.17c1.59.08,2.95.36,4.09.82" fill="#606060"/>
        <path d="M197.1,78.34c-2.63,0-5.09-.39-7.37-1.18-2.28-.78-4.27-1.92-5.98-3.4-1.74-1.51-3.06-3.25-3.97-5.22-.91-1.97-1.36-4.08-1.36-6.32s.45-4.39,1.36-6.36c.91-1.97,2.23-3.71,3.97-5.22,1.71-1.48,3.7-2.62,5.98-3.4,2.28-.78,4.74-1.17,7.37-1.17s5.09.39,7.39,1.17c2.29.78,4.29,1.92,6,3.4,1.74,1.51,3.06,3.25,3.97,5.22.91,1.97,1.36,4.09,1.36,6.36s-.45,4.34-1.36,6.32c-.91,1.97-2.23,3.71-3.97,5.22-1.71,1.48-3.71,2.62-6,3.4-2.29.78-4.76,1.18-7.39,1.18M197.1,49.55c-2.18,0-4.22.32-6.13.97-1.9.64-3.55,1.57-4.95,2.77-1.34,1.17-2.36,2.53-3.06,4.05-.7,1.52-1.05,3.15-1.05,4.89s.35,3.36,1.05,4.87c.7,1.51,1.72,2.85,3.06,4.03,1.4,1.2,3.05,2.13,4.95,2.77,1.9.64,3.94.97,6.13.97s4.22-.32,6.13-.97c1.9-.64,3.55-1.57,4.95-2.77,1.34-1.17,2.37-2.52,3.09-4.05.71-1.52,1.07-3.14,1.07-4.85s-.36-3.36-1.07-4.89c-.71-1.52-1.74-2.87-3.09-4.05-1.4-1.2-3.05-2.13-4.95-2.77-1.9-.64-3.94-.97-6.13-.97" fill="#606060"/>
        <path d="M258.45,48v29h-3.48v-25.64c-1.17.92-2.31,1.92-3.4,3-1.09,1.08-2.11,2.15-3.06,3.23-.95,1.08-1.82,2.12-2.6,3.13-.78,1.01-1.46,1.9-2.01,2.66-.56.77-.99,1.39-1.3,1.87-.31.48-.46.73-.46.75l-1.47,2.31-1.52-2.31s-.16-.28-.48-.75c-.32-.48-.76-1.1-1.33-1.87-.56-.77-1.24-1.66-2.04-2.66-.8-1.01-1.68-2.05-2.65-3.13-.97-1.08-2.01-2.15-3.13-3.23-1.12-1.08-2.29-2.08-3.49-3v25.64h-3.48v-29h4.87c1.48,1.09,2.9,2.27,4.24,3.55,1.34,1.27,2.58,2.55,3.71,3.82,1.13,1.27,2.15,2.48,3.04,3.63.89,1.15,1.64,2.13,2.22,2.94.59-.84,1.33-1.83,2.22-2.98.9-1.15,1.9-2.36,3.02-3.63,1.12-1.27,2.34-2.55,3.65-3.82,1.32-1.27,2.69-2.44,4.11-3.5h4.83Z" fill="#606060"/>
      </g>
    </g>
  </g>
</svg>