<?xml version="1.0" encoding="UTF-8"?>
<svg id="Layer_2" data-name="Layer 2" xmlns="http://www.w3.org/2000/svg" viewBox="0 0 203.41 65.62">
  <g id="Layer_1-2" data-name="Layer 1">
    <g>
      <g>
        <g>
          <path d="M12.98,12.37c1.62-1.6,3.56-2.85,5.75-3.73,2.2-.88,4.63-1.32,7.22-1.32s4.79.4,6.91,1.2c2.09.78,4.03,2.08,5.77,3.87l.97.99,5-5-.87-.97c-2.16-2.4-4.85-4.22-7.99-5.41-3.09-1.18-6.43-1.77-9.93-1.77s-7.05.62-10.14,1.85c-3.11,1.23-5.85,2.98-8.14,5.21-2.3,2.23-4.11,4.89-5.39,7.91C.87,18.2.22,21.54.22,25.09s.65,6.89,1.92,9.91c1.27,3.01,3.07,5.67,5.35,7.9,2.28,2.23,5.01,3.99,8.11,5.22,3.09,1.22,6.51,1.84,10.14,1.84s6.92-.61,10-1.81c3.14-1.22,5.82-3.05,7.98-5.44l.87-.97-5.01-5-.97.99c-1.74,1.78-3.69,3.1-5.78,3.9-2.12.81-4.45,1.23-6.9,1.23-2.59,0-5.02-.45-7.22-1.32-2.19-.87-4.13-2.12-5.75-3.73-1.63-1.61-2.91-3.5-3.83-5.64-.91-2.13-1.37-4.51-1.37-7.08s.46-4.96,1.37-7.08c.91-2.13,2.2-4.03,3.83-5.64Z" fill="#606060"/>
          <path d="M25.75,50.19c-3.66,0-7.1-.63-10.22-1.86-3.13-1.24-5.89-3.01-8.19-5.26-2.3-2.25-4.12-4.94-5.4-7.98-1.29-3.04-1.94-6.4-1.94-9.99s.65-6.95,1.94-9.99c1.29-3.05,3.12-5.73,5.44-7.98,2.32-2.25,5.08-4.02,8.22-5.26,3.12-1.24,6.56-1.86,10.22-1.86s6.89.6,10.01,1.79c3.17,1.21,5.89,3.05,8.08,5.47l1.01,1.12-5.31,5.31-1.13-1.15c-1.72-1.76-3.64-3.04-5.69-3.81-2.1-.79-4.4-1.19-6.83-1.19-2.56,0-4.96.44-7.13,1.31-2.17.86-4.08,2.1-5.68,3.68-1.61,1.59-2.88,3.46-3.78,5.57-.9,2.1-1.35,4.45-1.35,7s.46,4.9,1.35,7c.9,2.11,2.17,3.98,3.78,5.57,1.6,1.58,3.51,2.82,5.67,3.68,2.18.87,4.58,1.31,7.14,1.31s4.72-.41,6.82-1.21c2.06-.79,3.98-2.09,5.7-3.85l1.13-1.15,5.31,5.31-1.01,1.12c-2.18,2.42-4.9,4.27-8.07,5.5-3.11,1.21-6.5,1.82-10.08,1.82ZM25.82.44c-3.61,0-6.99.62-10.06,1.83-3.08,1.22-5.79,2.95-8.07,5.16-2.28,2.21-4.08,4.85-5.34,7.84-1.27,2.99-1.91,6.29-1.91,9.82s.64,6.83,1.91,9.82c1.26,2.99,3.04,5.62,5.3,7.83,2.26,2.21,4.96,3.95,8.04,5.17,3.07,1.21,6.45,1.83,10.06,1.83s6.86-.6,9.92-1.79c3.1-1.2,5.76-3.02,7.9-5.39l.73-.81-4.7-4.7-.81.83c-1.77,1.81-3.74,3.14-5.86,3.96-2.15.82-4.5,1.24-6.98,1.24-2.62,0-5.07-.45-7.3-1.34-2.22-.88-4.18-2.15-5.82-3.78-1.65-1.63-2.95-3.55-3.88-5.71-.92-2.15-1.39-4.57-1.39-7.17s.47-5.02,1.39-7.17c.93-2.16,2.23-4.08,3.88-5.71h0c1.64-1.62,3.6-2.89,5.82-3.78,2.23-.89,4.68-1.34,7.3-1.34s4.84.41,6.99,1.22c2.12.79,4.09,2.11,5.85,3.92l.81.83,4.7-4.7-.73-.81c-2.14-2.37-4.8-4.17-7.9-5.35-3.06-1.17-6.38-1.76-9.85-1.76Z" fill="#606060"/>
        </g>
        <g>
          <rect x="47.83" y=".22" width="7.43" height="49.35" fill="#606060"/>
          <path d="M55.48,49.79h-7.87V0h7.87v49.79ZM48.05,49.35h6.99V.44h-6.99v48.9Z" fill="#606060"/>
        </g>
        <g>
          <rect x="62.59" y="12.17" width="7.43" height="37.4" fill="#606060"/>
          <path d="M70.24,49.79h-7.87V11.95h7.87v37.84ZM62.81,49.35h6.99V12.39h-6.99v36.96Z" fill="#606060"/>
        </g>
        <g>
          <path d="M66.34.78c-1.33,0-2.47.45-3.4,1.34-.93.9-1.41,2.02-1.41,3.33s.47,2.42,1.39,3.35c.92.92,2.07,1.39,3.41,1.39s2.56-.47,3.46-1.41c.89-.92,1.34-2.07,1.34-3.39s-.48-2.43-1.43-3.31c-.92-.86-2.06-1.29-3.38-1.29Z" fill="#606060"/>
          <path d="M66.34,10.42c-1.4,0-2.6-.49-3.57-1.46-.97-.97-1.46-2.15-1.46-3.5s.5-2.54,1.48-3.49c.97-.93,2.16-1.41,3.55-1.41s2.57.46,3.53,1.35c.99.93,1.5,2.09,1.5,3.47s-.47,2.58-1.4,3.55c-.95.98-2.17,1.48-3.62,1.48ZM66.34,1.01c-1.27,0-2.36.43-3.24,1.28-.89.86-1.34,1.93-1.34,3.17s.45,2.31,1.33,3.19c.88.88,1.97,1.33,3.26,1.33s2.44-.45,3.3-1.34c.85-.88,1.28-1.97,1.28-3.24s-.46-2.31-1.36-3.15c-.88-.82-1.96-1.23-3.23-1.23Z" fill="#606060"/>
        </g>
        <g>
          <path d="M104.44,13.61c-2.32-1.17-5.03-1.77-8.05-1.77-3.58,0-6.72.79-9.35,2.34-.91.54-1.74,1.15-2.49,1.83v-3.84h-7.23v37.4h7.43v-19.59c0-2.4.45-4.46,1.33-6.12.86-1.62,2.09-2.87,3.67-3.73,1.61-.88,3.56-1.32,5.78-1.32,2.9,0,5.16.81,6.71,2.39,1.56,1.6,2.35,4.06,2.35,7.33v21.04h7.43v-21.5c0-3.56-.67-6.58-1.99-8.98-1.34-2.44-3.22-4.28-5.6-5.48Z" fill="#606060"/>
          <path d="M112.24,49.79h-7.87v-21.26c0-3.2-.77-5.62-2.29-7.17-1.51-1.54-3.71-2.33-6.55-2.33-2.19,0-4.1.44-5.68,1.29-1.54.83-2.74,2.06-3.58,3.64-.86,1.63-1.3,3.66-1.3,6.02v19.81h-7.87V11.95h7.68v3.57c.66-.56,1.38-1.08,2.15-1.53,2.66-1.57,5.84-2.37,9.46-2.37,3.05,0,5.79.6,8.15,1.79h0c2.41,1.22,4.33,3.09,5.69,5.57,1.34,2.43,2.01,5.49,2.01,9.09v21.73ZM104.81,49.35h6.99v-21.28c0-3.52-.66-6.51-1.96-8.87-1.32-2.4-3.17-4.21-5.5-5.39-2.29-1.16-4.96-1.74-7.95-1.74-3.54,0-6.64.78-9.23,2.31-.89.53-1.71,1.13-2.45,1.81l-.37.34v-4.12h-6.79v36.96h6.99v-19.37c0-2.44.45-4.53,1.35-6.23.88-1.66,2.14-2.94,3.76-3.82,1.65-.89,3.63-1.35,5.89-1.35,2.96,0,5.27.83,6.87,2.46,1.6,1.64,2.41,4.16,2.41,7.48v20.82Z" fill="#606060"/>
        </g>
        <g>
          <rect x="118.91" y="12.17" width="7.43" height="37.4" fill="#606060"/>
          <path d="M126.56,49.79h-7.87V11.95h7.87v37.84ZM119.13,49.35h6.99V12.39h-6.99v36.96Z" fill="#606060"/>
        </g>
        <g>
          <path d="M122.66.22c-1.33,0-2.47.45-3.39,1.34-.94.9-1.41,2.02-1.41,3.33s.47,2.42,1.39,3.34c.92.92,2.07,1.39,3.41,1.39s2.56-.47,3.46-1.41c.89-.92,1.34-2.06,1.34-3.4s-.48-2.43-1.43-3.31c-.92-.86-2.05-1.29-3.38-1.29Z" fill="#606060"/>
          <path d="M122.66,9.85c-1.4,0-2.61-.49-3.57-1.46-.97-.96-1.46-2.14-1.46-3.5s.5-2.54,1.48-3.49c.96-.93,2.16-1.41,3.55-1.41s2.57.46,3.53,1.35c.99.93,1.5,2.1,1.5,3.47s-.47,2.59-1.4,3.55c-.95.98-2.17,1.48-3.62,1.48ZM122.66.44c-1.27,0-2.36.43-3.24,1.28-.89.86-1.34,1.93-1.34,3.17s.45,2.31,1.33,3.19c.88.88,1.97,1.33,3.26,1.33s2.44-.45,3.3-1.34c.85-.88,1.28-1.97,1.28-3.24s-.46-2.31-1.35-3.15c-.88-.82-1.96-1.23-3.23-1.23Z" fill="#606060"/>
        </g>
        <g>
          <path d="M159,38.51h0c-1.04,1.51-2.35,2.64-3.88,3.37-1.57.74-3.3,1.12-5.16,1.12-2.21,0-4.23-.51-5.99-1.51-1.75-.99-3.15-2.41-4.17-4.2-1.02-1.81-1.54-3.98-1.54-6.46s.52-4.65,1.54-6.45c1.01-1.79,2.42-3.21,4.17-4.2,1.76-1,3.78-1.5,5.99-1.5,1.85,0,3.59.38,5.15,1.12,1.53.73,2.83,1.88,3.87,3.42l.77,1.14,5.71-3.88-.66-1.11c-1.5-2.51-3.58-4.42-6.19-5.68-2.55-1.23-5.44-1.85-8.58-1.85-3.65,0-6.97.81-9.87,2.42-2.91,1.61-5.23,3.87-6.89,6.71-1.66,2.84-2.5,6.16-2.5,9.87s.84,6.97,2.49,9.83c1.66,2.87,3.97,5.15,6.89,6.78,2.9,1.63,6.22,2.45,9.88,2.45,3.15,0,6.04-.64,8.59-1.89,2.6-1.28,4.68-3.17,6.18-5.63l.68-1.11-5.7-3.88-.77,1.12Z" fill="#606060"/>
          <path d="M150.03,50.12c-3.7,0-7.06-.83-9.99-2.48-2.95-1.65-5.29-3.96-6.97-6.86-1.67-2.89-2.52-6.24-2.52-9.94s.85-7.1,2.53-9.98c1.68-2.88,4.03-5.17,6.98-6.8,2.94-1.62,6.29-2.44,9.98-2.44,3.17,0,6.09.63,8.68,1.87,2.65,1.28,4.77,3.22,6.29,5.77l.77,1.29-6.06,4.12-.89-1.33c-1.02-1.51-2.29-2.64-3.79-3.35-1.54-.73-3.24-1.1-5.06-1.1-2.18,0-4.15.5-5.88,1.47-1.72.97-3.09,2.36-4.09,4.12-1,1.77-1.51,3.91-1.51,6.35s.51,4.57,1.51,6.35c1,1.76,2.37,3.14,4.09,4.12,1.73.98,3.71,1.48,5.88,1.48,1.82,0,3.52-.37,5.06-1.1,1.5-.71,2.78-1.82,3.79-3.3l.18.12-.18-.13.9-1.3,6.06,4.12-.79,1.29c-1.52,2.5-3.63,4.42-6.27,5.72-2.58,1.27-5.51,1.91-8.69,1.91ZM150.03,12.06c-3.61,0-6.9.8-9.77,2.39-2.88,1.59-5.17,3.82-6.81,6.63-1.64,2.81-2.46,6.09-2.46,9.75s.83,6.89,2.46,9.72c1.64,2.83,3.93,5.08,6.8,6.7,2.87,1.61,6.15,2.42,9.77,2.42,3.11,0,5.97-.63,8.49-1.87,2.56-1.26,4.61-3.12,6.09-5.55l.57-.93-5.35-3.63-.68.97c-1.04,1.51-2.37,2.67-3.94,3.41-1.6.76-3.37,1.14-5.25,1.14-2.25,0-4.3-.52-6.1-1.53-1.79-1.01-3.22-2.45-4.25-4.28-1.04-1.84-1.57-4.05-1.57-6.57s.53-4.72,1.57-6.56c1.04-1.83,2.47-3.27,4.25-4.29,1.8-1.02,3.85-1.53,6.1-1.53,1.89,0,3.65.38,5.25,1.14,1.56.74,2.9,1.92,3.96,3.5l.64.96,5.35-3.63-.56-.93c-1.48-2.48-3.53-4.36-6.1-5.6-2.52-1.21-5.38-1.83-8.48-1.83Z" fill="#606060"/>
        </g>
        <g>
          <path d="M180.2,5.06c0-2.67-2.17-4.84-4.84-4.84s-4.84,2.17-4.84,4.84,2.17,4.84,4.84,4.84,4.84-2.17,4.84-4.84Z" fill="#606060"/>
          <path d="M175.36,10.12c-2.79,0-5.06-2.27-5.06-5.06s2.27-5.06,5.06-5.06,5.06,2.27,5.06,5.06-2.27,5.06-5.06,5.06ZM175.36.44c-2.54,0-4.61,2.07-4.61,4.62s2.07,4.61,4.61,4.61,4.62-2.07,4.62-4.61-2.07-4.62-4.62-4.62Z" fill="#606060"/>
        </g>
        <g>
          <path d="M186.86,9.9c2.67,0,4.84-2.17,4.84-4.84s-2.17-4.84-4.84-4.84-4.84,2.17-4.84,4.84,2.17,4.84,4.84,4.84Z" fill="#606060"/>
          <path d="M186.86,10.12c-2.79,0-5.06-2.27-5.06-5.06s2.27-5.06,5.06-5.06,5.06,2.27,5.06,5.06-2.27,5.06-5.06,5.06ZM186.86.44c-2.55,0-4.62,2.07-4.62,4.62s2.07,4.61,4.62,4.61,4.62-2.07,4.62-4.61-2.07-4.62-4.62-4.62Z" fill="#606060"/>
        </g>
        <g>
          <path d="M198.35.22c-2.67,0-4.84,2.17-4.84,4.84s2.17,4.84,4.84,4.84,4.84-2.17,4.84-4.84-2.17-4.84-4.84-4.84Z" fill="#606060"/>
          <path d="M198.35,10.12c-2.79,0-5.06-2.27-5.06-5.06s2.27-5.06,5.06-5.06,5.06,2.27,5.06,5.06-2.27,5.06-5.06,5.06ZM198.35.44c-2.54,0-4.61,2.07-4.61,4.62s2.07,4.61,4.61,4.61,4.62-2.07,4.62-4.61-2.07-4.62-4.62-4.62Z" fill="#606060"/>
        </g>
        <g>
          <path d="M191.93,20.61c-1.19-.49-2.51-.49-3.7,0-1.2.5-2.13,1.42-2.62,2.62-.49,1.19-.49,2.51,0,3.7.49,1.19,1.42,2.12,2.62,2.62.59.25,1.22.37,1.85.37s1.26-.12,1.85-.37c1.19-.49,2.12-1.42,2.62-2.62.49-1.19.49-2.51,0-3.7-.49-1.19-1.42-2.12-2.62-2.62Z" fill="#606060"/>
          <path d="M190.07,30.14c-.66,0-1.31-.13-1.94-.39-1.25-.52-2.22-1.49-2.74-2.74-.52-1.25-.52-2.62,0-3.87.52-1.25,1.49-2.22,2.74-2.74,1.25-.52,2.63-.52,3.87,0h0c1.25.52,2.22,1.49,2.74,2.74.52,1.25.52,2.62,0,3.87-.52,1.25-1.49,2.22-2.74,2.74-.62.26-1.27.39-1.94.39ZM190.08,20.46c-.6,0-1.2.12-1.77.35-1.14.47-2.03,1.36-2.5,2.5-.47,1.14-.47,2.39,0,3.53.47,1.14,1.36,2.03,2.5,2.5,1.14.47,2.4.47,3.53,0,1.14-.47,2.03-1.36,2.5-2.5.47-1.14.47-2.39,0-3.53-.47-1.14-1.36-2.03-2.5-2.5h0c-.57-.24-1.16-.35-1.76-.35Z" fill="#606060"/>
        </g>
        <g>
          <path d="M196.07,10.62h0c-2.47-1.02-5.3.16-6.32,2.62-.49,1.19-.49,2.51,0,3.7.49,1.2,1.42,2.12,2.62,2.62.59.24,1.21.37,1.84.37,1.97,0,3.72-1.17,4.48-2.99.49-1.19.49-2.51,0-3.7-.5-1.19-1.42-2.12-2.62-2.62Z" fill="#606060"/>
          <path d="M194.21,20.14c-.66,0-1.31-.13-1.93-.39-1.25-.52-2.22-1.49-2.74-2.74-.52-1.25-.52-2.62,0-3.87,1.07-2.57,4.03-3.8,6.61-2.74h0c1.25.52,2.22,1.49,2.74,2.74.52,1.25.52,2.62,0,3.87-.79,1.9-2.62,3.12-4.68,3.12ZM194.22,10.47c-1.81,0-3.54,1.07-4.27,2.85-.47,1.14-.47,2.39,0,3.53.47,1.14,1.36,2.03,2.5,2.5.56.23,1.15.35,1.76.35,1.88,0,3.55-1.12,4.27-2.85.47-1.14.47-2.39,0-3.53-.47-1.14-1.36-2.03-2.5-2.5-.57-.24-1.17-.35-1.76-.35Z" fill="#606060"/>
        </g>
        <g>
          <path d="M187.79,30.6c-2.46-1.02-5.3.15-6.32,2.62-1.02,2.46.16,5.3,2.62,6.32.59.24,1.21.37,1.84.37,1.97,0,3.72-1.17,4.48-2.99.49-1.2.49-2.51,0-3.7-.49-1.19-1.42-2.12-2.62-2.62Z" fill="#606060"/>
          <path d="M185.93,40.13c-.66,0-1.31-.13-1.93-.38-2.58-1.07-3.8-4.03-2.74-6.61.52-1.25,1.49-2.22,2.74-2.74,1.25-.52,2.62-.52,3.87,0,1.25.52,2.22,1.49,2.74,2.74.52,1.25.52,2.62,0,3.87-.79,1.9-2.62,3.12-4.68,3.12ZM185.94,30.45c-.6,0-1.2.12-1.77.35-1.14.47-2.03,1.36-2.5,2.5-.97,2.35.15,5.05,2.5,6.03.56.23,1.16.35,1.76.35,1.88,0,3.55-1.12,4.27-2.85.47-1.14.47-2.4,0-3.53-.47-1.14-1.36-2.03-2.5-2.5h0c-.57-.24-1.16-.35-1.76-.35Z" fill="#606060"/>
        </g>
        <g>
          <path d="M183.65,40.59c-2.47-1.02-5.3.16-6.32,2.62-1.02,2.46.16,5.3,2.62,6.32.59.24,1.21.37,1.84.37,1.97,0,3.72-1.17,4.48-2.99,1.02-2.46-.16-5.3-2.62-6.32Z" fill="#606060"/>
          <path d="M181.79,50.12c-.66,0-1.31-.13-1.93-.39-2.58-1.07-3.8-4.03-2.74-6.61.52-1.25,1.49-2.22,2.74-2.74,1.25-.52,2.63-.52,3.87,0,2.58,1.07,3.8,4.03,2.74,6.61-.79,1.9-2.62,3.12-4.68,3.12ZM181.8,40.44c-.6,0-1.2.12-1.77.36-1.14.47-2.03,1.36-2.5,2.5-.97,2.35.15,5.05,2.5,6.03.56.23,1.16.35,1.76.35,1.88,0,3.55-1.12,4.27-2.85.97-2.35-.15-5.06-2.5-6.03h0c-.57-.24-1.17-.35-1.76-.35Z" fill="#606060"/>
        </g>
      </g>
      <g>
        <g>
          <g>
            <g>
              <path d="M28.36,65.3v-8.63h.98v3.83h5.05v-3.83h.98v8.63h-.98v-3.84h-5.05v3.84h-.98Z" fill="#606060"/>
              <path d="M35.6,65.52h-1.43v-3.84h-4.6v3.84h-1.43v-9.07h1.43v3.83h4.6v-3.83h1.43v9.07ZM34.61,65.07h.54v-8.18h-.54v3.83h-5.49v-3.83h-.54v8.18h.54v-3.84h5.49v3.84Z" fill="#606060"/>
            </g>
            <g>
              <path d="M37.32,65.3l3.68-8.63h1.23l3.68,8.63h-1.09l-1.06-2.5h-4.3l-1.06,2.5h-1.09ZM39.85,61.89h3.54l-1.77-4.21-1.77,4.21Z" fill="#606060"/>
              <path d="M46.25,65.52h-1.57l-1.06-2.5h-4.01l-1.06,2.5h-1.57l3.87-9.07h1.52l3.87,9.07ZM44.97,65.07h.61l-3.49-8.18h-.94l-3.49,8.18h.61l1.06-2.5h4.59l1.06,2.5ZM43.72,62.12h-4.21l2.1-5,2.1,5ZM40.18,61.67h2.87l-1.44-3.42-1.44,3.42Z" fill="#606060"/>
            </g>
            <g>
              <path d="M47.85,65.3v-8.63h.98v8.63h-.98Z" fill="#606060"/>
              <path d="M49.06,65.52h-1.43v-9.07h1.43v9.07ZM48.08,65.07h.54v-8.18h-.54v8.18Z" fill="#606060"/>
            </g>
            <g>
              <path d="M51.8,65.3v-8.63h4.16c.89,0,1.6.24,2.13.73.53.49.79,1.14.79,1.97,0,.56-.11,1-.32,1.33-.21.33-.48.58-.81.75-.32.17-.65.29-.97.37l2.28,3.48h-1.17l-2.1-3.31h-3.02v3.31h-.98ZM52.78,61.06h3c.31,0,.63-.05.96-.14.32-.1.6-.27.82-.51.22-.25.33-.59.33-1.04,0-.55-.19-.98-.56-1.3-.38-.32-.87-.48-1.49-.48h-3.05v3.47Z" fill="#606060"/>
              <path d="M59.47,65.52h-1.7l-2.1-3.31h-2.67v3.31h-1.43v-9.07h4.38c.94,0,1.71.27,2.28.79.57.53.86,1.25.86,2.13,0,.6-.12,1.08-.36,1.45-.23.36-.53.64-.89.82-.24.13-.48.23-.72.31l2.34,3.57ZM58.02,65.07h.63l-2.23-3.4.31-.07c.31-.07.62-.19.92-.35.29-.15.53-.38.72-.67.19-.29.29-.7.29-1.21,0-.77-.24-1.36-.72-1.81-.48-.45-1.15-.67-1.98-.67h-3.93v8.18h.54v-3.31h3.36l2.1,3.31ZM55.79,61.28h-3.22v-3.91h3.28c.67,0,1.22.18,1.64.53.43.36.64.85.64,1.47,0,.5-.13.9-.39,1.18-.25.28-.56.47-.92.58-.34.1-.68.15-1.02.15ZM53.01,60.84h2.78c.29,0,.59-.05.89-.13.28-.08.52-.23.72-.45.18-.2.28-.5.28-.89,0-.48-.16-.85-.48-1.13-.33-.28-.79-.42-1.35-.42h-2.83v3.02Z" fill="#606060"/>
            </g>
          </g>
          <g>
            <g>
              <path d="M75.95,65.3v-8.63h3.66c.52,0,1.01.1,1.49.29.48.2.9.48,1.28.85.38.37.67.83.89,1.36.22.53.33,1.13.33,1.81s-.11,1.28-.33,1.81c-.22.53-.52.98-.89,1.36-.38.37-.8.66-1.28.85-.48.2-.97.29-1.49.29h-3.66ZM76.93,64.37h2.63c.62,0,1.16-.16,1.61-.47.45-.31.81-.73,1.06-1.24.25-.51.37-1.07.37-1.68s-.12-1.18-.37-1.69c-.25-.51-.6-.92-1.06-1.23-.45-.31-.99-.46-1.61-.46h-2.63v6.78Z" fill="#606060"/>
              <path d="M79.61,65.52h-3.88v-9.07h3.88c.54,0,1.07.1,1.57.31.5.21.96.51,1.35.9.39.39.71.87.94,1.43.23.55.34,1.19.34,1.9s-.12,1.34-.34,1.9c-.23.55-.54,1.04-.94,1.43-.39.39-.85.7-1.35.9-.5.21-1.03.31-1.57.31ZM76.17,65.07h3.44c.48,0,.96-.09,1.4-.28.45-.18.85-.46,1.21-.81.35-.35.64-.78.84-1.28.21-.5.31-1.08.31-1.73s-.1-1.23-.31-1.73c-.21-.5-.49-.93-.84-1.28-.35-.35-.76-.62-1.21-.81s-.92-.28-1.4-.28h-3.44v8.18ZM79.57,64.59h-2.86v-7.22h2.86c.66,0,1.25.17,1.74.5.49.33.87.77,1.13,1.32.26.54.4,1.14.4,1.79s-.13,1.24-.4,1.78c-.26.54-.64.99-1.13,1.32-.49.34-1.08.51-1.74.51ZM77.15,64.15h2.41c.57,0,1.07-.14,1.49-.43.42-.29.75-.68.98-1.15.23-.48.35-1.01.35-1.58s-.12-1.12-.35-1.6c-.23-.47-.56-.86-.98-1.15-.41-.28-.92-.42-1.49-.42h-2.41v6.33Z" fill="#606060"/>
            </g>
            <g>
              <path d="M86.02,65.3v-8.63h6.38v.94h-5.4v2.89h4.82v.95h-4.82v2.91h5.4v.94h-6.38Z" fill="#606060"/>
              <path d="M92.62,65.52h-6.83v-9.07h6.83v1.38h-5.4v2.45h4.82v1.4h-4.82v2.46h5.4v1.38ZM86.24,65.07h5.94v-.49h-5.4v-3.35h4.82v-.51h-4.82v-3.34h5.4v-.49h-5.94v8.18Z" fill="#606060"/>
            </g>
            <g>
              <path d="M94.84,65.3v-8.63h1.14l5.36,7.26v-7.26h.98v8.63h-1.14l-5.36-7.29v7.29h-.98Z" fill="#606060"/>
              <path d="M102.54,65.52h-1.47l-5.03-6.83v6.83h-1.43v-9.07h1.47l5.03,6.81v-6.81h1.43v9.07ZM101.29,65.07h.81v-8.18h-.54v7.71l-5.7-7.71h-.81v8.18h.54v-7.74l5.7,7.74Z" fill="#606060"/>
            </g>
            <g>
              <path d="M107.45,65.3v-7.7h-3.03v-.93h7.04v.93h-3.03v7.7h-.98Z" fill="#606060"/>
              <path d="M108.65,65.52h-1.43v-7.7h-3.03v-1.37h7.48v1.37h-3.03v7.7ZM107.67,65.07h.54v-7.7h3.03v-.48h-6.6v.48h3.03v7.7Z" fill="#606060"/>
            </g>
            <g>
              <path d="M112.53,65.3l3.68-8.63h1.23l3.68,8.63h-1.09l-1.06-2.5h-4.3l-1.06,2.5h-1.09ZM115.06,61.89h3.54l-1.77-4.21-1.77,4.21Z" fill="#606060"/>
              <path d="M121.47,65.52h-1.57l-1.06-2.5h-4.01l-1.06,2.5h-1.57l3.87-9.07h1.52l3.87,9.07ZM120.19,65.07h.61l-3.49-8.18h-.94l-3.49,8.18h.61l1.06-2.5h4.59l1.06,2.5ZM118.94,62.12h-4.21l2.1-5,2.1,5ZM115.4,61.67h2.87l-1.44-3.42-1.44,3.42Z" fill="#606060"/>
            </g>
            <g>
              <path d="M123.09,65.3v-8.63h.98v7.69h4.73v.94h-5.72Z" fill="#606060"/>
              <path d="M129.02,65.52h-6.16v-9.07h1.43v7.69h4.73v1.38ZM123.31,65.07h5.27v-.49h-4.73v-7.69h-.54v8.18Z" fill="#606060"/>
            </g>
          </g>
          <g>
            <g>
              <path d="M148.56,65.4c-.86,0-1.55-.12-2.08-.35-.53-.23-.93-.55-1.2-.96-.27-.41-.42-.87-.47-1.38h1.02c.03.42.17.75.42,1.01.25.26.59.45,1,.57.42.12.87.18,1.37.18.73,0,1.32-.13,1.74-.38.43-.26.64-.64.64-1.14,0-.3-.11-.55-.32-.74-.21-.19-.5-.34-.85-.46-.35-.12-.74-.23-1.16-.33-.42-.1-.84-.21-1.26-.32-.42-.11-.81-.26-1.17-.43-.35-.17-.64-.4-.85-.67-.21-.27-.32-.62-.32-1.05,0-.7.27-1.28.82-1.72.55-.44,1.36-.66,2.44-.66.77,0,1.4.12,1.9.35.5.23.87.53,1.12.91.25.37.39.78.41,1.21h-1.01c-.05-.43-.27-.8-.66-1.1-.38-.3-.97-.45-1.77-.45-.49,0-.89.05-1.19.14-.31.1-.54.22-.7.37-.16.15-.27.31-.33.48-.06.17-.09.32-.09.47,0,.29.11.52.32.7.21.18.5.33.85.44.35.12.74.22,1.17.32.43.1.85.2,1.28.32.42.12.81.27,1.17.44.35.18.64.41.85.68.21.28.32.63.32,1.07,0,.8-.31,1.41-.92,1.84-.61.43-1.45.64-2.52.64Z" fill="#606060"/>
              <path d="M148.56,65.62c-.88,0-1.61-.12-2.17-.36-.57-.25-1.01-.6-1.3-1.04-.28-.44-.45-.94-.5-1.48l-.02-.24h1.47v.21c.04.37.15.65.37.87.23.23.53.4.91.51.39.11.83.17,1.31.17.69,0,1.24-.12,1.63-.35.36-.22.53-.53.53-.95,0-.24-.08-.43-.25-.57-.19-.17-.45-.31-.78-.42-.35-.12-.73-.23-1.14-.33-.42-.1-.85-.21-1.27-.32-.44-.12-.84-.27-1.21-.45-.38-.19-.69-.43-.93-.73-.24-.31-.37-.71-.37-1.19,0-.77.3-1.41.9-1.89.58-.47,1.45-.71,2.58-.71.8,0,1.47.12,1.99.37.53.25.94.58,1.21.98.27.41.42.85.45,1.32v.23s-1.43,0-1.43,0l-.02-.2c-.05-.38-.23-.69-.57-.95-.34-.27-.89-.4-1.63-.4-.46,0-.84.05-1.13.13-.27.08-.48.19-.62.32-.13.13-.23.26-.27.39-.05.14-.07.28-.07.4,0,.22.08.39.24.53.19.16.45.29.78.4.34.11.73.22,1.15.31.43.1.86.2,1.29.32.44.12.84.28,1.21.46.38.19.69.44.93.75.24.32.37.72.37,1.2,0,.87-.34,1.55-1.01,2.03-.65.45-1.54.69-2.64.69ZM145.06,62.94c.06.38.2.73.4,1.04.24.37.61.66,1.1.88.5.22,1.17.33,2,.33,1.01,0,1.82-.2,2.39-.6.55-.39.82-.93.82-1.66,0-.38-.09-.7-.28-.93-.19-.25-.45-.46-.78-.62-.34-.17-.72-.31-1.13-.43-.42-.12-.84-.22-1.27-.32-.43-.1-.84-.21-1.2-.33-.38-.13-.69-.29-.92-.48-.27-.22-.4-.51-.4-.87,0-.17.03-.35.1-.54.07-.2.2-.39.39-.57.19-.17.45-.32.79-.42.33-.1.75-.15,1.26-.15.84,0,1.48.17,1.91.5.37.29.61.64.71,1.05h.57c-.05-.31-.17-.6-.35-.87-.22-.34-.57-.62-1.03-.83-.47-.22-1.07-.32-1.81-.32-1.03,0-1.8.21-2.3.62-.5.4-.74.91-.74,1.55,0,.38.09.68.27.91.19.25.45.45.78.61.34.17.72.31,1.13.41.42.11.84.22,1.26.32.42.1.82.21,1.18.34.38.13.69.3.93.51.26.23.4.53.4.9,0,.58-.25,1.03-.75,1.33-.46.28-1.09.42-1.86.42-.52,0-1-.06-1.43-.19-.45-.13-.82-.34-1.1-.62-.25-.25-.4-.57-.46-.94h-.57Z" fill="#606060"/>
            </g>
            <g>
              <path d="M154.37,65.3v-8.63h.98v4.5l4.82-4.5h1.39l-3.7,3.47,3.91,5.16h-1.23l-3.4-4.5-1.8,1.67v2.83h-.98Z" fill="#606060"/>
              <path d="M162.22,65.52h-1.79l-3.31-4.39-1.55,1.43v2.95h-1.43v-9.07h1.43v4.21l4.52-4.21h2.04l-3.96,3.71,4.06,5.36ZM160.65,65.07h.68l-3.76-4.96,3.43-3.22h-.74l-5.13,4.78v-4.78h-.54v8.18h.54v-2.7l2.05-1.9,3.48,4.6Z" fill="#606060"/>
            </g>
            <g>
              <path d="M163.62,65.3v-8.63h.98v8.63h-.98Z" fill="#606060"/>
              <path d="M164.82,65.52h-1.43v-9.07h1.43v9.07ZM163.84,65.07h.54v-8.18h-.54v8.18Z" fill="#606060"/>
            </g>
            <g>
              <path d="M167.57,65.3v-8.63h1.14l5.36,7.26v-7.26h.98v8.63h-1.14l-5.36-7.29v7.29h-.98Z" fill="#606060"/>
              <path d="M175.27,65.52h-1.47l-5.03-6.83v6.83h-1.43v-9.07h1.47l5.03,6.81v-6.81h1.43v9.07ZM174.02,65.07h.81v-8.18h-.54v7.71l-5.7-7.71h-.81v8.18h.54v-7.74l5.7,7.74Z" fill="#606060"/>
            </g>
          </g>
        </g>
        <g>
          <path d="M67.55,59.67c.74.31,1.09,1.15.78,1.89-.31.74-1.15,1.09-1.89.79-.74-.31-1.08-1.16-.78-1.89.3-.74,1.15-1.09,1.88-.78" fill="#606060"/>
          <path d="M66.99,62.68c-.21,0-.43-.04-.63-.13-.41-.17-.73-.49-.9-.91-.17-.41-.17-.87,0-1.28.17-.41.48-.73.89-.9.41-.17.87-.17,1.28,0,.41.17.73.49.91.9.17.41.17.86,0,1.27-.27.64-.89,1.03-1.55,1.03ZM66.99,59.78c-.16,0-.32.03-.47.09-.3.13-.53.36-.65.66-.13.3-.13.64,0,.94s.36.54.66.66c.62.26,1.34-.04,1.6-.67.12-.3.13-.63,0-.93-.13-.3-.36-.54-.67-.66h0c-.15-.06-.31-.09-.47-.09Z" fill="#606060"/>
        </g>
        <g>
          <path d="M137.27,59.67c.74.31,1.09,1.15.78,1.89-.31.74-1.15,1.09-1.89.79-.74-.31-1.08-1.16-.78-1.89.3-.74,1.15-1.09,1.88-.78" fill="#606060"/>
          <path d="M136.72,62.68c-.21,0-.43-.04-.63-.13-.41-.17-.73-.49-.9-.91-.17-.41-.17-.87,0-1.28.17-.41.48-.73.89-.9.41-.17.87-.17,1.28,0,.41.17.73.49.91.9.17.41.17.86,0,1.27-.27.64-.89,1.03-1.55,1.03ZM136.72,59.78c-.16,0-.32.03-.47.09-.3.12-.53.36-.65.66-.13.3-.13.64,0,.94.12.3.36.54.66.66.62.26,1.34-.04,1.6-.67.12-.3.13-.63,0-.93-.13-.3-.36-.54-.67-.66h0c-.15-.06-.31-.09-.47-.09Z" fill="#606060"/>
        </g>
      </g>
    </g>
  </g>
</svg>