<?xml version="1.0" encoding="UTF-8"?>
<svg id="Layer_2" data-name="Layer 2" xmlns="http://www.w3.org/2000/svg" viewBox="0 0 168.84 75.17">
  <g id="Layer_1-2" data-name="Layer 1">
    <g>
      <path d="M19.94,62.04c.9-.12,1.27-.8,1.27-1.58v-6.89c0-.72-.51-1.47-1.32-1.47H4.66s0,7.3,0,7.3H0s0-11.97,0-11.97l20.03.03c3.19,0,5.8,2.71,5.8,5.82v7.56c0,3.34-2.86,5.92-6.18,5.85H0s0-4.66,0-4.66h19.93Z" fill="#606060"/>
      <path d="M32.62,62.14h12.84s0,4.67,0,4.67h-12.23c-3.32-.12-5.9-2.76-5.9-6.07v-4.04c-.01-3.35,2.63-6.12,6.04-6.11l12.68.04c2.71,0,4.41,2.65,4.03,5.18.18,1.46-.18,2.81-1.14,3.82-.9,1.04-2.21,1.41-3.65,1.41h-13.28c-.09.57.09.98.62,1.11ZM45.03,56.35c.28,0,.52-.49.45-.67-.07-.17-.34-.43-.56-.43h-12.4c-.45.01-.6.7-.5,1.11h13.01Z" fill="#606060"/>
      <path d="M87.52,59.41l-.03,1.06c-.02.78.41,1.43,1.22,1.57h19.78s.02,4.66.02,4.66l-19.84-.03c-3.11,0-5.78-2.62-5.78-5.69v-7.81c0-3.16,2.67-5.59,5.78-5.74h19.82s.01,4.65.01,4.65h-19.79c-.83.01-1.22.94-1.22,1.56v1.1s21,0,21,0v4.66s-20.97,0-20.97,0Z" fill="#606060"/>
      <path d="M130.44,62.04c.86-.05,1.34-.68,1.34-1.44v-7.05c0-.7-.49-1.44-1.28-1.45h-15.25s0,7.3,0,7.3h-4.66s0-11.97,0-11.97l20.04.03c3.24,0,5.79,2.8,5.79,5.94v7.43c-.02,3.38-2.92,5.96-6.29,5.86h-19.54s0-4.66,0-4.66h19.84Z" fill="#606060"/>
      <path d="M164.18,61.54h-14.21s0,5.16,0,5.16h-4.66s0-13.4,0-13.4c.14-3.16,2.61-5.83,5.84-5.83h11.81c3.38,0,5.96,2.89,5.88,6.21v13.01s-4.66,0-4.66,0v-5.16ZM164.18,56.88l-.02-3.57c0-.64-.62-1.13-1.22-1.21h-11.77c-.68.12-1.2.67-1.2,1.36v3.42s14.21,0,14.21,0Z" fill="#606060"/>
      <rect x="131.24" y="54.74" width="19.27" height="4.67" transform="translate(83.74 197.93) rotate(-89.97)" fill="#606060"/>
      <path d="M57.21,66.7v-11.95s17.6,0,17.6,0c.78,0,1.28-.73,1.25-1.37-.03-.71-.57-1.28-1.36-1.28h-17.64s0-4.66,0-4.66h17.9c3.31.14,5.8,2.83,5.76,6.06-.04,3.16-2.58,5.89-5.89,5.9h-12.98s0,7.3,0,7.3h-4.65Z" fill="#606060"/>
      <path d="M76.44,23.33v9.21s3.8-.03,3.8-.03c7.04-.54,12.32-6.53,12.16-13.47-.16-6.9-5.74-12.7-12.79-12.85l-9.31-.02V0S78.94,0,78.94,0c10.72,0,19.37,8.39,19.6,18.94.23,10.57-8.13,19.53-18.9,19.76l-9.36.02v-15.37s6.15,0,6.15,0Z" fill="#606060"/>
      <path d="M79.17,23.37c2.34-.09,4.03-1.88,4.01-4.06-.02-2.17-1.81-3.96-4.05-3.92h-8.83s0-6.16,0-6.16h8.56c5.72-.16,10.37,4.34,10.47,9.95.11,5.59-4.38,10.31-10.15,10.32v-6.12Z" fill="#606060"/>
      <path d="M58.88,71.68l-.08,3.49-2.31-2.88v2.64s-.42.04-.42.04l.1-3.59,2.29,2.81v-2.54c.01-.1.42-.06.42.03Z" fill="#606060"/>
      <path d="M43.11,75.13l-2.29-2.79v2.52c-.01.06-.38.18-.38.12l-.03-.29.09-3.29,2.28,2.78.03-2.45c0-.12.37-.18.39-.12l-.09,3.52Z" fill="#606060"/>
      <path d="M101.6,73.27c0,.96-.78,1.74-1.74,1.74s-1.74-.78-1.74-1.74.78-1.74,1.74-1.74,1.74.78,1.74,1.74ZM101.09,73.23c-.02-.86-.57-1.35-1.3-1.32-.73.03-1.18.6-1.17,1.38s.52,1.36,1.28,1.33c.7-.03,1.2-.56,1.18-1.4Z" fill="#606060"/>
      <path d="M78.72,71.56c1.08-.17,1.88.51,1.99,1.42.12.99-.4,1.87-1.39,2.01-.93.14-1.81-.41-1.96-1.4-.13-.88.3-1.86,1.36-2.03ZM80.27,73.23c-.01-.86-.58-1.36-1.33-1.32-.69.04-1.15.62-1.14,1.38s.54,1.35,1.26,1.34c.73-.02,1.23-.55,1.21-1.4Z" fill="#606060"/>
      <path d="M106.24,74.96c-.97.24-.99-1.54-2.03-1.42l-.02,1.41h-.46s0-3.4,0-3.4l1.42.05c.46.01.82.49.81.87,0,.51-.25.91-.86.93l1.13,1.57ZM105.31,72.06c-.31-.19-.82-.18-1.12-.16v1.33c.48,0,.86-.02,1.12-.19.22-.14.31-.79,0-.98Z" fill="#606060"/>
      <path d="M35.3,74.96c-.99.26-1-1.58-2.04-1.39v1.39s-.47-.01-.47-.01v-3.37s1.57.05,1.57.05c.43.01.7.59.66.96-.05.41-.3.71-.83.86l1.1,1.51ZM34.4,72.08c-.31-.22-.79-.2-1.14-.17l.02,1.33c.5,0,.86-.03,1.11-.21.2-.14.29-.76,0-.95Z" fill="#606060"/>
      <path d="M85.47,74.96c-.96.25-.98-1.51-2.03-1.43l-.03,1.42h-.45s0-3.37,0-3.37l1.56.05c.46.02.72.58.68.96-.05.42-.31.74-.84.84l1.12,1.53ZM84.56,72.07c-.32-.2-.8-.19-1.14-.17l.02,1.33c.47,0,.87-.03,1.12-.2.21-.14.29-.78,0-.96Z" fill="#606060"/>
      <path d="M72.48,74.93c-.96.32-1-1.56-2.04-1.37v1.39s-.46-.01-.46-.01v-3.35s1.59.06,1.59.06c.43.02.67.6.64.94-.04.45-.39.79-.84.88l1.11,1.47ZM71.59,72.08c-.3-.22-.77-.21-1.16-.18l.03,1.34c.52-.01.87-.05,1.12-.22.19-.14.29-.73,0-.93Z" fill="#606060"/>
      <path d="M47.9,74.37c.1-.1.11-.64-.02-.67l-.56-.13c-.06-.28.84-.37.96-.13.15.3.16,1.02-.05,1.27-.69.45-1.85.44-2.42-.19-.54-.61-.66-1.6-.11-2.35.48-.64,1.58-.85,2.36-.38l.2.12c.06.04,0,.21-.06.25-.18.12-1.43-.72-2.12.22-.36.49-.37,1.26.02,1.8.33.47,1.32.65,1.79.19Z" fill="#606060"/>
      <path d="M18.82,71.7c-.09,1.21.12,2.26-.13,3.46l-2.25-2.82-.08,2.6-.28.02.06-3.55,2.26,2.81.04-2.55c0-.1.39-.08.38.04Z" fill="#606060"/>
      <path d="M126.77,74.94c-.97.29-.98-1.56-2.04-1.39l-.05,1.35h-.38s-.03-3.33-.03-3.33l1.61.07c.41.02.65.6.62.93-.05.46-.37.79-.83.88l1.09,1.48ZM125.94,72.16c-.29-.34-.91-.32-1.23-.2v1.28c.44-.02.83-.04,1.1-.17.22-.1.36-.64.13-.91Z" fill="#606060"/>
      <path d="M146.16,74.12c-.46-.06-1.3-.18-1.67.08-.25.17-.15,1.05-.8.75l1.32-3.27c.06-.15.5-.13.57.03l1.3,3.27c-.6.05-.65-.34-.73-.86ZM145.96,73.73l-.67-1.68-.65,1.68h1.32Z" fill="#606060"/>
      <path d="M141.1,73.65l-.56.04c-.14,0-.08.46-.07.6l.02.48c0,.12-.18.21-.48.21v-3.41s1.68.09,1.68.09c.54.03.68.74.59,1.18-.1.49-.56.77-1.18.81ZM141.58,72.04c-.39-.15-.75-.15-1.13-.14l.04,1.46c.57,0,.95-.04,1.2-.27.21-.19.21-.92-.11-1.05Z" fill="#606060"/>
      <polygon points="155.43 73.4 154.09 73.45 154.09 74.58 155.67 74.71 155.67 74.91 153.62 75 153.63 71.55 155.68 71.65 155.67 71.89 154.09 71.96 154.09 73.1 155.37 73.18 155.43 73.4" fill="#606060"/>
      <path d="M26.55,73.64l-.65.06c-.17.01-.08.56-.07.72l.02.47c0,.09-.43.07-.47-.02l-.02-3.27,1.58.03c.55.01.76.64.72,1.09-.05.5-.46.86-1.1.92ZM26.94,72.04c-.38-.16-.74-.15-1.13-.15l.03,1.46c.58,0,.95-.04,1.2-.28.2-.19.21-.91-.1-1.04Z" fill="#606060"/>
      <path d="M117.38,71.75c.05-.14.56-.21.51-.09l-1.3,3.22c-.05.12-.46.09-.51-.02l-1.29-3.17c.02-.06.23-.18.28-.14.08.06.24.25.28.36l.99,2.5,1.03-2.66Z" fill="#606060"/>
      <polygon points="111.24 73.45 111.24 74.58 112.81 74.71 112.81 74.91 110.77 75 110.77 71.55 112.82 71.65 112.81 71.89 111.24 71.96 111.24 73.09 112.56 73.2 112.56 73.4 111.24 73.45" fill="#606060"/>
      <polygon points="121.74 73.4 120.39 73.45 120.39 74.58 121.98 74.71 121.99 74.91 119.93 75 119.93 71.55 121.99 71.65 121.98 71.89 120.39 71.96 120.39 73.1 121.68 73.18 121.74 73.4" fill="#606060"/>
      <polygon points="67.31 73.4 66.04 73.45 66.05 74.59 67.68 74.71 67.68 74.91 65.58 75 65.59 71.54 67.68 71.69 67.68 71.89 66.05 71.96 66.04 73.09 67.25 73.17 67.31 73.4" fill="#606060"/>
      <path d="M137.54,74.7c-.52.55-1.52.3-1.85-.12-.07-.09.18-.31.26-.26l.39.24c.16.1.61.06.79,0,.2-.08.36-.54.26-.75-.23-.48-1.43-.37-1.58-1.07-.1-.47.09-.87.53-1.1.4-.21,1.15-.04,1.38.24.04.05-.12.34-.18.31l-.39-.21c-.16-.08-.59-.02-.74.06s-.25.48-.15.62c.28.44,1.24.36,1.52.91.18.34.05.85-.23,1.14Z" fill="#606060"/>
      <path d="M149.08,73.34c.02.53.31.97.67,1.17.68.38,2.17-.53,1.72-.03-.74.83-2.03.64-2.54-.14-.44-.66-.43-1.62.13-2.29.51-.61,1.69-.71,2.34-.14.68.59-1-.22-1.66.14-.39.21-.69.68-.66,1.29Z" fill="#606060"/>
      <path d="M89.01,74.83c-.6.31-1.49.32-1.75-.53l1.04.32c.31.1.74-.24.76-.51.07-.95-1.66-.49-1.64-1.65,0-.56.48-.98,1.11-.92.36.03.78.04.88.62l-.92-.25c-.22-.06-.64.2-.67.46-.09.71,1.35.57,1.61,1.25.15.39-.01.98-.43,1.2Z" fill="#606060"/>
      <path d="M22.64,74.83c-.6.3-1.48.32-1.74-.54l1.04.32c.3.09.75-.23.78-.53.09-.85-1.67-.5-1.66-1.61,0-.57.48-.99,1.11-.94.37.03.78.05.89.62l-.93-.24c-.22-.06-.63.2-.67.46-.09.71,1.34.56,1.61,1.26.15.38,0,.98-.44,1.2Z" fill="#606060"/>
      <polygon points="95.97 73.39 94.53 73.51 94.53 74.94 94.07 74.94 94.07 71.56 96.1 71.65 96.09 71.89 94.53 71.96 94.52 73.1 95.91 73.18 95.97 73.39" fill="#606060"/>
      <path d="M131.37,71.63l-1.14,1.95c-.09.31-.04,1-.05,1.35h-.43s-.05-1.33-.05-1.33l-1.19-2.02c.18-.04.5.03.57.15l.88,1.53.9-1.56c.05-.09.31-.13.52-.07Z" fill="#606060"/>
      <path d="M62.46,74.84c-.07.04-.43.12-.46.1v-2.94s-1.23-.2-1.23-.2c1.04-.39,1.88-.28,2.92-.11-.48.3-.82.25-1.23.28v2.87Z" fill="#606060"/>
      <rect x="28.37" y="73.04" width="3.43" height=".47" transform="translate(-43.37 102.91) rotate(-89.65)" fill="#606060"/>
      <polygon points="75.12 74.89 74.65 74.95 74.64 71.62 75.12 71.56 75.12 74.89" fill="#606060"/>
      <polygon points="13.56 74.88 13.09 74.95 13.09 71.56 13.56 71.63 13.56 74.88" fill="#606060"/>
      <polygon points="37.93 74.88 37.46 74.95 37.45 71.62 37.92 71.57 37.93 74.88" fill="#606060"/>
      <rect x="51.65" y="73.03" width="3.44" height=".48" transform="translate(-19.91 126.62) rotate(-89.98)" fill="#606060"/>
    </g>
  </g>
</svg>