<?xml version="1.0" encoding="UTF-8"?>
<svg id="Layer_2" data-name="Layer 2" xmlns="http://www.w3.org/2000/svg" viewBox="0 0 178.68 72.6">
  <g id="Layer_1-2" data-name="Layer 1">
    <g>
      <g>
        <path d="M50.18,53.42c-2.64-2.76-5.48-7.69-6.52-11.36-.59-2.07-.03-4.09,1.45-5.66,0,0,.89-.83.97-.89l1.9-1.31c1.88-1.07,3.82-1.83,5.9-2.42,3.48-.99,7.23-.94,9.95,1.55,3.1,2.84,3.52,7.25,2.36,11.19-1.18,3.97-3.56,7.42-7.1,9.56-2.96,1.79-6.45,1.9-8.9-.66Z" fill="#606060"/>
        <path d="M41.35,60.06c-2.31,1.96-5.62,2.04-8.58,1.51-3.85-.69-7.95-2.84-10.57-5.75-3.16-3.53-2.71-8.65.71-11.74,1.25-1.13,2.63-1.93,4.17-2.62,2.92-1.17,5.89-1.89,9.06-1.71.7.04,1.01.16,1.01.16.93.27,1.78.68,2.51,1.36,1.78,1.66,2.56,3.71,3.19,6.04l.35,1.31c.58,2.13.7,4.3.55,6.51-.13,1.94-.92,3.7-2.4,4.95Z" fill="#606060"/>
        <path d="M12.48,27.81l1.07.84c2.24,1.75,4.65,3.06,7.36,3.99,5.31,1.84,10.87,2.26,16.53,1.51-1.97,1.71-4.1,2.98-6.44,3.97-7.07,3-14.86,1.51-20.97-2.96-4.37-3.19-7.64-7.33-10.02-12.27,4.29-2.86,8.72-4.97,13.91-5.63,4.13-.48,8.3.45,11.94,2.43,4.42,2.4,8.06,5.95,10.61,10.27l.87,1.71c-1.83.31-3.53.46-5.41.43-4.66-.07-9.2-.78-13.64-2.19-1.98-.63-3.81-1.41-5.7-2.19l-.1.08ZM12.49,27.64l-.18.02.18-.02Z" fill="#969696"/>
        <path d="M42.39,32.05c5.29-3.65,9.91-8.6,12.48-14.54.66-1.65,1.25-3.24,1.42-5.1-1.8,3.58-3.9,6.88-6.53,9.89-1.92,2.18-3.94,4.12-6.2,5.92-1.33,1-2.6,1.9-4.11,2.81-.96-4.47-.61-9.01.83-13.32,1.26-3.76,3.44-7.01,6.36-9.65,4.13-3.74,9.26-6.03,14.4-8.06,1.79,5.6,1.99,11.41.62,17.06-.92,3.77-2.31,6.88-5.07,9.62-3.29,3.26-7.36,5.11-11.94,5.75-1.02.14-1.94.18-2.93.15l.67-.52Z" fill="#969696"/>
      </g>
      <g>
        <path d="M138.28,35.28l-1.64-.05c-.3,0-.42-.41-.37-.73.07-.45.25-1.11.8-1.12l1.63-.04.63-3.04c.1-.48.39-.85.92-1.01l1.08-5.46.5-2.52c.13-.63.1-1.36-.19-1.94-.59-1.19-2.74-1.17-4.17.16-.98.91-1.52,2.05-1.78,3.35l-1.36,6.75c-.12.61-.84.71-1.36.72-.42,0-1.12-.19-1.01-.75l2.41-12.38c.13-.68,1.4-.86,2.03-.47.16.1.26.51.23.69l-.2,1.3c1.41-1.52,2.92-2.56,5.03-2.31,1.35.16,2.4,1.06,2.71,2.39.25,1.03.14,2.07-.07,3.12l-1.48,7.53c-.18.91-.98.71-1.07,1.19l-.52,2.68,2.17.03c.5,0,.59.55.48.95-.09.34-.29.92-.71.92l-2.32.02-1.64,8.03c-.14.7.29,1.29.98,1.33,1.08.06,1.74-.6,1.9,0,.1.38.13.93.05,1.31-.15.13-.52.35-.72.4-1.94.49-4.17.26-4.52-1.65-.12-.66-.08-1.35.06-2.02l1.52-7.37Z" fill="#606060"/>
        <path d="M95.61,32.4c-.03-.34.28-.76.63-.76h1.2c.19,0,.45.34.47.54.08.81.75,1.41,1.56,1.53.92.14,1.86.14,2.7-.28s1.48-1.19,1.69-2.09l.68-3.01-1.15,1c-1.35,1.17-3.41,1.25-4.95.29-1.07-.66-1.74-1.75-2.02-2.99-.67-2.93.12-6.04,2.11-8.28,1.04-1.17,2.42-1.87,3.93-1.94,1.77-.09,3.24.76,3.97,2.35l.3-1.45c.13-.61.73-.75,1.3-.74.37,0,1.05.19.96.69l-.45,2.54-1.99,10.22c-.17.86-.39,1.63-.72,2.41-.69,1.6-2.04,2.74-3.76,3.14-2.85.65-6.23-.15-6.47-3.17ZM105.57,23.37c.18-1.05.26-2.08-.11-3.09-.25-.69-.71-1.32-1.4-1.6-1.36-.57-2.79-.08-3.75,1-1.45,1.63-2.08,4.4-1.51,6.47.4,1.46,1.78,2.28,3.25,1.94,2.18-.5,3.14-2.57,3.51-4.72Z" fill="#606060"/>
        <path d="M118.84,27.77c-.45-1.98.44-3.86,2.2-4.74.87-.43,1.81-.68,2.79-.76l3-.24c.28-.02.7-.15.97-.26.49-1.39.28-2.78-1.08-3.19-1.57-.47-3.34.09-4,1.69-.06.14-.37.37-.54.35l-1.26-.2c-.12-.02-.33-.18-.36-.28s0-.35.03-.45c1.12-2.88,4.79-4.01,7.65-2.84,1.66.68,2.37,2.54,2.02,4.29l-1.28,6.39c-.27,1.34.49,2.11.27,2.51-.07.12-.33.28-.47.28h-1.32c-.17,0-.54-.28-.57-.45l-.23-1.3-.62.58c-1.37,1.28-3.31,1.77-5.1,1.11-1.08-.4-1.84-1.33-2.11-2.5ZM126.56,26.66c.19-.31.41-.73.48-1.06l.43-1.99-2.98.44c-.74.11-1.48.2-2.15.51-1.25.59-1.71,2.23-.86,3.32,1.07,1.38,3.84.84,5.07-1.22Z" fill="#606060"/>
        <path d="M82.86,27.34c-.21-1.87.71-3.53,2.34-4.32.95-.46,1.97-.68,3.03-.76l2.46-.19,1.29-.26c.23-.79.39-1.58.01-2.31s-1.26-1.07-2.09-1.04c-1.31-.1-2.45.51-3.02,1.7-.04.09-.31.48-.47.46l-1.46-.18c-1-.12.51-3.08,3.32-3.79,2.58-.65,5.62.03,6.11,2.7.12.62.13,1.34,0,1.98l-1.26,6.42c-.23,1.16.5,1.83.28,2.31-.05.1-.29.26-.4.26l-1.32.02c-.61,0-.84-.86-.83-1.73-1.5,1.59-3.58,2.42-5.68,1.72-1.32-.44-2.17-1.54-2.34-2.98ZM90.33,27.26c.42-.5.78-1.1.92-1.74l.4-1.86-3.47.46c-.76.1-1.53.28-2.14.74-.94.72-1.19,2.03-.49,2.99.88,1.21,3.36,1.09,4.78-.59Z" fill="#606060"/>
        <path d="M70.66,29.22c-.12.57-.3.99-.9,1.09-.28.05-.7.04-1.03,0s-.62-.48-.56-.8l.81-4.01,1.44-6.89-1.59.02c-.18,0-.52-.28-.51-.48.06-.8.32-1.49.96-1.49h1.58s.56-2.74.56-2.74c.17-.83.6-1.64,1.21-2.22,1.19-1.14,3.13-1.2,4.7-.68.14.05.34.41.29.54l-.44,1.11c-.31.78-1.54-.29-2.72.43-.33.2-.67.7-.76,1.09l-.54,2.48h2.17c.19,0,.53.25.51.42l-.1.8c-.06.47-.42.73-.86.73h-2.09s-2.14,10.6-2.14,10.6Z" fill="#606060"/>
        <path d="M151.9,29.52c.06.88-2.11,1.28-3.64.82s-1.75-2.08-1.41-3.73l1.65-7.97-1.45-.02c-.2,0-.59-.22-.54-.44l.22-1.07c.05-.25.53-.47.76-.47l1.48.02.64-3.21c.14-.69.67-1.04,1.38-1.05.42,0,1.04.32.93.85l-.67,3.39,2.07.03c.43,0,.64.59.47.97,0,.28-.27.92-.58.93l-2.34.06-1.64,7.78-.14,1.3c-.03.33.35.7.68.75.99.13,1.48-.28,1.86-.16.08.03.2.24.2.33l.06.87Z" fill="#606060"/>
        <path d="M76.29,30.36l-.86-.08c-.28-.03-.49-.47-.43-.77l2.32-11.81c.09-.47.17-.93.74-1.07.34-.08.83-.06,1.22.03.26.06.44.46.4.7l-.23,1.5c.73-.86,1.4-1.63,2.43-2.06,1.66-.69,3.27-.33,2.9.54l-.41.97c-.06.15-.33.39-.48.5-2.83-.79-4.68,1.72-5.23,4.46l-1.28,6.39c-.09.43-.64.74-1.07.7Z" fill="#606060"/>
        <path d="M112.39,29.4c-.18.92-.83,1.02-1.86.92-.36-.04-.66-.44-.59-.79l.86-4.38,1.55-7.91c.11-.55.76-.69,1.24-.68.33,0,.95.08.97.5.03.64-.15,1.29-.26,1.89.73-.94,1.47-1.71,2.49-2.16,1.67-.74,3.24-.22,2.94.43l-.61,1.33c-.07.15-.43.23-.56.2-2.42-.65-4.4,1.72-4.85,3.96l-1.33,6.68Z" fill="#606060"/>
        <path d="M122.77,40.85c1.49-2.16,4.38-1.97,6.4-2.19l2.44-.26c.5-1.34.28-2.69-1-3.12-1.11-.37-2.35-.3-3.39.28s-1.1,1.72-1.82,1.6l-1.23-.21c-.08-.01-.27-.14-.3-.22s-.01-.29.02-.39c1.1-2.82,4.93-3.84,7.9-2.81,1.98.68,2.64,2.47,2.22,4.5l-1.13,5.44c-.16.77-.07,1.48.27,2.2.09.19-.12.61-.32.62l-1.36.07c-.32.02-.77-.31-.82-.63l-.17-1.02c-1.48,1.52-3.56,2.2-5.63,1.68-.94-.24-1.78-.78-2.27-1.62-.68-1.2-.63-2.74.18-3.91ZM128.74,44.32c1.08-.5,1.92-1.42,2.19-2.59l.37-1.63-2.91.32-1.85.25c-.65.09-1.27.49-1.66,1-.43.56-.52,1.29-.23,1.95.59,1.32,2.64,1.37,4.09.7Z" fill="#606060"/>
        <path d="M175.33,42.79c.11-.21.46-.47.64-.44l1.34.21c.75.12-.27,1.69-1.23,2.48-1.5,1.25-3.43,1.75-5.35,1.42-1.68-.28-3.03-1.31-3.69-2.88-.96-2.3-.36-5.34,1.03-7.43,1.48-2.22,4.02-3.4,6.65-2.92.95.17,1.85.59,2.52,1.27,1.32,1.34,1.68,3.65,1.28,5.52-.05.23-.39.5-.62.5h-8.93c-.3,2.14.65,4.02,2.8,4.16,1.46.1,2.83-.54,3.55-1.89ZM176.46,38.73l-.18-1.68c-.34-.98-1.06-1.71-2.1-1.93-2.27-.49-4.37,1.3-4.89,3.63l7.17-.02Z" fill="#606060"/>
        <path d="M111.73,38.58l-1.36,6.83c-.19.94-.93,1.07-1.98.88-.31-.05-.54-.47-.48-.76l.76-3.84,1.47-7.65c.14-.73,1.02-.87,1.91-.65.3.07.5.48.44.75l-.24,1.38,1.16-1.11c1.42-1.36,4.41-1.85,6.06-.3,1.09,1.02,1.03,2.63.73,4.1l-1.03,4.97-.52,2.5c-.15.71-1.72.92-2.21.42-.13-.13-.15-.5-.1-.74l1.59-7.96c.11-.54-.05-1.19-.36-1.61-.82-1.07-3.01-.79-4.26.41-.66.63-1.36,1.39-1.55,2.38Z" fill="#606060"/>
        <path d="M156.62,34.09l-1.16,5.79-1.07,5.49c-.08.41-.27.87-.75.94-.34.05-.74.05-1.11.01-.32-.03-.49-.39-.45-.67l.19-1.32c-1.27,1.28-2.59,2.11-4.29,2.22-1.09.08-2.19-.17-2.95-.98-.93-1-.89-2.45-.61-3.83l1.52-7.7c.06-.29.38-.68.66-.68h1.22c.26,0,.55.44.51.67l-.33,1.6-1.27,6.52c-.23,1.16.23,2.23,1.41,2.43,2.22.37,4.36-1.53,4.75-3.51l1.39-7.08c.06-.29.48-.65.75-.65h1.04c.27,0,.63.4.56.74Z" fill="#606060"/>
        <path d="M159.3,46.32h-1.11c-.27.02-.59-.38-.53-.67l2.28-11.39c.09-.46.24-.84.78-.92.29-.04.78-.04,1.07.02.44.1.51.5.45.83l-.24,1.34c.72-.85,1.42-1.59,2.44-2.02,1.6-.68,3.22-.24,2.96.36l-.51,1.22c-.07.16-.43.29-.59.25-2.42-.61-4.47,1.58-4.93,3.78l-1.36,6.56c-.05.23-.47.63-.72.63Z" fill="#606060"/>
      </g>
      <g>
        <rect x="106.26" y="51.53" width=".72" height="8.22" transform="translate(50.96 162.25) rotate(-89.99)" fill="#969696"/>
        <rect x="165.89" y="55.29" width="8.19" height=".72" fill="#969696"/>
        <path d="M158.45,70.83l-.03-4.34-1.4,2.57c-.06.1-.22.28-.33.31-.13.04-.31-.2-.38-.34l-1.43-2.55-.03,4.33h-.7s0-5.54,0-5.54l.81-.02,1.71,3.13,1.63-3.08.83-.03v5.56s-.7,0-.7,0Z" fill="#606060"/>
        <path d="M131.42,70.83l-.04-4.34-1.46,2.62c-.05.09-.17.24-.26.27-.11.04-.31-.16-.37-.26l-1.44-2.64-.04,4.35h-.69s0-5.56,0-5.56h.82s.48.9.48.9l1.2,2.21,1.68-3.13.81.02v5.57s-.71,0-.71,0Z" fill="#606060"/>
        <polygon points="103.88 65.26 103.88 70.83 103.18 70.83 100.36 66.45 100.33 70.81 99.64 70.83 99.64 65.26 100.42 65.26 101.8 67.44 103.18 69.58 103.22 65.28 103.88 65.26" fill="#606060"/>
        <path d="M79.09,72.14c.04-.15.18-.43.26-.56.59.37,1.28.59,1.9.24.48-.28.58-.96.39-1.5-.65.74-1.8.69-2.42-.12-.79-1.03-.51-2.88.73-3.33.62-.22,1.19-.1,1.65.18.21-.17.44-.21.78-.18l-.02,4.27c0,.64-.52,1.18-1.08,1.34-.73.21-1.52.1-2.2-.35ZM81.72,69.19l-.04-1.28c-.35-.66-1.31-.73-1.78-.22-.57.63-.55,1.65.02,2.26.28.3.78.32,1.12.18.31-.13.68-.49.67-.94Z" fill="#606060"/>
        <path d="M140.02,70.43c-.33.32-.8.57-1.28.52-.46-.05-.95-.31-1.19-.75-.45-.79-.49-1.76-.06-2.56.52-.96,1.71-1.18,2.57-.49l.02-2.08.66.02v5.73s-.54.02-.54.02l-.18-.42ZM140.02,67.94c-.11-.51-.79-.62-1.2-.54s-.75.45-.86.95c-.13.61-.07,1.26.37,1.74.26.28.78.3,1.12.15.73-.32.76-1.38.57-2.3Z" fill="#606060"/>
        <path d="M165.84,70.9c-.62-.13-.94-.55-.97-1.13-.04-.64.31-1.23,1-1.36.49-.09,1.04-.07,1.61-.06.1-.51-.21-.94-.75-1.01-.41-.05-.94.16-1.31.37-.11.04-.37-.37-.27-.47.37-.37,1.09-.52,1.63-.49.81.04,1.38.58,1.38,1.38l.02,2.69h-.6s-.16-.4-.16-.4c-.39.42-.96.6-1.57.47ZM167.41,68.92c-.4-.08-.92-.07-1.23,0-.48.1-.69.51-.61.9.07.35.45.61.88.55.34-.04.7-.27.87-.47s.26-.84.08-.98Z" fill="#606060"/>
        <path d="M75.36,70.79c-.56-.27-.73-.84-.65-1.37.08-.5.52-1.02,1.13-1.03l1.45-.03c.03-.14-.06-.64-.22-.77-.52-.41-1.31-.26-1.8.14-.12-.02-.36-.33-.36-.49.63-.53,1.68-.66,2.42-.25.53.29.62.9.63,1.45l.02,2.39h-.57s-.13-.4-.13-.4c-.51.46-1.21.69-1.91.36ZM77.24,68.9c-.41-.04-.85-.04-1.21,0-.43.06-.67.48-.64.82.04.39.36.68.84.65.35-.02.75-.23.94-.5.14-.2.16-.75.07-.97Z" fill="#606060"/>
        <path d="M142.81,70.08c.67.48,1.39.29,1.94-.25l.41.45c-.81.79-2.04.92-2.88.18-.61-.54-.73-1.41-.58-2.17.14-.7.63-1.27,1.2-1.43.71-.21,1.47-.07,1.92.51.35.47.44,1.09.44,1.7l-2.91.02c.04.35.19.8.46.99ZM144.56,68.52c-.14-.62-.25-.85-.51-1.03-.21-.15-.68-.19-.89-.1-.52.22-.77.64-.79,1.15l2.19-.02Z" fill="#606060"/>
        <path d="M120.17,70.02c.61.56,1.39.31,1.92-.11.12-.09.49.29.39.39-.75.79-2.15.9-2.9.05-.65-.74-.7-1.88-.22-2.71.57-.99,1.9-1.22,2.71-.46.5.47.6,1.13.55,1.87l-2.85.02c.04.33.18.73.4.94ZM121.98,68.52l-.31-.92c-.44-.27-.87-.34-1.3-.12-.37.19-.57.62-.58,1.06l2.19-.02Z" fill="#606060"/>
        <path d="M176.23,70.15c.65.4,1.3.15,1.81-.3.12.05.35.31.38.44-.8.82-2.18.93-2.96.04-.68-.77-.69-1.96-.14-2.79.32-.5.83-.75,1.31-.78.57-.03,1.11.13,1.46.61s.45,1.14.38,1.7h-2.82c.05.43.23.87.57,1.08ZM177.81,68.53c.02-.81-.53-1.2-1.15-1.16-.58.04-.99.56-.99,1.16h2.14Z" fill="#606060"/>
        <path d="M87.03,70.88c-.56-.14-.9-.52-.94-1.11-.04-.65.31-1.23,1.02-1.36.48-.09,1.03-.06,1.58-.04.11-.52-.22-.97-.73-1.03-.48-.05-.91.1-1.36.39l-.37-.42c.54-.48,1.19-.6,1.88-.54.83.07,1.26.65,1.27,1.45v2.61s-.53,0-.53,0l-.2-.4c-.4.46-1.01.6-1.61.46ZM88.67,68.91c-.37-.06-.92-.06-1.27,0-.43.08-.64.47-.6.79.05.37.33.65.78.65.35,0,.72-.19.92-.4.21-.23.31-.78.17-1.04Z" fill="#606060"/>
        <path d="M105.31,70.65c-.35-.26-.49-.74-.45-1.1.14-1.18,1.2-1.28,2.55-1.2.08-.07.05-.49-.03-.62-.33-.51-1.27-.48-1.97,0-.08.02-.34-.38-.25-.49.35-.36,1.12-.53,1.65-.48.78.07,1.33.57,1.33,1.36l.02,2.41c0,.06.1.25.04.26l-.28.05c-.07.01-.31.04-.33-.02l-.16-.39c-.55.51-1.41.74-2.12.22ZM107.47,68.87l-1.38.08c-.34.02-.58.5-.55.77.04.33.32.61.72.63s.82-.14,1.01-.4c.22-.29.23-.65.2-1.08Z" fill="#606060"/>
        <path d="M135.62,70.42c-.6.61-1.5.72-2.16.18-.38-.31-.46-.87-.32-1.34.12-.39.56-.85,1.08-.87l1.48-.04c.03-.15-.09-.67-.29-.8-.54-.35-1.23-.25-1.74.2-.11-.09-.31-.34-.37-.48.61-.47,1.35-.61,2.07-.43.54.14.98.63.98,1.21v2.17s.07.62.07.62h-.58s-.21-.42-.21-.42ZM135.65,69.63c.06-.19.06-.49.06-.77l-1.31.04c-.21,0-.57.35-.63.56-.06.22.05.65.27.77.57.3,1.37.09,1.6-.59Z" fill="#606060"/>
        <path d="M148.32,70.7c-.36-.23-.53-.7-.52-1.07s.22-.87.62-1.05c.61-.29,1.2-.25,1.95-.2.08-.2-.02-.71-.24-.83-.62-.35-1.23-.21-1.77.2-.1-.03-.33-.38-.26-.5.53-.48,1.59-.65,2.26-.3.56.29.72.8.72,1.4l.04,2.5h-.61s-.13-.39-.13-.39c-.55.48-1.33.72-2.06.26ZM150.41,68.87l-1.29.04c-.41.01-.66.49-.62.81.05.38.36.67.83.65.31-.01.74-.21.89-.43.21-.29.21-.64.19-1.08Z" fill="#606060"/>
        <polygon points="71.08 67.72 71.07 68.35 68.86 68.34 68.87 70.83 68.18 70.84 68.18 65.26 71.54 65.24 71.54 65.88 68.87 65.88 68.86 67.71 71.08 67.72" fill="#606060"/>
        <path d="M115.33,66.88v3.95s-.65,0-.65,0l-.09-.52c-.51.67-1.41.86-2.11.34-.28-.21-.45-.73-.45-1.07v-2.7s.66,0,.66,0v2.68c0,.37.31.72.69.76.57.06,1.24-.37,1.25-.98l.02-2.49.67.02Z" fill="#606060"/>
        <path d="M92.78,67.51c-.67-.34-1.45.06-1.66.71v2.61s-.67,0-.67,0v-3.95s.63-.02.63-.02l.08.48c.52-.56,1.32-.81,2.04-.4.36.21.56.74.56,1.15v2.73s-.68-.01-.68-.01v-2.67c0-.16-.14-.56-.3-.64Z" fill="#606060"/>
        <path d="M169.95,69.78c.2.38.66.58.99.57.44-.01.74-.19,1.12-.56l.39.43c-.76.93-2.19.99-2.96.06-.63-.76-.63-1.88-.12-2.7.31-.51.89-.77,1.37-.81.68-.05,1.2.1,1.68.7l-.46.39c-.35-.4-.72-.54-1.22-.47-.89.11-1.3,1.41-.78,2.39Z" fill="#606060"/>
        <path d="M110.31,70.25c.33.26.83-.27,1.06.15.21.4-.82.79-1.54.34-.22-.14-.4-.61-.41-.87v-2.41s-.69-.02-.69-.02v-.56s.67-.02.67-.02l.02-1.15.67-.07v1.23s1.05,0,1.05,0v.56s-1.05.03-1.05.03v2.35c-.01.11.13.38.21.44Z" fill="#606060"/>
        <path d="M96.86,70.16l.24.49c-.48.3-1.02.42-1.55.12-.27-.15-.47-.61-.48-.93l-.02-2.37-.67-.08c0-.1-.02-.46.08-.47l.57-.08.02-1.14.67-.07v1.21s1.05.03,1.05.03v.56s-1.04.02-1.04.02l-.02,2.21c0,.16.13.54.25.6.19.09.54.02.88-.11Z" fill="#606060"/>
        <rect x="173.29" y="65.06" width=".68" height="5.78" transform="translate(-.18 .47)" fill="#606060"/>
        <path d="M84.16,70.83h-.67s0-3.95,0-3.95l.66-.03.03.57c.45-.63.89-.75,1.62-.57l-.15.64c-.37-.05-.74-.04-.98.1-.2.12-.5.57-.5.81l-.02,2.42Z" fill="#606060"/>
        <path d="M162.96,70.81l-.68.02v-3.97s.63,0,.63,0l.12.5c.4-.52.92-.75,1.61-.5l-.2.64c-.35-.09-.74-.07-.99.09-.2.14-.48.57-.48.82v2.39Z" fill="#606060"/>
        <path d="M72.76,70.82h-.67s0-3.94,0-3.94l.61-.02.12.51c.38-.54.98-.75,1.62-.49l-.19.56c-.38-.01-.74,0-.99.15-.21.12-.46.56-.46.84l-.02,2.38Z" fill="#606060"/>
        <path d="M117.14,70.82h-.66s0-3.93,0-3.93l.64-.02.07.49c.39-.52.93-.74,1.6-.49l-.17.63c-.31-.07-.69-.09-.94.05-.2.11-.51.53-.51.77l-.03,2.5Z" fill="#606060"/>
        <rect x="160.4" y="66.86" width=".68" height="3.96" fill="#606060"/>
        <path d="M123.64,71.85l-.5-.07.4-.85c-.26-.21-.38-.48-.3-.73s.42-.32.65-.27c.2.04.4.5.3.71l-.55,1.2Z" fill="#606060"/>
        <circle cx="160.74" cy="65.61" r=".46" fill="#606060"/>
        <path d="M122.44,55.15c0-.57-.43-.92-.95-.82-.35.07-.94.45-.95.86l-.04,2.82h-.62s0-4.18,0-4.18h.61s.04.51.04.51c.47-.49,1.11-.78,1.83-.5.22.09.52.42.65.6.38-.39.84-.71,1.35-.72.72-.02,1.3.5,1.3,1.21v3.08s-.64,0-.64,0v-2.88c.01-.48-.34-.86-.88-.8-.35.04-1.01.44-1.02.88l-.03,2.8h-.64s0-2.85,0-2.85Z" fill="#606060"/>
        <path d="M140.02,57.85l-.05.16h-.63s0-6.03,0-6.03l.65-.02v2.3c.48-.37.87-.58,1.32-.55s.95.27,1.23.71c.75,1.16.48,3.17-.89,3.69-.61.08-1.05-.02-1.49-.32l-.15.06ZM141.83,57.26c.58-.68.58-1.55.28-2.28-.27-.63-1-.82-1.53-.51-.18.11-.56.42-.56.64v1.64c0,.36.48.66.75.76.3.11.83.04,1.07-.25ZM140.11,57.68h-.13s.13,0,.13,0Z" fill="#606060"/>
        <path d="M127.53,59.75l-.65.02v-5.91s.6,0,.6,0l.06.46c.41-.39.87-.65,1.46-.59.49.05,1.03.39,1.27.94.55,1.23.21,3-1.01,3.39-.62.2-1.15.04-1.7-.38l-.03,2.08ZM129.49,57.14c.49-.72.47-1.62.08-2.33-.23-.41-.69-.59-1.16-.46-.28.08-.84.46-.85.75v1.67c-.02.38.53.69.82.77.37.1.86-.03,1.11-.4Z" fill="#606060"/>
        <path d="M146.69,57.12c.13-.13.57.23.45.37-.78.92-2.32.9-3.02-.1-.59-.84-.57-2.01-.06-2.86.3-.5.84-.77,1.34-.82.56-.05,1.16.16,1.51.66.36.52.43,1.19.4,1.76l-2.94.02c.03.61.34,1.1.77,1.28.53.22,1.04.18,1.55-.33ZM146.61,55.61c.07-.44-.15-.96-.49-1.17-.42-.25-.97-.22-1.31.17-.23.26-.37.67-.44,1h2.24Z" fill="#606060"/>
        <path d="M151.61,59.01c-.29.83-1.17,1.08-1.89.65l.17-.53c.23.07.65.16.83.04.26-.18.58-.86.5-1.16l-1.57-4.17h.7s1.24,3.34,1.24,3.34l1.16-3.34.68.02-1.82,5.15Z" fill="#606060"/>
        <path d="M157.34,57.3c-.67,1.06-2.19,1.1-2.98.2-.45-.52-.53-1.19-.5-1.86.05-1.01.71-1.81,1.69-1.93.92-.11,1.87.49,2.08,1.49.14.69.12,1.44-.29,2.09ZM156.87,56.81c.24-.6.21-1.24-.03-1.79-.21-.48-.65-.74-1.13-.72-.4.02-.83.31-1.01.74-.25.59-.21,1.26.04,1.85.19.44.65.68,1.08.69s.87-.28,1.06-.77Z" fill="#606060"/>
        <path d="M134.89,59.09c-.13.36-.5.65-.75.73-.33.11-.85,0-1.16-.16l.23-.53c.23.1.73.19.88.01.22-.25.42-.74.47-1.04l-1.61-4.25.67-.02,1.26,3.42,1.16-3.43h.68s-1.85,5.26-1.85,5.26Z" fill="#606060"/>
        <path d="M161.99,53.82v4.16s-.59.03-.59.03l-.12-.49c-.49.55-1.26.82-1.97.46-.41-.21-.66-.74-.66-1.21v-2.93s.63-.03.63-.03l.03,2.93c0,.53.46.93,1.02.79.32-.08.97-.49.98-.88l.04-2.81.63-.03Z" fill="#606060"/>
        <path d="M116.44,57.89c-.87.48-1.9.28-2.6-.37l.41-.45c.53.43,1.01.63,1.68.45.18-.05.43-.4.43-.59,0-.26-.26-.51-.52-.61l-1.4-.52c-.3-.11-.47-.65-.45-.96.03-.35.29-.76.64-.93.74-.36,1.59-.22,2.24.32l-.32.53c-.47-.4-.9-.56-1.48-.41-.17.04-.41.32-.43.48-.02.2.21.52.41.59l1.12.36c.42.13.77.5.83.87.07.46-.07.99-.55,1.25Z" fill="#606060"/>
        <rect x="131.52" y="51.95" width=".68" height="6.06" fill="#606060"/>
        <rect x="117.99" y="53.81" width=".67" height="4.2" fill="#606060"/>
      </g>
      <circle cx="118.29" cy="52.54" r=".45"/>
    </g>
  </g>
</svg>