<?xml version="1.0" encoding="UTF-8"?>
<svg id="Layer_2" data-name="Layer 2" xmlns="http://www.w3.org/2000/svg" viewBox="0 0 154.32 44.31">
  <g id="Layer_1-2" data-name="Layer 1">
    <g>
      <g>
        <path d="M77.3,9.57l-2.89.06-1.63-3.35c-.12-.24-.62-.48-1.1-.6l-.04,3.89h-2.63s-.02-9.43-.02-9.43l4.45-.02c.51,0,1.38.13,1.82.31,1.13.45,1.52,1.59,1.44,2.65s-.84,2.11-1.99,2.34c.54.32,1.02.81,1.41,1.38l1.2,2.77ZM73.67,3.79c.52-.16.57-1.51,0-1.56l-2.03-.16v1.99c.68-.05,1.42-.08,2.03-.28Z" fill="#606060"/>
        <polygon points="85.4 5.58 81.26 5.57 81.27 7.47 85.87 7.49 85.85 9.62 78.64 9.63 78.63 .12 85.67 .11 85.73 2.16 81.26 2.19 81.23 3.69 85.34 3.68 85.4 5.58" fill="#606060"/>
        <polygon points="94.24 5.55 90.08 5.59 90.12 7.47 94.72 7.49 94.71 9.6 87.48 9.63 87.47 .13 94.5 .11 94.57 2.17 90.11 2.18 90.06 3.66 94.2 3.7 94.24 5.55" fill="#606060"/>
        <path d="M67.25,7.21c-.44,1.99-2.2,2.6-3.96,2.6-2.02,0-3.64-1.01-3.7-3.35l2.4-.09c.22.55.46,1.18.77,1.39.37.24,1.08.22,1.55,0,.26-.11.46-.74.42-1.06-.13-.96-2.15-.74-3.92-1.94-.8-.54-1.08-1.58-.9-2.49.4-2.05,2.68-2.59,4.93-2.13,1.28.26,2.18,1.42,2.1,2.65l-2.41.18c-.08-.79-.56-1.31-1.46-1.22-.28.03-.72.35-.73.6-.02.34.26.69.57.78l2.65.81c1.32.4,1.98,1.86,1.68,3.25Z" fill="#606060"/>
      </g>
      <g>
        <path d="M9.94,27.59l7.29.15-.12-4.41-5.99.08v-4.36s14.52.15,14.52.15l-.11,2.01-.15,6.62c-.04,1.66-.81,4.58-3.19,4.81-6.12.44-12.38.08-18.68.12-1.43,0-3.46-1.17-3.46-2.7l-.05-28.22C.34,1.13.94.46,1.31.19,2.3-.1,3.03-.02,3.81.48l19.71,7.47c.84.32,1.69,1.03,2.12,1.74l.03,7.91-7.43.02-.1-3.62-.1-2.36-9.54-3.17.12,9.21.12,8.08c0,.57.38,1.81,1.2,1.82Z" fill="#606060"/>
        <path d="M135.98,32.74l-6.2.03V9.49s5.15-1.36,5.15-1.36l4.81,10.3.55.08c.11.02.19-.28.24-.43l3.91-13.1,9.86-3.71v31.48s-7.39.02-7.39.02l-.4-13.8-5.8,13.37-4.69-9.85-.05,10.24Z" fill="#606060"/>
        <path d="M86.72,15.04v15.59c0,1.06-1.2,2.19-2.23,2.2l-10.3.05c-1.56,0-2.96-.58-3.27-2.28v-15.53s6.39,0,6.39,0v13.01s3.33-.05,3.33-.05l-.03-13h6.11Z" fill="#606060"/>
        <path d="M58.64,24.61l9.6,8.11-5.93.05-7.21-5.45c-.24-.18-.6-.28-1.06-.35l-.06,5.91-6.42-.03V13.38s6.45,1.06,6.45,1.06l-.21,8.05.83-.21,7.38-7.38,5.51.69-8.88,9.03Z" fill="#606060"/>
        <polygon points="103.59 28.45 103.59 32.78 89.26 32.79 89.27 15.08 91.32 14.95 94.82 14.79 94.89 18.99 94.95 28.41 103.59 28.45" fill="#606060"/>
        <path d="M120.43,29.41l-6.44-.19-1.21,3.55h-6.58s7.79-20.1,7.79-20.1l5.84-1.05,7.28,21.1-5.55.03-1.13-3.34ZM118.81,25.9l-2.14-5.68-2.27,5.71,4.41-.02Z" fill="#606060"/>
        <path d="M45.2,30.37c0,1.29-.8,2.39-2.11,2.39h-12.58c-1.58.02-2.63-1.12-2.63-2.71l-.02-16.99c0-.92-.25-1.84.36-2.63.55-.7,1.68-.95,2.6-.74l12.29,2.86c1.49.35,2.24,1.83,2.09,3.25v10.65s0,3.91,0,3.91ZM38.58,27.49v-10.3s-3.52-.94-3.52-.94v11.24s3.52,0,3.52,0Z" fill="#606060"/>
      </g>
      <g>
        <path d="M23.72,40.7v.42c0,.91-.31,1.67-.94,2.28-.63.6-1.46.91-2.49.91s-1.95-.35-2.65-1.06c-.7-.7-1.05-1.56-1.05-2.58s.35-1.87,1.05-2.58c.7-.7,1.57-1.06,2.63-1.06.65,0,1.24.16,1.78.47.54.31.96.72,1.25,1.23l-.8.47c-.2-.38-.5-.69-.91-.92-.4-.23-.85-.35-1.34-.35-.8,0-1.46.26-1.97.79-.51.52-.77,1.17-.77,1.95s.26,1.42.78,1.94c.52.52,1.19.78,2.01.78.7,0,1.27-.17,1.7-.52.43-.34.7-.79.79-1.34h-2.57v-.84h3.51Z" fill="#606060"/>
        <path d="M31.42,44.18l-1.57-2.68h-1.65v2.68h-.93v-7.01h2.8c.6,0,1.11.21,1.54.64.43.42.64.94.64,1.54,0,.45-.14.87-.41,1.24-.27.37-.62.64-1.05.79l1.65,2.8h-1.03ZM28.19,38.04v2.61h1.87c.35,0,.64-.13.89-.39.24-.26.37-.57.37-.93s-.12-.67-.37-.92c-.24-.25-.54-.38-.89-.38h-1.87Z" fill="#606060"/>
        <path d="M41.59,43.24c-.7.71-1.56,1.06-2.58,1.06s-1.87-.35-2.57-1.06c-.7-.71-1.05-1.57-1.05-2.57s.35-1.87,1.05-2.58c.7-.7,1.56-1.06,2.57-1.06s1.87.35,2.58,1.06c.7.7,1.06,1.56,1.06,2.58s-.35,1.87-1.06,2.57ZM37.08,42.61c.52.52,1.16.79,1.93.79s1.41-.26,1.93-.79c.52-.52.78-1.17.78-1.94s-.26-1.42-.78-1.95c-.52-.52-1.16-.79-1.93-.79s-1.41.26-1.93.79c-.52.52-.78,1.17-.78,1.95s.26,1.41.78,1.94Z" fill="#606060"/>
        <path d="M50.55,43.63c-.49.45-1.12.68-1.89.68s-1.41-.23-1.9-.68c-.49-.45-.74-1.05-.74-1.81v-4.66h.93v4.62c0,.49.15.89.44,1.18.29.29.71.44,1.26.44s.97-.15,1.26-.44c.29-.29.44-.68.44-1.18v-4.62h.92v4.66c0,.75-.24,1.36-.73,1.81Z" fill="#606060"/>
        <path d="M57.66,37.16c.65,0,1.19.22,1.62.65s.65.97.65,1.61-.22,1.17-.65,1.6c-.43.43-.97.65-1.62.65h-1.61v2.5h-.93v-7.01h2.54ZM57.66,40.8c.39,0,.71-.13.96-.4.25-.26.38-.59.38-.99s-.13-.73-.38-.99c-.25-.26-.57-.39-.96-.39h-1.61v2.76h1.61Z" fill="#606060"/>
        <path d="M74.17,43.24c-.7.71-1.56,1.06-2.58,1.06s-1.87-.35-2.57-1.06c-.7-.71-1.05-1.57-1.05-2.57s.35-1.87,1.05-2.58c.7-.7,1.56-1.06,2.57-1.06s1.87.35,2.58,1.06c.7.7,1.06,1.56,1.06,2.58s-.35,1.87-1.06,2.57ZM69.66,42.61c.52.52,1.16.79,1.93.79s1.41-.26,1.93-.79c.52-.52.78-1.17.78-1.94s-.26-1.42-.78-1.95c-.52-.52-1.16-.79-1.93-.79s-1.41.26-1.93.79c-.52.52-.78,1.17-.78,1.95s.26,1.41.78,1.94Z" fill="#606060"/>
        <path d="M82.78,38.05h-3.1v2.27h2.97v.88h-2.97v2.97h-.93v-7.01h4.04v.88Z" fill="#606060"/>
        <path d="M95.56,37.16h.92v7.01h-.92v-3.15h-3.41v3.15h-.93v-7.01h.93v2.97h3.41v-2.97Z" fill="#606060"/>
        <path d="M106.23,43.24c-.7.71-1.56,1.06-2.58,1.06s-1.87-.35-2.57-1.06c-.7-.71-1.05-1.57-1.05-2.57s.35-1.87,1.05-2.58c.7-.7,1.56-1.06,2.57-1.06s1.87.35,2.58,1.06c.7.7,1.06,1.56,1.06,2.58s-.35,1.87-1.06,2.57ZM101.72,42.61c.52.52,1.16.79,1.93.79s1.41-.26,1.93-.79c.52-.52.78-1.17.78-1.94s-.26-1.42-.78-1.95c-.52-.52-1.16-.79-1.93-.79s-1.41.26-1.93.79c-.52.52-.78,1.17-.78,1.95s.26,1.41.78,1.94Z" fill="#606060"/>
        <path d="M114.89,37.16v.88h-2.07v6.13h-.92v-6.13h-2.06v-.88h5.06Z" fill="#606060"/>
        <path d="M119.15,43.29h3.26v.88h-4.19v-7.01h4.14v.88h-3.2v2.15h2.95v.87h-2.95v2.22Z" fill="#606060"/>
        <path d="M126.86,43.29h3.02v.88h-3.96v-7.01h.93v6.13Z" fill="#606060"/>
        <path d="M135.31,44.31c-.65,0-1.21-.15-1.68-.46-.46-.31-.79-.73-.98-1.26l.8-.46c.27.85.9,1.27,1.87,1.27.48,0,.85-.1,1.1-.3.25-.2.38-.46.38-.79s-.13-.58-.38-.75c-.25-.17-.68-.34-1.27-.53-.29-.1-.51-.18-.67-.23-.16-.05-.35-.14-.58-.26-.23-.12-.4-.24-.52-.36-.11-.12-.22-.29-.31-.49-.09-.2-.14-.43-.14-.68,0-.61.21-1.09.64-1.45.43-.36.95-.54,1.56-.54.55,0,1.04.14,1.45.42.41.28.72.65.93,1.11l-.78.45c-.3-.72-.83-1.08-1.59-1.08-.38,0-.69.09-.92.28-.23.19-.35.44-.35.76s.11.54.33.7c.22.16.6.33,1.14.5.19.07.33.12.41.14.08.03.21.07.38.13.17.06.3.11.38.15s.19.1.33.17c.14.07.24.14.31.21.07.07.15.15.24.25.09.1.15.2.19.3s.08.22.11.35c.03.13.05.27.05.42,0,.61-.22,1.1-.67,1.47-.45.36-1.03.55-1.75.55Z" fill="#606060"/>
      </g>
    </g>
  </g>
</svg>