<?xml version="1.0" encoding="UTF-8"?>
<svg id="Layer_2" data-name="Layer 2" xmlns="http://www.w3.org/2000/svg" viewBox="0 0 185.39 59.06">
  <g id="Layer_1-2" data-name="Layer 1">
    <g>
      <path d="M96.33,58.79c-.82.18-1.5.11-2.21.04l-4.43-9.97-.21,9.97c-.4.12-.78.12-1.19,0l.02-10.84h2.3s4.36,9.98,4.36,9.98l.16-9.86c0-.3,1.13-.33,1.13-.04l.06,10.72Z" fill="#606060"/>
      <path d="M77.05,53.42l3.26,5.39c-.53.15-.93.1-1.43.02l-2.89-4.76c-.61-.11-1.17,0-1.82.14v4.62c-.44.11-.78.12-1.23-.01l.05-10.72c0-.29,1.12-.29,1.12,0l.07,4.86c.57.17,1.23.09,1.83-.08l2.73-4.78c.2-.35,1.02-.24,1.35-.01l-3.05,5.34Z" fill="#606060"/>
      <path d="M66.91,59.02c-1.45.14-2.82-.11-4.2-.36-.02-.37.05-.64.19-.98l3.43.29c.95.08,1.77-.5,1.98-1.25.24-.85.32-2.09-.58-2.35l-3.36-.98c-1.18-.34-1.77-1.21-1.76-2.45,0-.82.1-1.63.66-2.2,1.34-1.36,3.98-1.01,6.08-.6.54,1.89-1.53.28-4.18.84-.82.17-1.28.82-1.31,1.44-.05.82.1,1.57.95,1.81l3.06.89c1.28.37,1.83,1.34,1.82,2.61,0,1.69-.93,3.11-2.78,3.29Z" fill="#606060"/>
      <path d="M84.46,58.78c-.43.2-.79.16-1.24.04l.05-10.72c0-.29,1.14-.29,1.14,0l.06,10.68Z" fill="#606060"/>
      <rect x="43.51" y="52.82" width="11.54" height=".65" transform="translate(-3.86 102.42) rotate(-89.99)" fill="#606060"/>
      <rect x="109.86" y="47.37" width=".54" height="11.51" fill="#606060"/>
      <path d="M92.74,15.91c.03-.15-.02-.27-.1-.45.7-.64,1.33-1.34,2.27-1.71l-2.16,2.17Z" fill="#606060"/>
      <path d="M95.64,2.24c.07,0,.26.04.28.12.02.07-.07.19-.15.35-4.97,3.96-8.85,9.03-11.61,14.87,1.68.61,3.03,1.37,4.24,2.48,1.35-1.69,2.71-3.19,4.24-4.6.08.18.13.3.1.45-1.41,1.41-2.71,2.92-3.86,4.61,3.33,3.48,4.2,8.4,2.26,12.83-1.72,3.93-5.77,6.78-10.36,6.75-5.5-.03-10.07-4.03-11.09-9.25-1.06-5.37,1.79-10.82,6.91-12.92,1.47-5.81,4.1-12.54,9.28-15.86-4.61,4.48-7.17,9.24-8.47,15.58,2.04-.62,3.94-.7,5.9-.25,3.21-6.18,6.71-11.13,12.33-15.15ZM77.8,36.59l1.24-6.13c.69-3.54,1.61-6.88,3.14-10.32-1.95-.35-3.79-.06-5.47.92-.7,4.92-.8,9.81-.43,14.78.43.4.95.66,1.52.76ZM80.88,35.95c-.49-1.33.46-2.09.88-3.09,1.49-3.59,2.74-7.15,5.07-10.36-1.16-1.07-2.3-1.84-3.82-2.2-2.2,5.38-3.65,10.94-3.44,16.86,3.53.54,6.99-1.35,8.63-4.3,1.77-3.19,1.45-6.99-.94-9.84-2.53,3.78-4.21,7.7-4.75,12.04-.27.77-.97,1.23-1.62.9ZM75.12,30.8l.68-9.11c-4.12,3.04-4.57,8.87-1.26,12.75.48-1.19.49-2.37.58-3.64Z" fill="#606060"/>
      <path d="M95.77,2.71c.07-.16.17-.28.15-.35-.02-.08-.21-.12-.28-.12,1.2-.86,2.32-1.81,3.84-2.24l-3.71,2.71Z" fill="#606060"/>
      <path d="M80.88,35.95c.65.34,1.35-.13,1.62-.9.54-4.34,2.23-8.26,4.75-12.04,2.39,2.85,2.71,6.65.94,9.84-1.63,2.95-5.09,4.84-8.63,4.3-.2-5.92,1.25-11.48,3.44-16.86,1.51.36,2.66,1.13,3.82,2.2-2.33,3.21-3.58,6.77-5.07,10.36-.42,1.01-1.37,1.76-.88,3.09Z" fill="#969696"/>
      <path d="M77.8,36.59c-.57-.09-1.09-.36-1.52-.76-.37-4.97-.27-9.86.43-14.78,1.69-.98,3.52-1.27,5.47-.92-1.53,3.44-2.45,6.78-3.14,10.32l-1.24,6.13Z" fill="#969696"/>
      <path d="M75.12,30.8c-.1,1.28-.1,2.45-.58,3.64-3.3-3.88-2.86-9.71,1.26-12.75l-.68,9.11Z" fill="#969696"/>
      <path d="M59.48,38.34l-3.93.11-4.35-7.9-2.39.04-.03,7.79-3.3.05v-18.58s7.75.07,7.75.07c1.07,0,2.13.31,3.03.78,1.7.74,2.48,2.25,2.63,4.03.24,2.79-1.42,5.05-4.27,5.53l4.86,8.08ZM53.26,27.59c1.49-.2,2.21-1.32,2.15-2.59-.06-1.28-.96-2.17-2.33-2.2l-4.27-.1v4.96s4.46-.08,4.46-.08Z" fill="#606060"/>
      <path d="M15.18,38.3c-1.08.28-2.14.13-3.3.12l-.03-8.13H3.2s0,8.11,0,8.11H.01s-.01-18.54-.01-18.54h3.2s0,7.33,0,7.33h8.65s0-7.33,0-7.33h3.31s0,18.44,0,18.44Z" fill="#606060"/>
      <rect x="38.14" y="19.85" width="3.32" height="18.61" fill="#606060"/>
      <path d="M30.67,34.16h-8.03s-1.73,4.28-1.73,4.28l-3.68-.04,8.06-18.51h2.9s7.96,18.5,7.96,18.5l-3.75.07-1.72-4.3ZM29.49,31.3l-2.85-7.42-2.89,7.46,5.74-.04Z" fill="#606060"/>
      <path d="M110.88,35.1c2.44.81,4.89.21,6.3-1.94l2.75,2.01c-1.83,2.58-4.8,3.44-7.74,3.28-5.5-.3-9.19-4.66-9.01-10.05.18-5.39,4-9.38,9.51-9.45,2.62-.03,5.11.79,6.81,2.96l-2.5,1.83-1.88-1.33c-1.96-.87-4.25-.44-5.95.81-1.68,1.23-2.51,3.31-2.48,5.52.04,2.81,1.44,5.45,4.18,6.36Z" fill="#606060"/>
      <polygon points="169.02 27.69 169.05 30.67 160.9 30.69 160.88 38.35 157.58 38.34 157.57 19.84 169.57 19.83 169.57 22.81 160.91 22.85 160.91 27.67 169.02 27.69" fill="#606060"/>
      <polygon points="179.7 38.3 176.44 38.37 176.42 22.83 170.79 22.82 170.79 19.83 185.39 19.83 185.38 22.82 179.71 22.86 179.7 38.3" fill="#606060"/>
      <path d="M136.13,38.31l-4.01.06-4.23-7.79c-.8-.1-1.5-.1-2.36,0l-.03,7.77-3.33.03v-18.53s7.7.05,7.7.05c1.55.01,3.02.61,4.2,1.5,1.07.98,1.37,2.29,1.43,3.7.11,2.61-1.55,4.67-4.23,5.14l4.85,8.08ZM129.82,27.57c1.53-.21,2.25-1.24,2.23-2.58-.02-1.21-.95-2.19-2.33-2.22l-4.2-.1v5.02s4.3-.11,4.3-.11Z" fill="#606060"/>
      <path d="M150.04,34.16h-8.06s-1.67,4.18-1.67,4.18h-3.71s8.04-18.49,8.04-18.49l2.89-.03,7.99,18.5-3.78.05-1.71-4.23ZM148.88,31.27l-2.87-7.38-2.91,7.39h5.78Z" fill="#606060"/>
      <path d="M153.56,58.82c-.78.15-1.45.06-2.28.03l-4.4-9.96-.14,9.94c-.39.1-.76.11-1.19,0v-10.79c.74-.2,1.53-.21,2.28,0l4.35,9.96.21-9.91c0-.29,1.12-.29,1.12,0l.05,10.71Z" fill="#606060"/>
      <path d="M131.54,56.41c-.44,1.47-1.56,2.46-3.05,2.46h-4.51s.02-10.92.02-10.92l4.44.02c3.58.01,4.16,4.96,3.09,8.45ZM128.94,49.2c-1.19-.38-2.43-.25-3.73-.19v8.77s3.26,0,3.26,0c2.66,0,3.29-7.66.47-8.57Z" fill="#606060"/>
      <path d="M172.01,56.09h-4.68s-.78,2.73-.78,2.73c-.39.11-.75.14-1.2,0l2.96-10.79c.92-.19,1.82-.16,2.69-.04l2.97,10.83c-.47.15-.83.11-1.23,0l-.74-2.73ZM171.71,54.97l-1.55-5.57c-.06-.29-.28-.45-.5-.45-.13,0-.43.08-.49.29l-1.6,5.77,4.13-.04Z" fill="#606060"/>
      <path d="M141.2,53.82l-4.48.04v3.91s5.31.09,5.31.09c.26,0,.31.97.04.99l-6.6.02v-10.94s6.57.03,6.57.03c.25,0,.25.83-.01.97l-5.31.06-.04,3.79h4.5c.1.3.14.56.02,1.05Z" fill="#606060"/>
      <path d="M160.89,58.77c-.36.21-.7.19-1.1.05v-9.71s-3.39-.04-3.39-.04c-.15-.2-.13-1.12.14-1.12h7.6c.29,0,.29,1.08,0,1.09l-3.26.07v9.65Z" fill="#606060"/>
      <path d="M182.91,57.81c.31.3.31.78.11,1.1l-5.97-.03.04-10.77c0-.29,1.14-.3,1.14,0l.04,9.7h4.63Z" fill="#606060"/>
      <path d="M34.73,58.86l-1.88-4.13-3.09-.04v4.13c-.41.11-.77.13-1.22,0l.03-10.89,4.61.02c1.83,0,2.91,1.47,2.9,3.24,0,1.46-.53,2.75-2.04,3.26l2.08,4.36c-.51.14-.83.12-1.38.04ZM33.67,53.43c.96-.33,1.13-1.34,1.13-2.15,0-.68-.24-1.68-1.02-1.98-1.23-.46-2.6-.37-3.98-.31l-.03,4.64c1.31-.08,2.64.22,3.91-.21Z" fill="#606060"/>
      <path d="M8.7,58.78c-.4.18-.77.14-1.25.05v-4.82s-5.55-.03-5.55-.03v4.85c-.42.11-.76.13-1.23-.01l.06-10.72c0-.29,1.12-.29,1.13,0l.05,4.69h5.48s.14-4.7.14-4.7c0-.29,1.12-.29,1.12,0l.05,10.68Z" fill="#606060"/>
      <path d="M18.33,56.08l-4.63.03-.83,2.61c-.09.27-.87.23-1.2.09l3.01-10.84,2.66.02,2.9,10.69c0,.29-1.04.33-1.12.06l-.79-2.66ZM18.01,54.92l-1.6-5.83c-.19-.23-.79-.22-.87.07l-1.65,5.84,4.11-.08Z" fill="#606060"/>
      <path d="M24.58,58.77c-.44.2-.8.15-1.24.04l.04-10.72c0-.29,1.14-.28,1.14,0l.06,10.67Z" fill="#606060"/>
    </g>
  </g>
</svg>