<?xml version="1.0" encoding="UTF-8"?>
<svg id="Layer_2" data-name="Layer 2" xmlns="http://www.w3.org/2000/svg" viewBox="0 0 157.17 72.48">
  <g id="Layer_1-2" data-name="Layer 1">
    <g>
      <circle cx="120.93" cy="65.73" r=".44" fill="#606060"/>
      <path d="M146.26,66.93c.22-.02.46-.02.71,0l-2.63,5.35h-.79s-.5-4.68-.5-4.68l-2.12,4.67h-.8s-.74-5.35-.74-5.35l.73-.02.54,4.64,2.11-4.64.83.02.49,4.67,2.18-4.66Z" fill="#606060"/>
      <polygon points="118.92 66.92 119.63 66.93 116.98 72.26 116.2 72.28 115.71 67.6 113.58 72.25 112.77 72.26 112.04 66.92 112.76 66.91 113.3 71.54 115.39 66.92 116.24 66.91 116.74 71.54 118.92 66.92" fill="#606060"/>
      <path d="M70.04,71.24c-.75.71-1.72,1.03-2.72,1.04h-2.43s1.24-7.02,1.24-7.02l2.63.02c1.04,0,1.96.65,2.31,1.63.53,1.51.16,3.21-1.04,4.34ZM70.47,67.31c-.24-.9-1.03-1.51-1.95-1.51h-1.83s-1.05,5.94-1.05,5.94l2.08-.05c1.85-.04,3.33-2.2,2.75-4.38Z" fill="#606060"/>
      <path d="M129.6,72.43c-1.02.09-1.9-.45-2.13-1.46-.22-.96-.03-1.96.47-2.81.67-1.14,2.01-1.68,3.28-1.29.43.13.61.46.82.92l.53-3h.65s-1.32,7.48-1.32,7.48l-.66.03.16-.94c-.43.68-.99,1.01-1.81,1.08ZM129.76,71.9c.82-.09,1.44-.65,1.72-1.39.43-1.15.61-2.66-.42-3.11-.76-.33-1.61-.08-2.16.53-.71.79-.98,1.93-.71,2.96.18.72.81,1.1,1.58,1.01Z" fill="#606060"/>
      <path d="M106.24,72.42c-1.1.12-1.99-.51-2.17-1.58s.06-2.12.7-2.97c.72-.96,1.96-1.37,3.11-1,.39.12.56.46.8.86l.54-2.95.65.02-1.32,7.46-.63.02.09-.86c-.42.64-.97.92-1.75,1ZM105.9,71.89c1.76.26,2.6-1.56,2.54-3.31-.02-.58-.38-1.09-.93-1.24-.84-.23-1.7.12-2.18.82-.53.77-.74,1.72-.55,2.63.12.56.51,1,1.12,1.09Z" fill="#606060"/>
      <path d="M96.36,71.44c-.7,1.22-2.63,1.26-3.12.45-.57-.93-.09-2.07.9-2.47.86-.35,1.73-.39,2.66-.32l.12-.82c.03-.19-.08-.58-.21-.72-.17-.18-.51-.28-.79-.28-.82-.02-1.44.43-1.63,1.24h-.68c.27-1.25,1.38-1.86,2.59-1.75.38.03.78.16,1.02.39.29.28.43.74.36,1.15l-.3,1.73-.32,2.26h-.63s.03-.84.03-.84ZM96.5,70.55l.21-.98c-.84-.04-1.53-.03-2.21.28-.61.29-.99.92-.7,1.57.16.35.63.52,1.03.48.76-.08,1.5-.56,1.67-1.36Z" fill="#606060"/>
      <path d="M79.8,72.43c-1.07-.04-1.86-.68-2.06-1.7-.23-1.18.13-2.43,1.01-3.26.58-.55,1.32-.74,2.1-.73.98.01,1.76.59,2.03,1.53.2.72.11,1.46-.14,2.16-.44,1.25-1.54,2.04-2.94,2ZM79.73,71.89c.71.09,1.34-.15,1.78-.67,1.03-1.2,1.02-3.22-.1-3.77-.81-.4-1.75-.14-2.32.55-.61.73-.83,1.68-.66,2.6.12.66.59,1.2,1.3,1.29Z" fill="#606060"/>
      <path d="M137.96,71.32c-.62.83-1.57,1.16-2.55,1.11-.92-.05-1.66-.58-1.92-1.49-.31-1.09-.03-2.28.68-3.16.61-.75,1.49-1.07,2.44-1.03,1.06.05,1.87.74,2.03,1.8.15.97-.07,1.95-.68,2.77ZM135.94,71.9c.45-.05.81-.26,1.15-.51,1.13-1.18,1.24-3.45-.05-3.98-.72-.3-1.58-.11-2.13.46-.72.76-.98,1.85-.74,2.85.19.81.88,1.28,1.76,1.18Z" fill="#606060"/>
      <path d="M76.44,71.28c-.64.88-1.6,1.22-2.62,1.15-.93-.07-1.68-.63-1.9-1.57s-.04-1.93.46-2.75c.6-.96,1.62-1.43,2.75-1.35.96.07,1.71.67,1.92,1.63s0,2.04-.61,2.9ZM74.08,71.91c1.67.05,2.63-1.85,2.25-3.47-.12-.54-.48-.93-1-1.09-.68-.21-1.42-.04-1.94.49-.73.74-1.02,1.84-.78,2.86.16.69.71,1.18,1.47,1.21Z" fill="#606060"/>
      <path d="M123.4,67.93c-.43.51-.62,1.14-.72,1.75l-.45,2.57h-.65s.92-5.28.92-5.28c.15-.04.37-.07.64-.1l-.07.83.36-.43c.73-.59,1.82-.74,2.64-.24.49.29.63.98.53,1.53l-.65,3.7-.66.02.64-3.7c.07-.39-.06-.91-.4-1.1-.71-.4-1.6-.17-2.14.46Z" fill="#606060"/>
      <path d="M100.05,67.92c-.34.38-.58.88-.67,1.36l-.53,2.99h-.65s.95-5.38.95-5.38h.64s-.12.87-.12.87c.65-1.17,2.5-1.34,3.22-.58.28.29.43.83.35,1.31l-.65,3.75-.66.04.63-3.63c.07-.39-.02-.96-.37-1.17-.7-.42-1.59-.19-2.14.44Z" fill="#606060"/>
      <path d="M147.98,72.42c-.88-.14-1.45-.79-1.45-1.68l.65.02c.07.35.16.7.4.89.52.39,1.28.4,1.82.08.3-.18.47-.54.46-.85s-.25-.69-.58-.81l-1.07-.39c-.46-.17-.86-.51-.98-.9-.16-.53-.03-1.06.33-1.45.45-.48,1.11-.61,1.77-.59.93.04,1.61.68,1.56,1.67l-.64-.03c-.09-.38-.18-.72-.39-.88-.3-.24-.72-.28-1.07-.22-.52.08-.86.43-.91.88-.19,1.47,2.69.78,2.67,2.71-.01,1.2-1.22,1.76-2.58,1.55Z" fill="#606060"/>
      <path d="M87.51,72.36c-.73-.21-1.19-.81-1.18-1.59l.68-.03c0,.51.2.89.66,1.09.77.32,1.79.06,1.96-.71.07-.31-.03-.79-.34-.92l-1.3-.52c-.43-.17-.84-.48-.95-.83-.15-.48-.09-.96.19-1.35.41-.59,1.1-.76,1.79-.76.97,0,1.71.63,1.67,1.67l-.64-.02c-.08-.39-.18-.71-.39-.88-.29-.24-.73-.27-1.07-.21-.49.08-.82.39-.9.8-.09.48.19.88.67,1.06l.99.36c.54.2.94.63,1,1.15.06.57-.15,1.14-.68,1.47-.63.39-1.43.44-2.15.24Z" fill="#606060"/>
      <path d="M84.17,72.28h-.66s.96-5.39.96-5.39h.63s-.07.82-.07.82c.41-.65.92-1.05,1.69-.9l-.03.39c0,.11-.31.13-.46.15-.7.09-1.29.75-1.42,1.47l-.64,3.47Z" fill="#606060"/>
      <rect x="117.47" y="69.26" width="5.57" height=".68" transform="translate(31.1 176.16) rotate(-80.14)" fill="#606060"/>
      <polygon points="62.6 55.57 60.84 61.26 33.16 61.25 40.66 37.16 49.39 37.16 43.66 55.56 62.6 55.57" fill="#606060"/>
      <polygon points="31.24 52.37 17.32 52.36 18.91 47.07 32.89 47.06 31.24 52.37" fill="#606060"/>
      <polygon points="9.88 61.16 0 61.17 5.43 43.72 15.3 43.72 9.88 61.16" fill="#606060"/>
      <polygon points="16.04 41.38 6.17 41.38 7.47 37.16 17.34 37.16 16.04 41.38" fill="#606060"/>
      <path d="M121.76,61.19h-8.76s1.65-5.36,1.65-5.36h-9.73c-.2.02-.36.14-.43.32l-1.57,5.05h-8.66s7.49-24.05,7.49-24.05h17.6c1.66,0,3.18.21,4.75.59,1.75.53,3.38,1.5,3.44,3.39.03,1.08-.17,2.08-.5,3.14l-5.27,16.91ZM117.64,46.19c.17-.55.09-1.18-.03-1.67-.12-.53-.6-.96-1.17-.96h-7.72c-.18.03-.37.16-.42.33l-2.05,6.63,9.72.02c.16,0,.38-.14.42-.28l1.24-4.07Z" fill="#606060"/>
      <path d="M75.15,53.92c.47,1.83,3.33,1.51,5.25,1.65h12.66s-1.74,5.64-1.74,5.64h-20.73c-1.7-.14-3.27-.73-4.52-1.85-.57-.51-.68-1.33-.79-2.04.04-.71.11-1.31.33-2l5.66-18.15h27.52s-1.88,6.11-1.88,6.11h-18.89s-1,3.37-1,3.37h18.82s-1.67,5.37-1.67,5.37h-18.78c-.35.58-.42,1.27-.25,1.91Z" fill="#606060"/>
      <path d="M154.25,46.53l-1.66,5.29h-15s-2.92,9.39-2.92,9.39h-9.96s5.82-18.67,5.82-18.67c.77-2.04,2.21-3.51,4.21-4.29,1.81-.7,3.62-1.06,5.61-1.09h16.82s-1.82,5.83-1.82,5.83h-10.95c-2.53.05-4.56,1.05-5.23,3.54h15.09Z" fill="#606060"/>
      <path d="M117.67,16.84c0,9.3-7.54,16.84-16.84,16.84s-16.84-7.54-16.84-16.84S91.54,0,100.84,0s16.84,7.54,16.84,16.84ZM115.33,16.84c0-8-6.49-14.49-14.49-14.49s-14.49,6.49-14.49,14.49,6.49,14.49,14.49,14.49,14.49-6.49,14.49-14.49Z" fill="#606060"/>
      <polygon points="97.26 27.29 91.85 24.35 91.85 9.33 97.26 6.38 97.26 27.29" fill="#606060"/>
      <rect x="102.07" y="9.17" width="5.69" height="15.43" fill="#606060"/>
    </g>
  </g>
</svg>