<?xml version="1.0" encoding="UTF-8"?>
<svg id="Layer_2" data-name="Layer 2" xmlns="http://www.w3.org/2000/svg" viewBox="0 0 86.1 72.56">
  <g id="Layer_1-2" data-name="Layer 1">
    <g>
      <path d="M76.88,51.83c.11-.22.63-.42.74-.29s.18.35.25.63c-6.75,13.62-21.05,21.73-36.2,20.2-14.47-1.34-27.04-11.59-31.23-25.75-.06-.2-.05-.59.07-.75.15-.19.72-.05.84.17,3.97,13.84,16.11,23.83,30.16,25.26,14.75,1.52,28.74-6.16,35.36-19.47Z" fill="#606060"/>
      <path d="M39.64,48.23c-4.5-.11-8.91-.87-13.43-1.78-8.03-1.63-14.65-2.72-22.87-2.3,10.45-2.67,20.3-.79,30.3,2.39l5.99,1.69Z" fill="#606060"/>
      <path d="M63.26,52.23c.35-.15.66-.23.79-.19.16.06.22.32.19.66-5.39,6.25-13.53,9.46-21.75,8.56s-15.47-5.8-19.4-13.12c.04-.28.11-.53.24-.64s.56.06.7.2c3.76,6.95,10.64,11.6,18.45,12.5,7.81.9,15.57-2.08,20.78-7.97Z" fill="#606060"/>
      <path d="M59.71,63.09l1.48,2.64-1.08.69-2.91-4.74c.29-.59.98-.77,1.51-.41l2.56,1.11.24-3.32c.02-.3.67-.62.94-.69l2.9,4.74c-.23.36-.84.67-1.17.6l-1.62-2.47-.19,2.07c-.03.29-.69.53-.94.43l-1.71-.66Z" fill="#606060"/>
      <path d="M33.85,67.7c-1.38-.17-2.43-1.07-2.74-2.17-.36-1.27.27-2.63,1.2-3.28,1.12-.78,2.45-.58,3.59.17s1.41,2.11.98,3.38c-.4,1.19-1.55,2.09-3.04,1.9ZM35.73,64.74c0-.92-.75-1.67-1.67-1.67s-1.67.75-1.67,1.67.75,1.67,1.67,1.67,1.67-.75,1.67-1.67Z" fill="#606060"/>
      <path d="M46.74,68.07c-.09-.16-.84-.22-.84-.05l-.03,1.69-1.29.03-.23-5.64,3.08-.03c.89,0,1.36.89,1.46,1.47.15.89-.05,1.59-.84,2.13l1.14,1.9-1.56.02-.9-1.51ZM47.54,65.64c-.49-.65-1.16-.52-1.86-.41l.08,1.63,1.43-.16c.28-.03.53-.82.35-1.06Z" fill="#606060"/>
      <path d="M41.96,63.95l1.27.12c-.17,1.46-.3,2.78-.72,4.09-.36,1.12-1.53,1.34-2.52,1.22-.91-.12-1.98-.78-1.95-1.96.03-1.33.35-2.67.53-4l1.33.1-.54,3.45c-.09.57.35,1.12.86,1.21.42.08,1.08-.3,1.17-.82l.57-3.4Z" fill="#606060"/>
      <path d="M56.54,67.86c-1.18.49-2.69.48-3.07-.94,1.3-.82,1.25.02,2.15.09.35.03,1.03-.56.82-.89-.56-.89-3.28.5-3.73-1.48-.25-1.09.37-1.7,1.31-2.1,1.13-.49,2.4-.28,2.9,1.01l-1.14.43c-.28-.31-.64-.54-.98-.54-.37,0-1.05.55-.74.94.59.75,3.19-.59,3.74,1.4.23.84-.26,1.67-1.24,2.08Z" fill="#606060"/>
      <path d="M27.57,64.28c-.22.32-1.08-.24-1.21-.55l2.37-3.58-1.49-1.03.73-1.02,4.04,2.64-.62,1.11-1.52-.96-2.29,3.38Z" fill="#606060"/>
      <polygon points="52.29 68.99 51.01 69.25 49.93 63.66 51.23 63.46 52.29 68.99" fill="#606060"/>
      <polygon points="47.53 40.28 47.64 40.28 47.75 40.28 47.64 40.28 47.53 40.28 47.42 40.28 47.53 40.28" fill="#606060"/>
      <path d="M38.35,53.11c-.62,1.43-1.58,2.45-2.98,2.97.7-.79,1.57-1.83,1.11-2.97-.35-.86-1.3-1.39-1.98-2.13,1.36.32,2.43.9,3.61,1.66l4.51-2.03c.27-.12.62-.61.61-.88-.01-.33-.3-.76-.57-1.12,1.09.3,1.89,1.06,2.63,1.92.65-.47,1.66-.75,2.39-.94.35-.09.34-1.12.17-1.4l-15.51-4.5c-4.7-1.16-9.21-2.15-14.06-2.34-6.23-.4-12.13.43-18.29,2.39,8.28-5.6,18.25-7.47,28.12-5.57,4.74.91,9.2,2.17,13.8,3.65,5.16,1.57,10.13,3.07,15.53,3.97l-1.13-1.75,3.65-.13c-.18-.27-.15-1.28.17-1.29l2.51-.11v-.27s-3.84-.06-3.84-.06c-.22,0-.64-.23-.81-.36-1.4-1.15,4.54-6.19,4.59-10.46l.08-7.27.28.02c-.09,1.79,1.76,3.78,3.2,5.48,2.18,2.57,3.94,5.4,4.66,8.71.29,1.33.21,3.2-1.04,3.86-.93.49-2.16.11-3.13.32l.49.59c.1.12,0,.44-.05.72l5.14.12-1.72,2.26c5.58-.44,10.55-2.12,15.6-4.27-11.82,9.16-23.52,10.25-37.88,6.38.83.87,1.46,1.64,1.99,2.62,2.17.62,4.21,1.46,6.05,2.89l-1.37.77c.69.07.87.02,1.4.26-1.88.76-3.76,1-5.75,1-.64.51-1.46.7-2.12.61l.39-.6c.12-.19-3.17-1.53-5.16-.92-.91.28-1.81.67-2.67.48.57-.13,1.01-.23,1.37-.52.29-.24.2-1.29-.26-1.34l-3.74-.42ZM63.5,40.81c1.26-1.69,1.64-3.52,1.55-5.54.01-1.88.11-3.8-.57-5.55l-1.48-3.79-.05,16.62,2.16.02.07-.14c-.49-.03-1.42,0-1.88-.17-.32-.13,0-1.17.19-1.45ZM54.4,53.33c0-.15-.12-.27-.27-.27s-.27.12-.27.27.12.27.27.27.27-.12.27-.27Z" fill="#606060"/>
      <path d="M39.61,36.11h4.97c0,1.05-.15,2-.53,3.01-5.15-1.55-10-2.99-15.18-3.89l3-.42c-3.2-.34-6.16-.36-9.4-.51.19-1.54.57-2.88,1.4-4.18,2.85-.14,5.51-.08,8.5-.38-1.23-.52-2.47-.33-3.76-.39l-4.01-.18c3.17-4.97,10.58-6.11,15.09-2.7l-7.7.24v.23s3.05.19,3.05.19c1.97-.01,3.79.01,5.8.12,1.14,1.15,2.12,2.3,2.91,3.89l-9.71.55.02.37,9.96-.02c.46,1.11.63,2.34.49,3.52l-4.83.25-.09.3Z" fill="#606060"/>
      <path d="M46.83,1.09C26.7.2,9.93,16.23,10.01,36.37l-.47.41c-.14.13-.55-.29-.61-.4C8.88,15.53,26.42-1.02,46.98.05c20.63.95,36.49,19.12,34.37,39.94l-.68.23c-.17.06-.34-.48-.35-.61C82.23,19.53,66.93,1.96,46.83,1.09Z" fill="#606060"/>
      <path d="M66.51,25c-5.03-9.54-15.79-14.5-26.36-12.26-10.06,2.15-17.91,10.65-18.84,21.2l-.29.59c-.07.15-.6.08-.64-.07l-.18-.6c1.11-10.86,9.13-19.81,19.51-22.09,11.16-2.46,22.28,2.71,27.69,12.67.19.34.22.63-.05.86-.17.14-.61.12-.84-.3Z" fill="#606060"/>
      <path d="M48.6,40.52l3.42.63c-3.14-4.43-4.47-9.47-3.74-14.91-1.14.65-1.97,1.34-2.89,2.16.08-1.54,1.05-2.59,2.58-2.5-1.39-.81-2.77-.4-4.25.25.25-.78,1.08-1.43,1.66-1.69,1.16-.3,1.88.14,2.81.9-.18-1.5-1.55-2.29-3.01-2.68.78-.77,2.23-.71,2.81.35.38.7.53,1.59.68,2.44.34-.76.7-1.74,1.42-2.24s1.76.03,2.15.68c-1.26.23-2.46.57-3.1,1.54,1.17-.46,2.26-.91,3.19-.16.75.6,1.27,1.65,1.28,2.63-1.25-1.62-2.91-2.5-4.79-2.07-.29,5.67,1.7,11.09,5.05,15.63l2.22.33c-2.18-2.92-3.08-6.18-2.7-9.8-.67.28-1.04.63-1.66,1.16-.17-.85.46-1.38,1.31-1.58-.84-.4-1.53-.11-2.49.15.23-.5.76-.93,1.25-1.02.46-.08,1,.23,1.56.52-.15-1-.96-1.35-1.94-1.63.29-.19,1.04-.34,1.39-.19s.71.85.72,1.23v.44c.02.07.2.15.23.09l.21-.4c.15-.3.48-.77.74-.89.32-.14.97.18,1.24.44-.76.27-1.36.35-1.82.97.69-.13,1.32-.34,1.77-.04.55.37.91,1,.82,1.67-.64-.99-1.75-1.58-2.96-1.29-.19,4.33,1.48,8.21,4.53,11.53-3.47-.53-6.69-1.51-9.87-2.52l-.13-.2c-.53-.03-.31-.03.13-.02l.17.08Z" fill="#606060"/>
      <path d="M61.68,7.55l1.24.63-3.94,4.36-1.22-.55.31-3.6-2.43,2.44c-.25.25-1.11-.18-1.3-.43l.63-5.78,1.27.5-.36,3.55,2.49-2.52,1.14.51-.27,3.58,2.44-2.67Z" fill="#606060"/>
      <path d="M50.36,9.43c-1.01-.03-1.98-.25-2.97-.4l.92-5.6c1,.18,2.02.33,2.96.59,1.33.37,1.9,1.77,1.75,2.92-.18,1.32-1.09,2.54-2.65,2.49ZM48.89,7.96c.87.38,1.82.39,2.36-.25.46-.61.62-1.38.14-2.04-.47-.53-1.34-.9-2-.68l-.5,2.97Z" fill="#606060"/>
      <polygon points="37.23 10.15 35.99 10.51 34.57 4.99 35.88 4.69 36.41 6.78 38.46 6.22 37.9 4.12 39.23 3.84 40.6 9.31 39.35 9.67 38.78 7.47 36.71 7.97 37.23 10.15" fill="#606060"/>
      <path d="M27.84,14.98l-1.06.84-3.3-4.47c.24-.36.74-.7,1.12-.77.34.52.78,1.21,1.18,1.43.2.11.71-.25.79-.48.29-.84-.65-1.99-.31-2.37.24-.26.84-.6,1.08-.61.31,1.19.49,1.96.67,3l2.71,1.26c-.27.32-.73.76-1.07.86-.31.09-.94-.32-1.27-.47l-.91-.42c-.23-.11-.93.26-.83.49.21.46.72,1.06,1.2,1.72Z" fill="#606060"/>
      <path d="M44.12,8.07l-1.14.12c-.25.03-.34.55-.42.92h-1.41s1.93-5.61,1.93-5.61l1.33-.12,2.46,5.5c-.36.11-1.16.21-1.43-.02-.15-.13-.27-.63-.44-.72s-.57-.1-.88-.07ZM44.68,6.99l-.85-1.78-.68,1.85,1.53-.08Z" fill="#606060"/>
      <path d="M15.71,20.88l.68-1.15,3.73,2.24,1.23-1.85c.12-.19.84.2,1.09.26l-2.62-5.3c.16-.38.59-.83.97-.98l5.47,2.02c-.1.22-.41.67-.63.92-.19.22-.97-.21-1.22-.06-.44.27-1.13,1.06-1.32,1.5-.09.2.32.74.26.95-.07.24-.52.55-.66.79l-2.15,3.59-4.83-2.93ZM23.44,16.39l-1.94-.7.89,1.76,1.05-1.05Z" fill="#606060"/>
      <path d="M33.67,11.62c-1.18.7-2.65.74-3.3-.53,1.2-1.04,1.44.1,2.44-.24.28-.1.7-.68.43-.97-.65-.7-3.3.95-3.89-1.13-.24-.86.22-1.72,1.13-2.07.97-.56,2.26-.59,2.93.57-.92,1.07-1.33.06-2.26.28-.32.08-.76.64-.45.99.56.64,3.03-.9,3.85.89.35.77,0,1.68-.88,2.21Z" fill="#606060"/>
      <path d="M70.01,21.24l-.32-.44c-.1-.14-1.13.85-1.42.54-.19-.2-.39-.62-.54-.99l4.74-2.94,1.27,2.03c.67,1.08.27,2.4-.72,2.91-1.18.6-2.34.12-3-1.11ZM71.81,21.27c.74.04.99-.59.96-.94-.02-.32-.46-1.16-.74-1.01l-1.33.75c.16.45.65,1.17,1.1,1.2Z" fill="#606060"/>
      <path d="M69.3,17.05c.14.18-.5.87-.69.75s-.4-.39-.67-.67l-.68-.7c-.18-.19-.81.32-.94.6l1.49,1.79c.19.22-.67.88-.88.65l-2.4-2.67,4.19-3.82,2.36,2.65c.2.22-.57.96-.76.77l-1.45-1.46c-.18-.18-.8.3-.87.55l1.28,1.56Z" fill="#606060"/>
      <path d="M65.04,14.19l-1.73-1.36-.73.89,1.94,1.5-.68.96-3.02-2.38,3.49-4.45,2.9,2.26c-.02.26-.59.93-.8.77l-1.62-1.16c-.23-.17-.87.62-.63.81l1.52,1.22-.64.94Z" fill="#606060"/>
    </g>
  </g>
</svg>