<?xml version="1.0" encoding="UTF-8"?>
<svg id="Layer_2" data-name="Layer 2" xmlns="http://www.w3.org/2000/svg" viewBox="0 0 234.11 68.29">
  <g id="Layer_1-2" data-name="Layer 1">
    <g>
      <g>
        <path d="M215.42,43.91c-1.78-1.98-2.67-4.81-2.67-8.5v-2.6h6.77v3.13c0,2.95,1.24,4.43,3.71,4.43,1.22,0,2.14-.36,2.77-1.07.63-.72.94-1.88.94-3.48,0-1.91-.44-3.59-1.3-5.05-.87-1.45-2.47-3.2-4.82-5.24-2.95-2.6-5.01-4.96-6.19-7.06-1.17-2.1-1.76-4.48-1.76-7.13,0-3.6.91-6.39,2.73-8.36,1.82-1.97,4.47-2.96,7.94-2.96s6.02.99,7.78,2.96c1.76,1.98,2.64,4.81,2.64,8.49v1.89h-6.77v-2.34c0-1.56-.3-2.7-.91-3.42-.61-.71-1.5-1.07-2.67-1.07-2.39,0-3.58,1.45-3.58,4.36,0,1.65.44,3.19,1.34,4.62.89,1.43,2.51,3.17,4.85,5.21,2.99,2.6,5.05,4.97,6.19,7.1,1.13,2.13,1.69,4.62,1.69,7.48,0,3.73-.92,6.6-2.77,8.59-1.84,2-4.52,2.99-8.04,2.99s-6.1-.99-7.88-2.96" fill="#606060"/>
        <path d="M186.49,43.91c-1.78-1.98-2.67-4.81-2.67-8.5v-2.6h6.77v3.13c0,2.95,1.24,4.43,3.71,4.43,1.22,0,2.14-.36,2.77-1.07.63-.72.94-1.88.94-3.48,0-1.91-.44-3.59-1.3-5.05-.87-1.45-2.47-3.2-4.82-5.24-2.95-2.6-5.01-4.96-6.19-7.06-1.17-2.1-1.76-4.48-1.76-7.13,0-3.6.91-6.39,2.73-8.36,1.82-1.97,4.47-2.96,7.94-2.96s6.02.99,7.78,2.96c1.76,1.98,2.64,4.81,2.64,8.49v1.89h-6.77v-2.34c0-1.56-.3-2.7-.91-3.42-.61-.71-1.5-1.07-2.67-1.07-2.39,0-3.58,1.45-3.58,4.36,0,1.65.44,3.19,1.34,4.62.89,1.43,2.51,3.17,4.85,5.21,2.99,2.6,5.05,4.97,6.19,7.1,1.13,2.13,1.69,4.62,1.69,7.48,0,3.73-.92,6.6-2.77,8.59-1.84,2-4.52,2.99-8.04,2.99s-6.1-.99-7.88-2.96" fill="#606060"/>
        <polygon points="175.15 0 175.15 6.7 163.03 6.7 163.03 19.32 155.67 23.98 155.67 0 175.15 0" fill="#606060"/>
        <polygon points="175.15 40.18 175.09 46.89 155.67 46.89 155.67 36.59 163.03 32.18 163.03 40.18 175.15 40.18" fill="#606060"/>
        <polygon points="129.27 0 136.63 0 136.63 40.19 149.81 40.19 149.66 46.88 129.27 46.88 129.27 0" fill="#606060"/>
        <polygon points="106.62 6.7 98.92 6.7 98.92 0 121.69 0 121.69 6.7 113.99 6.7 113.99 46.88 106.62 46.88 106.62 6.7" fill="#606060"/>
        <rect x="83.99" y="0" width="7.37" height="46.88" fill="#606060"/>
        <polygon points="43.94 0 54.45 0 59.14 33.56 59.27 33.56 63.96 0 74.47 0 74.47 46.88 67.51 46.88 67.51 11.39 67.38 11.39 62.02 46.88 55.86 46.88 50.5 11.39 50.36 11.39 50.36 46.88 43.94 46.88 43.94 0" fill="#606060"/>
        <rect x="27.06" y="0" width="7.37" height="46.88" fill="#606060"/>
        <polygon points="0 0 7.37 0 7.37 40.19 19.49 40.19 19.49 46.88 0 46.88 0 0" fill="#606060"/>
        <polygon points="175.22 13.71 175.22 22.23 163.03 29.89 163.03 29.89 155.67 34.52 155.66 34.52 151.06 37.41 143.66 24.66 147.67 22.15 149.34 21.1 153.15 27.68 155.66 26.1 155.67 26.09 159.33 23.77 163.03 21.43 175.22 13.71" fill="#606060"/>
      </g>
      <g>
        <path d="M18.29,66.65h-1.94l-.49-1.35h-3.42l-.5,1.35h-1.94l3.09-7.99h2.13l3.08,7.99ZM15.39,63.8l-1.25-3.44-1.25,3.44h2.49Z" fill="#606060"/>
        <path d="M22.74,66.8c-1.21,0-2.23-.38-3.04-1.16-.81-.77-1.22-1.76-1.22-2.98s.41-2.21,1.22-2.98c.81-.77,1.82-1.16,3.04-1.16,1.49,0,2.61.65,3.34,1.95l-1.46.72c-.18-.33-.43-.61-.77-.83s-.71-.33-1.11-.33c-.73,0-1.33.25-1.8.74-.47.5-.71,1.12-.71,1.88s.24,1.39.71,1.88c.47.5,1.07.74,1.8.74.4,0,.77-.11,1.11-.32s.6-.5.77-.84l1.46.71c-.76,1.31-1.87,1.96-3.34,1.96Z" fill="#606060"/>
        <path d="M34.7,66.65h-1.94l-.49-1.35h-3.42l-.5,1.35h-1.94l3.09-7.99h2.13l3.08,7.99ZM31.8,63.8l-1.25-3.44-1.25,3.44h2.49Z" fill="#606060"/>
        <path d="M38.83,66.65h-3.15v-7.99h3.15c1.25,0,2.27.37,3.06,1.1.79.73,1.18,1.7,1.18,2.9s-.39,2.16-1.17,2.89c-.78.73-1.8,1.1-3.07,1.1ZM38.83,65.16c.77,0,1.38-.24,1.83-.72.45-.48.68-1.07.68-1.77s-.22-1.33-.66-1.8c-.44-.47-1.05-.7-1.84-.7h-1.45v4.99h1.45Z" fill="#606060"/>
        <path d="M50.17,66.65h-5.65v-7.99h5.65v1.5h-3.95v1.69h3.87v1.5h-3.87v1.81h3.95v1.5Z" fill="#606060"/>
        <path d="M60.4,66.65h-1.71v-5.59l-2.25,5.59h-.74l-2.25-5.59v5.59h-1.7v-7.99h2.38l1.94,4.83,1.94-4.83h2.39v7.99Z" fill="#606060"/>
        <path d="M66.15,66.65h-1.7v-3.27l-3.08-4.72h1.94l1.99,3.21,1.96-3.21h1.94l-3.05,4.72v3.27Z" fill="#606060"/>
        <path d="M77.27,66.8c-1.21,0-2.2-.39-2.99-1.17-.79-.78-1.18-1.77-1.18-2.96s.39-2.18,1.18-2.96c.79-.78,1.78-1.17,2.99-1.17s2.21.39,3,1.16,1.18,1.76,1.18,2.97-.39,2.2-1.18,2.97-1.79,1.16-3,1.16ZM75.52,64.55c.44.5,1.03.74,1.75.74s1.31-.25,1.76-.74.67-1.12.67-1.88-.22-1.38-.67-1.88-1.03-.74-1.76-.74-1.31.25-1.75.74-.67,1.12-.67,1.88.22,1.39.67,1.88Z" fill="#606060"/>
        <path d="M84.59,66.65h-1.7v-7.99h5.65v1.5h-3.95v1.69h3.87v1.5h-3.87v3.31Z" fill="#606060"/>
        <path d="M96.11,66.8c-1.42,0-2.55-.42-3.38-1.27l.92-1.29c.69.72,1.53,1.08,2.54,1.08.44,0,.78-.09,1.02-.26.24-.17.37-.38.37-.63,0-.22-.11-.4-.34-.54s-.51-.25-.85-.31c-.34-.06-.71-.16-1.11-.28-.4-.12-.77-.25-1.11-.41-.34-.15-.62-.39-.85-.72s-.34-.73-.34-1.2c0-.69.28-1.26.83-1.73.55-.47,1.29-.7,2.2-.7,1.27,0,2.31.37,3.11,1.11l-.95,1.25c-.63-.58-1.41-.87-2.32-.87-.36,0-.64.07-.84.21-.2.14-.3.34-.3.59,0,.19.11.35.34.49s.51.23.85.29c.34.06.71.16,1.1.28.4.12.76.26,1.1.42.34.16.62.4.85.73s.34.73.34,1.19c0,.77-.27,1.38-.82,1.86-.55.47-1.34.71-2.38.71Z" fill="#606060"/>
        <path d="M107.53,66.65h-2.1l-2.42-3.2-.62.74v2.46h-1.7v-7.99h1.7v3.57l2.83-3.57h2.1l-3.17,3.75,3.39,4.24Z" fill="#606060"/>
        <path d="M110.25,66.65h-1.7v-7.99h1.7v7.99Z" fill="#606060"/>
        <path d="M119.22,66.65h-1.64l-3.81-5.21v5.21h-1.7v-7.99h1.75l3.7,5.02v-5.02h1.7v7.99Z" fill="#606060"/>
        <path d="M122.83,66.07c0,.44-.11.85-.34,1.24-.22.39-.52.72-.9.99l-.66-.54c.2-.1.39-.27.58-.48.18-.22.3-.43.35-.64-.07.02-.15.04-.23.04-.23,0-.42-.08-.58-.24-.16-.16-.23-.37-.23-.62s.09-.49.28-.68c.18-.19.4-.28.66-.28.29,0,.55.11.76.33.21.22.32.52.32.89Z" fill="#606060"/>
        <path d="M134.84,66.65h-1.71v-3.35h-3.77v3.35h-1.7v-7.99h1.7v3.14h3.77v-3.14h1.71v7.99Z" fill="#606060"/>
        <path d="M144.09,66.65h-1.94l-.49-1.35h-3.42l-.5,1.35h-1.94l3.09-7.99h2.13l3.08,7.99ZM141.2,63.8l-1.25-3.44-1.25,3.44h2.49Z" fill="#606060"/>
        <path d="M146.78,66.65h-1.7v-7.99h1.7v7.99Z" fill="#606060"/>
        <path d="M155.06,66.65h-1.95l-1.57-2.84h-1.25v2.84h-1.7v-7.99h3.74c.82,0,1.48.24,1.96.72.48.48.72,1.1.72,1.86,0,.66-.17,1.19-.51,1.59-.34.41-.75.67-1.24.78l1.8,3.04ZM152.08,62.32c.35,0,.64-.1.86-.29.22-.2.33-.46.33-.78s-.11-.59-.33-.78-.51-.29-.86-.29h-1.78v2.16h1.78Z" fill="#606060"/>
        <path d="M166.69,66.65h-1.94c-.17-.16-.37-.36-.6-.6-.65.5-1.38.74-2.18.74s-1.4-.2-1.89-.6c-.5-.4-.74-.97-.74-1.71,0-.55.15-1.01.46-1.37.31-.36.72-.67,1.25-.93-.35-.66-.53-1.24-.53-1.72,0-.54.22-1,.65-1.37.43-.37.98-.55,1.64-.55.59,0,1.09.15,1.49.46.4.31.61.72.61,1.23,0,.29-.05.55-.16.78s-.26.44-.47.61c-.21.18-.41.32-.6.42-.19.11-.43.23-.74.38.18.23.41.52.7.86.09.11.21.26.37.46.16.19.26.31.3.36.32-.5.56-1.01.73-1.54l1.22.56c-.33.74-.71,1.38-1.11,1.93.53.57,1.05,1.11,1.54,1.6ZM162.19,65.6c.39,0,.77-.14,1.15-.41-.4-.44-.69-.78-.89-1.02-.28-.34-.55-.7-.8-1.05-.46.33-.69.74-.69,1.22,0,.38.12.68.36.91.24.23.53.35.87.35ZM162.05,60.5c0,.28.12.64.35,1.08.39-.18.69-.37.89-.56.2-.19.31-.42.31-.69,0-.21-.07-.37-.2-.49-.14-.12-.3-.18-.5-.18-.24,0-.44.08-.6.25-.16.16-.24.37-.24.6Z" fill="#606060"/>
        <path d="M179.78,66.65h-1.71v-5.59l-2.25,5.59h-.74l-2.25-5.59v5.59h-1.7v-7.99h2.38l1.94,4.83,1.94-4.83h2.39v7.99Z" fill="#606060"/>
        <path d="M189.05,66.65h-1.94l-.49-1.35h-3.42l-.5,1.35h-1.94l3.09-7.99h2.13l3.08,7.99ZM186.15,63.8l-1.25-3.44-1.25,3.44h2.49Z" fill="#606060"/>
        <path d="M196.87,66.65h-2.1l-2.42-3.2-.62.74v2.46h-1.7v-7.99h1.7v3.57l2.83-3.57h2.1l-3.17,3.75,3.39,4.24Z" fill="#606060"/>
        <path d="M203.54,66.65h-5.65v-7.99h5.65v1.5h-3.95v1.69h3.87v1.5h-3.87v1.81h3.95v1.5Z" fill="#606060"/>
        <path d="M214.71,65.9c-.61.6-1.51.9-2.69.9s-2.08-.3-2.69-.9c-.61-.6-.92-1.41-.92-2.42v-4.8h1.72v4.74c0,.57.16,1.03.49,1.37.33.34.79.51,1.39.51s1.06-.17,1.38-.51c.32-.34.48-.8.48-1.37v-4.74h1.74v4.79c0,1.03-.31,1.84-.92,2.44Z" fill="#606060"/>
        <path d="M219.13,66.65h-1.7v-7.99h3.74c.84,0,1.5.25,1.97.74.47.49.71,1.1.71,1.84s-.24,1.34-.72,1.83c-.48.5-1.13.74-1.96.74h-2.04v2.84ZM220.94,62.32c.34,0,.62-.1.84-.29.22-.2.33-.46.33-.78s-.11-.59-.33-.78-.5-.29-.84-.29h-1.81v2.16h1.81Z" fill="#606060"/>
      </g>
    </g>
  </g>
</svg>