<?xml version="1.0" encoding="UTF-8"?>
<svg id="Layer_2" data-name="Layer 2" xmlns="http://www.w3.org/2000/svg" viewBox="0 0 128.76 51.78">
  <g id="Layer_1-2" data-name="Layer 1">
    <g>
      <path d="M25.2,36.07c-4.53,4.47-9.07,8.98-13.6,13.45-1.9,1.9-4.12,2.69-6.78,1.99C2.01,50.75.02,48.21.02,45.25,0,32.36,0,19.46.02,6.53.02,2.85,2.95.04,6.69.04s6.52,2.75,6.55,6.43c.03,6.87.03,13.74.03,20.62v1.9c.61-.56.99-.85,1.32-1.17C22.98,19.37,31.43,10.95,39.88,2.5c3.33-3.3,7.08-3.33,10.38-.06,4.39,4.36,8.74,8.74,13.13,13.1.35.35.73.61,1.11.91,3.1,3.1,6.17,6.2,9.27,9.3,2.84,2.87,5.64,5.76,8.48,8.63,1.93,1.93,3.86,3.83,5.79,5.76,2.78,2.78,2.92,6.84.29,9.53-2.72,2.78-6.78,2.78-9.65-.06-4.33-4.3-8.63-8.6-12.93-12.9-.5-.5-1.11-.94-1.64-1.4-.76-.85-1.49-1.75-2.31-2.54-2.31-2.25-4.65-4.47-6.96-6.73-1.78-1.84-3.54-3.68-5.32-5.56-1.43-1.49-2.81-3.04-4.04-4.33-3.07,2.92-5.85,5.56-8.63,8.22-.2.18-.38.38-.58.56-.58.58-1.17,1.17-1.78,1.78-2.57,2.57-5.15,5.15-7.72,7.72-.32.32-.64.64-.97.94-.15.23-.38.47-.61.7Z" fill="#606060"/>
      <path d="M73.78,25.78c-3.1-3.1-6.17-6.2-9.27-9.3,4.94-4.97,9.86-9.97,14.89-14.86,2.31-2.25,6.35-2.08,8.77.29,6.17,6.08,12.28,12.22,18.42,18.34,6.64,6.64,13.31,13.28,19.94,19.92,2.02,1.99,2.72,4.39,1.87,7.08-.85,2.57-2.75,4.12-5.44,4.47-2.34.32-4.24-.58-5.91-2.25-6.14-6.17-12.31-12.34-18.48-18.48-4.62-4.62-9.24-9.21-13.86-13.8-.32-.32-.73-.61-1.17-.97-3.33,3.22-6.55,6.38-9.77,9.56Z" fill="#606060"/>
      <path d="M54.86,26.07c2.31,2.25,4.65,4.45,6.96,6.73.82.79,1.55,1.7,2.31,2.54-3.33,3.39-6.67,6.78-10,10.15-1.32,1.35-2.66,2.69-4.01,4.04-2.95,2.98-6.93,3.01-9.97.09-.67-.64-1.32-1.29-1.99-1.93-.32-.29-.64-.58-.97-.88l-.03.06.03-.06c-.5-.5-.97-.97-1.46-1.46l-.06.03.06-.03c-.41-.44-.85-.91-1.26-1.35l-.03-.03c-.85-.82-1.7-1.61-2.52-2.43-.91-.91-1.81-1.84-2.72-2.75-.29-.32-.61-.64-.91-.97-.2-.2-.38-.38-.58-.58-.03-.2-.09-.41-.12-.61,2.6-2.63,5.23-5.23,7.84-7.87.18-.18.38-.35.56-.53.12-.12.23-.23.35-.38.09-.03.15-.06.2-.15.2,0,.38,0,.58.03,2.6,2.66,5.21,5.32,8.07,8.25,3.39-3.45,6.52-6.7,9.65-9.91Z" fill="#606060"/>
    </g>
  </g>
</svg>