<?xml version="1.0" encoding="UTF-8"?>
<svg id="Layer_2" data-name="Layer 2" xmlns="http://www.w3.org/2000/svg" viewBox="0 0 164.52 48.89">
  <g id="Layer_1-2" data-name="Layer 1">
    <g>
      <g>
        <path d="M7.03,48.74l-.03-6.08-2.61,3.99c-.18.07-.47.11-.58-.05l-2.56-3.94-.02,6.08H.29s0-7.82,0-7.82l.98.02,2.84,4.43,2.88-4.45h.95s0,7.83,0,7.83h-.91Z" fill="#606060"/>
        <path d="M134.13,44.83c0,2.24-1.81,4.05-4.05,4.05s-4.05-1.81-4.05-4.05,1.81-4.05,4.05-4.05,4.05,1.81,4.05,4.05ZM133.16,44.83c0-1.71-1.38-3.09-3.09-3.09s-3.09,1.38-3.09,3.09,1.38,3.09,3.09,3.09,3.09-1.38,3.09-3.09Z" fill="#606060"/>
        <path d="M44.21,48.7c-.29.09-.56.08-.79-.01l-4.35-5.87-.03,5.92h-.92s0-7.82,0-7.82h.79s4.34,5.95,4.34,5.95l.04-5.96h.93s0,7.79,0,7.79Z" fill="#606060"/>
        <path d="M87.26,44.82c0,2.23-1.81,4.04-4.04,4.04s-4.04-1.81-4.04-4.04,1.81-4.04,4.04-4.04,4.04,1.81,4.04,4.04ZM86.31,44.82c0-1.71-1.38-3.09-3.09-3.09s-3.09,1.38-3.09,3.09,1.38,3.09,3.09,3.09,3.09-1.38,3.09-3.09Z" fill="#606060"/>
        <path d="M68.82,47.35l1.18,1.34c-1.03.19-1.15.05-1.77-.67-1.19,1.17-3.46,1.15-4.48-.03-.56-.65-.67-1.62-.3-2.39.26-.55.72-.91,1.2-1.26-.51-.62-.7-1.34-.46-2.11.19-.61.76-1.16,1.48-1.35,1.29-.35,2.66.12,3.27,1.31l-.77.61c-.41-.98-1.43-1.36-2.37-.97-.36.15-.59.39-.7.72-.11.34-.08.78.2,1.07l2.89,3.02c.26-.52.33-.98.46-1.51l.84.53c-.1.61-.3,1.15-.67,1.69ZM64.73,47.64c.91.6,2.12.44,2.85-.27l-2.27-2.37c-.44.22-.85.51-1.05,1-.21.53-.07,1.28.47,1.63Z" fill="#606060"/>
        <path d="M141.81,48.77l-1.85-3.06h-1.69s0,3.03,0,3.03h-.93s0-7.84,0-7.84h3.06c1.19.02,2.12.91,2.29,2,.19,1.17-.46,2.27-1.67,2.69l1.85,3.13-1.06.04ZM140.43,44.74c.86-.01,1.36-.75,1.31-1.54-.04-.69-.6-1.36-1.37-1.36h-2.12s.01,2.92.01,2.92l2.16-.03Z" fill="#606060"/>
        <path d="M27.66,48.75l-1.87-3.07h-1.67s-.01,3.06-.01,3.06h-.94s0-7.83,0-7.83h2.97c1.22.01,2.15.88,2.31,2,.17,1.17-.46,2.23-1.65,2.65l1.94,3.19-1.08.02ZM26.17,44.74c.84,0,1.33-.71,1.33-1.46,0-.67-.48-1.41-1.24-1.42l-2.16-.03v2.94s2.06-.02,2.06-.02Z" fill="#606060"/>
        <polygon points="122.44 48.72 121.5 48.74 121.48 45.25 117.63 45.24 117.62 48.74 116.67 48.74 116.68 40.91 117.62 40.91 117.62 44.29 121.48 44.3 121.5 40.91 122.43 40.91 122.44 48.72" fill="#606060"/>
        <path d="M17.39,46.87h-3.71s-.78,1.86-.78,1.86h-1.03s3.2-7.79,3.2-7.79l.88-.03,3.18,7.79c-.32.08-.66.05-1.01.03l-.74-1.86ZM17.01,45.92l-1.47-3.64-1.49,3.65h2.96Z" fill="#606060"/>
        <polygon points="151.01 45.24 147.75 45.25 147.75 47.83 151.51 47.84 151.51 48.75 146.79 48.75 146.79 40.91 151.43 40.9 151.44 41.83 147.75 41.82 147.74 44.32 151.01 44.32 151.01 45.24" fill="#606060"/>
        <polygon points="53.22 45.24 49.97 45.24 49.97 47.84 53.76 47.86 53.76 48.74 49.04 48.75 49.04 40.9 53.68 40.91 53.69 41.82 49.97 41.82 49.97 44.31 53.22 44.31 53.22 45.24" fill="#606060"/>
        <path d="M111.23,48.77c-1.43.34-2.88-.09-3.73-1.3l.67-.7c.58,1.02,1.73,1.39,2.84,1.1.46-.12.82-.43.92-.83.46-1.87-2.33-1.61-3.54-2.76-.88-.84-.77-2.32.27-3.04,1.29-.88,3.15-.52,4.01.79l-.65.65c-.57-.88-1.63-1.27-2.56-.82-.42.2-.67.56-.68.98s.22.83.65,1l1.44.57c.56.22,1.13.43,1.56.86.56.57.64,1.36.39,2.14-.2.62-.81,1.16-1.59,1.34Z" fill="#606060"/>
        <polygon points="103.82 44.36 103.82 45.25 100.44 45.25 100.43 48.74 99.48 48.75 99.48 40.91 104.04 40.9 104.04 41.83 100.43 41.83 100.43 44.36 103.82 44.36" fill="#606060"/>
        <polygon points="95.3 44.36 95.31 45.25 92.03 45.26 92.01 48.74 91.08 48.74 91.08 40.9 95.56 40.9 95.55 41.83 92.04 41.83 92.01 44.35 95.3 44.36" fill="#606060"/>
        <rect x="32.61" y="40.9" width=".94" height="7.85" fill="#606060"/>
      </g>
      <path d="M82.21,15.25c-.11-.13-.11-.34,0-.41v.41Z" fill="#969696"/>
      <path d="M91.09,16.78l.02-.06c.06,0,.07.08-.02.06Z" fill="#969696"/>
      <g>
        <path d="M67.58,25.77v8.64s-11.28,0-11.28,0v-11.26c2.36.4,4.62.81,6.91,1.37l4.37,1.24Z" fill="#d3d3d3"/>
        <path d="M51.58,22.58v8.35c-3.69-1.67-7.43-3.09-11.39-4.19l.07-4.54c3.82-.11,7.57.01,11.32.39Z" fill="#d3d3d3"/>
        <path d="M82.23,34.41h-10.89s0-7.12,0-7.12c2.83,1.31,5.45,2.79,7.92,4.6,1.07.77,2.01,1.56,2.97,2.53Z" fill="#d3d3d3"/>
        <path d="M31.35,22.83v1.93c-2.64-.32-5.34-.72-8.07-.75.11-.12.28-.19.39-.17.26.04.5-.03.8-.07l6.88-.94Z" fill="#d3d3d3"/>
      </g>
      <g>
        <path d="M123.92,32.48c-1.75,1.36-3.79,2.15-6.02,2.36-2.82.29-5.95-.24-8.32-1.83-2.38-1.6-3.89-4.21-4.19-7.07-.15-1.46-.09-2.81.2-4.23l6.92,3.29c4.05,2.16,7.82,4.69,11.41,7.48Z" fill="#969696"/>
        <path d="M102.38,20.35v14.07s-11.26,0-11.26,0v-17.45c2.99.63,5.93,1.47,8.85,2.49l2.42.89Z" fill="#969696"/>
        <path d="M82.21,15.45v13.23s-6.09-2.58-6.09-2.58l-4.78-1.67v-9.76c3.64.03,7.25.32,10.87.76Z" fill="#969696"/>
        <path d="M67.59,14.76v8.56c-3.72-.9-7.43-1.57-11.28-1.9v-5.82c3.75-.44,7.51-.76,11.28-.84Z" fill="#969696"/>
        <path d="M51.59,16.4v6.18c-3.75-.37-7.5-.5-11.32-.39l-.07,4.54v-4.6s.04-3.4.04-3.4l3.77-.87,5.73-1.19,1.85-.28Z" fill="#969696"/>
        <path d="M31.36,21.17v1.65s-6.88.94-6.88.94c-.3.04-.54.11-.8.07l7.68-2.66Z" fill="#969696"/>
      </g>
      <g>
        <path d="M151.97,34.41h-11.21s0-33.89,0-33.89h11.21s.03,5.75.03,5.75c.53-.92.96-1.79,1.62-2.57,2.62-3.29,6.85-4.14,10.9-3.39v11.71c-2.7-.24-5.48-.2-7.87.9-1.42.66-2.51,1.65-3.27,3.02-.8,1.54-1.38,3.19-1.38,4.99l-.04,13.48Z" fill="#606060"/>
        <path d="M123.92,32.48c-3.6-2.79-7.37-5.32-11.41-7.48l-6.92-3.29c.6-2.87,2.5-5.2,5.14-6.49,1.99-.97,4.12-1.36,6.33-1.52h2.16c2.31.11,4.54.51,6.75,1.35-.04-3.62-1.9-5.38-5.34-5.71-3.52-.33-6.83.47-10.16,1.73l-1.27-4.24-1.23-3.99c3.64-1.39,7.4-2.3,11.29-2.53h3.74c8.4.35,13.86,4.45,14.21,13.17l.06,1.43v19.49s-11.24.01-11.24.01l-.03-3.78c-.68.74-1.33,1.29-2.06,1.84ZM125.82,23.23c.2-.9.18-1.78.16-2.72-2.03-.71-4.17-.94-6.29-.59-.84.14-1.6.51-2.22,1.04-.59.5-.92,1.11-1.1,1.85-.43,1.77.49,3.59,2.27,4.14,2.99.92,6.5-.58,7.18-3.72Z" fill="#606060"/>
        <path d="M67.59,14.76c-3.77.08-7.54.4-11.29.84V.52s11.29,0,11.29,0v14.24Z" fill="#606060"/>
        <path d="M102.38,20.35l-2.42-.89c-2.91-1.03-5.85-1.86-8.85-2.49l-.02-.18c.08.02.08-.05.02-.06.04-2.01.12-4.28-1.53-5.68-.75-.64-1.69-.87-2.68-.89-2.68-.06-4.66,1.97-4.69,4.67-.11.07-.12.28,0,.41v.19c-3.62-.44-7.24-.74-10.87-.76V.52s10.86,0,10.86,0l.03,4.32C84.41,1.75,87.83-.04,91.58.01c1.58-.03,3.05.2,4.51.76,4.3,1.66,6.09,5.56,6.29,10.03v9.54Z" fill="#606060"/>
        <path d="M51.58,30.92v3.48s-11.35,0-11.35,0l-.04-7.68c3.96,1.1,7.7,2.52,11.38,4.19Z" fill="#606060"/>
        <path d="M51.59,16.4l-1.85.28-5.73,1.19-3.77.87-.03-4.04c-.02-2.16-1.14-4.13-3.39-4.47-2.96-.44-5.38,1.62-5.4,4.17l-.06,6.77-7.68,2.66c-.12-.02-.29.05-.39.17,2.73.03,5.43.43,8.07.75l.02,9.66h-11.31s-.01-19.83-.01-19.83c0-.71-.17-1.36-.4-1.95-.63-1.65-2.15-2.49-3.87-2.47-2.51.03-4.46,1.93-4.52,4.42-.06-.03-.11.03-.08.1.01.02.02.05.04.07v19.67s-11.22,0-11.22,0V.52s11.22,0,11.22,0l.02,4.32c.73-.81,1.39-1.54,2.2-2.23C15.47.87,18.01-.03,20.7.01c3.82-.06,7.54,1.61,9.25,5.14C32.66,1.72,36.7-.1,41.02,0s8.24,2.2,9.75,6.4c.48,1.34.79,2.7.79,4.15l.02,5.85Z" fill="#606060"/>
      </g>
      <path d="M11.23,14.74s-.03-.04-.04-.07c-.03-.07.02-.13.08-.1,0,.04,0,.11-.03.17Z" fill="#969696"/>
    </g>
  </g>
</svg>