<?xml version="1.0" encoding="UTF-8"?>
<svg id="Layer_2" data-name="Layer 2" xmlns="http://www.w3.org/2000/svg" viewBox="0 0 224.74 51.72">
  <g id="Layer_1-2" data-name="Layer 1">
    <g>
      <path d="M223.25,4.44l-.41-.79c-.1-.2-.91-.06-.89.16l.08,1.03c.01.19-.05.58-.1.76s-.72.06-.72-.13l.03-.98.05-1.53c.01-.33,1.14.28,2.43-.24.27-.11.25-1.05-.03-1.15-.33-.12-1.13-.27-1.48-.19l-.82.18c-.21.04-.53-.57-.32-.61l1.12-.21c.58-.11,1.93.16,2.25.64.43.64.03,1.69-.62,2.22l.91,2.16c-.76-.1-1.11-.57-1.49-1.3Z" fill="#606060"/>
      <path d="M64.09,30.9l-8.14-19.34c-.25,7.92,1.14,17.31-7.57,19.4-7.17,1.72-17.04,1-18.91-7.26l-.13,7.21-7.88-.05-10.83-14.82c-1.06-1.45-1.75-2.96-2.8-4.75l.09,19.58-7.93.03V.67s7.98.09,7.98.09l9.54,12.96c1.74,2.36,3.11,4.62,4.32,7.21l-.22-2.6-.13-17.57,15.76-.02.09,18.97c.02,3.22,2.26,5.15,5.3,5.05,2.62-.08,4.85-1.64,4.87-4.54l.14-19.47h12.54s4.94,13.79,4.94,13.79l2.11,6.77,1.87-6.2,5.09-14.34,8.77-.04-1.38,3.6c4.29-3.54,9.12-5.01,14.49-4.01,4.56.85,8.81,3.71,11.41,8.59C111.82.09,120.61-1.94,129.27,1.76l.16,4.3c6.08-7.43,16.91-8.01,24.09-1.6l.12-3.69,38.45-.03.14,3.66c5.55-4.92,13.28-5.82,19.73-2.04,6.12,3.59,8.81,10.62,7.11,17.56-1.6,6.51-7.47,11.21-14.5,11.72-5.88.43-11.35-2.34-14.49-6.92-3.47-5.06-3.59-11.37-.64-16.79l-4.18-.03v23.02s-8.22-.03-8.22-.03V7.87s-8.47,0-8.47,0l.02,23-8.23.05V7.96s-4.05,0-4.05,0c2.66,5.26,2.66,11.26-.36,16.2-2.75,4.49-7.59,7.05-12.41,7.42-5.6.43-10.57-1.65-14.12-5.92l-.12,4.13c-8.56,3.9-17.54,1.64-21.83-7.12-2.38,5.1-7.25,8.13-12.36,8.85-9.12,1.29-17.8-5.08-18.51-15.44l-6.25,14.8-6.25.03ZM100.69,17.34c.74-5.09-2.41-10.16-7.63-10.31-5.39-.16-8.58,4.98-8.02,10,.47,4.24,3.41,7.57,7.6,7.69,4.11.12,7.43-3.01,8.06-7.38ZM149.06,20.24c1.5-3.05,1.29-6.86-.45-9.56-1.59-2.45-3.99-3.74-6.71-3.68-2.54.05-4.83,1.42-6.28,3.82-1.79,2.97-1.79,6.88-.11,9.97,1.42,2.62,4.09,4,6.95,3.92,2.66-.07,5.24-1.72,6.6-4.47ZM211.34,16.73c.39-4.89-2.69-9.53-7.64-9.7-5.21-.18-8.42,4.65-8.12,9.58.27,4.39,3.41,8.04,7.69,8.11,4.33.06,7.71-3.39,8.07-7.98ZM127.45,22.42c-2.02-4.55-1.76-9,0-13.27-2.54-2.07-5.96-2.54-8.81-1-2.54,1.37-4.08,4.26-4.18,7.39s1.37,6.36,4.02,7.85c2.92,1.64,6.58,1.28,8.98-.97Z" fill="#606060"/>
      <g>
        <path d="M58.88,51.55l-.18-6.23-2.81,4.19-2.82-4.19-.13,6.32-.72-.17-.05-7.66c.34-.26,1.16.12,1.37.45l2.37,3.74,2.33-3.71c.21-.34,1.07-.71,1.38-.51l.04,7.55-.77.22Z" fill="#606060"/>
        <path d="M156.26,47.58c0,2.24-1.82,4.06-4.06,4.06s-4.06-1.82-4.06-4.06,1.82-4.06,4.06-4.06,4.06,1.82,4.06,4.06ZM152.74,50.75c1.25-.25,2.27-1.45,2.48-2.46s-.29-2.34-1.1-3.19c-1.06-1.11-2.87-.86-3.98.14-.95.85-1.3,2.29-.68,3.77.4.96,1.67,2.07,3.29,1.75Z" fill="#606060"/>
        <path d="M122.43,51.37c-1.12.38-1.53-.46-2.09-1.23l-1.13-1.55-2.28-.04-.09,2.95-.84-.02-.02-7.79h3.87c1.39-.02,2.29,1,2.35,2.14.07,1.24-.64,2.28-2.1,2.46l2.33,3.07ZM120.22,47.52c.5-.04,1.19-1.18,1.11-1.67s-.86-1.29-1.42-1.3l-3-.04-.02,3.27,3.33-.26Z" fill="#606060"/>
        <path d="M130.52,51.41c-1.1.27-1.54-.48-2.13-1.29l-1.22-1.66c-1.07.02-1.96.12-2.3.3l.17,1.99c.03.38-.06.75-.95.96l-.06-8.03,3.89.03c1.2,0,2.21.9,2.31,1.83.15,1.41-.27,2.27-1.95,2.83l2.23,3.04ZM128.28,47.56c.56-.04,1.2-1.19,1.12-1.69-.07-.44-.78-1.23-1.22-1.25l-3.21-.16.02,3.32,3.29-.22Z" fill="#606060"/>
        <polygon points="67.12 47.88 62.73 48 62.78 50.62 67.68 50.74 67.63 51.4 61.82 51.57 61.81 43.69 67.56 43.75 67.66 44.38 62.75 44.55 62.73 47.17 67 47.14 67.12 47.88" fill="#606060"/>
        <polygon points="81.52 47.87 77.16 48.02 77.2 50.63 82.1 50.77 82.06 51.44 76.21 51.48 76.2 43.71 82.03 43.71 82.01 44.42 77.14 44.51 77.19 47.13 81.39 47.17 81.52 47.87" fill="#606060"/>
        <polygon points="113.8 47.87 109.44 48.01 109.47 50.64 114.37 50.75 114.34 51.45 108.43 51.45 108.52 43.69 114.22 43.73 114.28 44.42 109.41 44.51 109.46 47.15 113.68 47.16 113.8 47.87" fill="#606060"/>
        <path d="M137.68,49.77c-.98-.5-3.31-.56-4.35-.05-.6.44-.46,2.27-1.93,1.89l4.13-8.5,4,8.46c-.5.03-.96.09-1.09-.18l-.75-1.61ZM137.2,48.61l-1.76-3.87-1.71,3.9,3.47-.03Z" fill="#606060"/>
        <path d="M95.41,51.11c-2.3,1.34-5.23-.32-5.09-.73l.17-.51c.11-.35,3.6,2.3,4.58.13,1.05-2.31-3.92-1.45-4.47-3.71-.24-.96.23-2.17,1.36-2.58,1.29-.47,2.89.04,4.08.71-.64,1.48-1.43-.51-4.07.2-.42.11-.59,1.25-.29,1.59.98,1.1,3.68.99,4.29,2.17.39.76.1,2.35-.55,2.73Z" fill="#606060"/>
        <path d="M176.51,49.51l-4.58-.02c-.18,1.33-.39,2.29-1.7,2.12l4.08-8.44,4.03,8.4c-.69.03-1.15-.08-1.25-.37l-.58-1.68ZM176.05,48.63l-1.74-3.85-1.82,3.87,3.56-.03Z" fill="#606060"/>
        <path d="M88.71,50.69c-1.38,1.42-3.47,1.15-4.82.16l-.54-.4c-.12-.09.09-.73.22-.66l.75.39c.67.34,1.46.63,2.19.68.62.05,1.72-.63,1.66-1.42-.13-1.83-4.25-1.17-4.58-3.02-.21-1.19.06-2.21,1.25-2.64s3.4-.49,4.01,1.26l-2.7-.64c-.34-.08-1.25.29-1.49.54-.28.29-.34,1.23-.01,1.46,1.21.82,2.62.73,3.98,1.66.59.4.58,2.12.07,2.64Z" fill="#606060"/>
        <path d="M145.87,44.91c-1.63-.83-3.29-.64-4.2.8-.75,1.19-.8,2.85.31,4.15,2.16,2.53,5.78-1.14,5.24.35-.51,1.39-3.99,2.21-5.86.37-1.45-1.42-1.61-3.8-.35-5.47,1.23-1.62,3.65-2.22,5.46-.92l.71.51c.16.12-.29.74-.47.65l-.85-.43Z" fill="#606060"/>
        <polygon points="70.25 50.63 74.65 50.74 74.6 51.5 69.29 51.48 69.34 43.67 70.19 43.67 70.25 50.63" fill="#606060"/>
        <path d="M104.25,51.03c0,.11-.14.64-.23.61l-.69-.2.07-6.79-2.84-.29.05-.64,6.28-.02v.69s-2.66.17-2.66.17l.02,6.48Z" fill="#606060"/>
        <path d="M44.62,50.81c0,.2-.13.67-.19.8s-.52.08-.59-.05-.12-.43-.12-.62l.05-6.37-2.74-.16-.07-.7h6.25s.05.69.05.69l-2.63.18v6.23Z" fill="#606060"/>
        <path d="M167.76,44.35l-.18,7.14-.69.18-.09-7.1-2.6-.18v-.7s6.39.03,6.39.03c-.42,1.15-1.18.95-2.82.63Z" fill="#606060"/>
        <polygon points="160.51 44.57 160.4 51.5 159.63 51.47 159.61 44.57 156.97 44.39 157.05 43.7 163.08 43.69 163.11 44.4 160.51 44.57" fill="#606060"/>
        <rect x="48.96" y="43.71" width=".92" height="7.76" fill="#606060"/>
      </g>
    </g>
  </g>
</svg>