<?xml version="1.0" encoding="UTF-8"?>
<svg id="Layer_2" data-name="Layer 2" xmlns="http://www.w3.org/2000/svg" viewBox="0 0 92.72 79.03">
  <g id="Layer_1-2" data-name="Layer 1">
    <g>
      <path d="M71.27,12.09c-.28.05-.55.04-.85.02l-.44-2.62-.13-.78-.08.93v2.47s-.84.02-.84.02v-5.82s1.31-.03,1.31-.03l.63,3.92.63-3.93h1.23s.06,5.79.06,5.79c-.29.06-.57.06-.85.02l-.06-3.63-.59,3.62ZM69.77,8.55c.1-.17.04-.27,0-.31-.06.14-.04.23,0,.31Z" fill="#606060"/>
      <path d="M85.05,13.05l-.91-.12.28-2.44c.03-.22-.52-.32-.66-.24l-.4,2.57-.89-.11.85-5.83,1.7.23c.47.06.78.51.7.98l-.2,1.27c-.04.27-.21.48-.53.61.31.16.4.46.35.82l-.29,2.24ZM84.58,9.33c.12-.45.22-.88.18-1.3-.02-.21-.45-.27-.64-.23l-.21,1.59c.1.17.61.18.67-.06Z" fill="#606060"/>
      <polygon points="78.64 9.15 79.4 12.39 78.46 12.33 77.88 9.78 77.65 12.3 76.76 12.24 77.18 6.41 78.08 6.46 77.99 8.48 78.88 6.51 79.8 6.56 78.64 9.15" fill="#606060"/>
      <path d="M57.49,11.68c-.35-.02-.6.05-.91.1l-.03,1.29-.87.12.15-5.95,1.18-.15,1.72,5.69-.89.1-.36-1.21ZM57.25,10.85l-.63-2.23-.05,2.35c.26,0,.45,0,.68-.12Z" fill="#606060"/>
      <path d="M75.25,10.9h-.9s-.27,1.22-.27,1.22l-.89-.04,1.18-5.77h1.17s.76,5.87.76,5.87l-.92-.02-.13-1.27ZM75.17,10.08l-.26-2.26-.47,2.27h.73Z" fill="#606060"/>
      <path d="M87.72,13.29c-.4.25-.88.17-1.28.05-.52-.16-.77-.6-.68-1.14l.12-.76.91.12-.11.71c-.02.15.04.27.16.34.09.05.32.07.39-.11.37-.95.06-1.35-.44-2.19-.38-.63-.43-1.23-.28-1.93.14-.66.61-1.07,1.33-.96.41.06.93.2,1.08.66.13.41,0,.88-.12,1.27l-.86-.14.1-.57c.04-.2-.05-.38-.24-.41-.41-.06-.6.79-.25,1.46l.68,1.32c.24.48.04,1.95-.49,2.28Z" fill="#606060"/>
      <path d="M60.33,12.71c-.49.06-1.01,0-1.23-.47-.17-.36-.17-.8-.2-1.18l.86-.09.07.67c.02.21.18.3.35.29.39-.04.45-.87-.25-1.62l-1.04-1.12c-.31-.33-.28-.88-.3-1.32-.04-.6.35-.95.89-1.06.5-.09,1.08-.06,1.36.43.18.33.16.74.2,1.11l-.88.09-.07-.59c-.02-.19-.15-.28-.3-.28-.46,0-.41.87.25,1.54.36.36.75.69,1.03,1.13.22.35.2.79.26,1.18.1.69-.3,1.19-1.02,1.28Z" fill="#606060"/>
      <path d="M82.03,10.02l-.98-.1-.23,1.81,1.1.13c.02.26-.02.5-.08.8l-1.99-.2.64-5.87,1.96.2-.05.79-1.09-.08-.18,1.61.99.13-.09.79Z" fill="#606060"/>
      <path d="M66.5,9.57l-.98.06.08,1.81h1.11s.04.74.04.74l-2.01.13-.28-5.85,1.98-.09c.06.25.05.51.02.78l-1.05.09.08,1.58h.99s.02.76.02.76Z" fill="#606060"/>
      <path d="M74.63,4.33c-.26.02-.52.03-.78-.02l-.45-2.42-.14,2.39c-.2,0-.41.02-.61-.03l.19-4.24.78.02.47,2.32.12-2.26c.19-.03.41-.03.62,0l-.21,4.22Z" fill="#606060"/>
      <polygon points="55.03 13.31 54.11 13.48 53.27 8.48 52.51 8.56 52.37 7.8 54.82 7.39 54.95 8.18 54.21 8.34 55.03 13.31" fill="#606060"/>
      <path d="M63.52,12.37l-.91.08-.4-5.03-.74.03c-.06-.27-.07-.53-.06-.82l2.39-.16.07.8-.75.06.41,5.04Z" fill="#606060"/>
      <path d="M70.12,4.21c-.21.09-.43.05-.66.05l-.03-1.88c-.22-.05-.4-.05-.61,0l.04,1.89h-.69s-.08-4.23-.08-4.23h.69s0,1.67,0,1.67c.18.08.37.07.6.03l-.02-1.71.65-.02.12,4.2Z" fill="#606060"/>
      <path d="M66.81,18.34c-.26.06-.47.03-.74.03l-.56-2.26v.79s0,1.46,0,1.46c-.18.02-.35.03-.58,0l-.03-3.98c.24-.03.51-.05.76.01l.49,2.14.05-2.17c.19-.02.38-.03.59,0l.02,3.98Z" fill="#606060"/>
      <path d="M63.41.39c.19-.12.43-.11.7-.09l.25,3.42c.01.17.21.25.31.23.15-.03.25-.15.23-.34l-.25-3.37.7-.06.24,3.5c.04.55-.44.87-.96.85-.3-.01-.53-.03-.73-.23-.16-.16-.27-.41-.24-.69l-.24-3.22Z" fill="#606060"/>
      <path d="M62.49,3.82c-.05-.15-.46-.07-.61-.01l-.09.9c-.21.06-.41.06-.63.05l.22-4.24.87-.07,1.15,4.09c-.22.08-.45.08-.67.06l-.24-.77ZM62.35,3.12l-.39-1.46-.1,1.53c.19.01.32.04.49-.07Z" fill="#606060"/>
      <path d="M77.97,17.26h.61s0,.5,0,.5c0,.14.12.2.23.2.08,0,.2-.07.2-.21v-.9c-.25.12-.48.14-.72.03-.2-.09-.34-.33-.34-.61v-1.21c.02-.5.42-.74.9-.7.24.02.44.04.61.19s.22.38.21.65l-.06,2.62c-.01.47-.41.7-.84.68-.39-.02-.79-.14-.8-.56v-.69ZM79.04,16.1v-.97c0-.16-.11-.22-.22-.21s-.22.06-.22.22v1.05c-.02.15.12.23.22.22.13-.01.22-.11.22-.31Z" fill="#606060"/>
      <path d="M74.56,17.23c0,.19-.03.35.01.52.03.11.13.14.22.13.08-.01.19-.07.19-.22v-.89c-.47.24-.97.01-1.01-.34-.05-.54-.07-1.1.01-1.64.08-.51.97-.68,1.43-.31.17.14.23.37.22.63l-.05,2.7c0,.44-.44.64-.83.62-.32-.01-.64-.08-.76-.4-.09-.25-.09-.54-.07-.8.22-.04.37-.04.63-.01ZM74.99,16.17l.03-1.05c0-.16-.1-.25-.22-.25s-.23.08-.23.24v.94c-.01.16.05.26.17.29.09.02.24,0,.25-.17Z" fill="#606060"/>
      <path d="M79.53,4l.09-.54c.24,0,.42,0,.63.07-.01.26-.02.52-.11.75-.14.39-.51.5-.9.48s-.87-.3-.81-.77l.34-2.88c.06-.48.49-.71.94-.67.34.03.7.15.79.51.07.28,0,.58-.03.87l-.65-.04.05-.49c.01-.12-.07-.2-.13-.24-.09-.05-.28.03-.29.16l-.34,2.71c-.02.14.08.24.17.26.08.02.23-.01.25-.18Z" fill="#606060"/>
      <path d="M72.12,2.33l-.71.03v1.28c.25.06.46.04.76.03.04.2.03.39,0,.6h-1.47s.01-4.27.01-4.27h1.49s0,.59,0,.59h-.78s0,1.16,0,1.16h.69s0,.58,0,.58Z" fill="#606060"/>
      <path d="M68.35,17.71c.05-.21.03-.37.02-.56h.63s-.02.72-.02.72c-.01.42-.48.57-.86.56-.5-.01-.82-.32-.82-.83v-2.58c.01-.47.36-.72.81-.72.37,0,.77.1.86.5l.03.75h-.61s-.02-.5-.02-.5c0-.13-.11-.2-.21-.2-.07,0-.19.08-.19.21v2.6c.01.1.08.16.13.19.07.05.24.03.27-.13Z" fill="#606060"/>
      <path d="M63.08,16.6c.39.46.38,1.37.09,1.66-.18.18-.41.24-.7.25-.35,0-.73-.16-.74-.54l-.02-.66h.6c0,.2-.03.38.04.58.03.09.28.11.33,0,.25-.58-.21-1.06-.68-1.58s-.44-1.42-.17-1.71.97-.31,1.24-.1c.26.2.3.64.22,1.05h-.57c-.07-.26.04-.49-.11-.62-.05-.04-.22-.04-.26.06-.14.35-.01.71.22.98l.53.63Z" fill="#606060"/>
      <path d="M70.74,16.54l-.67.02-.02,1.2c.25.08.47.05.73.03v.58s-1.37,0-1.37,0v-4.04s1.37,0,1.37,0v.56s-.71.04-.71.04v1.07c.22.05.4.03.63.03.05.15.05.26.04.53Z" fill="#606060"/>
      <path d="M67.23,4.29c-.18.09-.41.05-.66.05l-.17-3.59c-.18-.07-.34-.05-.56-.02l-.03-.62,1.76-.06.03.59c-.18,0-.32-.02-.55.05l.18,3.61Z" fill="#606060"/>
      <path d="M76.22,4.43c-.24.04-.44.01-.67,0l.28-3.6c-.18-.11-.33-.11-.54-.09-.03-.2-.01-.37.03-.59l1.78.12-.05.57h-.54s-.3,3.6-.3,3.6Z" fill="#606060"/>
      <path d="M76.85,18.42c-.25,0-.44.02-.66-.02l.79-3.39-.95-.06v-.57s1.62,0,1.62,0v.56s-.8,3.47-.8,3.47Z" fill="#606060"/>
      <path d="M72.75,18.38l.02-3.22c-.18.08-.29.18-.44.17v-.54c.21-.13.4-.25.56-.45h.52s-.01,4.04-.01,4.04c-.23.03-.4.04-.64,0Z" fill="#606060"/>
      <path d="M77.82,4.56c-.26.04-.48,0-.7-.04l.43-4.21.68.03-.41,4.22Z" fill="#606060"/>
      <path d="M64.42,18.37c-.18.09-.4.06-.64.05l-.05-4.03h.64s.06,3.98.06,3.98Z" fill="#606060"/>
      <path d="M26.14,78.46c-3.41-.44-6.65-1.2-9.85-2.32-2.97-1.04-5.75-2.41-8.31-4.21-2.87-2.01-5.19-4.52-6.67-7.71-1.9-4.11-1.6-8.46.02-12.63,3.33-8.54,11.58-15.19,19.47-19.48,9.83-5.34,21.55-8.51,32.69-9.34,4.48-.33,8.95-.21,13.39.36,7.59.97,17.05,3.91,22.01,9.99,3.77,4.63,4.75,10.28,2.91,15.97-1.26,3.89-3.41,7.23-6.16,10.24-2.46,2.69-5.23,5-8.26,7.05-3.51,2.38-7.26,4.39-11.18,6.06-9.72,4.16-20.15,6.39-30.72,6.57-3.14.05-6.21-.15-9.36-.55ZM77.98,64.34c4.22-3.07,8.24-6.9,10.76-11.5,2.1-3.82,3.26-8.15,2.27-12.47-.7-3.06-2.32-5.77-4.6-7.92-4.84-4.56-12.53-6.97-19.07-7.86l-.88,2.72-2.47,7.61c-1.29-.6-2.42-1.44-3.31-2.55-1.11-1.45-1.63-3.2-1.61-5.04.05-1.14.24-2.19.49-3.35-2.51-.04-4.9.04-7.38.27-13.83,1.31-28.87,6.16-39.69,15.07-3.9,3.21-7.38,7.09-9.46,11.72-2.01,4.47-2.42,9.06-.07,13.47,1.71,3.2,4.39,5.57,7.49,7.44,4.98,3.01,11.23,4.68,17.02,5.31,10.31,1.13,21.27-.28,31.14-3.4,6.78-2.14,13.63-5.35,19.38-9.53Z" fill="#969696"/>
      <path d="M77.98,64.34c-5.75,4.18-12.6,7.38-19.38,9.53-9.87,3.12-20.83,4.53-31.14,3.4-5.79-.64-12.04-2.31-17.02-5.31-3.09-1.86-5.77-4.23-7.49-7.44-2.35-4.4-1.95-9,.07-13.47,2.08-4.63,5.56-8.5,9.46-11.72,10.82-8.92,25.86-13.76,39.69-15.07,2.48-.23,4.87-.31,7.38-.27-.24,1.16-.44,2.2-.49,3.35-.02,1.84.49,3.58,1.61,5.04.89,1.12,2.02,1.96,3.31,2.55l2.47-7.61.88-2.72c6.54.89,14.23,3.3,19.07,7.86,2.28,2.15,3.9,4.86,4.6,7.92.99,4.32-.17,8.65-2.27,12.47-2.52,4.59-6.54,8.43-10.76,11.5ZM45.84,57.61l5.73-17.28,3.11-9.55c-4.11-.39-8.23,2.25-9.5,6.1l-9.05,27.42c4.6.37,8.31-2.46,9.71-6.68ZM67.93,58.45c2.47-.16,4.83-.52,7.16-1.19,2.83-.82,4.95-2.95,6.13-5.63l2.35-7.12c.36-1.08.39-2.22.31-3.33-.14-1.86-1.27-3.37-2.96-4.08-1.15-.48-2.34-.69-3.61-.66-2.15.04-4.26.32-6.33.85-3.32.86-5.67,3.36-6.68,6.57l-2.25,7.14c-.25.8-.27,1.63-.25,2.46s.22,1.56.57,2.29c.97,2.04,3.33,2.85,5.58,2.7ZM20.01,68.13c2.31-.24,4.46-.64,6.68-1.14,3.09-.7,5.63-2.73,7.06-5.53l.68-1.58,3.64-11.24.51-2.98c.19-2.12-.09-4.28-1.79-5.63-.7-.56-1.48-.96-2.36-1.2-1.23-.33-2.45-.46-3.74-.43-2.07.05-4.06.32-6.09.69-4.61.86-8,3.31-9.64,7.77l-3.6,11.84-.31,2.58c-.08,2.85,1,5.37,3.73,6.41,1.04.4,2.12.61,3.24.55l1.98-.1ZM57.22,55.71l3.34-10.24,2.22-6.8c-4.29-.33-8.21,2.27-9.5,6.23l-5.57,17.06c-.04.12-.03.2.02.25.03.04.11.07.22.07,4.28.09,7.85-2.53,9.27-6.57Z" fill="#606060"/>
      <path d="M21.85,62.57c-.69.09-1.36.05-1.86-.41-.37-.34-.58-.98-.4-1.52l4.97-15.32c.76-1.47,2.45-2.19,4.01-1.89,1.24.36,1.64,1.45,1.27,2.6l-4.55,14.29c-.71,1.29-1.97,2.05-3.44,2.25Z" fill="#606060"/>
      <path d="M73.67,51.99c-.74,1.25-2.08,1.98-3.55,1.84-.74-.07-1.35-.82-1.1-1.58l3.31-10.02c.66-1.28,2.1-1.95,3.49-1.59.67.17,1.24.89,1.01,1.61l-3.17,9.73Z" fill="#606060"/>
    </g>
  </g>
</svg>