<?xml version="1.0" encoding="UTF-8"?>
<svg id="Layer_2" data-name="Layer 2" xmlns="http://www.w3.org/2000/svg" viewBox="0 0 191.89 48.29">
  <g id="Layer_1-2" data-name="Layer 1">
    <g>
      <g>
        <polygon points="155.59 23.27 147.79 23.41 139.82 9.18 139.61 23.37 133.23 23.36 133.23 1.1 141.47 1.04 149.03 13.91 149.23 1.05 155.57 1.09 155.59 23.27" fill="#969696"/>
        <path d="M68.71,19.27l-8.6.07-1.32,4.06-7.16-.04L59.8,1.09l9.29-.05,8.71,22.36h-7.66s-1.43-4.13-1.43-4.13ZM67.05,13.88l-2.76-8.11-2.62,8.26,5.39-.15Z" fill="#969696"/>
        <path d="M114.57,23.37c-.54,0-.83-.86-.92-1.06-2.52,2.04-5.8,1.99-8.49.65-2.5-1.25-3.85-4.12-4.01-7.2-.17-3.3,1.04-6.29,3.62-8.03,2.63-1.78,6.12-1.94,9.11-.22l.1-7.5h6.9s.01,23.37.01,23.37h-6.32ZM114.19,15.08c.02-1.91-.49-3.47-2.09-3.89-1.22-.32-2.82.05-3.45,1.5s-.67,3.3-.01,4.79,2.48,1.91,3.77,1.38c1.37-.56,1.76-2.02,1.78-3.78Z" fill="#606060"/>
        <path d="M29.42,15.82c-.69,2.48-.17,4.85-.31,7.57l-7.03.02V1.06s13.65.14,13.65.14c4.23.04,7.24,3,7.39,6.85.15,3.98-2.35,7.08-6.6,7.63l-7.11.14ZM33.75,10.89c1.78,0,2.56-1.52,2.38-2.79s-1.13-2.07-2.61-2.05l-4.4.03v4.82s4.62-.01,4.62-.01Z" fill="#969696"/>
        <path d="M86.84,13.33l-.1,10.07-6.95-.02-.02-16.62,6.38-.06.92,1.36c1.46-1.41,2.98-1.7,4.86-1.77,3.17-.12,6.18,1.94,6.22,5.29l.14,11.8-7,.02.03-9.88c0-1.31-.75-2.22-1.82-2.38s-2.65.51-2.66,2.19Z" fill="#606060"/>
      </g>
      <g>
        <path d="M100.59,37.33l-2.69,10.5-6.56-.12,2.42-11.3c.17-.77-2.01-.89-2.56-.47-.47.36-1.14.77-1.4,1.81l-2.5,10.03-6.67.03,3.89-16.17,4.58-.05c1.06-.01,1.82.1,2.53.9,2.24-1.3,4.91-1.6,7.35-.66l1.6,1.52c2.8-2.54,7.97-2.67,9.79-.81.8.82,1.23,2.18.93,3.47l-2.78,11.82-6.52.02,2.44-11.3c.15-.72-1.45-1.05-1.96-.87-.56.2-1.59.47-1.89,1.64Z" fill="#606060"/>
        <path d="M7.83,42.3c.63,1.64,2.64,1.76,4.07,1.39,1.11-.29,2.37-1.28,2.99-2.93l7.17-.04c-1.9,6.83-9.98,8.69-16.31,7-3.14-.84-5.28-3.26-5.65-6.48-.6-5.15,1.47-10.36,6-13.05,3.99-2.37,8.95-2.6,13.22-1.02,2.7,1,4.34,3.34,4.34,6.44h-7.13c-.04-.74-.1-1.68-.64-2.13-1.82-1.52-4.59-1.09-6.06.87-2.02,2.68-3.29,6.54-1.99,9.96Z" fill="#606060"/>
        <path d="M69.71,46.87c-3.72,2.34-8.99,1.68-10.03-1.78-.57-1.88.24-4.41,2.18-5.56,5.09-3.02,10.51-.92,10.8-2.85.05-.34.16-1.09-.38-1.44-1.43-.94-3.08-.24-3.84,1.18l-6.47.02c1.2-5.33,8.85-5.9,14.1-4.53,2.52.66,3.68,2.87,3.09,5.33l-2.54,10.55-5.56.06c-.47,0-1.01-.55-1.34-.97ZM71.5,40.85c-2.6-.14-4.75.29-5.1,1.65-.09.35-.09,1.03.37,1.34,1,.67,2.45.47,3.35-.17.81-.58,1.37-1.62,1.37-2.81Z" fill="#606060"/>
        <path d="M31.69,41.3c-1.22.04-.27,2.65.55,2.86,1.43.36,2.57-.33,3.68-1.16,1.78-.93,4.47-.14,6.72-.34-1.45,4.13-5.64,5.56-9.8,5.56-3.02,0-6.23-.68-7.7-3.56-1.57-3.09-.6-6.91,1.33-9.52,3.76-5.06,13.47-4.92,16.17-1.02,1.35,1.96,1.29,4.7.5,6.84l-11.46.34ZM37.23,37.74c.28-1.22-.09-1.96-.69-2.33-.96-.58-2.16-.47-3.02.14-.61.43-1.37,1.08-1.25,2.19h4.95Z" fill="#606060"/>
        <path d="M158.79,46.97c-5.34,2.44-14.97,1.64-14.6-4.21,1.95.17,4.14-.44,6.12.23.77.35,1.21,1.57,2.39,1.39.7-.11,2.4,0,2.28-1.35-.17-1.77-6.01-1.38-8.28-4.08-1.85-2.21-.34-5.64,2.31-6.67,5.36-2.09,13.75-1.04,13.55,4.14-2.2-.17-4.18.36-6.11-.24-.58-.38-1.1-1.3-1.77-1.3-1.12,0-2-.03-2.44,1.31l6.12,2.1c2.04.7,3.4,2.15,3.4,4.11,0,1.88-.95,3.63-2.97,4.55Z" fill="#606060"/>
        <path d="M131.49,43.37c.32,1.17,1.78,1.03,2.38.89.86-.2,1.41-1.25,1.86-2.11l6.75-.16c-1.15,4.44-5.16,6.22-9.52,6.2-3.01-.02-6.45-.33-7.95-3.35-1.48-3-.6-6.81,1.29-9.47,3.23-4.52,10.65-5.13,14.52-2.81,1.83,1.09,2.83,2.94,2.55,5.02l-6.6-.04c.13-.92-.16-1.84-.77-2.18-2.45-1.37-5.71,3.7-4.53,8.01Z" fill="#606060"/>
        <path d="M51.66,47.74l-6.84.07,3.87-16.14,6.19-.02c.37.27.35,1.1.44,1.85,1.61-1.7,3.58-2.29,5.71-2.07l-1.39,5.42c-3.07-.48-5.62,1.05-6.3,3.95l-1.68,6.95Z" fill="#606060"/>
        <polygon points="119.28 47.72 112.43 47.83 116.39 31.72 123.18 31.67 119.28 47.72" fill="#606060"/>
        <polygon points="123.74 29.75 116.95 29.76 117.9 25.58 124.62 25.49 123.74 29.75" fill="#606060"/>
        <circle cx="183.67" cy="28.88" r="2.75" fill="#969696"/>
        <circle cx="175.2" cy="40.4" r="2.74" fill="#969696"/>
        <circle cx="161.84" cy="26.67" r="2.74" fill="#969696"/>
        <circle cx="173.29" cy="19.26" r="2.74" fill="#969696"/>
        <circle cx="180.28" cy="21.97" r="2.75" fill="#969696"/>
        <circle cx="181.59" cy="35.52" r="2.74" fill="#969696"/>
        <circle cx="165.96" cy="20.78" r="2.74" fill="#969696"/>
        <path d="M191.89,14.21c0,2.38-1.93,4.31-4.31,4.31s-4.31-1.93-4.31-4.31,1.93-4.31,4.31-4.31,4.31,1.93,4.31,4.31ZM191.05,14.2c0-1.93-1.56-3.49-3.49-3.49s-3.49,1.56-3.49,3.49,1.56,3.49,3.49,3.49,3.49-1.56,3.49-3.49Z" fill="#606060"/>
        <circle cx="167.21" cy="39.66" r="2.74" fill="#969696"/>
        <path d="M188.09,14.5c-.22-.02-.52.02-.72.15-.29.2-.4.59-.62,1.18-.36-1.09-.2-2.22-.16-3.48.69-.15,1.29-.14,1.74.15-.42.41-.89.24-1.08.23-.18,0-.42.32-.26.65.1.21.43.35.66.25.16-.07.36-.25.66-.64s.68.06.46.44l-.47.84.21.25c.29.34.69.83.47,1.42-.93-.15-.77-.89-.65-1.21l-.24-.23Z" fill="#606060"/>
      </g>
    </g>
  </g>
</svg>