<?xml version="1.0" encoding="UTF-8"?>
<svg id="Layer_2" data-name="Layer 2" xmlns="http://www.w3.org/2000/svg" viewBox="0 0 127.86 62.21">
  <g id="Layer_1-2" data-name="Layer 1">
    <g>
      <path d="M120.52,13.81c-7.19.82-14.07-1.75-20.81-4.03-4.94-1.66-9.83-2.99-15.02-3.69-13.34-1.83-23.86.69-35.6,6.94-4.18,2.23-7.94,4.95-11.73,7.82l1.5-1.91c.11-.15.23-.32.41-.41.04-.04.07-.1.06-.16C47.28,8.21,60.11,1.81,72.95.85c-3.27-.75-6.38-.76-9.67-.84-6.7-.14-13.26.49-19.77,2C17.88,7.91,1.76,30.14,0,55.83c.4-.19.68-.41.87-.66.11-.16.19-.31.43-.27.05-.04.15-.09.06-.2,2.13-2.16,4.73-3.81,7.55-5.23,9.82-4.67,21.4-5.51,32.14-4.37l12.88,1.37c8.21.87,16.37.37,24.44-1.32,13.83-2.89,24.49-10.52,33.38-21.24-.06.8-.57,1.34-.91,1.87.17.29-.04.45-.15.72-1.65,4-4.09,7.35-6.66,10.98,10.78-6.19,19.14-15.84,23.77-27.04-1.91,1.96-4.46,3.04-7.28,3.37ZM53.61,16.76c.33-.29.75-.42,1.11-.32.3.07.65.37.81.77.82,2-.75,4.62-2.13,4.21-1.31-.39-1.4-3.27.21-4.67ZM28.98,18.45c-.24-.22-.59-.3-.97-.24l-4.41.65c-.63.09-.71.7-.81,1.25l-3.01,18.53c-.19,1.15-1.07,2.08-2.12,2.35l-2.44.32,3.79-22.93c.18-1.09,1.03-2.39,2.05-2.54l9.65-1.42c.73-.11,1.46.2,1.93.63.49.46.78,1.23.66,2l-1.23,7.57c-.19,1.14-1.06,2.1-2.19,2.26l-7.68,1.18c0-1.49.72-3.11,2.23-3.59l3.25-.57c.56-.09.98-.4,1.07-.99l.54-3.5c.07-.45-.11-.8-.32-.97ZM37.43,28.86l-1.39,9.43c-.79.19-1.49.05-2.06-.41-.52-.44-.83-1.21-.72-1.99l.7-5.57-2.5.34c-1.29.18-1.38,2.95-1.63,4.73l2.95-.31c-.42,2.85-2.34,3.28-5.03,3.4-.43.02-.84-.16-1.05-.4-.28-.32-.45-.79-.37-1.25l.95-6.01c.23-1.48,1.34-2.54,2.83-2.9l5.77-.86c.45-.07.96.19,1.17.43.3.33.46.86.39,1.36ZM44.29,36.43l-3.69.62c-.55.09-1.11-.09-1.47-.42-.38-.35-.63-.95-.58-1.56.19-2.29.55-4.52,1-6.77.22-1.12,1.22-1.81,2.29-1.87l1.28-.08c-.31,2.45-.8,4.71-.91,7.12.42-.03.61-.35.74-.69l2.8-6.93c.65-1.61,2.12-2.52,3.82-2.09l-4.64,11.82c-.12.3-.34.8-.65.85ZM52.88,33.37c-.32,1.88-1.9,2.63-3.92,2.54l1.83-10.59c.33-1.93,1.87-2.5,3.88-2.44l-1.79,10.49ZM65.18,30.37c-.07,1.48-.95,3.27-2.59,3.52l-7.96,1.21c.1-2.07,1.1-3.67,2.63-4.96l3.55-3.01-5.21.67c0-1.89,1.29-3.43,3.22-3.7l7.22-.97c.02,1.8-.81,3.42-2.07,4.66l-4,3.23,5.22-.64ZM76.01,32.29c-.64.33-1.5.28-2.15-.11-.59-.39-.93-1.17-.8-2.05l.64-4.41c-1.27-.09-2.39.65-2.66,1.94l-.73,3.57c-.37,1.78-1.77,2.65-3.65,2.38l2.73-16.83c.16-.98.47-1.98,1.41-2.38l2.26-.42-1.32,8.54,3.74-.5c.53-.07,1.02.03,1.36.36.35.33.44.87.46,1.46l-1.3,8.45ZM89.43,22.08l-1.48,9.85c-.74.19-1.47.07-2.02-.42-.45-.4-.77-1.12-.7-1.86l.65-5.96-2.45.34c-.51.07-.91.56-.99,1.05l-.62,3.6,2.76-.25c-.18,1.36-.94,2.6-2.26,3.01l-2.49.41c-.47.08-.9-.14-1.16-.44-.25-.29-.41-.76-.33-1.23l.97-5.94c.27-1.66,1.47-2.78,3.11-3.03l5.42-.79c.45-.07.91.07,1.2.36.26.26.48.79.41,1.28ZM106.54,19.77l-1.42,8.59c-.71.27-1.44.45-2.2.42-.67-.02-1.02-.68-.94-1.31l.79-5.6c-1.22-.06-2.24.79-2.43,1.99l-.88,5.35c-.8.22-1.67.47-2.52.38-.61-.06-.75-.89-.67-1.42l.8-5.42c-1.36.02-2.28.97-2.5,2.27l-.71,4.28c-.32,1.9-1.79,2.93-3.83,2.63l1.7-10.01c.23-1.41,1.26-2.04,2.58-2.24l10.73-1.6c.49-.07.97.05,1.23.39.22.31.33.83.26,1.29Z" fill="#606060"/>
      <path d="M110.84,25.78c-2.69,4.11-5.69,8.03-9.31,11.47-8.55,8.13-18.32,12.03-30.09,12.77-5.98.38-11.84.04-17.78-.72l-10.98-1.4c-10.9-1.39-21.54-1.42-31.98,2.27-3.34,1.18-6.42,2.66-9.34,4.53,2.13-2.17,4.73-3.82,7.54-5.23,9.82-4.67,21.41-5.52,32.15-4.37l12.88,1.37c8.21.87,16.37.37,24.44-1.31,13.83-2.89,24.5-10.53,33.39-21.25-.06.8-.57,1.34-.91,1.87Z" fill="#444"/>
      <path d="M127.8,10.44c-1.91,1.96-4.46,3.05-7.28,3.37-7.2.82-14.08-1.76-20.81-4.02-4.94-1.66-9.83-2.99-15.02-3.7-13.34-1.83-23.87.69-35.6,6.95-4.18,2.23-7.94,4.94-11.73,7.82l1.5-1.91c.13,0,.27-.03.34-.14.05-.08.07-.18.07-.27.03-.04.07-.1.07-.16.2.09.3.04.47-.13,2.73-2.64,5.69-4.9,8.88-6.99,8.58-5.62,18.55-8.56,28.85-8.61,8.26-.04,16.4,1.44,24.07,4.42l7.24,2.82c5.73,2.23,13.24,3.14,18.89.3.13-.06.19.09.07.25Z" fill="#969696"/>
      <path d="M38.86,18.94c.12-.15.24-.33.41-.41,0,.09-.02.2-.07.27-.07.1-.21.15-.34.14Z" fill="#fdfdfd"/>
      <g>
        <path d="M85.89,62.12c-.21-.05-.53-.1-.6-.26s.1-.59.3-.51c.66.27,1.34.42,1.98,0,.48-.3.89-1.01.83-1.79-.51.36-.9.61-1.45.62-.45,0-1.01-.19-1.27-.72-.53-1.09-.06-2.48.73-3.24.97-.93,2.36-1.01,3.54-.51l-.87,4.52c-.29,1.53-1.6,2.25-3.2,1.88ZM89.06,56.15c-.73-.22-1.4-.17-1.96.34-.93.84-1.13,2.74-.15,3.05,1.3.4,2.01-1.67,2.11-3.38Z" fill="#606060"/>
        <path d="M103.73,59.63c-.58.63-1.32.8-1.99.53-1.2-.48-1.15-2.89.25-4.08.75-.63,1.66-.85,2.65-.54l.38-2.23c.26-.07.54-.07.82-.02l-1.14,6.32c-.05.29.03.53-.26.58-.35.06-.54-.02-.71-.56ZM104.45,56.16c-.79-.25-1.44-.13-1.96.39-.88.88-1.03,2.62-.25,3.02,1.23.64,2.25-1.54,2.22-3.41ZM103.91,59.5l-.07.07.07.07.07-.07-.07-.07Z" fill="#606060"/>
        <path d="M61.06,59.56c-.04.25.07.54-.03.59-.14.06-.52.08-.64,0s.02-.42-.11-.72c-.43.41-.82.75-1.31.83-.57.09-1.21-.04-1.51-.66-.54-1.13-.03-2.55.85-3.36.93-.86,2.31-1.05,3.47-.59l-.71,3.92ZM60.86,56.09c-1.55-.37-2.67.84-2.8,2.33-.05.55.14,1.11.67,1.24,1.25.3,1.99-1.87,2.13-3.56Z" fill="#606060"/>
        <path d="M109.36,56.22c-.64-.58-1.79.37-1.96,1.17l-.57,2.75c-.29.05-.54.06-.82.01l.79-4.58c.31-.16.77-.14.98.39.5-.38.98-.61,1.57-.57.72.05,1.2.67,1.08,1.4l-.58,3.37h-.83s.58-3.24.58-3.24c.05-.27-.1-.58-.24-.7ZM107.57,55.98v.09s0,.09,0,.09v.09s0-.09,0-.09v-.18Z" fill="#606060"/>
        <path d="M94.44,55.82c1.15.96.7,3.41-.8,4.17-.78.39-1.9.5-2.55-.26-1.12-1.32-.28-3.57,1.28-4.17.77-.3,1.53-.19,2.07.26ZM93.3,59.46c.78-.61,1.1-1.59.92-2.51-.09-.45-.38-.76-.74-.87s-.79-.06-1.13.21c-1.19.95-1.17,3-.17,3.33.36.12.8.1,1.13-.16Z" fill="#606060"/>
        <path d="M98.17,60.22c-.79.18-1.48-.02-1.93-.51-.95-1.04-.4-3.29.94-4,.84-.44,1.85-.45,2.52.21s.64,1.66.34,2.56c-.25.76-.89,1.53-1.87,1.75ZM98.27,59.55c.92-.53,1.28-1.63,1.1-2.59-.08-.45-.38-.78-.74-.89s-.79-.05-1.14.22c-.74.57-1.01,1.58-.83,2.51.14.68.93,1.13,1.61.74Z" fill="#606060"/>
        <path d="M54.53,56.1c-.65.21-1.12.81-1.24,1.43l-.51,2.6c-.29.08-.57.08-.84.04l.85-4.62c.18-.05.49-.08.62-.02s0,.38.14.65c.48-.47,1.04-.81,1.69-.79.78.02,1.27.63,1.14,1.41l-.56,3.34c-.29.06-.52.06-.8,0l.55-3.22c.05-.26-.08-.56-.2-.68-.17-.16-.47-.26-.81-.14Z" fill="#606060"/>
        <path d="M69.27,55.53h.8s-.77,4.35-.77,4.35c-.05.26-.09.29-.27.3s-.43,0-.45-.11c-.02-.16.08-.39-.06-.63-.52.63-1.34,1.04-2.15.74-.62-.23-.78-.95-.67-1.56l.54-3.1h.8s-.55,3.17-.55,3.17c-.05.3.07.63.26.79.59.51,1.77-.25,1.99-1.32l.52-2.63Z" fill="#606060"/>
        <path d="M113.98,59.56l.51-.16c.14-.04.16.16.16.3,0,.56-2.25,1.01-3.03-.09-.58-.82-.39-1.83.02-2.68.39-.78,1.11-1.43,2.09-1.52.73-.07,1.38.26,1.53.96.13.6-.19,1.23-.88,1.46-.74.25-1.47.26-2.28.28-.1.54.08,1.07.42,1.33.38.3.92.28,1.46.12ZM114.04,57.29c.42-.16.54-.61.42-.88-.14-.31-.47-.45-.84-.4-.75.11-1.23.7-1.42,1.5.66.02,1.23.01,1.84-.22Z" fill="#606060"/>
        <path d="M75.06,59.46c.99.69,2.15-.62,2.12.37-.01.28-2.21.95-3.03-.2-.57-.79-.41-1.84.02-2.71.38-.77,1.17-1.47,2.14-1.52.71-.04,1.34.36,1.46.94.15.72-.24,1.27-.94,1.52s-1.4.22-2.2.26c-.13.53.05,1.08.43,1.34ZM77,56.47c-.07-.26-.36-.46-.72-.45-.81.02-1.39.62-1.55,1.52,1.29.02,2.49-.21,2.27-1.07Z" fill="#606060"/>
        <path d="M81.92,60.06c-.65.33-1.59.27-2.11-.06-.12-.08.02-.48.15-.5.31-.06,1.39.57,1.87-.25.61-1.04-1.28-1.27-1.39-2.16-.06-.52.04-.95.46-1.29.57-.46,1.54-.55,2.11-.22.12.07.04.51-.07.57-.13.08-1.27-.5-1.65.29-.44.94,1.38,1.08,1.46,2.2.04.57-.21,1.1-.83,1.41Z" fill="#606060"/>
        <rect x="103.86" y="59.52" width=".1" height=".1" transform="translate(-11.69 90.92) rotate(-45)" fill="#606060"/>
        <path d="M117.74,60.04c-.68.33-1.48.32-2.13.03-.17-.07-.04-.5.07-.59.13-.11,1.59.69,1.99-.33s-1.39-1.08-1.52-2.22c-.05-.43.19-.93.6-1.2.64-.42,1.42-.43,2.09-.16.13,1.23-1.53-.2-1.85,1.01-.23.86,1.44.97,1.54,2.09.05.52-.22,1.09-.8,1.37Z" fill="#606060"/>
        <polygon points="107.57 55.98 107.57 56.06 107.57 56.16 107.57 56.24 107.57 56.16 107.57 56.06 107.57 55.98" fill="#606060"/>
        <path d="M121.56,59.93c-.69.46-1.56.47-2.26.1-.14-.07-.04-.47.07-.55.14-.11,1.54.66,1.96-.33s-1.29-1.07-1.5-2.11c-.09-.4.1-.89.45-1.19.63-.54,1.5-.58,2.23-.27.11,1.23-1.36-.15-1.82.89-.4.91,1.33,1.05,1.5,2.09.08.48-.12,1.04-.62,1.37Z" fill="#606060"/>
        <path d="M64.33,59.64c.14,0,.14.42.04.5-.17.17-1.08.22-1.42-.1-.16-.16-.28-.46-.26-.77l.58-3.05c-.21-.11-.53-.08-.62-.19s-.03-.46.1-.5.44.09.64-.12l.23-.78c.07-.22.54-.27.78-.23l-.2,1.09,1.14.02-.09.58-1.17.04-.55,2.86c-.04.19.01.39.1.51s.39.15.7.15Z" fill="#606060"/>
        <path d="M73.63,56.16c-1.75.07-1.86,2.12-2.16,3.98-.25.08-.55.07-.83.02l.83-4.63c.21-.04.39-.06.53-.02.15.04.25.29.33.5.48-.44.84-.63,1.38-.59l-.09.74ZM72.17,56.11l-.07.07.07.07.07-.07-.07-.07Z" fill="#606060"/>
        <rect x="72.12" y="56.13" width=".1" height=".1" transform="translate(-18.59 67.48) rotate(-45)" fill="#606060"/>
      </g>
    </g>
  </g>
</svg>