<?xml version="1.0" encoding="UTF-8"?>
<svg id="Layer_2" data-name="Layer 2" xmlns="http://www.w3.org/2000/svg" viewBox="0 0 215.06 60.59">
  <g id="Layer_1-2" data-name="Layer 1">
    <g>
      <g>
        <path d="M18.75,22.25l-.14.57-1.86,8.62c-.28,1.31-.7,1.85-1.99,2.01l-.94.12-1.04.15c-1.11.16-2.19.41-3.12,1.03-1.61,1.07-2.56,3.26-1.57,4.28.29.29.63.55,1.08.56-.46-.35-.72-.8-.76-1.39-.04-.94.36-1.77.98-2.43.95-1.02,2.16-1.62,3.55-1.84l1.21-.19,2.15-.4c.44-.08.72-.38.82-.82l1.59-7.02.55-2.36.2-1.03,5.22-.98-.91,4.42-1.04,4.75c1.98-.59,3.69-1.38,5.35-2.42,2.05-1.3,3.71-2.97,4.98-5.04.66-1.08,1.09-2.21,1.47-3.41.04-.12.15-.19.27-.21l.97-.15c-.04.34-.12.66-.23,1.02-.54,1.71-1.3,3.29-2.4,4.7-.89,1.13-1.83,2.13-2.98,2.97l-1.42,1.03c-.54.39-1.1.68-1.71.98-1.21.61-2.41,1.15-3.73,1.52-.27.08-.56.06-.77.28.68,0,1.25-.15,1.89-.34,2.34-.72,4.5-1.83,6.41-3.36,2.14-1.71,3.82-3.59,4.81-6.16.36-.93.72-1.81.9-2.78l.6-.14,4.9-.87-.45,1.82c-.79,3.23-3.21,7.35-5.79,9.36l-2.16,1.69c-1.32.95-2.71,1.69-4.23,2.3-.09-.05-.2,0-.21.07-.01.07,0,.11.11.16,1.8.82,3.37,1.99,4.65,3.5l2.02,2.76,2.83,3.93c1.85,2.57,4.33,4.86,7.33,5.95,1.84.62,3.72.82,5.66.61,1.42-.09,2.7-.43,4.14-.79-1.08,1.11-2.25,1.98-3.51,2.86-1.49,1.04-3.02,1.85-4.72,2.51-1.26.37-2.5.72-3.84.71-3.24-.03-6.17-1.8-8.47-4-1.22-1.17-2.29-2.37-3.25-3.75l-2.64-3.78-3.39-5.11-1.55-2.3-.99-1.35-2,.63c-.29.72-.39,1.42-.55,2.16l-.56,2.69-.47,2.21c-.06.3-.34.48-.31.86.04.47-.06.97-.16,1.45l-.48,2.22c-.32,1.47.01,3.12,1.17,4.23l-2.24.4-3.94.72-5.24.95,1.19-1.51c.97-1.23,1.64-2.56,1.98-4.1l1.06-4.75.74-3.46.46-2.29c.04-.21-1.45.14-1.67,1.21-.1.47.08.84.49,1.12-1.8,1.13-4.57,1.35-5.82-.12-1.2-1.41-.49-3.5.84-4.91,1.87-1.97,4.37-2.31,7.05-2.6.26-.03.29-.15.34-.38l1.65-7.55.37-1.63c.03-.15.22-.21.34-.23l.95-.14ZM40.2,52.89l-2.53-2.19c-1.29-1.11-2.36-2.37-3.36-3.75l-2.74-3.78-1.65-2.44-2.88-4.1-1.41-1.85c-.2-.27-.49-.42-.89-.28l1.17,1.74,2.51,3.78,3.48,5.14c2.21,3.26,5.64,7.28,9.45,8.57-.27-.43-.75-.52-1.14-.85ZM13.45,49.14l1.68-6.71,1-4.81c.08-.4-.03-.82-.28-1.12-.1-.11-.29.03-.18.17l-.71,3.38-1.82,7.72c-.35,1.47-.8,2.8-1.71,4.04.73.31,1.81-1.74,2.04-2.67ZM41.6,53.7c-.16-.09-.23.16-.01.12v-.12ZM41.72,53.82v.12c.15.09.22-.16,0-.12Z" fill="#fdfdfd"/>
        <path d="M54.96,46.85c-3.96,1.36-9.61,1.54-11.82-2.32-1.12-1.96-1.39-4.23-.89-6.43l.29-1.9c.21-1.33-.82-2.49-.54-2.77.49-.5.81-1.06,1.14-1.67.38-.71.6-1.43.83-2.21l.87-3.08c1.36-3.61,4.46-6.82,7.91-8.52,4.15-2.05,9.79-2.23,12.38,1.89.66,1.05.97,2.23,1.09,3.45.11,1.1,0,2.15-.07,3.25l-.15,2.21c-.05.76.19,1.46.65,2.13-.65.59-1.21,1.23-1.46,2.06l-.82,2.78c-.42,1.41-.74,2.78-1.41,4.08-1.7,3.36-4.45,5.8-8.02,7.03ZM57.09,17.81l-.06.06.06.06.06-.06-.06-.06ZM46.12,45.7c-1.66-1.21-2.59-4.29-2.29-6.44l.24-1.77c.19-1.39.3-2.63-.5-3.82.99-.9,1.56-2.02,1.92-3.27l.91-3.16c.66-2.27,2.73-4.7,4.55-6.28,1.45-1.25,3.8-2.54,5.64-2.86.08-.01.2-.04.17-.18-1.86.2-3.63.85-5.19,1.91-1,.68-1.93,1.38-2.73,2.28l-.93,1.05c-.88.99-1.45,2.17-1.96,3.4-1.06,2.55-1.04,5.04-2.85,7.1.44.98.46,1.97.35,3.01l-.33,2.94c-.06,2.49.73,5.09,2.88,6.2l.11-.1ZM59.32,21.55c-.15-.1-.25.14-.03.13l.03-.13ZM59.45,21.61l-.07.13c.28.18.54.3.78.52,2.03,1.82,1.55,5.35,1.08,8.03l-.33,1.89c-.64,3.68-1.59,6.77-4.39,9.34-1.67,1.53-3.82,2.1-6.03,1.99,1.06.44,2.15.25,3.2-.02,1.78-.46,3.51-1.61,4.65-3.05.99-1.24,1.76-2.61,2.26-4.13.41-1.25.61-2.52.83-3.82l.26-1.52.5-2.65c.22-1.17.13-2.31-.07-3.48-.29-1.69-1.08-2.79-2.67-3.24ZM56.49,40.1c1.28-1.37,2.26-2.97,2.65-4.81l.55-2.59.44-2.01.41-2.96c.24-1.7-.11-4.17-1.51-5.15-1.02-.72-2.27-.81-3.48-.52-2.61.63-4.33,2.66-5.45,5.04-.4.83-.65,1.64-.83,2.55l-1.22,6c-.2.99-.22,1.94-.15,2.93.13,1.91,1.02,3.46,2.92,3.87,1.9.41,4.29-.87,5.67-2.34ZM46.17,45.73l-.1.12.18.08.09-.09-.16-.1ZM46.39,45.88l-.1.09c.07.1.2,0,.1-.09Z" fill="#fdfdfd"/>
        <path d="M36.51,15.93c.02-2.01-1.19-3.73-2.95-4.66l-.11.1c1.68,1.35,2.24,2.45,2.35,4.7l-.97.15c-.09-1.92-.9-3.51-2.6-4.48-2.1-1.2-5.78-1.33-8.29-1.05-1.26.14-2.47.2-3.73.17-.6-.02-1.08.1-1.62.33-1.15.49-2.42.63-3.67.51-.69-.07-1.33-.41-1.75-.94-.85-1.05-.26-2.74.76-3.79,1.79-1.84,4.25-2.73,6.82-2.6.09-.15.26-.02.12.08-.74.34-1.3,1.04-1.06,1.56.07.15.23.35.46.44,1.93.77,7.7-1.27,13.78-.17,2.24.41,4.35,1.05,6.03,2.62s2.46,3.67,2.31,6l-5.88,1.03ZM15.47,10.68c-.63-.29-.93-.91-.72-1.58.54-1.7,2.12-2.53,3.74-3.13.05-.02.09-.19.07-.24-1.43.19-2.73.79-3.71,1.84-.77.83-1.2,1.96-.55,2.76.32.24.69.45,1.16.36ZM26.55,7.52c1.13-.19,2.15-.16,3.2-.23.59-.04,1.07-.11,1.67,0,.65.12,1.35.04,1.97-.01-.45-.05-.87-.15-1.3-.15h-3.49c-1.15-.02-2.23.13-3.37.25l-2.92.3-1.62-.02c-.17,0-.38-.19-.61-.03.58.27,1.2.3,1.88.3,1.53,0,3.01-.14,4.59-.4ZM33.28,11.11c-.03-.05-.16-.1-.23,0-.03.04.09.14.14.1l.09-.09ZM33.33,11.15l-.09.09.18.1.1-.12-.18-.07Z" fill="#fdfdfd"/>
        <path d="M20.17,18.8l.16-1.45c.09-.9-.08-1.74-.47-2.52l1.78-.37c.3-.06.62-.02.91-.14l1.92-.31c.27-.06.51-.13.66-.38-.34.12-.61.1-.93.17l-1.92.38-.8.13-2.39.31c.56,1.08.53,2.38.4,3.54l-.14.83-1.11.2c.32-2.02.5-4.04-1.06-5.41l8.91-1.38,1.16-.14c-.64,1.34-1.12,2.67-1.5,4.11l-.4,1.57-4.66.82-.51.05Z" fill="#fdfdfd"/>
        <path d="M6.32,23.75l-1.51.21c-.35-.44-.31-1.2.27-1.46l1.22-.28c-.19-.33-.51-.51-.77-.78l-1.42-1.52c-.07-.08-.28-.29-.1-.32l5.56-1.02c.22-.04.46-.05.64.03.37.17.53-.14.79-.2l2.01-.46c.3-.07.47.07.67.25l2.09,1.86c.25.22.39.28.73.22l9.91-1.84,4.47-.79,5.06-.9,3.15-.56,5.47-.92,1.13-.23-.57-1.01-.78-1.4,8.15.94,2.92.37c.09.01.2-.03.23,0s-.02.14-.1.18l-3.32,1.68-4.38,2.25-3.74,1.88,1.56-3.34-11.59,2-8.24,1.56-4.26.76-5.29.99c-.17.03-.29.21-.39.32l-.65.76-1.96,2.25-2.57.56-2.5.55c-.18.04-.33-.1-.43-.24-.21.31-.44.47-.78.53l-3.36.65.64-.92c.64-.91,1.31-1.71,2.05-2.6ZM46.23,17.85l4.13-2.04,2.45-1.17c.23-.11.48-.11.67-.32l-1.16-.07-6.05-.53.46,1.07c.03.08.05.37.17.36,1.31-.13,2.63-.29,3.96-.29.05.2-.17.15-.22.16-1.25.31-2.42.55-3.67.76-.1.02-.16.34-.15.41l-.58,1.65ZM14.63,20.58l-1.17-1.03c-.21-.18-.45-.34-.71-.45-.48.1-.89.2-1.41.24l.92.83.77.75,1.6-.35ZM11.86,21.14c.19-.04-.04-.19-.09-.24l-1.32-1.13c-.18-.15-.3-.26-.57-.16-.84.33-1.5.04-1.03.48l1.47,1.37,1.54-.32ZM9.22,21.69l-1.52-1.51c-.09-.09-.22-.12-.35-.09l-1.46.27,1.88,1.62c.49-.13.92-.2,1.45-.29ZM12.78,24.5c.67-.85,1.35-1.59,2.12-2.36l-1.86.29-1.72,2.26c-.18.24.67-.07,1.45-.19ZM10.2,24.99c.13-.12.22-.24.29-.35.41-.71.89-1.27,1.43-1.93l-1.65.3c-.57.76-1.12,1.43-1.63,2.26l1.57-.28ZM7.37,25.54l1.56-2c.09-.11.25-.14.2-.35l-1.47.26-2.02,2.4,1.72-.31Z" fill="#fdfdfd"/>
        <path d="M64.96,45.67s-.04-.16,0-.21l.98-1.38,1.03-2.01c.55-1.44.87-2.9,1.17-4.42l.55-2.72c.3-1.47.36-3.07-.61-4.23,1.19-1.17,1.97-2.57,2.3-4.22l1.04-5.14c.34-2.02.64-4.1-.76-5.81l9.83-.81c1.47-.12,2.9,0,4.3.4,2.62.75,4.85,2.85,4.93,5.65.07,2.14-.76,4.17-2.14,5.79-.71.83-1.53,1.44-2.39,2.05l1.28.92c.76.72,1.13,1.67,1.26,2.71l-.03,2.37c-.17,2.54-1.19,4.88-3.09,6.6-1.29,1.17-2.78,2.03-4.46,2.52-2.23.65-4.47.87-6.79.92-1.28.02-2.45.33-3.7.48l-4.69.56ZM68.81,42.35l.68-2.54.96-4.86c.3-1.5.26-2.91-.48-4.2.01.02,1.42-1.31,1.76-2.78l.67-2.85.68-3.27c.33-1.58.61-3.64-.04-5.17l4.75-.48,1.41-.24.68-.06s-.02-.06-.06-.08h-.86s-.94.12-.94.12l-3.54.32-2.09.21c.72,1.71.4,3.56.03,5.31l-1.12,5.39c-.25,1.2-.8,2.26-1.57,3.21-.1.12-.3.24-.2.44.64,1.29.5,2.6.25,4.03l-.34,2c-.42,2.45-.89,5.23-2.21,7.27.56.26,1.39-1.06,1.58-1.78ZM84.01,19.56l-.06.06.06.06.06-.06-.06-.06ZM77.66,31.57l-1.21-1.7-.54-.66.79-.84,2.22-2.2c.24-.24.42-.5.7-.67l.38.72c.24.47,1.83-.14,2.66-.74,1.09-.8,1.78-2.03,1.71-3.38-.06-1.11-.76-2-1.83-2.24-.48-.12-.96-.16-1.46-.12l-4.18.41-1.57,7.76-.89,4.49-1.51,7.28,3.64-.26c1.06-.07,2.08-.26,3.06-.67,1.31-.56,2.22-1.62,2.61-2.98.23-.79.33-1.58.14-2.39-.34-1.51-1.99-2.35-2.76-1.87-.52.32-.93.71-1.32,1.16l-.62-1.11ZM84.27,19.66c-.11-.04-.17.12-.04.15l.04-.15ZM84.38,19.77l-.05.11c.72.53,1.02,1.34,1,2.25-.05,2.18-1.38,4.05-3.38,4.87l-1.51.43c2.03.27,4.13-1.32,5.04-3.07.88-1.71.66-3.86-1.1-4.6ZM78.84,30.68l-.94-1.32,1.07-1.03c.73-.7.69-1.64.45-1.33l-.79.99-1.11,1.11c-.12.12-.13.26,0,.42l1.22,1.6c.08.07.25-.24.11-.43ZM82.03,31.1l-.06.06.06.06.06-.06-.06-.06ZM82.45,31.33c0-.07-.06-.13-.13-.13s-.13.06-.13.13.06.13.13.13.13-.06.13-.13ZM74.35,40.87c2.28-.06,4.72-.26,6.59-1.25.58-.31,1.04-.73,1.48-1.19,1.46-1.52,2.07-4.11,1.17-6.04-.27-.4-.52-.87-1.15-.95.57.67.89,1.35.97,2.23.05,1.23-.2,2.47-.78,3.57-.95,1.78-3.08,2.94-5.03,3.13l-2.27.21-2.23.1c.35.26.75.21,1.25.2Z" fill="#fdfdfd"/>
        <path d="M132.98,33.55l-.82,4.77c-.2,1.14.17,2.21.93,3.16l-2.34.16-2.51.15-4,.22c-.13,0,.09-.22.16-.28,1.24-1.16,1.99-2.66,2.33-4.34l1.73-8.5.92-4.57c.26-1.3.17-2.78-.61-3.78-.15-.19-.09-.34.07-.49,1.06-.97,1.8-2.2,2.1-3.62l1.16-5.59.26-1.4-1.45.23c-1.15.18-2.29.17-3.38-.23-1.43-.53-2.01-1.63-1.55-3.08.33-1.04,1.09-1.85,2.03-2.38.62-.35,1.28-.66,1.99-.68l2.75-.07c-.55.37-.97.7-1.03,1.31-.02.24.1.45.38.45h18.25s6.14.05,6.14.05l-1.51,2.49-2.88,4.81c0,.1-.13.18-.2.1-1.21-1.44-2.8-2.14-4.64-2.47l-2.06-.26-7.17-.05-1.46,6.61-.26,1.48,4.26-.06,5.47-.05c.1,0,.22.05.22.11,0,.05-.07.08-.12.17l-3.58,5.97c0,.11-.12.13-.17.03-.56-.85-1.48-1.41-2.53-1.41l-4.52-.02-1.22,5.66-1.16,5.41ZM127.62,7.02c.12-.72.56-1.27,1.06-1.69.63-.5,1.33-.75,2.05-1.01-1.39-.12-2.58.52-3.38,1.54-.36.58-.51,1.21-.35,1.89.27.45.67.85,1.27.86-.49-.4-.78-.87-.65-1.59ZM155.06,6.03c-.04-.1-.1-.1-.19-.1h-4.37s-.48-.12-.48-.12l-7.68.03-9.23.06c-.15-.04-.21.1-.16.12l1.12.09,8.16-.04,12.83-.04ZM128.3,38.04l.73-3.57.51-2.53,1.55-7.73c.45-2.23-.74-3.6-.51-3.79.93-.77,1.63-1.72,1.87-2.92l.7-3.39.88-4.47c.05-.25-.06-.5-.2-.62s-.33-.19-.6-.14c.28.29.28.59.2.98l-1.11,5.3-.43,2.01c-.17.81-.46,1.55-.98,2.17l-.9,1.09c-.09.1.85,1.58.35,4.09l-1.62,8.17-1.1,5.32c-.22,1.05-.63,1.97-1.22,2.88.82.1,1.65-1.81,1.86-2.83ZM137.91,18.93l5.71-.2c.49-.06,1.03.08,1.46-.3l-6.86.28-1.84.05c.12.13.3.23.48.22l1.05-.05Z" fill="#fdfdfd"/>
        <path d="M157.37,39.73c-3.82,2.06-9.32,2.55-12.61-.33-1.69-1.48-2.48-4.05-2.22-6.2l.3-2.55c.12-1.06,0-2.06-.5-3,1.12-.99,1.67-2.25,1.97-3.67.37-1.78,1.04-3.42,2.09-4.9l1.72-2.02c.75-.88,1.7-1.49,2.71-2.07,2.99-1.73,6.67-2.36,9.94-1.16s4.85,3.92,4.95,7.24l-.26,3.26c-.08,1,.1,1.93.62,2.77-.87.94-1.54,1.94-1.72,3.16-.55,2.77-1.94,5.5-4.05,7.37-.91.81-1.84,1.51-2.93,2.1ZM146.86,39.4c-1.71-1.27-2.56-3.01-2.64-5.16l.19-2.79c.08-1.16.32-2.34-.38-3.53.78-.69,1.4-1.51,1.67-2.53l.37-1.38c.27-1.03.55-1.99,1.06-2.93,1.92-3.59,5.34-6.05,9.43-6.53l.85-.1c.28-.03.65.12.91-.11l-2.58.03c-1.87.18-3.56.91-5.1,1.95-2.73,1.84-4.24,4.22-5.16,7.32l-.75,2.51c-.19.65-.7,1.13-1.11,1.67.35.95.37,1.92.22,2.92-.48,3.13-.57,6.32,2.14,8.26.28.2.53.44.84.51l.05-.11ZM157.1,36.06c1.47-1.16,2.46-2.71,3.08-4.49l.82-3.62.8-4.09c.29-2.46-.36-5.2-2.81-5.93.64.5,1.18.92,1.54,1.63.48.96.69,2.03.65,3.14-.05,1.8-.37,3.51-.73,5.27-.29,1.43-.58,2.79-1.14,4.12-1.28,3.06-3.75,5.39-7.2,5.56,1.5.32,3.7-.57,5-1.6ZM158.01,32.55l.65-1.58.7-2.91.34-1.28.37-2.2c.49-2.93-.27-6.26-3.3-6.52-2.37-.2-4.46,1.1-5.77,3.05-.7,1.04-1.23,2.16-1.5,3.39l-.59,2.7-.65,3.42c-.34,1.79,0,4.4,1.61,5.41,2.91,1.81,6.93-.51,8.14-3.48ZM146.96,39.47l-.05.15c.13.06.21-.13.05-.15ZM147.17,39.61l-.06.06.06.06.06-.06-.06-.06Z" fill="#fdfdfd"/>
        <path d="M181.98,38.58c-2.61,1.63-5.97,2.4-8.99,1.86-1.02-.18-1.99-.45-2.89-.99-2.7-1.62-3.76-4.5-3.38-7.61l.33-2.49c.11-.82-.17-1.62-.58-2.29.62-.66,1.15-1.32,1.51-2.13l.54-1.8c.61-2.55,1.91-4.76,3.79-6.57,1.19-1.14,2.51-1.96,4.02-2.62.93-.41,1.89-.63,2.9-.82,1.75-.32,3.47-.2,5.16.4,3.33,1.18,5.08,4.14,5.02,7.67l-.28,2.85-.05,1c-.05,1,.65,1.62.49,1.78-.93.88-1.45,1.97-1.69,3.21-.73,3.72-2.71,6.55-5.91,8.55ZM168.99,36.1c-.65-1.51-.8-3.05-.5-4.61s.38-3.04-.33-4.35c.88-.75,1.39-1.71,1.7-2.79l.41-1.45c1.07-3.73,3.85-6.73,7.52-7.98,1.5-.51,3.01-.83,4.64-.71.11,0,.13-.14,0-.15-.33.09-.6-.04-.88-.03l-2.45.14c-2.21.36-4.16,1.43-5.85,2.87-1.19,1.02-2.73,3.01-3.16,4.42l-.87,2.86c-.32,1.05-.8,1.98-1.55,2.81.4.87.51,1.75.37,2.67l-.34,2.22c-.42,2.73.96,5.85,3.63,6.9l-1.19-1.05c-.52-.46-.88-1.09-1.18-1.78ZM182.74,29.31l.66-3.07c.44-2.07.86-4.08.2-6.08-.49-1.49-1.81-2.44-3.39-2.47-3.17-.05-5.86,2.99-6.48,5.77l-1.53,6.83c-.25,1.12-.1,2.25.29,3.3.45,1.22,1.47,2.06,2.76,2.26,1.52.23,3.04-.2,4.27-1.12,1.71-1.27,2.79-3.33,3.23-5.41ZM183.55,31.99c.5-1.17.91-2.43,1.01-3.71.06-.73.14-1.29.4-1.98.4-1.05.52-2.22.6-3.36.07-.98-.05-1.9-.33-2.82s-.86-1.67-1.71-2.14c-.21-.12-.41-.35-.7-.27,1.78.91,2.41,3.75,2.11,5.42l-.76,4.22c-.63,3.51-1.63,6.73-4.82,8.59-.66.38-1.34.6-2.12.71-.22-.02-.2.21.03.17,2.88-.34,5.16-2.25,6.27-4.85Z" fill="#fdfdfd"/>
        <path d="M88.32,43.39l-1.37.04c1.34-1.3,2.19-2.85,2.57-4.67l1.3-6.27.11-1.4c.07-.87-.17-1.67-.63-2.45,1.26-1.13,1.78-2.59,2.12-4.22l.32-1.43.79-3.89c.17-.86.23-1.7.18-2.58-.11-1.79-1.34-2.5-.65-2.53l7.2-.31h1.2c-1.69,1.81-2.36,3.3-2.85,5.62l-.89,4.25c-.29,1.41-.37,3.58.41,4.77-1.46,1.37-2.06,3.16-2.43,5.1l-.62,3.22-.34,2.96c-.12,1.01.18,2.47.89,3.25l-7.31.54ZM91.09,39.28l1.42-6.82c.14-.66.06-1.33-.01-1.98-.11-.94-.61-1.41-.28-1.71,1.22-1.12,1.67-2.89,2.02-4.51l.87-4.02c.32-1.49.55-3.55-.04-4.89l1.65-.15,1.69-.21-.07-.08-3.94.14c.24.57.43,1.11.39,1.73l-.08,1.56-.99,5.18c-.36,1.9-.79,3.81-2.1,5.29.35.93.51,1.9.33,2.89l-.67,3.72-.66,3.29c-.25,1.25-.69,2.38-1.38,3.43.29.11.41-.06.52-.19l.49-.57c.41-.64.68-1.33.84-2.09Z" fill="#fdfdfd"/>
        <path d="M107.49,13.38c.21,0,.43.05.61-.09l1.61-.02v.25c-.48,1.25-.55,2.63-.13,3.97l1.48,3.41,3.1,6.33,1.23,2.75c.05.11.18.09.16-.04l1.35-6.8.69-3.52.31-1.92c.27-1.7.25-3.06-.75-4.55l1.69-.04,6.2-.08-1.02,1.26c-.53.66-.94,1.39-1.13,2.23l-.83,3.59-.63,3.2c-.24,1.2-.25,3.11.53,3.95-1.68,1.67-2.05,3.47-2.5,5.66l-1.77,8.59c-.07.15-.5.07-.63.07l-2.21.02-2.44.11c.52-2.02.34-3.58-.58-5.4l-1.02-2.02-2.52-5.16-1.55-3.22-.77,3.88-1.23,6.12-.41,2.52c-.17,1.05,0,2.86.82,3.53.1.08.06.25-.05.26l-3.55.22-4.34.26,1.36-1.78c.47-.84.86-1.7,1.07-2.65l1.22-5.66c.28-1.31.29-3.22-.31-4.36-.06-.11-.05-.24.04-.33.97-.95,1.6-2.27,1.88-3.62l1.14-5.61c.34-1.7.39-3.52-.56-4.94-.07-.03-.08-.18-.01-.19l2.38-.09,2.09-.1ZM116.94,30.81l.5-2.37.93-4.3,1.14-6.32.1-2c.02-.44-.1-.84-.24-1.26l1.28-.15c.4-.05.75-.16,1.18-.08.11.02.22-.03.21-.13l-3.26-.03c.14.52.26.94.23,1.43l-.16,2.38-.42,2.51-.22,1.62-.68,3.3-1.06,5.08c-.16.75-1.01,1.17-.46,1.16.48-.01.84-.35.94-.84ZM101.68,36.82l.88-4.33c.43-2.12-.53-4.2-.39-4.31l.24-.2c.77-.86,1.37-1.87,1.62-3.02l1.34-6.22c.21-.99.29-2,.08-2.97l-.18-.83,1.29-.14c.55-.06,1.05.02,1.53-.21l-1.29-.03-.47.1h-1.64c.38,1.01.43,2,.22,3.02l-.95,4.62-.69,3.15c-.22,1.02-.75,1.88-1.46,2.65-.09.1.51,2.04.16,3.8l-1.28,6.48-.57,1.77c-.16.49-.39.89-.75,1.34.07.06.27.06.33,0,1.21-1.24,1.61-2.91,1.97-4.68ZM114.76,40.56l-.35-.52c.14-1.87-.48-3.54-1.33-5.18l-1.24-2.39-2.68-5.23-.84-1.61c-.14-.28-.35-.44-.74-.46-.06.13.04.23.12.39l2.81,5.57.72,1.4,1.28,2.56.91,2.12c.35,1.13.43,2.27.22,3.45l1.14-.09Z" fill="#fdfdfd"/>
        <path d="M195.88,40h-8.75c.5-.65,1.03-1.13,1.35-1.82.39-.57.72-1.14.87-1.83l1.43-6.65c.36-1.67-.46-3.02-.39-3.1l.68-.83c.6-.74,1.02-1.57,1.21-2.52l.47-2.26.56-2.65c.48-2.07.64-4.25-.91-5.77l9.65.3c1.29.04,2.47.31,3.67.75,2.34.85,4.04,2.72,4.66,5.13.37,1.45.32,2.83.12,4.32l-.19,1.4c-.17,1.21.71,2.1.53,2.29-.91.96-1.51,2.07-1.79,3.37-.46,2.19-1.39,4.18-2.89,5.84-1.89,2.1-5.27,3.75-8,3.91l-2.29.13ZM193.87,23.68l.97-4.26.54-2.76c.18-.93,0-1.8-.38-2.69l1.05-.1,3.84.02,1.18.1,1.5.22h.7c.41,0,.75.19,1.19.07-.4-.24-.83-.15-1.3-.2l-1.15-.13-1.29-.19-1.06-.11h-3.49s-1.9-.03-1.9-.03c.35.82.53,1.59.43,2.45l-.14,1.31-.46,2.34-.71,3.13c-.33,1.46-.9,2.8-1.9,3.9.3.68.43,1.33.33,2.03l-.31,2.22-1.08,5.32c-.2.97-.58,1.81-1.2,2.59.3.14.42-.06.57-.19.53-.47.93-1.02,1.08-1.73l1.41-6.6c.25-1.15.14-2.47-.25-3.61.86-.87,1.55-1.87,1.83-3.1ZM204.67,27.36l.7-3.49c.31-1.57-.04-3.99-1.23-5.15-.71-.7-1.59-1.04-2.6-1.05l-2.8-.05-.91,4.19-1.7,7.49-1.37,5.97h1.89c.78,0,1.54.02,2.3-.14,1.26-.26,2.35-.96,3.19-1.91,1.47-1.65,2.09-3.66,2.53-5.86ZM204.42,17.58c-.09,0-.11.09-.04.14l.04-.14ZM204.52,17.66l-.06.12.13.07.06-.14-.14-.06ZM204.75,17.8l-.08.12c.51.43.93.89,1.21,1.48.91,1.9.68,4.36.18,6.45l-.81,3.39c-.25,1.06-.68,2.03-1.21,2.97-1.27,2.27-3.46,3.96-6.03,4.05,1.12.3,2.82-.29,3.81-.91,1.65-1.02,2.81-2.59,3.5-4.41l1.08-3.81.55-2.59c.49-2.27.06-5.8-2.22-6.74Z" fill="#fdfdfd"/>
      </g>
      <g>
        <path d="M30.02,51.23c-1.48-1.89-2.54-4.01-3.88-6.01l-.69-1.02-.98,4.84c-.05.24.08.4.19.56,1.26,1.75,1.17,4.04-.14,5.73-.82,1.05-1.93,1.58-3.24,1.8l-3.48.58-6.69,1.24c-2.09.39-4.1-.32-5.17-2.19-.96-1.7-.68-4.03.52-5.51.66-.81,1.41-1.57,1.91-2.5.45-.83.54-1.78.76-2.69-1.79-.34-3.21-1.26-4.28-2.65-1.76-2.29-1.97-5.72-.81-8.32.84-1.89,1.95-3.04,3.53-4.33l-2.27.46c-1.66.34-3.31-.14-4.37-1.42s-1.24-3-.51-4.52l.71-1.26c.18-.32.26-.63.05-.96C.3,21.66,0,20.31.63,18.73c.58-1.45,1.79-2.5,3.34-2.82l6.83-1.4c-1.68-2.25-1.9-4.45-.82-7.05.54-1.29,1.37-2.36,2.43-3.27.5-.42.96-.81,1.54-1.16,2.31-1.38,4.95-2.12,7.66-2.04,1.48.04,2.82.66,3.71,1.79.17.22.3.32.61.28,3.65-.47,8.79-.11,12.3.92,3,.89,5.85,2.35,7.63,4.95l3.31.44,5.52.79,1.73.26c1.39.21,2.4,1.43,2.78,2.76.06.22.19.27.41.27,2.6-.06,5.72.92,7.67,2.62.15-1.94,1.72-3.58,3.64-3.73l7.21-.57,2.22-.15c3.27-.21,6.6.25,9.33,2.18.38-1.54,1.51-2.81,3.09-2.88l9.25-.42,5.59-.34,2.33-.14c1.84-.11,3.44.62,4.17,2.36.06.13.26.01.16-.14.46-1.24,1.87-2.25,3.04-2.28l5.1-.12c.13,0,.31.05.3-.19l-.08-1.63c-.08-1.63.47-3.2,1.43-4.52,1.27-1.74,3.12-2.83,5.22-3.28l2.8-.22,1.42.07c1.89.41,2.45,1.83,2.88,1.82h3.15s2.23-.01,2.23-.01l15.99.07c1.36,0,2.49,1.18,3.02,2.27.84,1.74.49,3.94-.57,5.36l-.12.17c-.08.1.02.16.18.19,3.41.59,7.12,2.77,8.76,5.96,2.82-3.44,6.9-5.56,11.23-5.95,2.71-.24,6.36.46,8.41,2.09l.16.13c.2.16.25-1.05,1.23-1.89.58-.49,1.36-.95,2.17-.91l9.53.39c4.47.18,8.36,1.69,10.96,5.37,3.58,5.07,1.58,9.76,1.98,10.83,1.28,3.43-1.24,5.52-1.38,6.06l-.62,2.44c-1.25,3.61-3.72,6.54-7.04,8.45-1.64.94-3.34,1.61-5.2,1.99l-2.54.35-9.42.06c-.59,0-1.11.05-1.65-.1-1.06-.29-1.89-.97-2.32-2,0-.02-.13.03-.19.06-2.81,1.75-6.04,2.59-9.36,2.54l-1.75-.17c-3.21-.46-5.96-2.24-7.69-5-.06-.17-.18-.18-.29-.06-3.84,4.23-9.56,6.49-15.23,5.92-3.08-.31-6.22-1.77-8.1-4.26-1.24-.42-2.6-.06-3.44.95-.43.44-.59.96-.86,1.51-.57,1.17-1.77,2.1-3.1,2.17l-2.55.13-5.7.31-1.84.05c-1.14-.15-2.1-.72-2.75-1.77-.71.82-1.63,1.42-2.76,1.46l-1.24.04-2.61.08-1.99.09-.92-.12c-1.45-.18-2.38-1.74-2.4-1.73-.23.07-.98,2.12-3.67,2.29l-8.38.53-10.02.68c-.99.07-1.91-.42-2.58-1.02-.14-.13-.22-.18-.39-.09-1.22.63-2.48,1.08-3.83,1.41l-4.86.77-10.01,1.04c-1.34.14-2.74-.4-3.55-1.48-.06-.08-.14-.21-.27-.12l-.71.46c-.34.22.33,1.76-1.51,3.5-3.06,2.88-6.65,5.3-10.68,6.55-4.08,1.26-8.35.68-11.99-1.55-2.01-1.23-3.7-2.76-5.24-4.53l-2.05-2.62ZM132.98,33.55l1.16-5.41,1.22-5.66,4.52.02c1.05,0,1.98.57,2.53,1.41.05.1.16.08.17-.03l3.58-5.97c.05-.09.13-.12.12-.17,0-.06-.11-.11-.22-.11l-5.47.05-4.26.06.26-1.48,1.46-6.61,7.17.05,2.06.26c1.84.34,3.43,1.03,4.64,2.47.07.08.2,0,.2-.1l2.88-4.81,1.51-2.49-6.14-.05h-18.25c-.28,0-.4-.21-.38-.45.06-.61.48-.94,1.03-1.31l-2.75.07c-.71.02-1.37.33-1.99.68-.94.53-1.7,1.34-2.03,2.38-.46,1.46.11,2.55,1.55,3.08,1.09.4,2.23.42,3.38.23l1.45-.23-.26,1.4-1.16,5.59c-.3,1.43-1.04,2.65-2.1,3.62-.16.15-.22.3-.07.49.78,1,.87,2.48.61,3.78l-.92,4.57-1.73,8.5c-.34,1.68-1.09,3.18-2.33,4.34-.07.07-.29.29-.16.28l4-.22,2.51-.15,2.34-.16c-.76-.95-1.13-2.02-.93-3.16l.82-4.77ZM133.74,4.41l.72-.06c-.18-.57-.44-.91-.84-1.24-.02.44.51.65.09,1.08-.16.05-.12.26.04.23ZM23.34,5.6c.16-.09-.02-.6-.14-.71l-.8-.79c-.11-.11-.24-.03-.22.08.12.25.25.64.05.85l-.76.76c.63-.04,1.3.12,1.86-.19ZM35.8,16.07l.71-.14,5.88-1.03c.15-2.33-.6-4.39-2.31-6s-3.79-2.21-6.03-2.62c-6.08-1.1-11.85.94-13.78.17-.22-.09-.39-.29-.46-.44-.24-.52.32-1.22,1.06-1.56.13-.1-.04-.24-.12-.08-2.57-.12-5.03.77-6.82,2.6-1.02,1.05-1.61,2.73-.76,3.79.42.53,1.06.87,1.75.94,1.25.12,2.52-.01,3.67-.51.54-.23,1.02-.35,1.62-.33,1.26.04,2.47-.03,3.73-.17,2.51-.28,6.19-.15,8.29,1.05,1.7.97,2.51,2.56,2.6,4.48l.97-.15ZM154.91,12.6l2.35-3.86,1.2-1.95c.33-.53-.12-1.51-.88-2.08-.17.29.25.52.02.87l-.74,1.14-3.28,5.45c-.18.29-.34.52-.42.86l1.74-.43ZM40.31,7.91l-.06.06.06.06.06-.06-.06-.06ZM40.57,8.02c-.13-.06-.19.12-.04.15l.04-.15ZM40.67,8.12l-.1.09.08.07.1-.09-.08-.06ZM40.8,8.22l-.1.1.07.06.11-.09s-.06-.05-.08-.07ZM40.92,8.34l-.05.13c1.09.88,1.8,2.08,2.32,3.44.27-.07.51-.19.73-.36-.57-1.19-2.06-2.78-3-3.21ZM125.62,9.07l-.06.06.06.06.06-.06-.06-.06ZM125.9,9.42c-.01-.09-.17-.14-.19-.11-.08.13.05.23.12.25l.07-.14ZM125.98,9.53l-.11.14c.54,1.36,2.41,2.43,3.77,2.45l1.45.02.09-1.31-2.28-.05c-1.1-.14-2.1-.55-2.91-1.24ZM151.76,13.79c-.82-2.06-3.99-2.98-6.04-2.99l-6.79-.04-.69,3.07-.65,3.06h1.14s1.06-4.79,1.06-4.79h6.05c2.05-.02,4.3.46,5.93,1.69ZM29.63,13.43l.16-.48c1.29.1,2.43.53,3.6,1.17-.29-.94-1.76-1.83-2.7-2l-1.97-.37c.13.27-.01.39-.12.59-.9,1.68-1.45,3.47-1.82,5.34l1.2-.16c.11-.01.2-.11.23-.22.29-1.36.76-2.6,1.42-3.87ZM16.67,13.26c.05-.06.33-.06.32-.25-1.55-.1-2.84-.34-4.15-1.19.2.66.68,1,1.16,1.38.77.54,1.64.87,2.56.92,0-.3-.03-.6.12-.86ZM192.2,12.05c-.3.14-.67.35-.68.75l-.03,1.01s-.31.61.51,1.29.73,1.93.46,3.06l-.9,3.64c-.02.09-.04.18-.15.19-.02-2.43-.87-4.51-2.57-6.25-.2.09-.08.26.01.39,1.74,2.44,1.81,5.43,1.29,8.35-.19,1.06.1,1.56.27,1.32.46-.62.98-1.22,1.17-1.96l.67-2.62.9-3.89c.24-1.05.2-2.11-.36-3.04-.28-.47-.89-.66-.87-1.1l.26-1h5.84s.94.1.94.1h1.29c-.26-.21-.6-.19-.94-.21l-1.3-.09-3.25-.05-2.31-.03c-.14,0-.21.09-.27.12ZM19.35,18.98l.82-.18.51-.05,4.66-.82.4-1.57c.37-1.44.85-2.77,1.5-4.11l-1.16.14-8.91,1.38c1.56,1.37,1.38,3.39,1.06,5.41l1.11-.2ZM6.32,23.75c-.74.89-1.4,1.69-2.05,2.6l-.64.92,3.36-.65c.34-.07.57-.22.78-.53.09.14.25.28.43.24l2.5-.55,2.57-.56,1.96-2.25.65-.76c.1-.12.22-.29.39-.32l5.29-.99,4.26-.76,8.24-1.56,11.59-2-1.56,3.34,3.74-1.88,4.38-2.25,3.32-1.68c.08-.04.13-.15.1-.18s-.14,0-.23,0l-2.92-.37-8.15-.94.78,1.4.57,1.01-1.13.23-5.47.92-3.15.56-5.06.9-4.47.79-9.91,1.84c-.33.06-.48,0-.73-.22l-2.09-1.86c-.2-.17-.36-.31-.67-.25l-2.01.46c-.26.06-.42.37-.79.2-.18-.08-.42-.07-.64-.03l-5.56,1.02c-.17.03.03.25.1.32l1.42,1.52c.26.27.58.45.77.78l-1.22.28c-.58.26-.61,1.02-.27,1.46l1.51-.21ZM195.88,40l2.29-.13c2.74-.16,6.11-1.81,8-3.91,1.5-1.66,2.43-3.65,2.89-5.84.28-1.3.88-2.42,1.79-3.37.18-.19-.69-1.08-.53-2.29l.19-1.4c.2-1.49.25-2.87-.12-4.32-.62-2.41-2.32-4.28-4.66-5.13-1.2-.44-2.38-.71-3.67-.75l-9.65-.3c1.55,1.52,1.39,3.69.91,5.77l-.56,2.65-.47,2.26c-.2.94-.61,1.78-1.21,2.52l-.68.83c-.07.08.75,1.43.39,3.1l-1.43,6.65c-.15.69-.48,1.27-.87,1.83-.32.69-.86,1.16-1.35,1.82h8.75ZM112.88,44.23l5.57-.21c.69-.03,1.18-.3,1.33-1.01l2.13-10.42c.19-.91.54-1.7,1.07-2.43l.76-.76c.33-.34.55-.86.28-1.27l-.48-.71c-.24-.36-.3-.88-.23-1.32l.42-2.66,1.07-4.87c.3-1.37,1.02-2.5,2.04-3.44.41-.38.55-1.01.14-1.4l-.85-.83c.12.41.17.69-.09.97l-.78.85c-.87.95-1.34,2.13-1.59,3.41l-1.2,6.12c-.19.97-.16,2.1.48,2.71s-.15,1.28-.68,1.9c-.62.73-1.07,1.6-1.28,2.56l-1.68,8-.55,2.72c-.05.25-.28.57-.55.58l-4.3.16-2.13.1c.12.54.88,1.26,1.1,1.25ZM181.98,38.58c3.2-2,5.18-4.83,5.91-8.55.24-1.24.76-2.33,1.69-3.21.16-.16-.53-.78-.49-1.78l.05-1,.28-2.85c.06-3.53-1.69-6.5-5.02-7.67-1.69-.6-3.41-.72-5.16-.4-1.01.18-1.97.41-2.9.82-1.51.66-2.83,1.48-4.02,2.62-1.88,1.8-3.18,4.02-3.79,6.57l-.54,1.8c-.36.81-.89,1.47-1.51,2.13.42.67.69,1.47.58,2.29l-.33,2.49c-.38,3.11.68,5.99,3.38,7.61.89.54,1.86.81,2.89.99,3.02.53,6.38-.23,8.99-1.86ZM115.44,25.66l-1.24-2.67-1.5-3.15-.98-2.28c-.77-1.78.54-3.22-.03-3.82l-.69-.73c0,.39-.04.68-.19.99-.68,1.45-.32,3.19.36,4.67l.85,1.85,3.06,6.25c.05.11.11.13.15.12.06-.02.37-.88.21-1.24ZM109.72,13.51c.05,0,.09-.03.11-.07.04-.1-.03-.19-.12-.17l-1.61.02-.48-.02c-.08,0-.12.06-.13.11l-2.09.1-2.38.09c-.07,0-.05.16.01.19.95,1.42.9,3.24.56,4.94l-1.14,5.61c-.27,1.35-.9,2.67-1.88,3.62-.08.08-.09.22-.04.33.6,1.14.59,3.05.31,4.36l-1.22,5.66c-.21.96-.6,1.81-1.07,2.65l-1.36,1.78,4.34-.26,3.55-.22c.11,0,.15-.18.05-.26-.83-.66-.99-2.47-.82-3.53l.41-2.52,1.23-6.12.77-3.88,1.55,3.22,2.52,5.16,1.02,2.02c.92,1.82,1.09,3.38.58,5.4l2.44-.11,2.21-.02c.13,0,.56.07.63-.07l1.77-8.59c.45-2.19.82-3.98,2.5-5.66-.78-.84-.77-2.75-.53-3.95l.63-3.2.83-3.59c.19-.84.6-1.57,1.13-2.23l1.02-1.26-6.2.08-1.69.04c.99,1.49,1.02,2.85.75,4.55l-.31,1.92-.69,3.52-1.35,6.8c.02.12-.11.15-.16.04l-1.23-2.75-3.1-6.33-1.48-3.41c-.41-1.34-.35-2.72.15-3.97ZM44.23,14.54c-.1-.53-.31-.77-.49-1.16.06-.13-.13-.11-.07,0l.12,1.28c.11.09.47.02.44-.11ZM157.37,39.73c1.08-.58,2.01-1.28,2.93-2.1,2.11-1.87,3.49-4.6,4.05-7.37.19-1.22.85-2.21,1.72-3.16-.51-.84-.7-1.77-.62-2.77l.26-3.26c-.1-3.32-1.81-6.08-4.95-7.24s-6.95-.57-9.94,1.16c-1.01.59-1.96,1.19-2.71,2.07l-1.72,2.02c-1.05,1.48-1.72,3.12-2.09,4.9-.3,1.42-.85,2.68-1.97,3.67.49.93.62,1.94.5,3l-.3,2.55c-.25,2.15.53,4.72,2.22,6.2,3.29,2.88,8.79,2.39,12.61.33ZM88.32,43.39l7.31-.54c-.71-.78-1-2.24-.89-3.25l.34-2.96.62-3.22c.37-1.94.97-3.73,2.43-5.1-.78-1.19-.7-3.36-.41-4.77l.89-4.25c.48-2.32,1.16-3.81,2.85-5.62h-1.2s-7.2.31-7.2.31c-.68.03.54.75.65,2.53.05.88,0,1.72-.18,2.58l-.79,3.89-.32,1.43c-.34,1.63-.85,3.09-2.12,4.22.45.78.7,1.58.63,2.45l-.11,1.4-1.3,6.27c-.38,1.81-1.23,3.37-2.57,4.67l1.37-.04ZM162.32,13.62l-.06.06.06.06.06-.06-.06-.06ZM162.56,13.74l-.06.06.06.06.06-.06-.06-.06ZM166.74,25.77l.63-1.1c.35-.61.43-1.35.46-2.07.12-3.72-1.69-7.18-5.12-8.79.15.44.6.46.86.72l1.34,1.35c.92.93,1.67,3.14,1.8,4.62.12,1.38,0,2.71-.14,4.08-.05.42-.07.8.18,1.2ZM98.09,33.64l.56-1.72c.25-.76.82-1.31,1.41-1.94l.28,1.24c.19-.96-.14-1.9-.77-2.69-.14-.18-.19-.45-.02-.6.21-.19.22-.35.19-.61-.1-.96,0-1.9.2-2.86l.86-4.14c.31-1.48.87-2.85,1.77-4.06.12-.16.42-.29.4-.55-.04-.44-.23-.83-.48-1.21-1.28,1.13-2.19,2.52-2.53,4.17l-1.17,5.8c-.16.77-.15,1.52-.12,2.3.05,1.22,1.09,1.58.4,2.3-1.05,1.09-1.79,2.37-2.08,3.86l-1.09,5.66c-.23,1.2-.19,2.76.68,3.63.66-.28.05-1.08.33-2.51l1.19-6.08ZM187.44,14.62c.06.09.16,0,.06-.06l-.06.06ZM64.96,45.46c-.09-.02-.18.06-.24.18.12.05.18.03.24.03l4.69-.56c1.26-.15,2.42-.46,3.7-.48,2.32-.04,4.56-.27,6.79-.92,1.68-.49,3.17-1.35,4.46-2.52,1.89-1.71,2.92-4.06,3.09-6.6l.03-2.37c-.13-1.04-.5-1.99-1.26-2.71l-1.28-.92c.86-.61,1.68-1.22,2.39-2.05,1.39-1.62,2.21-3.65,2.14-5.79-.09-2.8-2.31-4.9-4.93-5.65-1.41-.4-2.83-.52-4.3-.4l-9.83.81c1.4,1.71,1.1,3.79.76,5.81l-1.04,5.14c-.33,1.65-1.11,3.05-2.3,4.22.97,1.16.91,2.76.61,4.23l-.55,2.72c-.31,1.51-.62,2.97-1.17,4.42l-1.03,2.01-.98,1.38ZM187.6,14.78l.06-.06c-.06-.09-.16,0-.06.06ZM187.86,14.78c-.12-.04-.18.12-.04.15l.04-.15ZM187.97,14.89l-.1.08s.04.06.08.08l.09-.1s-.05-.04-.07-.06ZM188.09,15.03l-.08.08.37.45.1-.18c-.15-.15-.26-.26-.4-.35ZM92.37,15.4c.2.24.36.08.13-.13l-.13.13ZM92.64,15.48l-.06.06.06.17.06-.06-.06-.17ZM188.56,15.45l-.15.13.11.07.12-.13-.08-.07ZM188.68,15.56l-.06.25c.15.01.21-.18.06-.25ZM92.76,15.91l.03-.17s-.18-.03-.03.17ZM209.7,15.79c.06.09.16,0,.06-.06l-.06.06ZM209.86,15.94l.06-.06c-.06-.09-.16,0-.06.06ZM186.48,41.12c.24-.26-.14-.97.52-1.61.78-.75,1.34-1.66,1.75-2.67l.62-2.41.4-1.94.35-1.86c.17-.9.34-1.75,0-2.64-.67.6-1.02,1.35-1.17,2.2-.45,2.53-1.53,4.84-3.29,6.71-.98,1.04-1.99,1.88-3.21,2.63-3.63,2.22-8.87,2.95-12.53.79-.71-.42-1.38-.85-1.92-1.46-.06-.07-.16-.14-.21-.11-.25.12.89,1.52,1.68,2.15,1.43,1.15,3.19,1.79,5.05,1.92,3.35.24,6.59-.7,9.37-2.55l1.66-1.27,1.11-1.11.68-.83c.6-.73,1.05-1.52,1.46-2.39.04-.08.16-.09.2-.07-.39.77-.22,2.1-1.83,4.15l-1.18,1.5c-.35.44-.52.94-.74,1.48-.16.4-.46.86-.33,1.33.06.21.63.2.78.05.52-.5.63-1.14.56-1.78.67.42.54,1.07,1.64,1.06l9.9-.11c4.87-.05,10.05-3.33,12.07-7.87l.89-2.73c.22-.67.26-1.44.69-2.01l.93-1.25c.38-.93-.5-1.94-.41-2.68l.38-3.16c.21-1.71-.56-4.3-1.67-5.78-.23-.31-.37-.66-.76-.81.09.43.36.63.52.95.71,1.4.99,2.9.98,4.47l-.31,3.03c-.08.79.12,1.39.54,1.99.34.48-.09,1.06-.41,1.41-.63.68-.97,1.51-1.24,2.38l-.79,2.59c-.93,3.04-3.75,5.5-6.61,6.9-1.81.88-3.91,1.28-5.95,1.3l-6.29.06-3.87.03ZM54.96,46.85c3.57-1.23,6.31-3.67,8.02-7.03.66-1.3.99-2.68,1.41-4.08l.82-2.78c.25-.83.81-1.47,1.46-2.06-.46-.67-.7-1.37-.65-2.13l.15-2.21c.07-1.11.19-2.15.07-3.25-.12-1.23-.43-2.4-1.09-3.45-2.6-4.12-8.23-3.94-12.38-1.89-3.45,1.7-6.55,4.91-7.91,8.52l-.87,3.08c-.22.78-.44,1.5-.83,2.21-.33.61-.65,1.17-1.14,1.67-.28.29.74,1.45.54,2.77l-.29,1.9c-.5,2.19-.23,4.47.89,6.43,2.21,3.86,7.86,3.68,11.82,2.32ZM70.9,17.83c-.09-.56-.35-.98-.78-1.33-.03.3.17.45.29.65.15.26.22.51.49.68ZM89.51,17.12c-.07,0-.09.09-.02.12l.02-.12ZM89.61,17.23l-.06.06s.04.04.06.06l.06-.06-.06-.06ZM89.71,17.46l.06-.06c-.06-.09-.16,0-.06.06ZM64.32,17.58l-.06.06.06.06.06-.06-.06-.06ZM88.16,29.75c.03-.15.12-.25.25-.38l1.4-1.4c1.13-1.3,1.76-2.87,2.1-4.55.47-2.32-.37-4.08-1.91-5.83-.12-.13-.25,0-.21.09.8,1.08,1.19,2.28,1.14,3.64-.09,2.88-1.47,5.53-3.73,7.29-.12.09-.11.2-.02.3l.91.91s.07-.04.07-.07ZM64.5,17.77c.06.09.16,0,.06-.06l-.06.06ZM64.67,17.81l-.06.06.06.06.06-.06-.06-.06ZM36.53,18.92l-.78.14-.97.15c-.12.02-.23.09-.27.21-.38,1.2-.82,2.34-1.47,3.41-1.27,2.07-2.93,3.74-4.98,5.04-1.66,1.03-3.37,1.82-5.35,2.42l1.04-4.75.91-4.42-5.22.98-.7.14-.95.14c-.13.02-.31.08-.34.23l-.37,1.63-1.65,7.55c-.05.22-.08.35-.34.38-2.68.29-5.18.63-7.05,2.6-1.34,1.41-2.04,3.5-.84,4.91,1.25,1.47,4.02,1.25,5.82.12-.4-.28-.58-.65-.49-1.12.22-1.06,1.71-1.42,1.67-1.21l-.46,2.29-.74,3.46-1.06,4.75c-.34,1.53-1.01,2.86-1.98,4.1l-1.19,1.51,5.24-.95,3.94-.72,2.24-.4c-1.16-1.12-1.49-2.76-1.17-4.23l.48-2.22c.1-.48.2-.97.16-1.45-.03-.38.25-.56.31-.86l.47-2.21.56-2.69c.15-.74.25-1.44.55-2.16l2-.63.99,1.35,1.55,2.3,3.39,5.11,2.64,3.78c.96,1.38,2.03,2.58,3.25,3.75,2.3,2.2,5.22,3.97,8.47,4,1.34.01,2.58-.34,3.84-.71,1.7-.65,3.23-1.47,4.72-2.51,1.26-.88,2.43-1.75,3.51-2.86-1.45.37-2.72.7-4.14.79-1.94.2-3.82,0-5.66-.61-2.99-1.09-5.48-3.38-7.33-5.95l-2.83-3.93-2.02-2.76c-1.28-1.51-2.85-2.68-4.65-3.5-.11-.05-.12-.1-.11-.16.02-.07.12-.11.21-.07,1.52-.61,2.91-1.35,4.23-2.3l2.16-1.69c2.57-2.01,4.99-6.13,5.79-9.36l.45-1.82-4.9.87-.6.14ZM64.77,18.04l.06-.06c-.06-.09-.16,0-.06.06ZM65.04,18.04c-.14-.05-.2.13-.04.16l.04-.16ZM65.16,18.18l-.09.08.85.9.08-.17-.84-.81ZM43.51,19.67l.27-.86c-.13,0-.23,0-.43-.09-.12.19-.03.53.08.73-.01.06-.04.19.08.21ZM66.08,19.08l-.1.14c1.14,1.68,1.64,4.42,1.48,6.4l-.23,2.69c-.05.58-.08,1.13.19,1.75.3-.29.85-.65.88-1.07l.27-3.13c.12-1.39-.12-2.75-.65-4.02-.44-1.06-1.17-1.91-1.85-2.75ZM32.65,34.23c.2.13.46-.03.6-.11,1.56-.83,2.97-1.78,4.32-2.91l2.34-2.32c1.03-1.19,1.92-2.44,2.52-3.89l1.34-3.23-.65-.18c-.08-.34-.24-.59-.51-.76-.82,2.31-2.36,5.5-3.98,7.13l-1.74,1.75-.89.74c-1.31,1.09-2.66,2.03-4.17,2.82-.09.05-.23.18-.22.29l1.04.66ZM128.89,22.69c0-.67-.25-1.13-.66-1.52.14.62.45,1.04.66,1.52ZM25.8,27.94l1.22-5.57c-.49.11-.86.15-1.34.12l-.79,3.49-.61,2.92c.88-.15,1.38-.28,1.53-.96ZM135.97,30.26l1.19-5.43,4.25.06c.27,0,.47.14.58.38l.82.98c.39-.3.59-.72.59-1.2h-.83c-.16,0-.29-.1-.37-.22-.45-.85-1.29-1.25-2.24-1.25h-3.71s-1.41,6.65-1.41,6.65l-.98,4.74-.63,3.58c-.15.84.09,1.55.64,2.21.07.09.07.31.35.26-.13-.46-.12-.86-.05-1.3l.67-3.97.21-1.09.91-4.4ZM143.47,39.45c.31.6.73,1.14,1.27,1.6l1.15.96c2.9,1.93,6.7,2.04,10.01,1.05,1.61-.48,3.12-1.08,4.44-2.09l1.51-1.17,1.33-1.35c1.05-1.07,2.78-4.14,2.93-5.47l.29-2.48c.07-.62.16-1.19,0-1.83-.41.52-.75,1.08-.89,1.76-.38,1.82-.96,3.57-1.97,5.14-3.54,5.49-10.6,8.42-16.79,6.05-.9-.34-1.64-.89-2.38-1.47-.32-.25-.55-.53-.8-.79l-.12.12ZM94.04,45.45l3.04-.29c.15-.01.27-.27.37-.36.16.17.31.38.51.37l4.41-.31,4.05-.3c.68-.05,1.11-1.08.79-1.61l-.75-1.26c-.17-.28-.13-.68-.09-1.01l.45-3.37,1.28-6.2c.05-.23-.11-.47-.2-.64l-.42-.82c.03-.23-.29-.23-.24,0l-1.36,6.6-.49,3.59c-.2,1.46,1.35,2.05,1.02,2.63l-.47.83-3.93.25-5.71.37-5.59.43-4.09.31c-.14-.11-.29,0-.22.14l.61.7c.24.27.51.44.89.41l6.12-.47ZM88.21,29.82l-.08.07c.03.21.17.38.28.6.9,1.9.49,4.82-.12,6.92-.94,3.24-3.39,5.63-6.48,6.93l-2.61.76-3.41.48-9.19,1.03-2.45.25.57.7c.13.15.45.49.71.46l5.61-.58,5.58-.61c1.75-.19,3.43-.37,5.08-.97,2.41-.87,3.58-1.83,5.31-3.66,1.41-1.49,2-3.7,2.4-5.74l.44-2.23c.29-1.44-.6-3.35-1.64-4.41ZM57.25,48.58l2.6-1.27,1.79-1.35,1.63-1.63c1.35-1.67,2.41-3.51,2.91-5.6l.69-2.91c.21-.89.6-1.55,1.1-2.29.27-.39-.05-1.19-.22-1.62-.43.08-.66.42-.91.74-.59.76-.88,1.67-1.12,2.6l-.71,2.78c-.31,1.2-.86,2.24-1.49,3.3-.91,1.54-1.98,2.84-3.37,3.98-2.14,1.75-4.64,2.86-7.32,3.34.38.15.72.04,1.07-.04l2.08-.49c.73-.17.85.68,1.26.48ZM34.64,35.84c-.1,0-.13.12-.04.17l.04-.17ZM34.74,35.96l-.09.1s.04.05.06.07l.11-.1s-.06-.06-.08-.07ZM34.85,36.08l-.07.15,2.64,3.53,3.56,4.71c.85,1.12,2.44,2.58,3.63,3.19l.04-.1-1.04-.81c-.57-.45-.87-1.05-1.33-1.6-1.61-1.95-3.06-3.97-4.63-5.96l-.98-1.24c-.56-.71-1.15-1.34-1.82-1.86ZM10.04,55.99l11.63-2.11c.61-.11.92-.83.97-1.33.04-.41-.09-.68-.37-.93-.49-.44-1.01-1.06-.92-1.77l.28-2.1,1.76-8.58.38-1.51c.04-.16.23-.27.35-.42l-.58-.77c-.09-.12-.94.02-1.07.63l-2.03,9.94-.19,1.42c-.13.92.29,1.75.99,2.34.23.2.34.46.26.78l-.17.66c-.03.13-.16.25-.3.28l-2.35.44-10.1,1.83c-.15-.15-.33.01-.24.15.52.74.97,1.18,1.71,1.04ZM167.51,38.25c-.14-.07-.19.14-.06.19l.06-.19ZM167.57,38.44l-.06.12c0,.13.12.15.17.12.06-.04.09-.11.06-.17s-.11-.09-.17-.06ZM143.21,38.79l-.06.06.06.06.06-.06-.06-.06ZM143.41,39.06c-.08-.1-.19.03-.09.1l.09-.1ZM143.46,39.12l-.11.1.09.18.12-.11c-.01-.07-.05-.12-.1-.17ZM6.65,40.39c-.1.02-.12.13-.04.18l.04-.18ZM6.76,40.54l-.07.11c.23.57.64.97,1.08,1.38,1.3,1.22,2.83,1.05,4.58.77.18-.49.24-.93.28-1.49-2.12.7-4.22.65-5.86-.78ZM134.16,41.19c.1.15.27-.03.09-.13l-.09.13ZM134.37,41.2l-.1.1.06.07.09-.1-.06-.08ZM134.48,41.34c-.02.05-.06.1-.09.11,0,.22-.22,1.07-.6,1.1l-9.52.56c-.27.02-.46-.08-.7-.14.14.52.48.76.78,1.11.16.19.34.3.63.29l9.29-.5c.73-.04,1.18-1.17.83-1.66l-.62-.86ZM44.75,47.63l-.04.12c.11.05.17-.1.04-.12ZM44.98,47.76l-.06.06.06.06.06-.06-.06-.06ZM31.99,48.88c.06.09.16,0,.06-.06l-.06.06ZM32.16,48.93l-.06.06.06.17.06-.06-.06-.17ZM33.33,50.59c.34.76.92,1.21,1.41,1.75.3.49.74.79,1.16,1.18,1.49,1.39,3.13,2.56,5.03,3.34,3.05,1.24,6.46.84,9.44-.49,1.38-.62,2.68-1.27,3.87-2.19l3.8-2.94c.26-.2.33-.55.32-.84s-.24-.48-.47-.7c-.28-.28-.42-.65-.88-.79-.04.52.54.79.16,1.1l-1.42,1.15-3.83,2.69c-1.55,1.09-4.27,2.12-6.22,2.4-2.35.35-4.67-.12-6.77-1.19l-1.47-.88c-.96-.58-1.78-1.29-2.55-2.11-.58-.45-.9-1.1-1.59-1.46ZM32.27,49.16l-.06.06c.02.09.09.16.17.18l.06-.06s-.11-.13-.17-.17ZM32.49,49.5l.06-.06c-.06-.09-.16,0-.06.06ZM32.66,49.62c-.09,0-.12.1-.05.15l.05-.15ZM32.76,49.71l-.1.1.06.08.1-.11-.06-.08ZM32.87,49.84l-.11.1s.06.05.07.08l.09-.11-.06-.07ZM32.98,49.96l-.1.14.08.13.09-.14-.08-.13ZM33.11,50.17l-.08.15c.11.14.16.28.37.29-.04-.29-.18-.34-.28-.44Z" fill="#444"/>
        <path d="M56.49,40.1c-1.38,1.47-3.77,2.75-5.67,2.34-1.89-.41-2.78-1.96-2.92-3.87-.07-1-.05-1.95.15-2.93l1.22-6c.19-.91.44-1.72.83-2.55,1.13-2.38,2.85-4.42,5.45-5.04,1.21-.29,2.45-.2,3.48.52,1.4.98,1.75,3.45,1.51,5.15l-.41,2.96-.44,2.01-.55,2.59c-.39,1.84-1.37,3.44-2.65,4.81ZM50.6,41.14c-.72-1.45-.32-3.67,0-5.4l.81-4.32c.76-4.05,3.39-7.94,7.88-7.21-.81-1.54-2.99-1.43-4.54-.64-2.13,1.09-3.72,3.55-4.18,5.82l-.81,3.98-.6,3.69c-.11.71-.08,1.41.02,2.12.12.87.67,1.84,1.38,2.06l.04-.11ZM50.69,41.23l-.02.17c.08-.02.1-.12.02-.17Z" fill="#444"/>
        <path d="M12.78,24.5c-.79.12-1.64.43-1.45.19l1.72-2.26,1.86-.29c-.77.77-1.45,1.51-2.12,2.36Z" fill="#444"/>
        <path d="M7.37,25.54l-1.72.31,2.02-2.4,1.47-.26c.05.21-.11.24-.2.35l-1.56,2Z" fill="#444"/>
        <path d="M10.2,24.99l-1.57.28c.51-.83,1.06-1.5,1.63-2.26l1.65-.3c-.54.66-1.02,1.21-1.43,1.93-.07.11-.15.24-.29.35Z" fill="#444"/>
        <path d="M11.86,21.14l-1.54.32-1.47-1.37c-.47-.44.19-.15,1.03-.48.26-.1.39,0,.57.16l1.32,1.13c.05.04.28.2.09.24Z" fill="#444"/>
        <path d="M9.22,21.69c-.53.09-.96.16-1.45.29l-1.88-1.62,1.46-.27c.13-.02.26,0,.35.09l1.52,1.51Z" fill="#444"/>
        <path d="M14.63,20.58l-1.6.35-.77-.75-.92-.83c.52-.04.93-.14,1.41-.24.26.11.5.27.71.45l1.17,1.03Z" fill="#444"/>
        <path d="M46.23,17.85l.58-1.65c0-.07.06-.39.15-.41,1.25-.21,2.42-.45,3.67-.76.06-.01.27.03.22-.16-1.32,0-2.65.16-3.96.29-.13.01-.14-.28-.17-.36l-.46-1.07,6.05.53,1.16.07c-.19.21-.44.2-.67.32l-2.45,1.17-4.13,2.04Z" fill="#444"/>
        <path d="M77.66,31.57l.62,1.11c.39-.45.8-.84,1.32-1.16.77-.48,2.42.36,2.76,1.87.18.81.08,1.6-.14,2.39-.39,1.36-1.3,2.42-2.61,2.98-.97.41-2,.59-3.06.67l-3.64.26,1.51-7.28.89-4.49,1.57-7.76,4.18-.41c.5-.05.98,0,1.46.12,1.07.24,1.78,1.13,1.83,2.24.07,1.35-.61,2.58-1.71,3.38-.83.61-2.41,1.21-2.66.74l-.38-.72c-.28.17-.46.43-.7.67l-2.22,2.2-.79.84.54.66,1.21,1.7ZM78.87,22.37l1.24-.12,2.68-.24h.82c-.18-.73-.79-1.13-1.52-1.17l-1.99.07-2.2.2-1.3,6.01c.15.08.25-.04.33-.12l1.24-1.22.34-1.76.36-1.65ZM76.71,32.78c.05-.23-.11-.52-.03-.69.25-.58-.38-.72-.49-1.14-.02-.09-.21-.11-.22-.06l-.45,2.03-1.23,5.86,1.22-.06.36-1.83.83-4.11ZM78.01,33.83c-.11-.08-.16-.23-.24-.4l-.41-.89c-.1-.09-.24.03-.17.18.02.35.01.7.22.97.12.16.39.18.53.21l.06-.07ZM78,33.97c.24.4.54.78.92,1.11.15.13.31.06.42-.09l.69-.93c.14-.18.27.39.61.25.36-.15.69-.19,1.13-.08.05-.45-.09-.92-.44-1.22-.32-.28-.88-.42-1.26-.22-.9.48-1.21,1.68-1.99,1.09l-.08.08Z" fill="#444"/>
        <path d="M158.01,32.55c-1.22,2.97-5.23,5.29-8.14,3.48-1.61-1-1.95-3.61-1.61-5.41l.65-3.42.59-2.7c.27-1.23.79-2.35,1.5-3.39,1.32-1.95,3.4-3.26,5.77-3.05,3.03.26,3.79,3.59,3.3,6.52l-.37,2.2-.34,1.28-.7,2.91-.65,1.58ZM150.4,35.06c-.13-.52-.24-.99-.2-1.51l.15-1.88,1.21-5.66c.19-.91.54-1.73.96-2.54.52-.98,1.22-1.82,2.15-2.39,1.35-.82,2.91-1.07,4.35-.32-.34-1.05-1.3-1.68-2.39-1.69-1.11-.01-2.23.4-3.12,1.08-1.48,1.13-2.56,3.2-2.94,4.98l-1.19,5.56c-.32,1.49-.2,3.61.93,4.5l.09-.12ZM150.46,35.15l-.04.16c.11,0,.14-.12.04-.16Z" fill="#444"/>
        <path d="M182.74,29.31c-.44,2.07-1.52,4.13-3.23,5.41-1.23.92-2.75,1.35-4.27,1.12-1.29-.2-2.31-1.04-2.76-2.26-.39-1.05-.54-2.18-.29-3.3l1.53-6.83c.62-2.78,3.31-5.82,6.48-5.77,1.59.02,2.9.98,3.39,2.47.66,2.01.24,4.02-.2,6.08l-.66,3.07ZM174.16,34.24l-.12-1.04c0-1.08.09-2.11.34-3.16l1.26-5.15c.56-2.28,2.47-4.61,4.95-4.92.61-.08,1.41-.06,1.83.42.68.77.8,1.79.87,2.81.28-1.49-.32-3.65-1.76-4.24-.96-.4-2.01-.26-2.95.16-2,.89-3.54,3.22-4,5.32l-1.32,5.99c-.29,1.3-.09,3.11.82,3.94l.08-.11ZM174.22,34.34l-.04.17c.1,0,.12-.12.04-.17Z" fill="#444"/>
        <path d="M204.67,27.36c-.44,2.2-1.06,4.21-2.53,5.86-.85.95-1.93,1.65-3.19,1.91-.76.16-1.53.14-2.3.14h-1.89s1.37-5.97,1.37-5.97l1.7-7.49.91-4.19,2.8.05c1,.02,1.88.36,2.6,1.05,1.19,1.16,1.55,3.58,1.23,5.15l-.7,3.49ZM203.17,29.52c-.44,1.45-1.06,2.66-2.01,3.8.7-.34,1.12-.92,1.52-1.54l.96-2.07.58-2.14.7-3.11c.17-.75.18-1.53.06-2.26-.11-.7-.47-1.18-.8-1.76-.17-.29-.15-.6-.44-.87-.45-.43-.94-.77-1.63-.8l-2.2-.08c-.32-.01-.42.14-.48.41l-1.89,8.36-1.5,6.56c-.02.11-.08.39.03.43.33.13.68.11.99.02l2.15-9.4,1.1-5.09,2.37.1c.39.02.73.36,1.04.56.83.92.81,2.35.67,3.64-.21,1.79-.68,3.46-1.22,5.24Z" fill="#444"/>
      </g>
      <g>
        <path d="M19.45,22.12l-.2,1.03-.55,2.36-1.59,7.02c-.1.44-.38.74-.82.82l-2.15.4-1.21.19c-1.38.21-2.59.82-3.55,1.84-.62.67-1.03,1.49-.98,2.43.04.59.3,1.04.76,1.39-.45,0-.79-.27-1.08-.56-.99-1.02-.04-3.22,1.57-4.28.93-.61,2.01-.87,3.12-1.03l1.04-.15.94-.12c1.29-.16,1.7-.7,1.99-2.01l1.86-8.62.14-.57.7-.14Z" fill="#d3d3d3"/>
        <path d="M36.53,18.92c-.18.96-.55,1.85-.9,2.78-.99,2.57-2.67,4.45-4.81,6.16-1.91,1.52-4.07,2.64-6.41,3.36-.64.2-1.21.35-1.89.34.21-.22.49-.2.77-.28,1.32-.37,2.51-.92,3.73-1.52.6-.3,1.17-.59,1.71-.98l1.42-1.03c1.15-.84,2.09-1.84,2.98-2.97,1.11-1.41,1.86-2.99,2.4-4.7.11-.35.19-.68.23-1.02l.78-.14Z" fill="#d3d3d3"/>
        <path d="M20.17,18.8l-.82.18.14-.83c.14-1.15.17-2.46-.4-3.54l2.39-.31.8-.13,1.92-.38c.32-.06.58-.05.93-.17-.15.25-.38.32-.66.38l-1.92.31c-.3.12-.62.08-.91.14l-1.78.37c.4.78.57,1.62.47,2.52l-.16,1.45Z" fill="#d3d3d3"/>
        <path d="M36.51,15.93l-.71.14c-.11-2.25-.67-3.35-2.35-4.7l-.04-.03-.18-.1s-.03-.03-.04-.04c-.06.04-.17-.07-.14-.1.07-.09.21-.04.23,0,.01.02.03.04.05.05l.18.07s.04.03.05.05c1.76.93,2.98,2.65,2.95,4.66Z" fill="#d3d3d3"/>
        <path d="M40.2,52.89c.39.33.87.43,1.14.85-3.81-1.29-7.25-5.31-9.45-8.57l-3.48-5.14-2.51-3.78-1.17-1.74c.39-.14.68,0,.89.28l1.41,1.85,2.88,4.1,1.65,2.44,2.74,3.78c1,1.38,2.07,2.63,3.36,3.75l2.53,2.19Z" fill="#d3d3d3"/>
        <path d="M13.45,49.14c-.23.93-1.31,2.98-2.04,2.67.91-1.24,1.37-2.57,1.71-4.04l1.82-7.72.71-3.38c-.1-.15.09-.29.18-.17.26.3.37.72.28,1.12l-1,4.81-1.68,6.71Z" fill="#d3d3d3"/>
        <path d="M41.59,53.83c-.22.04-.15-.21.01-.12.07.08.12.11.13.11.22-.04.15.21-.01.12-.07-.08-.12-.11-.13-.11Z" fill="#d3d3d3"/>
        <path d="M46.02,45.8c-2.16-1.11-2.94-3.7-2.88-6.2l.33-2.94c.12-1.04.09-2.03-.35-3.01,1.81-2.06,1.79-4.55,2.85-7.1.51-1.23,1.08-2.41,1.96-3.4l.93-1.05c.79-.9,1.73-1.6,2.73-2.28,1.56-1.06,3.33-1.71,5.19-1.91.03.14-.09.17-.17.18-1.84.33-4.19,1.61-5.64,2.86-1.83,1.58-3.9,4.01-4.55,6.28l-.91,3.16c-.36,1.25-.93,2.37-1.92,3.27.8,1.19.69,2.43.5,3.82l-.24,1.77c-.3,2.15.64,5.24,2.29,6.44l.04.03.16.1.06.05c.1.09-.03.19-.1.09l-.05-.05-.18-.08-.05-.05Z" fill="#d3d3d3"/>
        <path d="M59.29,21.68c-.23.01-.12-.23.03-.13.07.06.12.06.14.06,1.6.45,2.38,1.55,2.67,3.24.2,1.17.29,2.31.07,3.48l-.5,2.65-.26,1.52c-.22,1.3-.42,2.57-.83,3.82-.5,1.52-1.27,2.89-2.26,4.13-1.14,1.43-2.87,2.59-4.65,3.05-1.05.27-2.14.46-3.2.02,2.21.1,4.36-.46,6.03-1.99,2.8-2.57,3.75-5.66,4.39-9.34l.33-1.89c.47-2.68.95-6.21-1.08-8.03-.24-.21-.5-.33-.78-.52l-.1-.06Z" fill="#d3d3d3"/>
        <rect x="57.05" y="17.83" width=".08" height=".08" transform="translate(4.09 45.61) rotate(-45)" fill="#d3d3d3"/>
        <path d="M15.47,10.68c-.47.09-.84-.12-1.16-.36-.66-.79-.23-1.93.55-2.76.98-1.05,2.28-1.65,3.71-1.84.02.05-.02.22-.07.24-1.62.6-3.2,1.43-3.74,3.13-.21.67.09,1.3.72,1.58Z" fill="#d3d3d3"/>
        <path d="M26.55,7.52c-1.58.26-3.06.4-4.59.4-.68,0-1.31-.03-1.88-.3.23-.16.44.03.61.03l1.62.02,2.92-.3c1.13-.12,2.22-.27,3.37-.26h3.49c.43.02.85.11,1.3.17-.61.05-1.32.13-1.97.01-.6-.11-1.08-.04-1.67,0-1.05.07-2.07.05-3.2.23Z" fill="#d3d3d3"/>
        <path d="M64.96,45.67c-.06,0-.11.02-.24-.03.06-.12.15-.2.24-.18-.03.05-.01.17,0,.21Z" fill="#d3d3d3"/>
        <path d="M68.81,42.35c-.19.72-1.01,2.04-1.58,1.78,1.32-2.04,1.79-4.82,2.21-7.27l.34-2c.25-1.43.39-2.74-.25-4.03-.1-.2.1-.32.2-.44.77-.94,1.32-2.01,1.57-3.21l1.12-5.39c.36-1.75.69-3.6-.03-5.31l2.09-.21,3.54-.32.94-.1h.86s.06.04.06.06l-.68.06-1.41.24-4.75.48c.65,1.53.37,3.59.04,5.17l-.68,3.27-.67,2.85c-.34,1.47-1.75,2.8-1.76,2.78.74,1.29.77,2.7.48,4.2l-.96,4.86-.68,2.54Z" fill="#d3d3d3"/>
        <path d="M74.35,40.87c-.5.01-.9.06-1.25-.2l2.23-.1,2.27-.21c1.95-.18,4.09-1.34,5.03-3.13.58-1.1.83-2.33.78-3.57-.08-.88-.4-1.56-.97-2.23.63.08.88.55,1.15.95.9,1.93.29,4.51-1.17,6.04-.44.47-.9.88-1.48,1.19-1.87.99-4.31,1.19-6.59,1.25Z" fill="#d3d3d3"/>
        <path d="M84.23,19.81c-.13-.03-.07-.19.04-.15l.11.11c1.76.74,1.98,2.89,1.1,4.6-.9,1.75-3.01,3.34-5.04,3.07l1.51-.43c2-.82,3.33-2.69,3.38-4.87.02-.91-.28-1.71-1-2.25l-.1-.07Z" fill="#d3d3d3"/>
        <path d="M78.84,30.68c.14.19-.03.5-.11.43l-1.22-1.6c-.12-.16-.12-.29,0-.42l1.11-1.11.79-.99c.25-.31.29.63-.45,1.33l-1.07,1.03.94,1.32Z" fill="#d3d3d3"/>
        <circle cx="82.32" cy="31.33" r=".13" fill="#d3d3d3"/>
        <rect x="81.99" y="31.12" width=".08" height=".08" transform="translate(2 67.13) rotate(-45)" fill="#d3d3d3"/>
        <rect x="83.97" y="19.58" width=".08" height=".08" transform="translate(10.73 65.15) rotate(-45)" fill="#d3d3d3"/>
        <path d="M108.1,13.29c-.18.14-.4.08-.61.09,0-.05.04-.11.13-.11l.48.02Z" fill="#d3d3d3"/>
        <path d="M109.72,13.51v-.25c.08-.01.15.07.11.17-.02.05-.06.08-.11.07Z" fill="#d3d3d3"/>
        <path d="M128.3,38.04c-.21,1.02-1.04,2.93-1.86,2.83.59-.91,1-1.83,1.22-2.88l1.1-5.32,1.62-8.17c.5-2.51-.44-3.98-.35-4.09l.9-1.09c.51-.62.8-1.36.98-2.17l.43-2.01,1.11-5.3c.08-.38.08-.69-.2-.98.27-.05.45.03.6.14s.25.37.2.62l-.88,4.47-.7,3.39c-.25,1.19-.94,2.15-1.87,2.92-.23.19.96,1.56.51,3.79l-1.55,7.73-.51,2.53-.73,3.57Z" fill="#d3d3d3"/>
        <path d="M155.06,6.03l-12.83.04-8.16.04-1.12-.09c-.05-.02.01-.16.16-.12l9.23-.06,7.68-.03.48.12h4.37c.09,0,.15,0,.19.1Z" fill="#d3d3d3"/>
        <path d="M127.62,7.02c-.12.71.16,1.19.65,1.59-.6,0-1-.41-1.27-.86-.16-.68,0-1.31.35-1.89.8-1.02,1.99-1.67,3.38-1.54-.73.27-1.42.51-2.05,1.01-.5.42-.94.97-1.06,1.69Z" fill="#d3d3d3"/>
        <path d="M137.91,18.93l-1.05.05c-.18,0-.36-.09-.48-.22l1.84-.05,6.86-.28c-.43.39-.97.24-1.46.3l-5.71.2Z" fill="#d3d3d3"/>
        <path d="M101.68,36.82c-.36,1.77-.76,3.44-1.97,4.68-.06.06-.26.06-.33,0,.36-.45.59-.85.75-1.34l.57-1.77,1.28-6.48c.35-1.76-.26-3.7-.16-3.8.71-.77,1.23-1.62,1.46-2.65l.69-3.15.95-4.62c.21-1.02.16-2.01-.22-3.01h1.64s.47-.12.47-.12l1.29.03c-.48.23-.99.15-1.53.21l-1.29.14.18.83c.21.97.13,1.97-.08,2.97l-1.34,6.22c-.25,1.16-.85,2.16-1.62,3.02l-.24.2c-.14.11.82,2.19.39,4.31l-.88,4.33Z" fill="#d3d3d3"/>
        <path d="M116.94,30.81c-.1.48-.46.83-.94.84-.55.01.3-.41.46-1.16l1.06-5.08.68-3.3.22-1.62.42-2.51.16-2.38c.03-.49-.09-.91-.23-1.43l3.26.03c.01.1-.1.15-.21.13-.43-.08-.78.03-1.18.08l-1.28.15c.14.42.27.82.24,1.26l-.1,2-1.14,6.32-.93,4.3-.5,2.37Z" fill="#d3d3d3"/>
        <path d="M114.76,40.56l-1.14.09c.22-1.18.14-2.31-.22-3.45l-.91-2.12-1.28-2.56-.72-1.4-2.81-5.57c-.08-.15-.19-.26-.12-.39.4.02.6.18.74.46l.84,1.61,2.68,5.23,1.24,2.39c.85,1.64,1.47,3.31,1.33,5.18l.35.52Z" fill="#d3d3d3"/>
        <path d="M157.1,36.06c-1.3,1.03-3.49,1.91-5,1.6,3.45-.17,5.92-2.5,7.2-5.56.56-1.34.85-2.69,1.14-4.12.36-1.76.67-3.46.73-5.27.03-1.11-.17-2.18-.65-3.14-.36-.71-.9-1.13-1.54-1.63,2.45.74,3.1,3.47,2.81,5.93l-.8,4.09-.82,3.62c-.61,1.78-1.61,3.33-3.08,4.49Z" fill="#d3d3d3"/>
        <path d="M146.81,39.51c-.31-.07-.56-.3-.84-.51-2.71-1.93-2.62-5.12-2.14-8.26.15-1,.13-1.97-.22-2.92.41-.54.91-1.02,1.11-1.67l.75-2.51c.92-3.11,2.44-5.48,5.16-7.32,1.54-1.04,3.23-1.77,5.1-1.95l2.58-.03c-.26.22-.63.07-.91.11l-.85.1c-4.09.48-7.51,2.95-9.43,6.53-.5.94-.79,1.9-1.06,2.93l-.37,1.38c-.27,1.02-.89,1.84-1.67,2.53.7,1.19.45,2.36.38,3.53l-.19,2.79c.08,2.15.92,3.89,2.64,5.16l.1.07c.16.03.08.22-.05.15-.07-.06-.09-.1-.1-.11Z" fill="#d3d3d3"/>
        <rect x="147.13" y="39.62" width=".08" height=".08" transform="translate(15.06 115.68) rotate(-45)" fill="#d3d3d3"/>
        <path d="M168.99,36.1c.29.69.66,1.32,1.18,1.78l1.19,1.05c-2.67-1.05-4.04-4.18-3.63-6.9l.34-2.22c.14-.92.03-1.8-.37-2.67.75-.83,1.22-1.76,1.55-2.81l.87-2.86c.43-1.41,1.97-3.4,3.16-4.42,1.69-1.44,3.64-2.51,5.85-2.87l2.45-.14c.29-.02.55.11.88.03.12.02.1.16,0,.15-1.63-.11-3.13.2-4.64.71-3.68,1.25-6.46,4.25-7.52,7.98l-.41,1.45c-.31,1.08-.82,2.04-1.7,2.79.71,1.31.61,2.86.33,4.35s-.15,3.09.5,4.61Z" fill="#d3d3d3"/>
        <path d="M183.55,31.99c-1.12,2.6-3.4,4.51-6.27,4.85-.23.05-.25-.19-.03-.17.78-.1,1.46-.32,2.12-.71,3.19-1.87,4.19-5.08,4.82-8.59l.76-4.22c.3-1.67-.33-4.52-2.11-5.42.3-.08.49.15.7.27.85.47,1.43,1.21,1.71,2.14s.4,1.84.33,2.82c-.08,1.14-.2,2.3-.6,3.36-.26.68-.34,1.25-.4,1.98-.1,1.28-.51,2.53-1.01,3.71Z" fill="#d3d3d3"/>
        <path d="M91.09,39.28c-.16.76-.42,1.45-.84,2.09l-.49.57c-.11.13-.23.31-.52.19.69-1.05,1.13-2.18,1.38-3.43l.66-3.29.67-3.72c.18-.99.02-1.96-.33-2.89,1.31-1.47,1.73-3.39,2.1-5.29l.99-5.18.08-1.56c.03-.62-.16-1.16-.39-1.73l3.94-.14.07.08-1.69.21-1.65.15c.59,1.34.36,3.4.04,4.89l-.87,4.02c-.35,1.63-.8,3.39-2.02,4.51-.33.3.18.76.28,1.71.07.65.15,1.32.01,1.98l-1.42,6.82Z" fill="#d3d3d3"/>
        <path d="M186.48,41.12l-.22.24c.07.64-.04,1.27-.56,1.78-.15.14-.72.16-.78-.05-.13-.48.17-.93.33-1.33.22-.54.39-1.04.74-1.48l1.18-1.5c1.61-2.05,1.45-3.38,1.83-4.15.17-.35.19-.75.33-1.16l.24-.68c.05-.14.11-.23.2-.28l-.4,1.94-.62,2.41c-.42,1.01-.97,1.92-1.75,2.67-.66.64-.27,1.35-.52,1.61Z" fill="#d3d3d3"/>
        <path d="M192.19,12.21l-.26,1c-.08.31-.1.6-.07,1-.2-.11-.23-.27-.37-.39l.03-1.01c.01-.4.38-.61.68-.75,0,.05,0,.12,0,.16Z" fill="#d3d3d3"/>
        <path d="M193.87,23.68c-.28,1.23-.96,2.23-1.83,3.1.39,1.13.49,2.45.25,3.61l-1.41,6.6c-.15.71-.55,1.25-1.08,1.73-.14.13-.26.33-.57.19.62-.78,1.01-1.62,1.2-2.59l1.08-5.32.31-2.22c.1-.7-.04-1.35-.33-2.03.99-1.1,1.56-2.44,1.9-3.9l.71-3.13.46-2.34.14-1.31c.1-.86-.08-1.63-.43-2.45l1.9.03h3.49s1.06.11,1.06.11l1.29.19,1.15.13c.47.05.9-.04,1.3.2-.44.12-.78-.06-1.19-.07h-.7s-1.5-.23-1.5-.23l-1.18-.1-3.84-.02-1.05.1c.37.89.56,1.77.38,2.69l-.54,2.76-.97,4.26Z" fill="#d3d3d3"/>
        <path d="M204.38,17.72c-.07-.05-.05-.14.04-.14l.1.09.14.06s.07.05.09.07c2.27.94,2.7,4.47,2.22,6.74l-.55,2.59-1.08,3.81c-.68,1.82-1.85,3.38-3.5,4.41-.99.61-2.69,1.21-3.81.91,2.56-.08,4.75-1.78,6.03-4.05.53-.94.95-1.91,1.21-2.97l.81-3.39c.5-2.09.73-4.54-.18-6.45-.29-.6-.7-1.05-1.21-1.48l-.07-.06-.13-.07-.09-.07Z" fill="#d3d3d3"/>
      </g>
      <g>
        <path d="M10.04,55.99c-.73.13-1.19-.31-1.71-1.04-.09-.13.09-.29.24-.15l10.1-1.83,2.35-.44c.14-.03.26-.15.3-.28l.17-.66c.08-.32-.02-.58-.26-.78-.7-.59-1.12-1.42-.99-2.34l.19-1.42,2.03-9.94c.12-.6.97-.75,1.07-.63l.58.77c-.12.15-.31.26-.35.42l-.38,1.51-1.76,8.58-.28,2.1c-.09.7.42,1.33.92,1.77.28.25.41.52.37.93-.05.5-.37,1.22-.97,1.33l-11.63,2.11Z" fill="#d3d3d3"/>
        <path d="M33.33,50.59c.69.36,1.02,1.01,1.59,1.46.77.82,1.59,1.54,2.55,2.11l1.47.88c2.1,1.08,4.42,1.54,6.77,1.19,1.94-.29,4.66-1.31,6.22-2.4l3.83-2.69,1.42-1.15c.38-.31-.2-.58-.16-1.1.46.14.6.51.88.79.23.23.45.43.47.7s-.06.64-.32.84l-3.8,2.94c-1.19.92-2.49,1.58-3.87,2.19-2.98,1.33-6.39,1.73-9.44.49-1.9-.78-3.54-1.95-5.03-3.34-.41-.39-.86-.69-1.16-1.18-.5-.55-1.07-.99-1.41-1.75Z" fill="#d3d3d3"/>
        <path d="M57.25,48.58c-.41.2-.54-.65-1.26-.48l-2.08.49c-.35.08-.69.2-1.07.04,2.68-.47,5.18-1.59,7.32-3.34,1.39-1.13,2.47-2.44,3.37-3.98.63-1.06,1.18-2.1,1.49-3.3l.71-2.78c.24-.94.53-1.84,1.12-2.6.25-.32.47-.66.91-.74.17.43.49,1.23.22,1.62-.51.74-.89,1.4-1.1,2.29l-.69,2.91c-.5,2.09-1.56,3.93-2.91,5.6l-1.63,1.63-1.79,1.35-2.6,1.27Z" fill="#d3d3d3"/>
        <path d="M32.65,34.23l-1.04-.66c0-.12.14-.25.22-.29,1.51-.79,2.86-1.73,4.17-2.82l.89-.74,1.74-1.75c1.62-1.63,3.16-4.82,3.98-7.13.27.17.42.42.51.76l.65.18-1.34,3.23c-.6,1.45-1.49,2.7-2.52,3.89l-2.34,2.32c-1.35,1.13-2.76,2.08-4.32,2.91-.15.08-.4.24-.6.11Z" fill="#d3d3d3"/>
        <path d="M29.63,13.43c-.66,1.27-1.12,2.51-1.42,3.87-.02.11-.12.2-.23.22l-1.2.16c.36-1.88.91-3.67,1.82-5.34.11-.2.25-.32.12-.59l1.97.37c.94.18,2.41,1.06,2.7,2-1.17-.64-2.31-1.07-3.6-1.17l-.16.48Z" fill="#d3d3d3"/>
        <path d="M25.8,27.94c-.15.68-.65.81-1.53.96l.61-2.92.79-3.49c.48.03.85-.02,1.34-.12l-1.22,5.57Z" fill="#d3d3d3"/>
        <path d="M6.62,40.57c-.08-.05-.06-.16.04-.18l.1.15c1.64,1.43,3.75,1.48,5.86.78-.04.56-.1.99-.28,1.49-1.75.28-3.28.45-4.58-.77-.44-.41-.85-.81-1.08-1.38-.02-.05-.04-.07-.07-.08Z" fill="#d3d3d3"/>
        <path d="M16.67,13.26c-.14.26-.12.56-.12.86-.92-.05-1.79-.37-2.56-.92-.48-.38-.95-.72-1.16-1.38,1.31.85,2.6,1.09,4.15,1.19,0,.19-.27.19-.32.25Z" fill="#d3d3d3"/>
        <path d="M40.53,8.17c-.15-.02-.09-.2.04-.15l.11.1.08.06.04.04s.06.04.08.07c0,.01.02.04.04.04.94.42,2.43,2.02,3,3.21-.22.17-.45.28-.73.36-.52-1.36-1.23-2.55-2.32-3.44l-.09-.08-.07-.06-.05-.05-.08-.07-.05-.04Z" fill="#d3d3d3"/>
        <path d="M23.34,5.6c-.56.31-1.23.15-1.86.19l.76-.76c.2-.21.07-.59-.05-.85-.02-.11.11-.19.22-.08l.8.79c.11.11.29.63.14.71Z" fill="#d3d3d3"/>
        <path d="M44.23,14.54c.03.13-.33.2-.44.11l-.12-1.28c-.06-.1.13-.12.07,0,.18.39.39.64.49,1.16Z" fill="#d3d3d3"/>
        <path d="M43.51,19.67c-.12-.02-.09-.16-.08-.21-.12-.21-.2-.54-.08-.73.2.09.29.09.43.09l-.27.86Z" fill="#d3d3d3"/>
        <path d="M32.61,49.77c-.07-.05-.05-.14.05-.15.06.05.09.08.1.09l.06.08.05.05.06.07.05.05.08.13s.04.07.06.08c.11.1.25.15.28.44-.21-.01-.26-.16-.37-.29l-.07-.09-.08-.13-.04-.08s-.05-.06-.07-.08l-.04-.04-.06-.08s-.03-.03-.05-.05Z" fill="#d3d3d3"/>
        <path d="M31.99,48.88c.06.09.16,0,.06-.06l.1.11.06.17s.03.04.06.06c.06.04.13.13.17.17l.11.11c-.06-.09-.16,0-.06.06-.06-.08-.09-.1-.11-.11-.09-.02-.15-.09-.17-.18-.01-.01-.04-.03-.06-.06l-.06-.17-.11-.11Z" fill="#d3d3d3"/>
        <path d="M64.5,17.77c.06.09.16,0,.06-.06l.11.11.06.06.11.11c-.06-.09-.16,0-.06.06l-.11-.11-.06-.06-.11-.11Z" fill="#d3d3d3"/>
        <path d="M34.59,36.01c-.09-.05-.06-.17.04-.17.06.08.09.11.1.12.02.02.06.04.08.07,0,.01.02.04.03.05.67.52,1.26,1.16,1.82,1.86l.98,1.24c1.57,1.99,3.01,4,4.63,5.96.46.55.76,1.15,1.33,1.6l1.04.81.11.07c.13.03.07.17-.04.12-.07-.03-.1-.08-.11-.09-1.18-.62-2.78-2.07-3.63-3.19l-3.56-4.71-2.64-3.53s-.05-.07-.07-.09c-.03-.02-.05-.04-.06-.07-.01-.02-.03-.04-.05-.05Z" fill="#d3d3d3"/>
        <rect x="44.93" y="47.78" width=".08" height=".08" transform="translate(-20.64 45.81) rotate(-45)" fill="#d3d3d3"/>
        <rect x="40.27" y="7.93" width=".08" height=".08" transform="translate(6.17 30.84) rotate(-45)" fill="#d3d3d3"/>
        <rect x="64.28" y="17.6" width=".08" height=".08" transform="translate(6.37 50.65) rotate(-45)" fill="#d3d3d3"/>
        <path d="M50.56,41.25c-.71-.22-1.26-1.19-1.38-2.06-.1-.71-.13-1.41-.02-2.12l.6-3.69.81-3.98c.46-2.27,2.05-4.73,4.18-5.82,1.55-.79,3.73-.9,4.54.64-4.49-.73-7.12,3.16-7.88,7.21l-.81,4.32c-.32,1.73-.73,3.95,0,5.4.03.05.07.07.09.09.08.05.06.15-.02.17l-.11-.15Z" fill="#d3d3d3"/>
        <path d="M88.08,29.83l-.91-.91c-.1-.1-.1-.21.02-.3,2.26-1.76,3.64-4.41,3.73-7.29.04-1.36-.34-2.56-1.14-3.64-.05-.09.09-.22.21-.09,1.55,1.74,2.38,3.51,1.91,5.83-.34,1.68-.97,3.25-2.1,4.55l-1.4,1.4c-.13.13-.22.23-.25.38l.05.06c1.05,1.06,1.93,2.96,1.64,4.41l-.44,2.23c-.41,2.04-.99,4.25-2.4,5.74-1.74,1.83-2.91,2.79-5.31,3.66-1.66.6-3.33.78-5.08.97l-5.58.61-5.61.58c-.26.03-.58-.3-.71-.46l-.57-.7,2.45-.25,9.19-1.03,3.41-.48,2.61-.76c3.09-1.3,5.54-3.68,6.48-6.93.61-2.1,1.02-5.03.12-6.92-.1-.22-.25-.39-.28-.6,0-.03-.03-.05-.05-.06Z" fill="#d3d3d3"/>
        <path d="M64.99,18.2c-.16-.03-.09-.21.04-.16l.13.14.84.81.08.1c.68.84,1.41,1.69,1.85,2.75.53,1.28.77,2.63.65,4.02l-.27,3.13c-.04.43-.59.78-.88,1.07-.27-.62-.24-1.17-.19-1.75l.23-2.69c.17-1.97-.34-4.72-1.48-6.4,0-.05-.02-.07-.06-.07l-.85-.9s-.05-.05-.07-.06Z" fill="#d3d3d3"/>
        <path d="M70.9,17.83c-.28-.17-.34-.41-.49-.68-.12-.2-.32-.34-.29-.65.43.35.69.77.78,1.33Z" fill="#d3d3d3"/>
        <path d="M92.37,15.4c.2.24.36.08.13-.13.07.14.15.22.15.21l.06.17s.03.05.09.08c0,.01-.18-.03-.03.17-.05-.15-.11-.19-.12-.19l-.06-.17s-.07-.08-.21-.15Z" fill="#d3d3d3"/>
        <path d="M89.49,17.23c-.08-.03-.06-.11.02-.12l.1.12.06.06.11.11c-.06-.09-.16,0-.06.06l-.11-.11s-.04-.03-.06-.06-.04-.05-.06-.06Z" fill="#d3d3d3"/>
        <path d="M78.87,22.37l-.36,1.65-.34,1.76-1.24,1.22c-.08.08-.18.19-.33.12l1.3-6.01,2.2-.2,1.99-.07c.72.04,1.34.45,1.52,1.17h-.82s-2.68.24-2.68.24l-1.24.12Z" fill="#d3d3d3"/>
        <path d="M76.71,32.78l-.83,4.11-.36,1.83-1.22.06,1.23-5.86.45-2.03s.19-.03.22.06c.11.42.74.55.49,1.14-.07.17.08.46.03.69Z" fill="#d3d3d3"/>
        <path d="M77.94,33.9c-.14-.03-.41-.05-.53-.21-.2-.27-.2-.62-.22-.97-.07-.15.07-.27.17-.18l.41.89c.08.16.13.32.24.4l.08.06c.78.59,1.1-.61,1.99-1.09.38-.2.93-.06,1.26.22.35.3.49.77.44,1.22-.44-.11-.76-.07-1.13.08-.34.14-.47-.43-.61-.25l-.69.93c-.11.14-.28.21-.42.09-.38-.34-.68-.72-.92-1.11-.01-.02-.03-.05-.06-.07Z" fill="#d3d3d3"/>
        <path d="M112.88,44.23c-.22,0-.98-.71-1.1-1.25l2.13-.1,4.3-.16c.27-.01.5-.34.55-.58l.55-2.72,1.68-8c.2-.96.66-1.83,1.28-2.56.53-.62,1.29-1.31.68-1.9s-.67-1.75-.48-2.71l1.2-6.12c.25-1.28.72-2.46,1.59-3.41l.78-.85c.26-.28.21-.56.09-.97l.85.83c.4.4.27,1.03-.14,1.4-1.02.94-1.74,2.07-2.04,3.44l-1.07,4.87-.42,2.66c-.07.44,0,.96.23,1.32l.48.71c.27.4.06.93-.28,1.27l-.76.76c-.53.73-.88,1.52-1.07,2.43l-2.13,10.42c-.15.71-.64.99-1.33,1.01l-5.57.21Z" fill="#d3d3d3"/>
        <path d="M94.04,45.45l-6.12.47c-.38.03-.66-.14-.89-.41l-.61-.7c-.07-.14.08-.26.22-.14l4.09-.31,5.59-.43,5.71-.37,3.93-.25.47-.83c.33-.58-1.22-1.18-1.02-2.63l.49-3.59,1.36-6.6c-.06-.24.27-.24.24,0l.42.82c.09.17.24.41.2.64l-1.28,6.2-.45,3.37c-.04.33-.08.73.09,1.01l.75,1.26c.31.53-.11,1.56-.79,1.61l-4.05.3-4.41.31c-.2.01-.34-.2-.51-.37-.1.09-.22.35-.37.36l-3.04.29Z" fill="#d3d3d3"/>
        <path d="M143.59,39.33c.25.26.49.54.8.79.74.59,1.48,1.13,2.38,1.47,6.19,2.36,13.25-.57,16.79-6.05,1.01-1.57,1.59-3.31,1.97-5.14.14-.68.48-1.25.89-1.76.17.64.07,1.21,0,1.83l-.29,2.48c-.16,1.33-1.88,4.41-2.93,5.47l-1.33,1.35-1.51,1.17c-1.31,1.02-2.83,1.61-4.44,2.09-3.31.99-7.11.88-10.01-1.05l-1.15-.96c-.54-.45-.96-1-1.27-1.6l-.04-.05-.09-.18-.03-.05c-.1-.07.01-.2.09-.1l.05.05s.08.1.1.17l.04.04Z" fill="#d3d3d3"/>
        <path d="M189.78,32.49c-.09.05-.16.14-.2.28l-.24.68c-.14.41-.15.81-.33,1.16-.04-.02-.16-.02-.2.07-.41.86-.86,1.66-1.46,2.39l-.68.83-1.11,1.11-1.66,1.27c-2.77,1.85-6.02,2.79-9.37,2.55-1.87-.13-3.62-.77-5.05-1.92-.79-.63-1.93-2.03-1.68-2.15.05-.02.15.04.21.11.55.61,1.21,1.04,1.92,1.46,3.66,2.16,8.9,1.43,12.53-.79,1.22-.75,2.23-1.6,3.21-2.63,1.77-1.86,2.85-4.18,3.29-6.71.15-.85.49-1.6,1.17-2.2.33.89.16,1.74,0,2.64l-.35,1.86Z" fill="#d3d3d3"/>
        <path d="M98.09,33.64l-1.19,6.08c-.28,1.43.32,2.23-.33,2.51-.87-.88-.91-2.43-.68-3.63l1.09-5.66c.29-1.5,1.03-2.77,2.08-3.86.69-.72-.34-1.08-.4-2.3-.03-.78-.04-1.53.12-2.3l1.17-5.8c.33-1.65,1.25-3.04,2.53-4.17.25.38.44.77.48,1.21.03.26-.28.39-.4.55-.9,1.22-1.46,2.58-1.77,4.06l-.86,4.14c-.2.95-.3,1.9-.2,2.86.03.26.02.42-.19.61-.17.15-.12.43.02.6.64.78.96,1.72.77,2.69l-.28-1.24c-.59.63-1.16,1.18-1.41,1.94l-.56,1.72Z" fill="#d3d3d3"/>
        <path d="M135.97,30.26l-.91,4.4-.21,1.09-.67,3.97c-.07.44-.08.84.05,1.3-.28.05-.28-.18-.35-.26-.55-.66-.79-1.37-.64-2.21l.63-3.58.98-4.74,1.41-6.65h3.71c.95,0,1.79.4,2.24,1.24.08.12.21.22.37.22h.83c0,.48-.21.9-.59,1.2l-.82-.98c-.11-.23-.31-.37-.58-.38l-4.25-.06-1.19,5.43Z" fill="#d3d3d3"/>
        <path d="M151.76,13.79c-1.63-1.22-3.88-1.7-5.93-1.7h-6.05s-1.06,4.79-1.06,4.79h-1.14s.65-3.06.65-3.06l.69-3.07,6.79.04c2.05.01,5.22.94,6.04,2.99Z" fill="#d3d3d3"/>
        <path d="M134.16,41.19c.1.15.27-.03.09-.13l.12.14.06.08.04.06.62.86c.36.49-.09,1.62-.83,1.66l-9.29.5c-.29.02-.47-.1-.63-.29-.3-.34-.64-.59-.78-1.11.25.06.44.16.7.14l9.52-.56c.38-.02.6-.88.6-1.1l-.05-.07-.06-.07-.12-.12Z" fill="#d3d3d3"/>
        <path d="M115.44,25.66c.17.36-.14,1.22-.21,1.24-.04.02-.1-.01-.15-.12l-3.06-6.25-.85-1.85c-.68-1.48-1.04-3.22-.36-4.67.15-.32.18-.6.19-.99l.69.73c.57.6-.74,2.03.03,3.82l.98,2.28,1.5,3.15,1.24,2.67Z" fill="#d3d3d3"/>
        <path d="M154.91,12.6l-1.74.43c.08-.34.25-.57.42-.86l3.28-5.45.74-1.14c.23-.35-.2-.58-.02-.87.76.57,1.2,1.55.88,2.08l-1.2,1.95-2.35,3.86Z" fill="#d3d3d3"/>
        <path d="M166.74,25.77c-.25-.41-.23-.78-.18-1.2.15-1.37.26-2.7.14-4.08-.13-1.47-.88-3.69-1.8-4.62l-1.34-1.35c-.26-.26-.71-.28-.86-.72,3.43,1.61,5.23,5.07,5.12,8.79-.02.73-.11,1.46-.46,2.07l-.63,1.1Z" fill="#d3d3d3"/>
        <path d="M125.83,9.56c-.07-.02-.2-.11-.12-.25.02-.04.18.02.19.11.01.07.06.09.08.11.81.69,1.8,1.1,2.91,1.24l2.28.05-.09,1.31-1.45-.02c-1.36-.02-3.23-1.08-3.77-2.45,0-.05-.02-.11-.04-.11Z" fill="#d3d3d3"/>
        <path d="M133.74,4.41c-.15.03-.2-.18-.04-.23.42-.42-.1-.64-.09-1.08.4.33.66.67.84,1.24l-.72.06Z" fill="#d3d3d3"/>
        <path d="M128.89,22.69c-.21-.48-.53-.9-.66-1.52.41.4.67.85.66,1.52Z" fill="#d3d3d3"/>
        <path d="M187.82,14.93c-.14-.03-.09-.19.04-.15l.11.11s.05.03.07.06c.01.03.03.06.06.08.14.09.25.2.4.35l.07.07.08.07s.03.03.04.04c.15.06.09.26-.06.25-.06-.1-.1-.15-.11-.16l-.11-.07-.02-.02-.37-.45s-.05-.05-.07-.06c-.03-.02-.06-.04-.08-.08-.01-.02-.03-.03-.05-.04Z" fill="#d3d3d3"/>
        <path d="M167.45,38.43c-.14-.05-.08-.26.06-.19-.02.14.05.18.06.19.06-.03.14,0,.17.06s0,.14-.06.17c-.05.03-.18.01-.17-.12,0-.08-.04-.11-.06-.12Z" fill="#d3d3d3"/>
        <path d="M187.44,14.62c.06.09.16,0,.06-.06l.16.16c-.06-.09-.16,0-.06.06l-.16-.16Z" fill="#d3d3d3"/>
        <rect x="162.51" y="13.75" width=".08" height=".08" transform="translate(37.86 118.98) rotate(-45)" fill="#d3d3d3"/>
        <rect x="162.28" y="13.64" width=".08" height=".08" transform="translate(37.87 118.79) rotate(-45)" fill="#d3d3d3"/>
        <rect x="125.57" y="9.09" width=".08" height=".08" transform="translate(30.33 91.5) rotate(-45)" fill="#d3d3d3"/>
        <rect x="143.17" y="38.81" width=".08" height=".08" transform="translate(14.48 112.64) rotate(-45)" fill="#d3d3d3"/>
        <path d="M150.31,35.17c-1.12-.89-1.24-3.01-.93-4.5l1.19-5.56c.38-1.79,1.46-3.85,2.94-4.98.89-.68,2.01-1.1,3.12-1.08,1.09.01,2.05.64,2.39,1.69-1.45-.75-3.01-.5-4.35.32-.93.57-1.63,1.42-2.15,2.39-.43.81-.77,1.63-.96,2.54l-1.21,5.66-.15,1.88c-.04.52.07.99.2,1.51.01.05.03.08.05.09.1.05.06.17-.04.16l-.1-.14Z" fill="#d3d3d3"/>
        <path d="M186.26,41.36l.22-.24,3.87-.03,6.29-.06c2.04-.02,4.14-.42,5.95-1.3,2.86-1.4,5.68-3.86,6.61-6.9l.79-2.59c.27-.87.62-1.69,1.24-2.38.32-.35.75-.94.41-1.41-.43-.61-.62-1.2-.54-1.99l.31-3.03c.01-1.58-.27-3.08-.98-4.47-.16-.32-.43-.52-.52-.95.38.16.53.51.76.81,1.11,1.48,1.88,4.06,1.67,5.78l-.38,3.16c-.09.74.79,1.76.41,2.68l-.93,1.25c-.42.57-.47,1.34-.69,2.01l-.89,2.73c-2.02,4.54-7.2,7.82-12.07,7.87l-9.9.11c-1.1.01-.97-.63-1.64-1.06Z" fill="#d3d3d3"/>
        <path d="M191.49,13.82c.14.12.17.28.37.39-.03-.4-.01-.69.07-1-.02.44.58.63.87,1.1.56.93.6,2,.36,3.04l-.9,3.89-.67,2.62c-.19.74-.71,1.35-1.17,1.96-.18.24-.46-.26-.27-1.32.51-2.92.44-5.91-1.29-8.35-.09-.13-.21-.3-.01-.39,1.7,1.74,2.55,3.81,2.57,6.25.11-.02.13-.1.15-.19l.9-3.64c.28-1.12.35-2.39-.46-3.06s-.51-1.29-.51-1.29Z" fill="#d3d3d3"/>
        <path d="M192.19,12.21s.01-.11,0-.16c.06-.03.13-.12.27-.12l2.31.03,3.25.05,1.3.09c.35.02.68,0,.94.2h-1.29s-.94-.1-.94-.1h-5.84Z" fill="#d3d3d3"/>
        <path d="M209.7,15.79c.06.09.16,0,.06-.06l.16.16c-.06-.09-.16,0-.06.06l-.16-.16Z" fill="#d3d3d3"/>
        <path d="M203.17,29.52c.54-1.78,1.01-3.45,1.22-5.24.15-1.29.16-2.72-.67-3.64-.31-.2-.65-.54-1.04-.56l-2.37-.1-1.1,5.09-2.15,9.4c-.31.09-.66.11-.99-.02-.11-.04-.05-.32-.03-.43l1.5-6.56,1.89-8.36c.06-.27.16-.42.48-.41l2.2.08c.69.03,1.18.37,1.63.8.29.27.27.58.44.87.33.57.68,1.06.8,1.76.12.74.11,1.51-.06,2.26l-.7,3.11-.58,2.14-.96,2.07c-.4.62-.82,1.2-1.52,1.54.95-1.13,1.57-2.35,2.01-3.8Z" fill="#d3d3d3"/>
        <path d="M174.08,34.35c-.91-.84-1.11-2.65-.82-3.94l1.32-5.99c.46-2.1,2-4.43,4-5.32.94-.41,1.99-.55,2.95-.16,1.44.59,2.04,2.75,1.76,4.24-.07-1.02-.19-2.04-.87-2.81-.42-.47-1.22-.49-1.83-.42-2.48.31-4.39,2.65-4.95,4.92l-1.26,5.15c-.26,1.05-.35,2.08-.34,3.16l.12,1.04c0,.06.04.08.07.1.09.05.06.16-.04.17l-.11-.16Z" fill="#d3d3d3"/>
      </g>
    </g>
  </g>
</svg>