<?xml version="1.0" encoding="UTF-8"?>
<svg id="Layer_2" data-name="Layer 2" xmlns="http://www.w3.org/2000/svg" viewBox="0 0 136.06 83.41">
  <g id="Layer_1-2" data-name="Layer 1">
    <g>
      <g>
        <path d="M6.1,61.99h-2.13s0,3.6,0,3.6c0,2.73,1.43,2.38,1.49,2.54.02.04.01.16,0,.35l-5.43.03c-.04-.1-.04-.24,0-.38.8-.12,1.39-.75,1.39-1.63v-9.78c0-.82-.54-1.39-1.31-1.39-.03-.17-.03-.29.02-.44l7.71.02c1.87,0,3.92.67,4.46,2.47.32,1.05.15,2.08-.48,2.89s-1.52,1.2-2.59,1.42c.97.36,1.69,1.02,2.09,1.96l1.36,3.19c.26.62.71,1.14,1.37,1.31.01.12,0,.25-.03.35h-3.82c-.54-1.66-.97-3.32-1.72-4.88-.46-.97-1.28-1.61-2.37-1.62ZM9.16,59.94c.71-1,.65-2.33-.09-3.25-.57-.53-1.29-.75-2.06-.77l-3.04-.04v5.11s3.02-.03,3.02-.03c.85,0,1.61-.34,2.17-1.02Z" fill="#606060"/>
        <path d="M98.51,67.01c-.11.6-.17,1.15-.46,1.73l-2.44-.02c-.22-.23.16-.43.31-.57.51-.44.63-1.19.63-1.87v-9.75c.01-.58-.32-1.01-.88-1.01-.09-.07-.09-.41,0-.44l3.02-1.01.05,5.68c.8-1.23,2.07-1.84,3.53-1.73,1.63.13,3,1.09,3.77,2.54.91,1.88.92,4.09-.08,5.92-.78,1.43-2.09,2.35-3.7,2.49-1.55.19-2.89-.52-3.75-1.96ZM103.55,60.19c-.37-.65-.98-1.08-1.6-1.18-.71-.11-1.39.12-1.92.62-1.35,1.26-1.5,3.77-1.16,5.63.29,1.57,1.32,2.87,2.83,2.75,2.64-.21,3.41-5.1,1.86-7.82Z" fill="#606060"/>
        <path d="M69.95,63.36l-4.15-.02-1.34,3.34c-.29.73.19,1.48.94,1.64.17.04.15.4.03.4h-3.85c-.17-.22.12-.4.27-.53.7-.59,1.17-1.34,1.56-2.19l5.16-11.23c.05-.1.4.06.33.21l5.2,11.22c.41.74.78,1.49,1.43,2.01.11.09.43.29.26.48h-5.06c-.09,0-.11-.21-.07-.25l.18-.17c.59-.18.86-.78.62-1.36l-1.5-3.57ZM69.53,62.37l-1.69-3.78-1.68,3.8,3.37-.02Z" fill="#606060"/>
        <path d="M128.16,62.79v3.96c.01.57.2,1.21.72,1.49.21.11.41.15.33.49h-4.28c-.09-.37.12-.38.33-.51.53-.35.7-1.06.7-1.7v-5.85c-.01-.62-.33-1.12-.94-1.19-.09-.07-.09-.33-.04-.44l2.98-.83.08,1.98c.64-1.46,1.94-2.2,3.49-2.18,2.17.02,3.45,1.58,3.47,3.66l.04,5.16c.01,1.27.91,1.51.97,1.57.06.07.06.24,0,.34h-4.19c-.03-.13-.03-.26.01-.32.03-.05.98-.36.97-1.48l-.03-5.36c0-.71-.27-1.46-.79-1.92-.9-.79-2.27-.53-2.97.42-.56.76-.86,1.71-.86,2.71Z" fill="#606060"/>
        <path d="M39.86,68.23c-1.51-1.13-1.62-3.42-.27-4.68s3.96-1.41,5.89-1.36c.01-1.18-.32-2.54-1.29-2.96-1.67-.72-3.48.2-3.99,1.93-.03.11-.09.25-.13.31s-.28.07-.33,0l-.74-2.22c1.89-1.17,4.16-1.59,6.27-.92,1.42.45,2.33,1.64,2.34,3.12l.04,4.72c0,.87.3,1.88,1.02,2.16.1.04.1.35,0,.36l-2.37.07c-.41-.45-.47-1.01-.66-1.68-1.07,2.14-4.03,2.47-5.8,1.15ZM44.41,67.36c1.15-1.01,1.15-2.74,1.08-4.25-1.73-.12-3.81.21-4.28,1.82-.27.92-.12,1.89.54,2.5.75.69,1.89.61,2.66-.07Z" fill="#606060"/>
        <path d="M91.38,67.09c-.96,1.98-3.45,2.39-5.28,1.42-1.16-.62-1.72-1.78-1.63-3.07.2-2.83,4.04-3.4,6.74-3.26-.02-.96-.15-2.01-.88-2.67s-1.81-.67-2.72-.31c-1.47.59-1.67,2.19-1.8,2.27-.07.05-.31.05-.35-.07l-.69-2.16c1.72-1.1,3.84-1.5,5.82-1.05,1.74.4,2.75,1.81,2.76,3.56l.03,4.43c0,.69.13,1.46.65,1.94.14.13.53.27.33.57l-2.34.08c-.4-.46-.47-1.04-.65-1.69ZM91.21,63.09c-.95-.02-1.83.02-2.7.32-1.3.45-1.9,1.71-1.57,3.01.21.8.78,1.41,1.64,1.49,2.23.19,2.83-2.6,2.62-4.82Z" fill="#606060"/>
        <path d="M119.26,68.62c-1.93.92-4.62.19-5.25-1.84-.32-1.04-.18-2.06.44-2.86,1.22-1.59,3.96-1.79,6.08-1.73.08-1.08-.24-2.48-1.18-2.94-.82-.4-1.72-.36-2.56.07-1.32.67-1.36,2.06-1.57,2.19-.08.05-.3.04-.33-.06l-.66-2.19c1.74-1.12,3.85-1.53,5.83-1.04,1.61.4,2.63,1.7,2.64,3.33l.04,4.85c0,.63.16,1.33.66,1.74.14.11.52.37.29.52l-2.36.11c-.32-.52-.43-1.05-.58-1.67-.36.61-.81,1.19-1.49,1.51ZM119.02,67.69c1.52-.75,1.63-2.89,1.54-4.59l-2.36.21c-1.44.34-2.22,1.66-1.87,3.11.14.57.48,1.08.94,1.31.55.27,1.16.26,1.75-.03Z" fill="#606060"/>
        <path d="M19.56,68.98c-2.11-.11-3.79-1.32-4.57-3.22-.61-1.49-.56-3.22.09-4.7.86-1.96,2.73-3.05,4.84-3.06,2.08,0,3.93,1.1,4.76,3.03.77,1.8.7,3.89-.33,5.57s-2.82,2.48-4.79,2.38ZM22.31,60.65c-.4-1.08-1.28-1.76-2.34-1.78-2.93-.06-3.59,4.45-2.44,7.53.39,1.05,1.29,1.69,2.34,1.69,2.94,0,3.48-4.62,2.43-7.44Z" fill="#606060"/>
        <path d="M35.96,60.8l-4.15,8.7c-.8,1.68-2.68,3.4-4.46,2.53l.89-2.61c.17-.5.72,1.33,1.71.89.78-.35,1.47-1.51,1.07-2.36l-3.7-7.98c-.27-.57-.73-.94-1.23-1.26-.06-.04-.05-.25-.01-.35h4.35c.05.1.05.26.01.32-.03.05-.13.08-.24.12-.38.13-.64.57-.45.98l2.86,5.96c.87-1.86,1.66-3.59,2.31-5.43.22-.62,0-1.25-.62-1.45-.1-.04-.2-.08-.24-.13-.06-.08-.07-.22-.02-.38l3.56.02c.08,0,.08.22.04.28-.06.09-.84.38-1.68,2.14Z" fill="#606060"/>
        <path d="M49.99,68.75c-.11-.43.13-.43.36-.57.49-.29.73-.96.73-1.58v-10c.01-.64-.43-1.1-1.03-1.08-.07-.14-.06-.33,0-.48,1.08-.21,2.11-.55,3.22-.99l.03,12.54c0,1.43,1.06,1.68,1.12,1.77s.04.35-.07.35l-4.36.02Z" fill="#606060"/>
        <path d="M76.64,68.72c-.15-.23.13-.42.32-.52.49-.25.69-.91.69-1.48v-6.08c0-.65-.35-1.17-1-1.19-.06-.13-.06-.35,0-.44l2.99-.84.08,2.2c.77-1.59,2.05-2.83,3.62-1.98l-.93,2.67c-.52-.45-1.23-.75-1.76-.31s-.79,1.22-.79,1.9v4.07c0,.58.22,1.23.72,1.48l.34.17c.1.05.08.34,0,.35h-4.28Z" fill="#606060"/>
        <path d="M108.19,68.74c-.11-.4.17-.42.39-.57.54-.36.7-1.11.7-1.77v-5.54c0-1.26-.92-1.3-1.01-1.44-.04-.08-.03-.35.06-.37l3.09-.88.04,8.34c0,.72.23,1.39.79,1.8l.28.09c.07.02.1.17.06.34h-4.41Z" fill="#606060"/>
      </g>
      <g>
        <path d="M71.36,81.37c-.06-.35.7-.22.69-1.22l-.04-4.58-2.3,5.95-2.27-5.95-.03,4.37c0,.6.3,1.02.85,1.37h-2c.51-.34.79-.69.8-1.26l.03-4.55c0-.47-.24-.69-.71-.94l1.88-.06,1.91,4.9,1.85-4.88,1.51-.02c.11,0,.19,0,.17.19-.35.05-.59.35-.59.74v4.8c0,.48.21.75.72,1.05l-2.46.08Z" fill="#606060"/>
        <path d="M103.65,81.36c.08-.27.25-.32.41-.47.11-1.54.39-4.04-.66-4.4-.38-.13-.79.04-1.03.39s-.38.83-.38,1.28v2.25c0,.42.17.61.57.93h-2.13c.45-.34.6-.61.6-1.07v-2.89c0-.42-.11-.65-.52-.92l1.34-.37c.04.36-.04.58.13.94.2-.5.57-.85,1.07-1.02.83-.27,1.59.19,1.88,1.07.43-.74,1.07-1.2,1.87-1.12.74.08,1.31.7,1.33,1.44l.07,3.07c0,.39.23.55.57.87h-2.07c.29-.29.51-.44.53-.79.09-1.43.24-3.68-.64-4.04-.35-.14-.8-.03-1.06.3s-.42.82-.42,1.28v2.38c0,.38.23.54.55.85l-2.01.02Z" fill="#606060"/>
        <path d="M18.27,81.33h-3.75c.5-.35.74-.58.74-1.11v-4.85c0-.43-.26-.55-.65-.83h3.56c1.06,0,2.05.59,2.53,1.55.63,1.25.56,2.76-.2,3.92-.5.76-1.27,1.32-2.22,1.32ZM19.56,76.19c-.31-.84-1.04-1.35-1.91-1.34h-1.31s0,4.88,0,4.88c0,.38.03.72.16,1.1.63.22,1.36.26,2.01-.02,1.36-.6,1.65-3.04,1.06-4.62Z" fill="#606060"/>
        <path d="M93.84,80.38c.63.1,1.03.59,1.1,1.16.07.53-.2,1.14-.76,1.44-1.05.55-2.41.57-3.51.11-.54-.23-.84-.77-.76-1.27.08-.53.57-.87,1.15-.98-.19-.22-.34-.34-.37-.52-.03-.22.05-.45.25-.59l.47-.33c-.54-.19-.98-.63-1.1-1.1-.18-.67,0-1.29.45-1.74.69-.68,1.6-.65,2.49-.55.44-.3.96-.91,1.64-.74l-.28,1.06c-.37-.26-.73-.48-1.12-.15,1,.52,1.39,1.72.77,2.62-.86,1.25-2.48.58-2.59,1.02-.04.16.15.26.34.29l1.82.28ZM93.38,76.85c-.17-.4-.59-.64-.99-.63-1,.03-1.38,1.43-.96,2.46.18.45.61.69,1.05.67.92-.02,1.37-1.37.89-2.51ZM93.73,82.67c.28-.24.35-.58.29-.88-.14-.64-1.59-.88-2.32-.72-.48.11-.82.43-.87.84s.14.8.54,1c.74.37,1.71.33,2.36-.24Z" fill="#606060"/>
        <path d="M115.58,78.05l-.03,2.33c0,.43.19.64.57.96h-2.15c.42-.32.63-.52.63-.96v-3.2c0-.33-.14-.5-.51-.68l1.35-.42c0,.33-.02.57.1.93.31-.72,1.05-1.15,1.85-1.05s1.38.77,1.39,1.63l.03,2.76c0,.43.14.69.58.96l-2.09.02c.28-.29.55-.4.54-.75l-.04-3.18c0-.45-.31-.81-.63-.93-.44-.16-.89-.02-1.17.36-.24.32-.4.74-.41,1.21Z" fill="#606060"/>
        <path d="M80.72,77.95v2.63c0,.36.24.47.55.76h-2.18c.43-.32.64-.53.64-.98v-3.16c0-.37-.18-.5-.59-.72l1.42-.42c0,.28-.05.52.13.86.43-.74,1.16-1.11,1.95-.94s1.29.86,1.3,1.73l.02,2.67c0,.45.18.64.62.95h-2.15c.38-.33.59-.52.58-.95l-.07-2.98c0-.44-.31-.81-.62-.93-.42-.16-.85-.04-1.13.29-.26.31-.45.71-.45,1.18Z" fill="#606060"/>
        <path d="M38.45,78.27v2.15c0,.42.22.6.61.91h-2.18c.39-.3.6-.49.6-.91v-3.2c0-.38-.18-.53-.58-.78l1.43-.39c-.01.35-.05.65.06.96.41-.82,1.13-1.2,1.93-1.07.74.12,1.32.77,1.33,1.62l.04,2.91c0,.4.22.55.57.85h-2.07c.32-.31.56-.47.55-.85l-.05-3.08c0-.46-.36-.85-.69-.95-.48-.14-.94.05-1.2.48-.23.38-.36.84-.36,1.34Z" fill="#606060"/>
        <path d="M59.78,78.12v2.49c.01.35.28.44.57.74h-2.15c.44-.31.61-.55.61-1v-3.14c.01-.34-.2-.54-.56-.72l1.36-.42.08.96c.46-.98,1.63-1.42,2.57-.81.46.3.7.82.7,1.38l.03,2.82c0,.42.2.65.62.91l-2.1.03c.25-.3.53-.42.53-.76l-.03-3.17c0-.44-.31-.8-.62-.93-.44-.18-.88-.03-1.19.33-.29.34-.44.8-.43,1.3Z" fill="#606060"/>
        <path d="M86.7,81.5c-.59.02-1.03-.18-1.36-.5-.39-.38-.48-.88-.43-1.46.12-1.2,1.82-1.52,3.17-1.44.05-.55.02-1.19-.39-1.55s-.96-.34-1.41-.11-.71.67-.82,1.3c-.31-.42-.25-.79-.44-1.23.81-.47,1.74-.71,2.69-.51.79.17,1.32.77,1.33,1.59l.02,2.82c0,.42.14.64.56.9-.42.08-.73.11-1.07.02-.23-.05-.29-.4-.39-.7-.29.52-.77.85-1.46.87ZM88.1,78.42c-.57-.02-1.14.06-1.6.37-.57.38-.67,1.12-.4,1.72.18.4.57.64.98.57.97-.15,1.1-1.47,1.02-2.66Z" fill="#606060"/>
        <path d="M77.49,80.58c-.28.62-.89.93-1.61.91-.76-.02-1.41-.49-1.6-1.13-.21-.75.04-1.52.73-1.88.72-.37,1.49-.41,2.37-.36.12-.58,0-1.36-.55-1.7-.45-.28-.94-.17-1.34.08-.38.24-.52.64-.72,1.18-.25-.42-.25-.74-.38-1.18.82-.48,1.81-.75,2.75-.49.73.2,1.21.81,1.22,1.56l.03,2.84c0,.41.18.61.58.88-.42.06-.74.11-1.08.02-.25-.07-.28-.36-.41-.75ZM77.45,78.43c-.41-.06-.74.03-1.11.12-.79.18-1.19.89-1.01,1.67.11.48.46.83.93.86,1.05.06,1.3-1.36,1.19-2.64Z" fill="#606060"/>
        <path d="M45.94,80.64c-.36.6-.96.9-1.71.85s-1.34-.53-1.51-1.12c-.22-.78.04-1.53.75-1.89.72-.37,1.49-.42,2.37-.36.07-.51.02-1.17-.38-1.56s-.93-.37-1.39-.15-.68.64-.85,1.27c-.26-.41-.23-.75-.37-1.18.79-.5,1.72-.72,2.65-.5.76.18,1.27.8,1.28,1.58l.02,2.68c0,.47.12.76.61,1.03-.44.09-.73.11-1.08.04-.21-.04-.28-.28-.4-.7ZM45.88,78.43c-.4-.05-.74.02-1.11.11-.76.17-1.17.85-1.04,1.6.09.5.38.89.88.94,1.11.11,1.34-1.32,1.26-2.64Z" fill="#606060"/>
        <path d="M57.36,80.41c-.49.75-1.21,1.09-2,1.09s-1.53-.43-1.99-1.16c-.53-.83-.57-1.91-.22-2.84.32-.87,1.11-1.44,1.93-1.55.97-.13,1.87.31,2.38,1.15.61,1,.57,2.31-.09,3.31ZM56.47,76.94c-.21-.49-.73-.73-1.2-.68-1.33.15-1.52,2.63-.94,4.14.18.45.62.72,1.03.74,1.39.07,1.86-2.46,1.11-4.2Z" fill="#606060"/>
        <path d="M30.98,78.88c.53,1.04-.09,2.19-1.17,2.49-.99.27-2.01.04-2.9-.44l.39-1.28c.19.72.51,1.14,1,1.34.64.26,1.32.22,1.75-.29.24-.28.26-.7.14-1-.28-.7-1.67-.34-2.49-1-.51-.4-.59-1.05-.41-1.66.4-1.32,2.3-1.38,3.64-.68-.16.45-.11.72-.37,1.09-.14-.58-.44-.9-.82-1.07-.48-.22-.96-.18-1.36.15-.27.22-.37.55-.3.88.06.31.36.54.74.61l1.14.21c.38.07.82.25,1.03.66Z" fill="#606060"/>
        <path d="M98.96,80.8c1.01-.69.76-1.85,1.19-1.62-.06.64-.33,1.25-.79,1.71-.56.56-1.38.74-2.18.51-1.65-.45-2.21-2.94-1.16-4.48.56-.82,1.51-1.19,2.47-.91.85.25,1.54,1.07,1.57,2.1l-3.46.02c-.11,1.1.16,2.51,1.03,2.83.47.18.95.09,1.33-.16ZM98.97,77.78c0-.53-.13-.85-.37-1.18-.23-.24-.51-.38-.82-.36-.67.06-1.05.75-1.14,1.55l2.33-.02Z" fill="#606060"/>
        <path d="M112.65,80.73c.9-.69.65-1.8,1.06-1.53-.04.79-.47,1.59-1.19,2.02-1.01.6-2.28.27-2.93-.74-.69-1.07-.64-2.58.1-3.61.58-.82,1.52-1.12,2.45-.84.85.26,1.48,1.09,1.51,2.1h-3.43c-.11,1.13.12,2.53,1.05,2.86.51.18.98.06,1.38-.24ZM112.52,77.78c.07-.8-.37-1.52-1-1.54-.73-.02-1.15.69-1.27,1.54h2.27Z" fill="#606060"/>
        <path d="M25.41,80.69c.9-.74.6-1.79,1.08-1.53-.1.68-.41,1.43-1.02,1.9-1.12.86-2.71.44-3.34-.83-.51-1.02-.47-2.24.11-3.22.54-.9,1.53-1.28,2.52-1.01.9.25,1.62,1.07,1.59,2.11h-3.46c-.15,1.21.15,2.64,1.19,2.91.47.12.97-.03,1.33-.33ZM25.22,77.78c.02-.48-.08-.78-.27-1.09-.22-.3-.52-.46-.85-.46-.68,0-1.2.72-1.2,1.56h2.31Z" fill="#606060"/>
        <path d="M121.72,81.03l.25.08c.08.02.08.24.01.24l-1.18.02c-.33,0-.45-.54-.45-.86l-.03-3.75c-.09-.12-.41-.15-.59-.08-.05-.13-.04-.23-.02-.35.69-.15,1.14-.66,1.28-1.34.02-.12.05-.22.25-.22l.03,1.46.86.02c.03.16.02.26-.01.41l-.86.02.02,3.49c0,.33.12.77.44.87Z" fill="#606060"/>
        <path d="M49.97,81.12v.25s-1.25-.02-1.25-.02c-.33,0-.44-.55-.44-.86v-3.81s-.54-.03-.54-.03c-.12,0-.13-.15-.1-.24.06-.17.95-.05,1.43-1.72.24.55.03,1.04.11,1.53h.89s0,.44,0,.44h-.88s.04,3.56.04,3.56c0,.49.28.88.75.9Z" fill="#606060"/>
        <path d="M33.26,80.1c0,.61.23.88.88,1.12-.51.21-.92.17-1.37.11-.32-.04-.42-.56-.42-.85l-.04-3.89c-.32.08-.57.12-.69-.21.88-.24,1.21-.86,1.49-1.73.27.58.07,1.05.13,1.58l.83.02c.03.14.03.25,0,.41h-.83s.01,3.44.01,3.44Z" fill="#606060"/>
        <path d="M34.44,81.32c.5-.31.66-.54.66-1.05v-3.1c0-.16-.04-.38-.16-.47-.08-.07-.29,0-.44-.23l1.52-.41.05,4.38c0,.44.23.62.67.87h-2.29Z" fill="#606060"/>
        <path d="M50.5,81.36c-.11-.31.54-.16.54-1.12v-3.05c.01-.35-.19-.49-.58-.68l1.51-.46.02,4.2c0,.48.16.76.65,1.07l-2.13.04Z" fill="#606060"/>
      </g>
      <path d="M111.5,55.81c0,.53-.2.94-.52,1.18-.37.27-.9.32-1.31.03-.64-.44-.75-1.39-.3-2,.34-.46.86-.63,1.36-.45.45.16.76.62.77,1.23Z" fill="#606060"/>
      <path d="M36.05,74.79c.02.36-.14.61-.46.62-.34.02-.59-.23-.55-.62.03-.31.2-.51.45-.54.32-.03.54.18.56.53Z" fill="#606060"/>
      <path d="M51.24,75.36c-.39-.22-.33-.88.04-1.05.27-.12.55,0,.64.18.11.22.11.48,0,.7-.08.16-.39.33-.68.17Z" fill="#606060"/>
      <g>
        <path d="M43.54,47.56c-4.27-2.69-5.35-7.37-4.04-12.17.69-2.5,1.63-4.86,2.96-7.1-.78,4.72.74,8.86,4.93,11.17,5.31,2.83,12.27,2.2,18.03.75,6.09-1.53,11.81-4.11,17.06-7.55,6.7-4.39,12.87-10.13,16.56-17.28-1.66,8.47-8.1,16.33-14.66,21.68-4.11,3.35-8.6,6.16-13.41,8.39-4.19,1.95-8.53,3.33-13.09,4.08-4.78.79-10.22.62-14.35-1.98Z" fill="#969696"/>
        <path d="M66.01,38.36c-5.99,1.5-14.46,2.13-19.37-1.76-4.02-3.18-3.95-8.26-1.87-12.69,1.16-2.48,2.69-4.69,4.54-6.74,3.97-4.38,8.69-7.97,13.87-10.84C69.99,2.56,77.98-.12,85.81,0c4.09.06,8.63,1.28,11.03,4.71,3.95,5.65-.53,13.57-4.66,18.19l-3.39,3.46c-6.49,5.77-14.27,9.87-22.77,11.99ZM66.64,22.6l2.51-1.31,2.63,3.2c1.14,1.38,2.44,2.54,3.98,3.46,1.68,1,3.58,1.46,5.49,1.12,1.72-.31,3.11-1.44,3.55-3.2-.55.2-.77.63-1.13.95-1.31,1.18-3.07,1.43-4.7.7-3.28-1.44-5.7-4.76-8.03-7.57,1.82-1.54,3.41-3.2,4.73-5.15,1.8-2.65,3.55-6.57,2.3-9.53-.67-1.59-2.21-2.28-3.86-1.84-3.13.84-6,4.7-7.73,7.47l-.72-1.71c-.2-.46-.7-.46-1.1-.23-.47.27-.6.67-.37,1.17.39.87.75,1.74.98,2.71l-.76,1.45c-1.26-.5-2.51-.64-3.81-.38-2.29.46-3.96,2.3-4.13,4.64,0,2.7,1.82,4.55,4.52,4.94-.45,1.99-.92,4.82.21,6.38.3.42.74.67,1.18.69,2.43.11,3.81-5.5,4.25-7.95Z" fill="#606060"/>
        <path d="M70.06,18.85c-.93-1.08-1.82-2.15-2.97-3.01l-.26-2.82c1.49-2.62,4.49-6.77,7.26-7.58.88-.25,1.7.09,2.06.93.72,1.67.02,3.83-.76,5.55-1.28,2.62-3.03,4.9-5.34,6.92Z" fill="#606060"/>
        <path d="M61.42,21.99c-2.22-.42-3.7-2.1-3.16-4.17.26-.99.97-1.9,2.05-2.27s2.3-.26,3.41.3c-.92,1.99-1.63,4-2.29,6.13Z" fill="#606060"/>
        <path d="M63.85,26.97c-.3.74-.78,1.68-1.25,1.6-.11-.02-.24-.13-.3-.3-.19-.61-.2-1.24-.17-1.89.05-.98.24-1.88.48-2.85.79-.03,1.51-.17,2.34-.38-.28,1.35-.63,2.58-1.1,3.82Z" fill="#606060"/>
        <path d="M65.22,21.67c-.74.23-1.41.36-2.17.38.57-1.87,1.2-3.62,2.01-5.36.26.04.47.23.56.49l-.4,4.49Z" fill="#606060"/>
        <polygon points="68.27 20.16 66.83 21.02 67.01 18.61 68.27 20.16" fill="#606060"/>
      </g>
    </g>
  </g>
</svg>