<?xml version="1.0" encoding="UTF-8"?>
<svg id="Layer_2" data-name="Layer 2" xmlns="http://www.w3.org/2000/svg" viewBox="0 0 318.16 52.71">
  <g id="Layer_1-2" data-name="Layer 1">
    <g>
      <g>
        <path d="M179.69,32.11c-1.72-.49-3-1.48-4.33-2.4-.42-.29-.42-.44-.73-.8-3.62-4.16-4.03-10.28-.88-14.84,1.93-2.78,4.93-4.48,8.03-4.76,3.61-.33,6.86.96,9.37,3.56l.02-9.47c0-.38.12-.77.3-.94.35-.33,1.92-.31,2.33-.09.25.14.42.57.42,1.04l-.04,18.11c0,2.81-1.18,5.41-3.01,7.46-2.81,3.13-7.35,4.31-11.49,3.12ZM191.34,20.93c0-4.64-3.76-8.4-8.4-8.4s-8.4,3.76-8.4,8.4,3.76,8.4,8.4,8.4,8.4-3.76,8.4-8.4Z" fill="#969696"/>
        <path d="M143.77,29.18c-1.37,1.31-2.93,2.49-4.9,3-2.62.69-5.66.6-8.02-.66-5.77-3.08-7.87-9.9-5.24-15.64,2.16-4.73,7.12-7.38,12.2-6.44,4.88.91,8.83,4.94,9.04,10.19l.03,11.79c0,.9-2.1.92-2.57.63-.23-.14-.41-.56-.43-.98l-.1-1.89ZM140.98,27.51c3.42-3.01,3.99-8.1,1.41-11.75-2.78-3.92-8.2-4.55-11.83-1.4-3.98,3.45-3.99,9.74,0,13.18,3.02,2.6,7.35,2.66,10.41-.03Z" fill="#969696"/>
        <path d="M165.98,18.19c-.02-2.32-1.49-4.29-3.44-5.21-1.97-.93-4.16-.75-6.03.44-1.52.97-2.89,2.78-2.9,4.91l-.09,13.09c0,.76-.88.79-1.47.79s-1.49,0-1.49-.78v-13.14c0-4.51,3.45-8.09,7.77-8.86,5.6-.99,10.68,3.27,10.68,8.5v13.65c0,.77-2.42.68-2.58.52-.13-.13-.34-.38-.35-.7l-.1-13.2Z" fill="#969696"/>
      </g>
      <g>
        <path d="M93.1,47.82c0,2.7-2.19,4.9-4.9,4.9s-4.9-2.19-4.9-4.9,2.19-4.9,4.9-4.9,4.9,2.19,4.9,4.9ZM91.47,47.77c-.03-2.07-1.58-3.53-3.43-3.43s-3.09,1.64-3.07,3.52,1.38,3.45,3.27,3.45,3.27-1.49,3.24-3.54Z" fill="#606060"/>
        <path d="M126.96,50.22l-4.1-.06-.95,2.27c-.55.05-1.01.08-1.58-.01l3.77-9.17c.55-.11.99-.13,1.48-.01l3.81,9.18c-.62.13-1.14.09-1.69-.04l-.75-2.15ZM126.29,48.8l-1.44-3.67-1.49,3.68h2.93Z" fill="#606060"/>
        <path d="M234.86,48.26h-4.14s0,2.85,0,2.85h4.65s0,1.38,0,1.38l-6.06-.02v-9.28s5.87-.02,5.87-.02v1.3s-4.43.04-4.43.04l-.03,2.41h4.12c.08.41.11.72.02,1.34Z" fill="#606060"/>
        <path d="M213.69,50.59c1.43,1.19,3.45.87,4.33-.67.51.21.82.5,1.22.87-.67,1.27-2.03,1.83-3.46,1.89-2.78.12-4.78-1.89-4.87-4.63-.1-2.92,2.06-5.2,5.04-5.08,1.25.05,2.43.54,3.14,1.62l-1.31.95c-.7-1.25-2.22-1.54-3.49-.86-1.01.55-1.61,1.61-1.73,2.57-.16,1.25.13,2.5,1.13,3.34Z" fill="#606060"/>
        <path d="M105.51,50.39c1.34,1.45,3.53,1.17,4.52-.37.56.1.87.39,1.3.77-.72,1.27-2.07,1.85-3.53,1.89-2.75.07-4.77-1.91-4.87-4.62-.1-2.86,1.96-5.11,4.86-5.09,1.33,0,2.64.46,3.36,1.61-.42.4-.77.68-1.24.87-1-1.34-2.77-1.51-4.08-.43-1.52,1.26-1.74,3.83-.32,5.38Z" fill="#606060"/>
        <path d="M251.18,50.88c-.54,1.87-3.55,2.33-5.43,1.17l-.73-.76c.32-.41.66-.68,1.15-1.04.68.92,1.81,1.38,2.85.9.49-.23.76-.67.78-1.1.04-.55-.27-1.02-.83-1.23l-1.83-.68c-1.19-.45-1.83-1.47-1.76-2.65s.93-2.18,2.22-2.43,2.81-.03,3.64,1.12c-.48.45-.83.76-1.03,1.2-.63-1.15-2.05-1.41-2.98-.61-.35.3-.39.79-.27,1.18.34,1.1,2.44,1.04,3.69,2.16.76.68.84,1.71.53,2.77Z" fill="#606060"/>
        <path d="M184.35,48.43v4.04s-1.49-.02-1.49-.02v-9.28s3.64.02,3.64.02c1.53.01,2.56,1.06,2.59,2.47s-.84,2.68-2.35,2.71l-2.38.05ZM186.45,47.06c.75-.16,1.1-.78,1.06-1.37s-.49-1.16-1.18-1.17l-1.99-.03v2.64c.67.11,1.35.1,2.11-.06Z" fill="#606060"/>
        <path d="M171.1,52.32c-1.67.75-3.59.35-4.73-1.02.28-.47.67-.76,1.18-1.05.71,1.13,2.15,1.45,3.15.62.34-.28.42-.78.37-1.14s-.32-.72-.74-.88l-1.63-.62c-1.26-.48-2.06-1.31-2.04-2.56s.77-2.22,2.05-2.56,2.85-.13,3.71.93c-.06.45-.63.91-1.07,1.02-.84-.91-2.14-1.07-2.94-.13-.27.32-.26.84-.06,1.2.74,1.33,4.67.79,4.3,4.08-.09.82-.56,1.67-1.53,2.11Z" fill="#606060"/>
        <path d="M73.97,51.08c.18.47.17.9.05,1.4h-5.47s0-9.3,0-9.3l1.5-.02v7.92s3.92,0,3.92,0Z" fill="#606060"/>
        <path d="M144.56,51.09c.14.47.13.88.03,1.39l-5.41.02v-9.23c.55-.17.96-.17,1.51,0v7.81s3.87,0,3.87,0Z" fill="#606060"/>
        <rect x="195.25" y="47.05" width="9.35" height="1.56" transform="translate(151.27 247.56) rotate(-89.76)" fill="#606060"/>
        <path d="M287.22,32.12c-5.5-1.57-8.64-7.26-7.87-12.84.44-3.23,2.36-6.46,5.42-8.31,4.52-2.74,10.11-2.03,13.92,1.94l.09-9.48c0-.78.62-1.02,1.35-.99.41.02,1.45-.09,1.62.52l-.02,19.05c0,1.91-.73,3.59-1.68,5.21-2.56,4.37-7.86,6.32-12.82,4.89ZM298.93,20.95c0-4.63-3.75-8.37-8.37-8.37s-8.37,3.75-8.37,8.37,3.75,8.37,8.37,8.37,8.37-3.75,8.37-8.37Z" fill="#606060"/>
        <path d="M229.31,31.32c0,1.01-2.36,1.24-3.1.29v-15.38s-13.61.02-13.61.02l.02,14.63c.04.5-.14.86-.42,1.11-.35.31-2.34.4-2.68-.4l-.04-28.7c0-.93,1.1-.94,2.47-.82.41.12.65.5.65.96v10.19s13.6-.03,13.6-.03l.1-10.72c0-.53,1.37-.49,1.61-.38.5-.1.75-.05,1,.08.22.11.42.45.42.89l-.02,28.26Z" fill="#606060"/>
        <path d="M251.76,31.46l-.11-2.36c-4.16,4.55-11.44,4.62-15.75.53-5-4.74-4.79-12.98.39-17.56,3.29-2.91,7.94-3.54,11.98-1.71,3.65,1.66,6.43,5.32,6.44,9.66v11.41c0,.99-2.89,1.11-2.95.03ZM251.95,20.97c0-4.63-3.76-8.39-8.39-8.39s-8.39,3.76-8.39,8.39,3.76,8.39,8.39,8.39,8.39-3.76,8.39-8.39Z" fill="#606060"/>
        <path d="M273.7,18.27c-.01-2.12-1.3-3.92-2.7-4.82-1.88-1.21-4.01-1.32-5.92-.43-2.12.99-3.63,3.07-3.64,5.46l-.08,12.94c0,1.08-2.93.98-2.93.13l-.04-13.07c-.01-4.4,3.03-7.97,7.29-8.9,2.74-.6,5.55.03,7.77,1.8,2.01,1.6,3.28,4.18,3.28,6.96l.02,12.9c0,.52-.36.93-.89.93h-1.86c-.25-.48-.24-.95-.24-1.49l-.07-12.42Z" fill="#606060"/>
        <path d="M311.85,32.62c-6.24.42-8.47-5.97-7.5-7.14.39-.46,2.02-.5,2.55-.17.61.38.45,3.36,3.22,4.13,1.61.45,3.28.02,4.21-1.3.67-.94.84-2.07.5-3.24-.25-.87-1.12-1.76-2.18-2.19l-4.19-1.69c-2.18-.88-3.47-2.85-3.47-5.21,0-3.48,2.53-6.11,6.01-6.39,5.28-.42,7.64,4.8,6.59,5.82-.37.35-2,.42-2.85.04-.33-1.97-2.03-3.21-3.9-2.8-1.88.41-3.13,2.24-2.43,4.2.26.73.93,1.3,1.63,1.59l4.31,1.78c2.38.98,3.74,3.13,3.81,5.66.11,3.68-2.5,6.64-6.31,6.89Z" fill="#606060"/>
        <path d="M77.61,31.26c-2.87-1.77-4.86-4.04-5.73-7.2-1.26-4.54,0-9.41,3.54-12.53,4.69-4.13,11.74-3.77,16.04,1.01l.18-10.78c0-.59,1.25-.65,1.59-.5.43-.1.77.01.98.15s.45.47.44.89l-.13,19.42c-.03,4.68-3.46,8.61-7.74,10.07-3.08,1.06-6.3.81-9.17-.52ZM91.65,20.57c0-4.77-3.87-8.65-8.65-8.65s-8.65,3.87-8.65,8.65,3.87,8.65,8.65,8.65,8.65-3.87,8.65-8.65Z" fill="#606060"/>
        <path d="M41.25,23.6c1.11-.33,2.54-.31,2.95.18.22.26.25.65.09,1.02-1.49,3.5-4.57,6.3-8.23,7.19-4.1,1-8.28.01-11.28-2.85-2.91-2.78-4.25-6.83-3.53-10.92.64-3.57,2.92-6.58,5.68-8.15,3.58-2.04,7.49-2.09,10.98-.52,3.89,1.75,6.48,5.29,6.94,9.5.06.59-.15,1.27-.82,1.27l-19.8.03c-.11,2.53.88,4.68,2.61,6.44,2.15,2.18,5.2,3.04,8.35,2.27,2.58-.63,5.1-2.56,6.08-5.45ZM41.22,17.44c-1.27-3.76-4.58-5.86-8.23-5.92-3.76-.02-7.14,2.21-8.37,5.94l16.6-.02Z" fill="#606060"/>
        <path d="M66.46,23.73c.6-.47,2.35-.37,2.72-.12,1.08.72-1.35,4.42-3.2,5.94-3.75,3.09-9.1,3.75-13.41,1.43-6.52-3.51-8.27-12.02-3.78-17.96,3-3.97,8.17-5.51,13.01-3.94,4.34,1.41,7.73,5.34,8.16,10.18.05.58-.31,1.07-.93,1.07h-19.55c-.1,4.26,2.85,8.01,6.94,8.83,4.25.86,8.42-1.42,10.04-5.44ZM66.36,17.4c-1.74-4.76-6.6-6.86-11.05-5.42-2.6.88-4.6,2.89-5.37,5.5l16.42-.08Z" fill="#606060"/>
        <path d="M16.72,29.42c-3.78,3.9-10.04,3.75-13.91.2-2.4-2.2-3.64-5.91-2.19-6.12.68-.1,1.49-.18,2.15.03.55.17.59.89.75,1.35.71,2.15,2.6,3.56,4.52,4.05,2.31.59,4.65,0,6.28-1.64s2.15-4.38,1.16-6.56c-.72-1.59-2.13-2.59-3.71-3.17l-5.3-1.93c-2.08-.75-3.86-2.11-4.79-4.17C-.16,7.38,1.73,2.66,5.83.84c3.33-1.48,7.23-.99,10.02,1.39,2.25,1.92,3.15,5.51,1.88,5.49l-2.35-.05-.76-1.89c-.97-1.63-2.71-2.5-4.45-2.59-1.93-.1-3.79.63-4.94,2.21-.87,1.21-1.19,2.64-.73,4.17,1.44,4.81,10.5,3.5,13.56,8.81,2,3.47,1.59,8.01-1.34,11.03Z" fill="#606060"/>
        <path d="M107.44,31.96c-2.61,1.03-5.33.74-7.58-.85-1.93-1.36-3.55-4.81-2.45-5.81.36-.32,2.64-.45,2.78.35.25,1.47,1.02,2.75,2.18,3.37,1.42.75,3.03.73,4.3-.19,1.08-.79,1.64-2.03,1.52-3.35-.11-1.2-.93-2.4-2.21-2.92l-4.73-1.93c-1.71-.7-2.92-2.1-3.31-3.89-.8-3.73,1.54-7.12,5.27-7.82,3.57-.67,7.09,1.38,7.85,4.99.27,1.28-1.33,1.23-3.24.91-.22-1.82-1.65-3.06-3.48-2.96-1.16.07-2.09.6-2.68,1.42-.64.88-.82,2.07-.33,3.09.42.88,1.3,1.43,2.18,1.8l4.06,1.68c3.23,1.34,4.55,4.75,3.59,7.95-.49,1.63-1.74,3.38-3.74,4.17Z" fill="#606060"/>
      </g>
    </g>
  </g>
</svg>