<?xml version="1.0" encoding="UTF-8"?>
<svg id="Layer_2" data-name="Layer 2" xmlns="http://www.w3.org/2000/svg" viewBox="0 0 114.11 60.02">
  <g id="Layer_1-2" data-name="Layer 1">
    <g>
      <path d="M113.73,1.42l.18,1.13.04,16.46c-.49.27-.81-.25-1.27-.35-7.31-1.54-14.79-1.09-22.06,1.13l2.37-3.27c.16-.22.12-.42.12-.61.03-1.36-3.56,2.77-4.68,4.32-1.31.35-3.08.59-3.24-.05-.21-.84,1.65-1.84,3.58-1.77-1.28-.81-2.97-.07-3.82.93-.35.41-.45.92-.25,1.36.15.31.57.6,1.02.61l1.96.05c-1.07,1.71-2.09,3.24-2.63,5.1-.27,1.05-.25,2.16.55,2.9,1.2.2,2.33-.27,3.26-.9.54-.17,1.17-.46,1.32-1.15l-1.59.85c-.57.3-1.84.67-2.39,0s-.2-2.14.29-2.86l2.85-4.24,8.96-1.27c3.97-.56,7.76-.56,11.68.22l3.95.76c-.06.08-.03.25-.03.33v.28s0,27.4,0,27.4c.09.89-.15,1.53-.55,2.2-.27,0-.39.37-.57.46-.47.25-.95.4-1.61.4H2.44c-1.24,0-2.42-1.04-2.43-2.27L0,2.53C0,1.1,1.04,0,2.53,0h109.15c1,0,1.57.83,2.06,1.42ZM63.97,13.59l6.43-8.99c-1.5-.27-3.01.05-4.34.7-3.08,1.49-3.21,5.25-2.08,8.3ZM63.79,13.67l-6.14-4.31-3.1-2.26c-.1,1.54.14,2.88.71,4.19,1.43,3.31,5.08,3.52,8.53,2.38ZM73.11,20.38c.17-1.72-.16-3.2-.88-4.56-1.55-2.95-5.12-3.01-8.31-1.94l9.18,6.5ZM57.42,23.13c1.16.29,2.05,0,3.04-.22,2.57-.57,4.33-2.83,4.11-5.47-.1-1.23-.1-2.36-.86-3.52l-2.68,3.33-3.12,4.52c-.29.42-.63.85-.48,1.37ZM7.26,28.69c1.81,1.09,4.22,1.05,5.9-.02,1.6-1.02,2.32-2.67,1.71-4.44-1.09-3.18-3.74-4.12-4.1-6.69,1.94-.96,5.62-.61,5.9.67.1.45-.14.81-.33,1.25.75-.16,1.11-.71,1.12-1.32.01-.53-.23-1.28-.83-1.68-2.31-1.54-6.66-.52-7.09,1.45-.17.77-.03,1.52.41,2.09l3.39,4.35c.59.76.68,1.9.17,2.74-.95,1.56-4.53,1.43-5.96-.01-.4-.4-.59-1.05-.44-1.49.17-.49.74-.89,1.31-.88l2.24.05c-1.26-1.3-3.49-1.09-4.47.44-.77,1.2-.18,2.72,1.08,3.48ZM51.79,29.36c2.52.41,5.1-.28,7.42-1.41-.9-.54-1.82-.08-2.66.05-2.82.44-6.18.13-7.51-2.5-.7-1.38-.25-3.4.8-4.63,2.89.12,5.74-.5,7.7-2.54.46-.47.89-1.45.34-1.87-2.25-1.72-6.38,1.15-8.52,3.27l-2.54-.8c-2.07-.26-4.49,1.67-3.77,3.22.13.29.44.71.98.52-.24-.34-.87-.78-.64-1.32.5-1.19,2.11-2.07,3.31-1.6l2.17.85c-.66,1.11-1.21,2.21-1.33,3.55-.22,2.58,1.55,4.75,4.25,5.19ZM33.18,19.46c.27-.25.15-.81-.03-.91-.82-.47-2.1.96-2.02,2.85l2.05-1.94ZM22.21,27.03c-.98.29-2.05.31-2.97.8-.37.2-1.3.95-.86,1.34.74.65,2.25.13,2.99-.43.93-.72,1.7-.98,2.85-1.08.16-.01.1-.57-.17-.43-.12.06-.35.12-.67.01,1.05-1.05,2.57-2.73,1.71-3.78-.74-.9-2.44-.11-3.8.74l2.17-3.49c.09-.14.06-.38-.03-.43s-.41-.06-.5.04c-1.55,1.91-3.38,3.42-5.18,5.08-.88.82-1.89,1.45-2.58,2.54,1.59-.31,2.36-1.72,3.72-2.42-1.66,2.3-3.26,4.43-4.63,6.82-4.1,7.15-1.53,7.24-.03,3.86,2-4.5,4.49-10.82,9.46-12.15.27-.07.57.03.68.14.53.53-.94,2.47-2.16,2.83ZM79.23,39.79c-.35,1.7-.1,3.54.75,5.07,1.31,2.35,5.13,2.42,6.63,1.55,2.96-1.73,5.3-4.22,7.42-6.88l5.22-6.57,2.42,1.27c-.4-.91-1.26-1.24-1.97-1.81l3-3.71c1.5-1.85,2.84-3.72,4.6-5.35.43-.4.66-1.02.37-1.57-.77.26-1.21.88-1.73,1.45-1.66,1.81-3.45,3.35-5.63,4.5-.34.18-.65.31-1.1.14.74-2.24,2.1-3.11,2.05-3.03.06-.11,0-.32-.09-.36-.48-.27-3.47,2.76-2.98,4.48.84.52,1.71.39,2.75-.02l-2.14,2.85c-1.66-.75-3.23-1.5-5.01-1.83-6.85-1.28-14.23,2.82-14.58,9.83ZM71.53,27.97c.22.64.27,1.09.72,1.24,1.43.45,3.19-.46,3.57-1.9-.89.25-1.35.96-2.11,1.04-.6.06-.9-.44-.98-.84-.09-.52.03-.88.41-1.25,1.22-1.23,2.37-3.4,1.65-3.73-.98-.45-2.37,2.46-3.17,3.78-.39.65-1.17,1-1.91,1.46-.23-1.88,1.6-3.33,1.7-4.79-2.08,1.45-2.94,3.88-2.98,6.23.6.29,1.06.08,1.51-.21l1.58-1.02ZM76.51,24.64c-.24.28-.5.5-.4.84.35-.12.39-.36.53-.47.99-.72,1.83-1.73,3.3-1.52l-3.34,4.39c-.15.2.02.84.2.96.96.63,3.49-3.73,5.48-4.91l-2.42,3.88c-.21.33-.16.93.02,1.26.62,1.09,3.56.02,4.37-1.63-1.26.12-2.24.7-3.52.47l2.27-4.23c.08-.15.11-.42.05-.52-.35-.59-1.61.45-2.58,1.42l.51-1.38c.32-.88-1.89-1.56-4.48,1.44ZM95.57,24.53c-1.23,1.6-3.13,4.53-1.64,4.8,1.31.24,2.98-.55,3.4-1.96-.97.4-1.86.85-2.83.61.88-1.96,2.19-3.4,3.8-4.61.25-.19.28-.62.15-.88l-5.11,1.59c-.38.12-.58-.05-.84.28-.23.29,1,1.22-1.5,3.54-.09.08.29.44.39.37l.44-.29c1.41-.93.75-3.48,3.73-3.44ZM30.85,27.63c-1.25.02-2.29.57-3.32.12-1.48-.65,3.51-4.17,2.54-5.06-.11-.1-.61-.16-.71,0-1.26,1.93-2.81,3.54-4.56,5.23.44.31.88.04,1.35-.06-.03.55-.04,1.13.31,1.38,1.09.8,3.01-.63,4.38-1.61ZM41.82,27.57c-1.51.28-2.62,1.27-3.94.42,2.42-.71,4.57-2.45,4.09-4.73-.03-.15-.21-.28-.57-.36-2.1,1.15-5.7,4.83-4.33,6.3.8.86,3.94-.43,4.75-1.63ZM32.43,27.8c.04-2.64,3.61-4.71,2.8-2.95.53.09.78-.33.85-.66.09-.45-.06-.87-.43-1.01-1.65-.62-5.91,4.78-3.7,5.95,1.7.91,4.33-.9,4.08-1.45-.2-.43-1.8.97-3.59.13ZM65.93,27c.97,0,1.8-.16,2.65-.42l-2.16-.2c.48-.94.22-1.99-.62-2.64-1.25-.97-3.14-.24-3.7,1.28-1.02.75-1.88,1.55-2.24,2.76-.13.37-.03.95.2,1.18,1.1,1.09,4.46-.41,5.86-1.95ZM20.41,41.93c.32.09.34,1.08.06,1.26-.44.3-1.14.19-1.56-.12-.85-.63-.88-2.32.1-2.95,1.18-.77,2.33.74,2.28-.23-.48-.55-1.3-.65-2.09-.49-.66.13-1.21.61-1.47,1.38-.34,1.01-.1,2.2.71,2.78s2.13.49,2.81-.08l-.05-2.03c-.53-.06-1.23-.17-1.66.06-.25.13.01.53.17.44.09-.05.43-.08.7,0ZM29.82,41.7c.05-1.44-.68-2.39-2.01-2.39-1.19,0-1.95.89-2.01,2.15-.06,1.37.48,2.45,1.84,2.5,1.25.04,2.13-.81,2.17-2.25ZM44.16,41.53c0-1.36-.74-2.25-2-2.23-1.17.02-1.94.86-2.03,2.07-.11,1.44.51,2.55,1.87,2.57,1.38.02,2.16-.9,2.15-2.41ZM47.23,41.9c.15,0,.12-.49-.06-.5l-.6-.02c-.27-.01-.63.07-.83-.05-.17-.1-.16-1.25.05-1.35.19-.09.74.01,1.48-.05.67-.06.09-.88-2.24-.48l-.03,4.4.63.05.02-1.95,1.57-.05ZM52.82,43.78c-.13-.69-.52-1.56-.95-2.1.55-.29.74-.7.71-1.21-.06-1.07-1.33-1.23-2.73-1.05l-.02,4.43c.18.05.38.06.62.04l.03-1.98c1.79-.23,1.09,2.53,2.34,1.87ZM54.46,41.86l1.35-.12c.12-.01.13-.38.02-.43-.45-.2-1.42.2-1.52-.23-.07-.32-.1-.83.06-1.08.23-.36,2.03.38,1.74-.63h-2.46s0,4.49,0,4.49h2.5s.02-.54.02-.54l-1.85-.02c-.05-.34-.23-1.41.13-1.44ZM57.73,43.91c.95.1,1.59-.32,1.68-1.11.16-1.48-1.54-1.38-1.92-2.1-.13-.25-.02-.61.2-.71.69-.31,1.93.64,1.49-.3-.17-.36-1.34-.58-2.04-.08-.34.25-.48.78-.31,1.34.25.85,2.63,1.25,1.77,2.1-.51.5-1.26.29-1.9-.11-.18.34-.04.63.18.76s.49.16.84.2ZM63.98,41.52c0-1.39-.74-2.25-2.04-2.22-1.21.04-1.92.9-1.99,2.14-.07,1.45.52,2.5,1.97,2.5,1.32,0,2.06-.93,2.06-2.43ZM67.86,43.77c-.18-.75-.55-1.46-.95-2.1.62-.34.77-.86.64-1.46-.09-.43-.54-.79-1.1-.8l-1.56-.02-.02,4.49h.65s0-2,0-2c1.84-.09,1.11,2.65,2.34,1.88ZM70.02,43.79l.02-3.8,1.18-.05c.18,0,.19-.19.19-.27s-.02-.28-.19-.28h-2.97c-.19,0-.23.33-.16.43.21.31,1.29-.05,1.29.22l.07,3.8c.1.09.56.08.58-.05ZM72.7,43.91c.94.1,1.61-.31,1.71-1.14.2-1.57-2.86-1.73-1.9-2.65.44-.43,1.03-.13,1.55.05.14.05.17-.45.03-.56s-.33-.2-.58-.24c-.76-.14-1.56.06-1.73.84-.39,1.72,2.48,1.68,1.86,2.77-.37.65-1.36.39-1.89,0-.25.39-.07.67.19.79.17.08.42.11.76.15ZM24.67,43.83c.09.11.64.09.59-.03l-.72-2.12c.04-.38.8-.74.5-1.36-.52-1.07-1.18-1.04-2.72-.88v4.44s.64-.02.64-.02l.02-2c1.39-.05,1.23,1.38,1.7,1.97ZM33.44,39.82l-.02,2.34c0,.74-.38,1.25-1.08,1.21-.59-.04-1.01-.43-1.02-1.13v-2.79c-.23-.06-.38-.06-.64,0l.12,3.52c.03.8,1.02.96,1.68.94s1.46-.32,1.49-1.08l.12-2.95c0-.18.05-.41-.04-.48-.12-.08-.36-.07-.45-.01-.07.04-.14.18-.14.41ZM37.83,41.32c.23-.66.1-1.44-.57-1.74-.63-.29-1.35-.25-2.04-.13l-.02,4.43c.29.05.49.03.58-.07.06-.07.1-.38.08-.48-.41-1.99,1.45-.5,1.97-2.01Z" fill="#606060"/>
      <path d="M113.96,19c0,.52.33,1.29,0,1.75l-3.95-.76c-3.92-.78-7.71-.78-11.68-.22l-8.96,1.27-2.85,4.24c-.48.72-.85,2.17-.29,2.86s1.82.31,2.39,0l.27.31c-.93.63-2.06,1.11-3.26.9-.8-.74-.81-1.85-.55-2.9.53-1.86,1.55-3.39,2.63-5.1l-1.96-.05c-.45-.01-.88-.29-1.02-.61-.2-.44-.1-.94.25-1.36.85-1,2.54-1.74,3.82-.93-1.93-.07-3.79.92-3.58,1.77.16.64,1.92.4,3.24.05,1.11-1.55,4.7-5.68,4.68-4.32,0,.18.04.39-.12.61l-2.37,3.27c7.27-2.22,14.75-2.66,22.06-1.13.46.1.78.62,1.27.35Z" fill="#eef1f3"/>
      <path d="M79.23,39.79c.35-7.02,7.73-11.12,14.58-9.83,1.77.33,3.35,1.08,5.01,1.83l2.14-2.85c-1.04.41-1.92.54-2.75.02-.49-1.73,2.5-4.76,2.98-4.48.08.05.15.25.09.36.05-.09-1.31.79-2.05,3.03.45.17.76.04,1.1-.14,2.18-1.14,3.97-2.69,5.63-4.5.52-.56.96-1.19,1.73-1.45.29.55.06,1.16-.37,1.57-1.75,1.63-3.1,3.5-4.6,5.35l-3,3.71c.71.57,1.56.9,1.97,1.81l-2.42-1.27-5.22,6.57c-2.12,2.67-4.46,5.15-7.42,6.88-1.49.87-5.31.8-6.63-1.55-.85-1.52-1.11-3.37-.75-5.07ZM101.05,28.84l-.08.08.08.08.08-.08-.08-.08ZM86.98,45.27c2.31-1.31,4.12-3.16,5.69-5.27l5.61-7.57c-3.39-1.86-7.16-2.44-10.82-1.54-4.97,1.22-8.22,5.99-7.52,10.99.24,1.71,1.08,2.9,2.41,3.58,1.51.77,3.01.59,4.63-.19Z" fill="#eef1f3"/>
      <path d="M51.79,29.36c-2.7-.44-4.47-2.61-4.25-5.19.11-1.34.66-2.44,1.33-3.55l-2.17-.85c-1.2-.47-2.8.41-3.31,1.6-.23.54.4.98.64,1.32-.54.19-.85-.23-.98-.52-.72-1.55,1.7-3.48,3.77-3.22l2.54.8c2.14-2.12,6.28-5,8.52-3.27.55.42.12,1.39-.34,1.87-1.96,2.04-4.81,2.66-7.7,2.54-1.06,1.22-1.5,3.25-.8,4.63,1.32,2.63,4.68,2.93,7.51,2.5.84-.13,1.75-.59,2.66-.05-2.32,1.13-4.9,1.82-7.42,1.41ZM57.28,17.58c-1.93-1.08-5,.66-6.59,2.29,2.4-.14,4.78-.54,6.59-2.29Z" fill="#eef1f3"/>
      <path d="M22.21,27.03c1.22-.36,2.68-2.3,2.16-2.83-.11-.12-.41-.21-.68-.14-4.97,1.33-7.47,7.65-9.46,12.15-1.5,3.38-4.07,3.29.03-3.86,1.37-2.4,2.97-4.53,4.63-6.82-1.36.7-2.13,2.11-3.72,2.42.7-1.08,1.71-1.72,2.58-2.54,1.8-1.67,3.63-3.18,5.18-5.08.09-.11.42-.1.5-.04s.12.29.03.43l-2.17,3.49c1.36-.85,3.06-1.64,3.8-.74.86,1.06-.66,2.74-1.71,3.78.32.11.55.05.67-.01.27-.14.34.42.17.43-1.15.1-1.92.36-2.85,1.08-.73.56-2.24,1.08-2.99.43-.45-.39.49-1.14.86-1.34.92-.49,1.99-.51,2.97-.8ZM20.69,28.14c-.81-.05-1.3.32-1.82.65.7-.06,1.31-.3,1.82-.65Z" fill="#eef1f3"/>
      <path d="M7.26,28.69c-1.27-.76-1.86-2.28-1.08-3.48.98-1.53,3.21-1.74,4.47-.44l-2.24-.05c-.57-.01-1.14.39-1.31.88-.15.44.04,1.09.44,1.49,1.43,1.44,5.01,1.57,5.96.01.51-.84.42-1.98-.17-2.74l-3.39-4.35c-.44-.57-.58-1.32-.41-2.09.43-1.97,4.78-2.99,7.09-1.45.6.4.84,1.15.83,1.68-.01.6-.37,1.16-1.12,1.32.18-.44.42-.81.33-1.25-.28-1.28-3.96-1.63-5.9-.67.36,2.57,3.01,3.51,4.1,6.69.61,1.77-.11,3.42-1.71,4.44-1.68,1.08-4.09,1.11-5.9.02Z" fill="#eef1f3"/>
      <path d="M57.42,23.13c-.15-.53.19-.95.48-1.37l3.12-4.52,2.68-3.33c.76,1.16.76,2.29.86,3.52.22,2.65-1.54,4.91-4.11,5.47-.98.22-1.88.51-3.04.22Z" fill="#d3d3d3"/>
      <path d="M63.79,13.67c-3.46,1.13-7.1.93-8.53-2.38-.57-1.31-.8-2.64-.71-4.19l3.1,2.26,6.14,4.31Z" fill="#d3d3d3"/>
      <path d="M63.97,13.59c-1.12-3.05-.99-6.81,2.08-8.3,1.33-.64,2.84-.97,4.34-.7l-6.43,8.99Z" fill="#d3d3d3"/>
      <path d="M73.11,20.38l-9.18-6.5c3.18-1.07,6.76-1.02,8.31,1.94.71,1.36,1.04,2.84.88,4.56Z" fill="#d3d3d3"/>
      <path d="M76.64,25.02c-.07-.12-.13-.22-.13-.37,2.59-3,4.8-2.32,4.48-1.44l-.51,1.38c.97-.97,2.24-2.01,2.58-1.42.06.1.03.37-.05.52l-2.27,4.23c1.29.23,2.27-.36,3.52-.47-.81,1.65-3.75,2.72-4.37,1.63-.19-.33-.23-.92-.02-1.26l2.42-3.88c-1.99,1.17-4.53,5.54-5.48,4.91-.19-.12-.35-.76-.2-.96l3.34-4.39c-1.47-.21-2.31.8-3.3,1.52Z" fill="#eef1f3"/>
      <path d="M71.53,27.97l-1.58,1.02c-.45.29-.91.5-1.51.21.03-2.35.89-4.78,2.98-6.23-.1,1.45-1.93,2.9-1.7,4.79.74-.45,1.52-.81,1.91-1.46.8-1.32,2.19-4.23,3.17-3.78.72.33-.43,2.51-1.65,3.73-.37.37-.5.73-.41,1.25.07.4.38.9.98.84.76-.08,1.22-.8,2.11-1.04-.37,1.44-2.14,2.35-3.57,1.9-.45-.14-.5-.6-.72-1.24Z" fill="#eef1f3"/>
      <path d="M65.93,27c-1.4,1.54-4.76,3.04-5.86,1.95-.24-.24-.33-.81-.2-1.18.37-1.21,1.22-2.02,2.24-2.76.56-1.51,2.45-2.25,3.7-1.28.84.65,1.09,1.7.62,2.64l2.16.2c-.85.27-1.68.43-2.65.42ZM65.49,26.11c.37-.26-.16-1.44-.58-1.52-.77-.14-1.92.29-2.4.97.66.75,2.13,1.14,2.97.55ZM63.82,27.16c-.95-.22-1.48-.42-1.82-1.27-.68.5-1.12,1.17-1.22,1.97,1.09.31,2.12-.1,3.04-.71Z" fill="#eef1f3"/>
      <path d="M95.57,24.53c-2.98-.04-2.32,2.51-3.73,3.44l-.44.29c-.1.07-.48-.29-.39-.37,2.5-2.32,1.27-3.25,1.5-3.54.26-.33.46-.16.84-.28l5.11-1.59c.13.26.1.69-.15.88-1.61,1.21-2.92,2.66-3.8,4.61.97.24,1.86-.2,2.83-.61-.42,1.41-2.09,2.2-3.4,1.96-1.5-.27.4-3.2,1.64-4.8Z" fill="#eef1f3"/>
      <path d="M41.82,27.57c-.8,1.2-3.95,2.49-4.75,1.63-1.37-1.47,2.23-5.16,4.33-6.3.36.08.54.21.57.36.48,2.28-1.67,4.01-4.09,4.73,1.32.85,2.43-.13,3.94-.42ZM41.1,24.87c-.34-.89-2.16.94-2.71,2.27,1.23-.43,1.97-1.32,2.71-2.27Z" fill="#eef1f3"/>
      <path d="M30.85,27.63c-1.38.98-3.29,2.41-4.38,1.61-.35-.26-.34-.83-.31-1.38-.47.1-.92.37-1.35.06,1.74-1.68,3.3-3.3,4.56-5.23.11-.16.6-.11.71,0,.97.89-4.02,4.41-2.54,5.06,1.03.45,2.07-.1,3.32-.12Z" fill="#eef1f3"/>
      <path d="M32.43,27.8c1.79.85,3.39-.56,3.59-.13.26.55-2.37,2.36-4.08,1.45-2.21-1.18,2.06-6.57,3.7-5.95.38.14.53.56.43,1.01-.07.33-.32.76-.85.66.81-1.76-2.77.31-2.8,2.95Z" fill="#eef1f3"/>
      <path d="M20.41,41.93c-.26-.07-.6-.04-.7,0-.16.09-.41-.31-.17-.44.44-.23,1.13-.12,1.66-.06l.05,2.03c-.68.57-2,.65-2.81.08s-1.05-1.77-.71-2.78c.26-.77.81-1.24,1.47-1.38.79-.16,1.61-.06,2.09.49.05.97-1.1-.54-2.28.23-.98.63-.95,2.32-.1,2.95.42.31,1.11.43,1.56.12.28-.19.26-1.17-.06-1.26Z" fill="#e5e5e5"/>
      <path d="M63.98,41.52c0,1.5-.74,2.43-2.06,2.43-1.45,0-2.04-1.05-1.97-2.5.06-1.25.77-2.11,1.99-2.14,1.3-.04,2.04.83,2.04,2.22ZM62.59,40.03c-.49-.22-1.06-.18-1.45.16-.7.61-.66,2.51.05,2.98.47.31,1.17.27,1.59-.07.73-.6.7-2.66-.18-3.07Z" fill="#e5e5e5"/>
      <path d="M44.16,41.53c.01,1.51-.77,2.43-2.15,2.41-1.36-.02-1.97-1.14-1.87-2.57.09-1.2.86-2.05,2.03-2.07,1.25-.02,1.99.87,2,2.23ZM42.89,40.1c-.49-.31-1.11-.26-1.55.08-.74.57-.66,2.53.06,2.99.41.27,1.05.27,1.48-.02.79-.53.8-2.55.01-3.05Z" fill="#eef1f3"/>
      <path d="M67.86,43.77c-1.23.77-.5-1.97-2.34-1.88v1.99s-.65,0-.65,0l.02-4.49,1.56.02c.56,0,1.01.37,1.1.8.13.6-.02,1.12-.64,1.46.4.64.77,1.35.95,2.1ZM66.77,40.22c-.33-.37-.89-.33-1.29-.29l.04,1.42c.48.07.82.01,1.12-.17.22-.13.43-.62.13-.96Z" fill="#e5e5e5"/>
      <path d="M29.82,41.7c-.05,1.45-.93,2.3-2.17,2.25-1.37-.05-1.9-1.13-1.84-2.5.06-1.26.81-2.15,2.01-2.15,1.33,0,2.06.96,2.01,2.39ZM28.55,40.1c-.48-.32-1.13-.29-1.55.07-.74.62-.68,2.57.06,3,.44.26,1.03.27,1.49-.02.75-.49.81-2.51,0-3.04Z" fill="#eef1f3"/>
      <path d="M24.67,43.83c-.47-.59-.31-2.03-1.7-1.97l-.02,2-.64.02v-4.44c1.54-.16,2.2-.19,2.72.88.3.62-.46.98-.5,1.36l.72,2.12c.04.12-.5.15-.59.03ZM23,41.34c.71.07,1.02-.05,1.24-.34s.13-.77-.18-.94c-.27-.14-.6-.19-1.1-.15-.06.45-.06.98.04,1.43Z" fill="#e5e5e5"/>
      <path d="M52.82,43.78c-1.24.65-.54-2.1-2.34-1.87l-.03,1.98c-.25.02-.44.01-.62-.04l.02-4.43c1.39-.18,2.67-.02,2.73,1.05.03.51-.17.92-.71,1.21.43.55.82,1.41.95,2.1ZM50.65,41.3c.5.2,1.01-.05,1.15-.3.17-.31.1-.74-.18-.92-.19-.12-.7-.3-1.01-.13s-.3,1.21.04,1.34Z" fill="#eef1f3"/>
      <path d="M33.44,39.82c0-.23.07-.37.14-.41.1-.06.33-.07.45.01.09.06.05.3.04.48l-.12,2.95c-.03.76-.83,1.06-1.49,1.08s-1.65-.14-1.68-.94l-.12-3.52c.26-.07.41-.07.64,0v2.79c0,.71.43,1.09,1.02,1.13.71.05,1.07-.46,1.08-1.21l.02-2.34Z" fill="#e5e5e5"/>
      <path d="M54.46,41.86c-.36.03-.18,1.1-.13,1.44l1.85.02-.02.56h-2.5s0-4.5,0-4.5h2.46c.29,1-1.5.26-1.74.63-.17.26-.13.76-.06,1.08.09.43,1.07.02,1.52.23.11.05.11.42-.02.43l-1.35.12Z" fill="#e5e5e5"/>
      <path d="M57.73,43.91c-.36-.04-.61-.06-.84-.2s-.36-.42-.18-.76c.64.4,1.39.61,1.9.11.86-.85-1.52-1.25-1.77-2.1-.17-.56-.04-1.1.31-1.34.69-.5,1.87-.28,2.04.08.44.94-.81-.01-1.49.3-.22.1-.33.46-.2.71.38.72,2.08.62,1.92,2.1-.09.79-.73,1.21-1.68,1.11Z" fill="#e5e5e5"/>
      <path d="M72.7,43.91c-.34-.04-.59-.07-.76-.15-.26-.12-.44-.41-.19-.79.53.39,1.52.65,1.89,0,.62-1.09-2.25-1.05-1.86-2.77.18-.77.98-.97,1.73-.84.25.05.43.13.58.24s.11.61-.03.56c-.52-.18-1.11-.48-1.55-.05-.96.92,2.11,1.08,1.9,2.65-.11.83-.78,1.25-1.71,1.14Z" fill="#e5e5e5"/>
      <path d="M37.83,41.32c-.52,1.51-2.39.01-1.97,2.01.02.1-.02.41-.08.48-.08.09-.29.12-.58.07l.02-4.43c.7-.12,1.42-.16,2.04.13.68.31.8,1.08.57,1.74ZM35.93,41.68c.77.04,1.09-.18,1.26-.52.18-.37.12-.9-.21-1.07s-.71-.22-1.14-.15c0,.61-.1,1.19.09,1.74Z" fill="#eef1f3"/>
      <path d="M47.23,41.9l-1.57.05-.02,1.95-.63-.05.03-4.4c2.33-.4,2.91.42,2.24.48-.75.06-1.29-.04-1.48.05-.21.1-.22,1.25-.05,1.35.2.12.56.04.83.05l.6.02c.18,0,.2.49.06.5Z" fill="#eef1f3"/>
      <path d="M70.02,43.79c-.01.13-.48.14-.58.05l-.07-3.8c0-.27-1.08.09-1.29-.22-.07-.1-.03-.43.16-.43h2.97c.18,0,.2.2.19.27s0,.26-.19.27l-1.18.05-.02,3.8Z" fill="#eef1f3"/>
      <path d="M33.18,19.46l-2.05,1.94c-.08-1.89,1.19-3.33,2.02-2.85.18.1.3.66.03.91Z" fill="#eef1f3"/>
      <path d="M88.88,28.45l-.27-.31,1.59-.85c-.15.69-.78.98-1.32,1.15Z" fill="#e5e5e5"/>
      <path d="M76.64,25.02c-.15.11-.18.35-.53.47-.1-.35.15-.56.4-.84,0,.16.06.25.13.37Z" fill="#e5e5e5"/>
      <path d="M86.98,45.27c-1.62.78-3.12.96-4.63.19-1.33-.68-2.17-1.87-2.41-3.58-.7-5,2.55-9.77,7.52-10.99,3.65-.9,7.43-.32,10.82,1.54l-5.61,7.57c-1.57,2.11-3.38,3.96-5.69,5.27Z" fill="#606060"/>
      <rect x="101" y="28.86" width=".11" height=".11" transform="translate(9.15 79.93) rotate(-45)" fill="#606060"/>
      <path d="M57.28,17.58c-1.8,1.75-4.18,2.14-6.59,2.29,1.59-1.63,4.66-3.37,6.59-2.29Z" fill="#606060"/>
      <path d="M20.69,28.14c-.51.35-1.12.59-1.82.65.52-.33,1.01-.7,1.82-.65Z" fill="#606060"/>
      <path d="M65.49,26.11c-.84.59-2.31.2-2.97-.55.47-.68,1.62-1.11,2.4-.97.41.08.95,1.25.58,1.52Z" fill="#606060"/>
      <path d="M63.82,27.16c-.92.61-1.95,1.02-3.04.71.1-.8.54-1.47,1.22-1.97.35.85.88,1.05,1.82,1.27Z" fill="#606060"/>
      <path d="M41.1,24.87c-.73.95-1.47,1.84-2.71,2.27.55-1.33,2.37-3.16,2.71-2.27Z" fill="#606060"/>
      <path d="M62.59,40.03c.88.4.92,2.47.18,3.07-.41.34-1.12.38-1.59.07-.71-.47-.75-2.37-.05-2.98.39-.34.97-.38,1.45-.16Z" fill="#606060"/>
      <path d="M42.89,40.1c.79.5.78,2.52-.01,3.05-.44.29-1.07.29-1.48.02-.71-.46-.8-2.42-.06-2.99.44-.34,1.06-.39,1.55-.08Z" fill="#606060"/>
      <path d="M66.77,40.22c.3.33.08.82-.13.96-.29.18-.64.24-1.12.17l-.04-1.42c.4-.04.96-.07,1.29.29Z" fill="#606060"/>
      <path d="M28.55,40.1c.81.53.75,2.55,0,3.04-.46.3-1.05.28-1.49.02-.74-.43-.79-2.38-.06-3,.43-.36,1.07-.38,1.55-.07Z" fill="#606060"/>
      <path d="M23,41.34c-.1-.45-.1-.98-.04-1.43.5-.04.83,0,1.1.15.31.17.4.65.18.94s-.54.42-1.24.34Z" fill="#606060"/>
      <path d="M50.65,41.3c-.34-.13-.36-1.17-.04-1.34s.82.01,1.01.13c.28.18.35.61.18.92-.14.25-.65.5-1.15.3Z" fill="#606060"/>
      <path d="M35.93,41.68c-.19-.54-.08-1.13-.09-1.74.43-.07.82-.01,1.14.15s.39.7.21,1.07c-.16.34-.48.55-1.26.52Z" fill="#606060"/>
      <path d="M37.65,58.86c1.31-1.67,1.1-3.84,2.23-3.08-.36,1.48-1.17,2.86-1.96,4.08-.34.1-.59.1-.89.04l-.33-2.77-1.36,2.72c-.1.2-.73.12-.94.06l-.42-4.13c-.02-.2.76-.22.78-.02l.34,2.92,1.46-2.95c.08-.16.7-.15.72.03l.37,3.11Z" fill="#606060"/>
      <path d="M66.07,55.78c.1-.23.82-.19.76.01-.4,1.54-1.75,4.72-2.85,4.09l-.3-2.78-1.39,2.84-.96-.05-.39-4.2c.27-.09.57-.08.79.04l.33,3.12,1.48-3.11c.08-.17.57-.14.72-.05l.41,3.05c.71-.9.96-1.94,1.39-2.97Z" fill="#606060"/>
      <path d="M55.21,59.53c-.49.37-1.55.77-2.06.17-.84-1-.29-3.59,1.29-4.06.52-.15,1.03-.03,1.57.4l.49-2.19c.04-.18.56-.17.73-.08l-1.18,6.04c-.03.14-.27.18-.35.16-.11-.03-.29-.08-.49-.43ZM55.69,57.7c.23-.75.08-1.17-.5-1.39-.45-.17-.9.03-1.19.56-.31.56-.79,1.92-.08,2.33.85.49,1.56-.81,1.77-1.5Z" fill="#606060"/>
      <path d="M78.37,59.88l.58-2.99c.04-.23-.08-.48-.23-.57-.15-.09-.47-.1-.69.05-1.45.98-1.13,3.03-1.52,3.53-.11.14-.74.1-.7-.08l1.2-6.03c.07-.16.63-.12.75-.04l-.4,2.3c.57-.29.9-.47,1.4-.47.4,0,1.04.3.96.87l-.51,3.45c-.31.06-.54.05-.83-.02Z" fill="#606060"/>
      <path d="M92.9,59.84c-.04.18-.46.17-.52.06l-.28-.5c-.58.67-1.81.85-2.24.05-.52-.98,0-3.39,1.39-3.8.58-.17,1.11-.09,1.61.34.26-.31.57-.43.89-.33l-.85,4.17ZM92.55,57.78c.22-.73.21-1.18-.32-1.43s-1.02-.1-1.33.49-.83,1.85-.14,2.32c.81.55,1.58-.67,1.79-1.37Z" fill="#606060"/>
      <path d="M31.36,55.85c.87.52.62,2.88-.59,3.75-.59.42-1.93.7-2.48,0-1.01-1.3-.13-3.62,1.38-3.94.7-.15,1.23-.08,1.69.19ZM30.79,56.41c-.25-.21-.72-.29-1.13-.05-.85.49-1.34,1.9-.73,2.73.34.45,1.09.25,1.36,0,.79-.73,1.03-2.23.49-2.67Z" fill="#606060"/>
      <path d="M101.68,59.15c1.39-1.05,1.08-3.07,1.45-3.46.12-.12.69-.08.66.08l-.69,3.75c-.03.17-.03.32-.12.37-.14.08-.37.08-.48.01-.12-.08-.11-.32-.16-.58-.56.69-1.68.9-2.32.29-.26-1.01.35-3.7.44-3.85s.42-.19.77-.11l-.51,2.94c-.04.25.03.53.2.64.19.13.54.09.77-.09Z" fill="#606060"/>
      <path d="M85.91,56.4c-1.87,1.25-.72,4.24-2.15,3.39l.77-4.04c.03-.16.5-.17.57-.06s.16.28.22.44c.42-.38.81-.51,1.29-.55.35-.03.87.17.98.68.16.74-.35,3.13-.55,3.58-.07.16-.66.16-.68-.01l.47-2.91c.04-.27-.05-.48-.18-.58-.16-.12-.48-.1-.74.07Z" fill="#606060"/>
      <path d="M112.43,59.25l.45-.14c.12-.04.2.12.16.22-.36.93-2.2.79-2.75.26-.63-.61-.36-1.67-.13-2.4.44-1.36,1.85-2.02,3.12-1.37.38.2.45.72.39,1.07-.07.4-.37.74-.81.82l-2.04.35c-.32.05-.06.95.24,1.12.32.19.79.24,1.37.06ZM112.87,56.51c-.06-.17-.28-.34-.57-.34-.68,0-1.22.48-1.38,1.18,1.21.12,2.18-.2,1.95-.85Z" fill="#606060"/>
      <path d="M49.64,59.27l.6-.16c.11-.03.16.47-.04.57-.62.34-2.09.61-2.66-.17-.75-1.01-.15-2.76.75-3.52.69-.58,1.73-.53,2.39-.1.36.23.35.68.29.95-.08.39-.35.78-.77.86l-2.04.35c-.33.06-.12.93.14,1.11.3.21.8.24,1.33.1ZM50.08,57.03c.21-.15.14-.5.04-.61-.09-.09-.24-.23-.47-.24-.68-.04-1.28.48-1.39,1.16.66.09,1.29.07,1.82-.31Z" fill="#606060"/>
      <path d="M43.5,56.38c-1.91,1.28-.62,4.01-2.21,3.51l.72-3.87c.04-.22.14-.36.27-.38.11-.02.46-.04.47.09l.04.48c.5-.41.8-.56,1.31-.63.33-.04.89.07,1.03.57.26,1-.13,2.01-.34,3l-.14.67c-.04.18-.65.17-.7-.01l.47-2.76c.05-.31.01-.56-.17-.71-.13-.1-.48-.13-.74.04Z" fill="#606060"/>
      <path d="M20.4,56.31c-.73.27-1.51,2.24-.63,2.86.41.29,1.07.09,1.58-.35.2.22.14.48.03.68-.23.44-2.22.86-2.63-.15-.44-1.08-.02-2.51.8-3.3.71-.69,2.34-.58,2.51.14.24,1.02-.88-.16-1.65.13Z" fill="#606060"/>
      <path d="M72.76,58.55c-.06.28,0,.58.12.66.15.11.45.07.71.01.13-.03.2.34.07.51-.25.33-1.23.3-1.51.04-.17-.16-.29-.51-.23-.84l.45-2.6-.57-.07c-.08-.01-.06-.19-.03-.29.04-.15.18-.27.39-.28.7-.03.36-.95.73-1.08.12-.04.43-.07.53,0,.22.17-.14.84-.08.96.14.26.64.04,1.02.1.13.02.11.46,0,.53-.28.16-.71.07-1.13.09l-.48,2.27Z" fill="#606060"/>
      <path d="M96.64,59c.02.38.8.32.96.19.11.8-.49.78-.9.77-.59-.02-.99-.25-.89-.91l.4-2.68-.55-.14c-.07-.02-.05-.18-.04-.28.04-.35.69-.19.82-.42.16-.27,0-.79.31-.92.14-.06.41-.1.53,0,.2.17-.1.83-.04.95.13.27.88-.03,1.04.17.08.1.04.51-.09.52l-1.12.05c-.13.87-.48,1.7-.44,2.7Z" fill="#606060"/>
      <path d="M25.85,56.34c-1.96.84-.87,4.31-2.33,3.48l.77-4.22c1.41.38,2.75-.54,2.23.67-.06.14-.5,0-.68.07Z" fill="#606060"/>
      <path d="M105.59,59.81l.73-3.97c.04-.21.38-.25.5-.19.11.05.18.22.3.51.29-.43.8-.71,1.36-.52.21.07.12.48.06.65-.05.16-.44-.06-.64.04-1.49.72-1.26,2.83-1.63,3.56-.07.14-.71.07-.68-.08Z" fill="#606060"/>
      <path d="M69.04,59.83c-.03.18-.74.15-.74-.03l.76-3.99c.05-.28.78-.24.74-.04l-.76,4.06Z" fill="#606060"/>
      <path d="M69.5,54.05c.32-.14.65-.06.7.14.06.29-.04.58-.29.68-.15.06-.5.12-.6-.04-.14-.22-.09-.66.2-.78Z" fill="#606060"/>
    </g>
  </g>
</svg>