<?xml version="1.0" encoding="UTF-8"?>
<svg id="Layer_2" data-name="Layer 2" xmlns="http://www.w3.org/2000/svg" viewBox="0 0 152.88 42.79">
  <g id="Layer_1-2" data-name="Layer 1">
    <g>
      <path d="M88.99,12.73c.56-.52,1.06-1.06,1.64-1.51,2.83-2.1,6.69-2.1,9.53-.01.98.8,1.74,1.84,2.2,3.02.62,1.55.94,3.2.92,4.87.03,4.41.03,8.81.04,13.22,0,.33-.03.36-.36.36h-6.38c-.34,0-.35-.01-.35-.36,0-4.15.01-8.3-.01-12.45.03-1.07-.23-2.13-.77-3.06-.46-.75-1.23-1.25-2.1-1.37-1.98-.38-3.89.91-4.28,2.88-.04.19-.06.39-.07.58-.04,3.31-.02,6.63-.02,9.94v3.46c0,.35-.02.37-.38.37h-6.35c-.35,0-.36-.01-.36-.35V.37c0-.35.02-.37.38-.37h6.32c.37,0,.38.01.38.39,0,4.01,0,8.02,0,12.03v.31" fill="#606060"/>
      <path d="M12.34,1.15c1.76-.02,3.52.21,5.22.67.75.2,1.48.52,2.21.79.22.08.24.22.18.42-.25.87-.48,1.75-.72,2.62-.23.82-.47,1.64-.69,2.47-.07.25-.15.28-.39.17-1.31-.63-2.72-1.04-4.17-1.22-1.21-.2-2.45-.18-3.65.04-.79.14-1.53.52-2.1,1.09-.9.95-.91,2.43-.04,3.4.5.53,1.11.96,1.79,1.24,1.32.58,2.66,1.13,3.99,1.68,1.84.68,3.52,1.73,4.95,3.07.99.97,1.69,2.19,2.03,3.53.43,1.65.42,3.38-.04,5.01-.44,1.62-1.36,3.07-2.64,4.15-1.28,1.08-2.78,1.86-4.4,2.28-1.38.4-2.81.6-4.25.6-1.15-.01-2.31-.03-3.45-.13-1.34-.13-2.67-.41-3.94-.85-.62-.21-1.22-.46-1.82-.7-.46-.19-.46-.2-.35-.66.37-1.48.74-2.95,1.11-4.43.06-.23.11-.46.16-.7.04-.18.13-.23.3-.14,1.29.65,2.67,1.12,4.08,1.42.79.16,1.59.28,2.4.35.93.1,1.87.07,2.79-.1.91-.13,1.75-.54,2.4-1.19,1.1-1.22.99-3.1-.23-4.2-.75-.62-1.59-1.11-2.5-1.45-1.08-.43-2.18-.81-3.25-1.27-1.85-.72-3.51-1.83-4.89-3.25-1.05-1.09-1.74-2.48-1.97-3.98C-.05,9.09.89,6.23,2.95,4.29c1.14-1.08,2.5-1.88,4-2.35,1.74-.56,3.56-.83,5.39-.79" fill="#606060"/>
      <path d="M32.57,25.32c.06-.21.13-.41.18-.62.45-1.85.89-3.7,1.34-5.54.33-1.35.67-2.7,1.01-4.05.4-1.58.8-3.16,1.19-4.74.05-.19.16-.23.32-.23h6.9c.37,0,.4.03.28.37-.43,1.22-.87,2.44-1.3,3.66-.39,1.1-.78,2.19-1.16,3.29-.44,1.25-.89,2.5-1.34,3.76-.38,1.07-.74,2.14-1.13,3.21-.5,1.36-.98,2.74-1.53,4.08-.63,1.54-1.28,3.07-1.99,4.58-.98,2.26-2.35,4.33-4.06,6.11-1.34,1.36-2.98,2.39-4.79,3-.7.23-1.43.38-2.15.55-.36.08-.4.05-.49-.31-.27-1.05-.53-2.1-.79-3.15-.18-.72-.35-1.43-.54-2.15-.06-.24,0-.33.24-.39,1.65-.38,3.16-1.19,4.4-2.35.59-.56,1.08-1.21,1.44-1.94.2-.44.2-.95,0-1.39-.48-1.24-.99-2.47-1.48-3.7-.51-1.27-1.02-2.53-1.52-3.8l-1.55-3.85c-.53-1.32-1.06-2.63-1.58-3.95-.58-1.44-1.16-2.87-1.74-4.31-.14-.35-.28-.7-.43-1.05-.07-.18-.02-.27.18-.27h7.17c.42,0,.41,0,.52.39.45,1.47.9,2.95,1.35,4.42.37,1.22.74,2.44,1.11,3.66.32,1.04.64,2.09.94,3.14.27.96.52,1.94.77,2.91.06.22.12.43.18.65h.05" fill="#606060"/>
      <path d="M147.45,23.68h-4.71c-1.4,0-2.8-.03-4.2-.04-.34,0-.35.02-.3.35.23,1.34,1.1,2.48,2.33,3.05,1.05.53,2.21.81,3.39.82,1.3.06,2.59-.02,3.87-.23.88-.16,1.75-.41,2.61-.64.21-.06.29-.02.32.18.22,1.15.44,2.3.66,3.45.06.29.1.57.17.85.05.21-.05.3-.22.35-.72.26-1.45.49-2.19.68-1.16.26-2.33.44-3.52.56-1.11.07-2.22.08-3.32.04-1.16-.03-2.32-.22-3.43-.58-2.66-.71-4.9-2.51-6.16-4.96-.53-1.04-.9-2.16-1.09-3.32-.28-1.55-.3-3.14-.07-4.71.24-1.69.82-3.31,1.7-4.77.7-1.18,1.62-2.21,2.71-3.04,1.16-.87,2.49-1.49,3.9-1.81,1.77-.42,3.62-.45,5.4-.08,2.49.47,4.65,2.02,5.9,4.22.8,1.39,1.31,2.93,1.51,4.53.21,1.57.21,3.17-.02,4.74-.05.35-.07.36-.41.36h-4.84,0ZM138.13,18.78c.18,0,.29.02.4.02h7.19c.6,0,.61,0,.55-.6-.06-.76-.29-1.49-.67-2.15-.58-1.04-1.67-1.69-2.86-1.72-.87-.08-1.74.14-2.47.61-.91.62-1.57,1.55-1.86,2.61-.12.39-.19.79-.29,1.23" fill="#606060"/>
      <path d="M66.83,14.38V3.46q0-.4.38-.5c1.51-.41,3.02-.83,4.54-1.24.56-.15,1.12-.31,1.68-.47.32-.09.35-.08.35.26v8.22q0,.42.42.42h4.21c.36,0,.38.02.38.36v4.52c0,.33-.02.35-.37.35-1.44,0-2.88,0-4.31,0-.25,0-.34.06-.34.33,0,2.87-.01,5.75.03,8.62.02.68.13,1.35.33,1.99.19.65.77,1.11,1.45,1.12.89.1,1.78.05,2.65-.15.36-.08.36-.07.42.28.25,1.45.51,2.9.76,4.34.04.22,0,.39-.23.46-.66.23-1.34.41-2.03.56-.91.15-1.83.23-2.76.25-1.94.15-3.86-.46-5.36-1.7-.76-.69-1.31-1.58-1.6-2.57-.42-1.34-.62-2.74-.59-4.14,0-3.46,0-6.93,0-10.39h0Z" fill="#606060"/>
      <path d="M117.78,14.52V3.47q0-.41.39-.52c2.09-.58,4.18-1.15,6.26-1.73.27-.07.25.08.25.25v6.56c0,.6.01,1.2,0,1.8,0,.25.08.32.32.32,1.45,0,2.89,0,4.34,0,.38,0,.4.02.4.41v4.44c0,.37-.02.39-.39.39h-4.31c-.36,0-.36,0-.36.35,0,2.56-.02,5.11,0,7.67.01.8.08,1.6.2,2.39.04.55.33,1.05.78,1.36.38.25.83.36,1.29.33.75-.04,1.51-.12,2.26-.22.27-.04.34.06.37.29.21,1.29.43,2.59.65,3.88.03.19.07.38.12.57.05.13-.02.28-.15.33,0,0,0,0-.01,0-.65.31-1.35.52-2.07.61-.95.11-1.91.23-2.86.25-1.86.12-3.7-.45-5.17-1.59-.7-.59-1.23-1.34-1.55-2.2-.5-1.3-.76-2.69-.75-4.08-.02-3.6,0-7.19,0-10.79h0Z" fill="#606060"/>
      <path d="M50.99,12.07c.22-.25.44-.51.67-.76,1.9-2.27,4.16-4.21,6.68-5.75.8-.51,1.68-.88,2.6-1.08.24-.05.49-.07.73-.06.81.06,1.18.66,1.3,1.55.08,1.03-.03,2.06-.33,3.06-.46,1.94-.93,3.87-1.39,5.81-.43,1.83-.85,3.65-1.26,5.48-.03.16-.05.33-.05.5,0,.24.11.33.34.25.26-.1.52-.22.76-.37.7-.44,1.4-.89,2.08-1.35.19-.13.29-.15.4.08.37.74.48.55-.18,1.13-1.28,1.13-2.69,2.1-4.2,2.88-.38.2-.78.37-1.17.55-.75.45-1.73.2-2.17-.56-.23-.39-.28-.85-.15-1.28.15-1.04.43-2.07.67-3.1.31-1.34.65-2.67.97-4.01.4-1.66.8-3.32,1.19-4.99.09-.43.15-.87.16-1.31.02-.58-.26-.83-.85-.82-.57.05-1.11.26-1.55.62-1.2.87-2.26,1.93-3.14,3.12-.8,1.03-1.57,2.08-2.31,3.15-.23.33-.39.71-.48,1.1-.33,1.37-.64,2.74-.93,4.12-.19.9-.34,1.82-.53,2.72-.04.12-.12.22-.24.27-1.26.42-2.53.82-3.8,1.23-.08.03-.16.03-.29.06.03-.16.04-.28.07-.4.27-1.19.53-2.37.8-3.56.4-1.78.8-3.56,1.2-5.33.46-2.04.91-4.07,1.36-6.11.06-.28.09-.56.1-.84,0-.25-.13-.35-.36-.25-.31.14-.59.31-.86.51-.47.37-.9.79-1.35,1.18l-.24.22c-.16-.27-.3-.54-.43-.83-.03-.07.1-.23.19-.31.92-.8,1.84-1.62,2.79-2.39.81-.66,1.7-1.23,2.65-1.68.15-.07.31-.13.47-.19.44-.24.98-.07,1.22.37.08.15.12.33.1.5.03.79-.06,1.59-.27,2.35-.33,1.44-.68,2.88-1.02,4.32,0,.04-.01.08-.01.13l.07.05" fill="#606060"/>
      <path d="M114.14,21.42c0,3.62,0,7.24,0,10.86q0,.4-.39.4h-6.29c-.39,0-.4-.02-.4-.4V10.53c0-.37.02-.39.39-.39h6.32c.38,0,.38,0,.38.39v10.89" fill="#606060"/>
      <path d="M57.67,34.01c-.9.01-1.79-.19-2.6-.58-1.66-.72-3.29-1.49-4.93-2.24-.89-.46-1.84-.81-2.82-1.04-1.48-.45-3.04.39-3.49,1.87-.01.04-.02.07-.03.11-.11.35-.2.71-.28,1.07-.04.17-.11.26-.3.26-.24,0-.48,0-.71,0-.19,0-.29-.08-.29-.28-.12-1.56.26-3.11,1.08-4.44.73-1.13,1.91-1.89,3.23-2.09,1.52-.23,3.07.02,4.45.72,1.62.72,3.19,1.53,4.8,2.26.75.37,1.54.66,2.35.88,1.66.38,3.32-.64,3.72-2.29,0,0,0-.02,0-.03,0-.85.68-.97,1.29-1.16.2-.06.2.09.19.22-.05.46-.08.93-.16,1.39-.17,1.17-.61,2.29-1.27,3.28-.95,1.39-2.55,2.18-4.23,2.11" fill="#606060"/>
    </g>
  </g>
</svg>