<?xml version="1.0" encoding="UTF-8"?>
<svg id="Layer_2" data-name="Layer 2" xmlns="http://www.w3.org/2000/svg" viewBox="0 0 98.63 92.05">
  <g id="Layer_1-2" data-name="Layer 1">
    <g>
      <g>
        <path d="M34.97,81.38c-.6-.42-.14-1.83-.69-2.19-.36-.24-.88-.2-1.33-.17l.02,1.95c0,.29.91.17.9.26v.27c-.02.07-.18.05-.26.03h-3.06s-.05-.3-.05-.3c-.01-.08.92.04.92-.35v-3.85c0-.11-.06-.35-.16-.36l-.45-.05-.3-.03c-.08,0,.02-.33.06-.33h4.38c.52.1,1.03.17,1.44.49.32.25.39.65.33,1.06-.04.31-.3.72-.7.81l-1.23.28c1.86.18,1.31,2.28,1.98,2.13.12-.03.25-.24.29-.37l.1-.33c.02-.08.36,0,.37.07.01.27-.17.76-.39.92-.6.42-1.59.42-2.16.03ZM34.8,78.37c.5-.3.47-1.25-.01-1.51-.57-.31-1.21-.25-1.82-.12v1.91c.64.02,1.26.07,1.84-.28Z" fill="#606060"/>
        <path d="M40.06,79.06l.05,2.05c.46.12.88.1,1.32.05.88-.1,1.61-.62,1.79-1.54l.48-.03-.13,1.95h-5.87c-.22-.54.22-.2.81-.47v-4.33s-.76-.11-.76-.11c-.08-.01-.11-.22-.07-.33h5.72s.05,1.84.05,1.84c-.58.27-.46-.71-1.14-1.13s-1.44-.46-2.2-.27l-.02,1.86c.7.13,1.28-.18,1.34-.94l.45-.03v2.41s-.43-.02-.43-.02c-.06-.7-.66-1.12-1.38-.94Z" fill="#606060"/>
        <path d="M27.51,79.46l-.35-.03c-.08,0-.03-.28,0-.31h3.05c.06.06.05.32-.04.33l-.69.12v2.03c-.07.07-.4.1-.46,0l-.4-.62c-1.33,1.03-3.23.9-4.48-.2-.63-.56-.8-1.4-.7-2.28.23-2.05,3.13-2.97,5.12-1.95.25-.26.53-.39.83-.34l.09,1.96s-.24.12-.33.11c-.21-.03-.62-1.8-2.34-1.76-.78.02-1.37.49-1.54,1.26s-.16,1.58,0,2.32c.16.79.77,1.21,1.53,1.2.76-.01,1.3-.53,1.25-1.33,0-.11-.04-.33-.12-.39s-.3-.09-.43-.11Z" fill="#606060"/>
        <path d="M48.07,79.95h-2.27c-.17.28-.37.61-.28.93.12.42,1.13.1.84.64h-2.4s-.02-.27-.02-.27c0-.12.62-.11,1.08-.99l2.09-4.04h.67s2.56,4.87,2.56,4.87l.37.09c.07.02.08.2.06.34h-2.95c0-.09.03-.21.06-.28s.22-.08.3-.1l.25-.04c.07,0,.08-.23.05-.29l-.42-.88ZM47.84,79.51l-.88-1.81-.94,1.79h1.82Z" fill="#606060"/>
        <path d="M55.58,81.52l-3.28.02c-.2-.56.23-.2.82-.49v-4.24c0-.18-.38-.26-.53-.22-1.22.31-1.13,1.49-1.39,1.67-.07.05-.34-.04-.33-.14l.15-1.84h5.81s.12,1.95.12,1.95h-.41c-.1-.58-.29-1.04-.7-1.38-.36-.24-.77-.38-1.14-.11v4.22c.15.18.37.21.62.23l.24.02c.06,0,.04.18.01.3Z" fill="#606060"/>
        <path d="M13.43,81.53h-3.09s-.05-.29-.05-.29c-.01-.07.23-.04.3-.05l.43-.06c.11-.02.16-.31.15-.43l-.04-1.66h-2.33s.02,1.91.02,1.91c0,.29.89.17.87.32l-.02.25h-3.01c-.07,0-.23.06-.25,0l-.06-.25c-.05-.2.89.03.9-.36v-3.92c0-.09-.05-.3-.13-.31l-.37-.04-.32-.03c-.08,0-.07-.23-.05-.33h3.22c.46.61-.78.15-.79.6v1.71s2.36,0,2.36,0l-.06-1.88-.54-.07c-.07,0-.27.02-.27-.05v-.3s3.21,0,3.21,0c.55.6-.78.15-.78.63v3.98c0,.25.42.3.59.3h.27c.07,0,.06.2.04.26s-.12.07-.22.08Z" fill="#606060"/>
        <path d="M16.4,79.06l.04,2.05c.9.19,1.81.1,2.54-.45.63-.48.35-1.26,1-1.04.09.03.02.28.02.39l-.06,1.52h-5.9c-.24-.54.21-.2.8-.47v-4.03c.01-.09-.01-.33-.1-.34l-.38-.05-.32-.03c-.08,0-.07-.23-.04-.33h5.72s.07,1.75.07,1.75c0,.08-.17.19-.24.17-.47-.13-.22-1.9-3.11-1.51l-.03,1.9c.68.13,1.28-.18,1.36-.92.11-.05.32-.08.44-.06v2.38s-.43,0-.43,0c-.06-.74-.68-1.09-1.39-.94Z" fill="#606060"/>
        <path d="M4.61,81.53H1.43s-.05-.3-.05-.3c-.01-.07.23-.04.3-.05l.43-.05c.11-.01.18-.28.18-.4v-3.76c0-.08-.07-.26-.13-.31-.07-.06-.28-.09-.39-.07-1.45.2-1.05,2.04-1.77,1.61l.15-1.92h5.8s.15,1.95.15,1.95h-.43c-.11-.73-.41-1.34-1.08-1.57-.19-.11-.75-.12-.75.17v4.13c0,.41,1.28,0,.77.58Z" fill="#606060"/>
        <path d="M93.86,81.53h-5.43s-.06-.28-.06-.28c-.02-.08.8-.06.69-.28l-.46-1.01h-2.24c-.26.29-.37.59-.32,1.03l.91.23v.3s-5.9,0-5.9,0c-.24-.55.25-.18.87-.48v-4.16c0-.23-.38-.25-.53-.26h-.33c-.08-.01-.07-.26-.05-.35h3.42s0,.3,0,.3c0,.1-.9-.07-.9.3v4.16c.82.37,1.65.04,2.02-.77l2.08-4c.22-.11.51-.11.74,0l2.43,4.65c.27.26.54.31.89.23.25-.05.68-.23.68-.6v-3.44c0-.35-.92-.52-.92-.56v-.28s2.21,0,2.21,0l3.37,3.27v-2.28c-.02-.92-1.34-.35-.98-1h2.44c.45.63-.81.06-.81,1.07v4.15c-.22.18-.57.14-.76-.08l-3.97-3.85-.04,2.77c-.01,1.06,1.38.61.97,1.18ZM88.38,79.51l-.86-1.79-.96,1.79h1.82Z" fill="#606060"/>
        <path d="M73.66,81.53l-.02-.34c.4,0,.62-.01.91-.15v-4.01c0-.09-.02-.33-.11-.34l-.45-.06-.35-.04c-.08,0,.01-.28.05-.32h3.89c.88.17,1.79.3,2.38,1.04.64.8.68,2.1.12,2.98-.46.73-1.34,1.16-2.19,1.17l-4.25.06ZM78.73,79.87c.13-1.01.16-2.45-.56-2.91-.6-.38-1.33-.38-2.02-.22v4.33c.3.07.6.07.92.09.84.04,1.53-.37,1.66-1.28Z" fill="#606060"/>
        <path d="M71.9,81.58l-4.13-4.04v2.96c0,.39.39.67.74.64.12.04.27.09.28.16s-.08.24-.12.24h-2.39s0-.28,0-.28c0-.13.95-.07.94-.77v-3.34c-.02-.37-.64-.54-.92-.5l-.02-.36h2.22s3.37,3.26,3.37,3.26v-2.19c.01-1.01-1.27-.42-1.02-1.07h2.54s-.01.35-.01.35c-.23.03-.5.06-.64.17-.12.09-.26.4-.26.58v4.23s-.58-.02-.58-.02Z" fill="#606060"/>
        <path d="M65.95,81.53h-3.44c0-.14,0-.29.05-.3l.29-.04.42-.06c.11-.02.2-.27.2-.39v-3.69c0-.11-.05-.36-.15-.37l-.46-.04-.33-.05c-.07-.01,0-.26.03-.3h3.38s.03.31.03.31c.01.12-.94-.09-.95.32v3.83c-.01.1.06.32.14.36.09.06.32.08.46.09h.33c.07.01.02.22,0,.34Z" fill="#606060"/>
      </g>
      <g>
        <path d="M5.55,91.93l-1.74.02c-.08,0-.23-.11-.23-.18s.14-.17.22-.18l.26-.03c.05,0,.09-.16.09-.21l-.02-1.6h-1.46s0,1.57,0,1.57c0,.06.04.21.09.22l.24.04c.07.01.22.08.26.14.05.07-.12.22-.22.22h-1.69c-.08.01-.23-.09-.22-.17s.14-.17.22-.18l.26-.03c.07,0,.09-.21.08-.28v-3.55s-.55-.11-.55-.11v-.26s1.91,0,1.91,0c.05,0,.2.02.2.07v.17s-.15.05-.2.06l-.28.07c-.08.02-.11.22-.11.31v1.33s1.48,0,1.48,0v-1.64s-.54-.09-.54-.09v-.27s1.89,0,1.89,0c.06,0,.21.02.21.06v.17c-.01.1-.47-.02-.58.29v3.44s.08.22.08.22c.04.11.29-.05.51.17.05.05-.1.22-.17.22Z" fill="#606060"/>
        <path d="M40.8,89.71l-.02,1.64s.04.18.09.19l.23.05.27.05c.07.01,0,.29-.08.29l-1.79.02c-.12,0-.26-.1-.26-.18,0-.3.58-.03.58-.42v-3.39c0-.06,0-.22-.06-.24l-.28-.07s-.25.02-.24-.03l.06-.26h2.76c.68.11,1.12.53,1.09,1.18s-.43,1.02-1.22,1.11c1.16.33.67,1.32,1.24,1.95l.35-.8c.26.45-.04.96-.35,1.13-.36.2-.99.16-1.18-.24-.32-.65-.04-1.53-.4-1.83-.13-.11-.36-.14-.8-.16ZM41.99,89.12c.32-.35.21-.87.04-1.22-.38-.25-.79-.35-1.23-.14v1.61c.36.08.89.07,1.18-.26Z" fill="#606060"/>
        <path d="M64.09,89.74v1.62c.03.1.17.22.27.24l.3.05c.08.01,0,.29-.09.29l-1.79.02c-.11,0-.26-.11-.24-.18s.14-.17.22-.18l.32-.05c.06,0,.08-.2.09-.27v-3.23c-.02-.1-.04-.28-.11-.32-.09-.04-.31-.07-.43-.08-.07,0-.06-.19-.05-.29l2.79.02c.67,0,1.12.52,1.11,1.08,0,.7-.4,1.1-1.17,1.17,1.22.5.58,1.6,1.23,1.93l.29-.76c.29.51-.06,1.04-.45,1.18-.42.15-1.1.05-1.15-.45l-.11-1.14c-.02-.21-.16-.44-.25-.57-.27-.08-.5-.1-.78-.07ZM64.08,89.39c.45.06,1.01.03,1.24-.31.27-.39.2-.96-.07-1.24-.34-.23-.82-.3-1.16-.04v1.58Z" fill="#606060"/>
        <path d="M60.43,90.87c-.32.69-.94,1.06-1.56,1.14-.73.09-1.38-.17-1.83-.79-.73-.99-.68-2.51.2-3.43.73-.76,2.11-.74,2.82.05.73.82.83,2.05.38,3.03ZM59.41,91.07c.39-1.3.32-3.5-.82-3.49-.34,0-.66.23-.76.6-.39,1.37-.3,3.52.76,3.51.36,0,.69-.18.82-.62Z" fill="#606060"/>
        <path d="M11.53,90.76c-.34.81-1.05,1.25-1.82,1.26-.79.02-1.55-.45-1.88-1.23-.39-.93-.32-2.08.34-2.89.73-.9,2.27-.9,3,0,.64.79.74,1.93.36,2.85ZM10.41,88.09c-.12-.33-.47-.53-.77-.52-1.06.05-1.16,2.27-.75,3.54.11.34.47.58.76.59,1.1.06,1.28-2.25.77-3.61Z" fill="#606060"/>
        <path d="M90.48,91.96l-2.56-3.46-.02,2.61c0,.43.59.49.6.54l.03.28h-1.53c-.21-.5.56-.26.55-.89l-.02-3.01c0-.19-1.09-.69-.38-.68h1.19s2.09,2.83,2.09,2.83l.03-1.99c0-.3-.35-.51-.55-.52-.08,0-.1-.31-.03-.31h1.33c.08-.01.21.05.23.1.09.23-.6.19-.6.76v3.73s-.36,0-.36,0Z" fill="#606060"/>
        <path d="M46.86,89.73v1.79c.42.2.86.11,1.28-.09.32-.16.54-.6.67-1l.06-.2c.02-.06.24.03.23.09l-.08,1.62h-3.53c-.06-.02-.16-.12-.17-.18-.03-.25.45-.07.57-.32v-3.48c-.02-.07-.05-.25-.11-.26l-.38-.06c-.08-.01-.06-.25,0-.29h3.54s.02,1.55.02,1.55c0,.05-.14.14-.16.11-.25-.42-.23-.86-.69-1.16-.4-.23-.77-.28-1.21-.09l-.02,1.62c.43.11.74-.2.82-.62l.06-.21c.02-.06.22-.01.22.06v1.7s.03.2.03.2c0,.04-.14.11-.17.09-.25-.21-.11-.92-.96-.87Z" fill="#606060"/>
        <path d="M97.05,91.94l-.39-.03-2.55-3.44-.03,2.53c0,.54.55.54.67.69.04.05-.06.23-.13.23l-1.25.02c-.08,0-.21-.06-.23-.12-.08-.29.61-.26.61-.81v-3.05c-.27-.21-.41-.28-.71-.59l1.49-.04,2.11,2.84.02-1.91c0-.39-.26-.66-.67-.63v-.3s1.59,0,1.59,0v.28c-.35.05-.54.3-.55.62v3.68Z" fill="#606060"/>
        <path d="M20.68,89.72v1.82c.92.32,1.8-.2,1.97-1.14.01-.07.08-.18.13-.21s.18.11.18.18l-.08,1.56h-3.67s0-.3,0-.3c0-.07.49.09.54-.28v-3.53c-.15-.11-.31-.15-.54-.2v-.26s3.54,0,3.54,0l.07,1.54s-.15.14-.17.11c-.24-.31-.21-.82-.69-1.16-.44-.19-.84-.31-1.26-.1l-.02,1.6c.19.02.44,0,.6-.12.13-.09.22-.35.27-.54l.04-.16s.15-.03.23-.02v2.04s-.19,0-.19,0c-.13,0-.08-.91-.95-.86Z" fill="#606060"/>
        <path d="M54.09,91.66c-.63.59-1.58.42-2.17-.04-.18.22-.26.32-.53.42l-.07-1.85.29.02c.19.66.59,1.26,1.21,1.48.48.12.93-.08,1.04-.47.33-1.19-1.38-.81-2.19-1.61-.55-.53-.46-1.54.11-2.03s1.39-.4,1.93,0l.52-.36.1,1.62c0,.06-.21.13-.24.09l-.11-.21c-.26-.53-.58-1.08-1.18-1.15-.41-.04-.74.17-.84.55-.2.82,1.37.82,1.99,1.25.7.48.77,1.71.13,2.31Z" fill="#606060"/>
        <path d="M77.2,91.64c-.63.62-1.55.44-2.17,0-.17.18-.31.3-.53.41l-.1-1.85c.07-.01.26-.04.29.02l.13.3c.27.63.7,1.19,1.41,1.2.42,0,.73-.3.77-.66.12-1-1.36-.68-2.2-1.42-.59-.52-.48-1.43-.02-1.96.51-.58,1.45-.55,2.07-.09.14-.2.28-.35.51-.3l.04,1.69c-.54-.16-.5-1.37-1.53-1.42-.37-.02-.68.14-.77.46-.11.36.09.67.47.8l1.43.49c.76.46.84,1.71.21,2.33Z" fill="#606060"/>
        <path d="M33.31,91.78c-.66.46-1.46.26-2.01-.17-.17.24-.3.39-.54.41l-.04-1.83c.12,0,.24.02.27.07l.1.25c.25.62.66,1.15,1.32,1.21.48.04.81-.23.86-.65.16-1.34-2.85-.45-2.57-2.63.06-.44.32-.89.8-1.08.52-.21,1.12-.1,1.61.19l.51-.33.09,1.71c-.09.01-.23.02-.26-.03l-.11-.23c-.25-.52-.56-1.04-1.14-1.11-.4-.05-.73.12-.84.47-.11.37.1.67.51.81l1.39.46c.84.51.86,1.92.04,2.49Z" fill="#606060"/>
        <path d="M71.53,91.92l-1.84.02-.23-.11c-.06-.03.02-.24.08-.25l.33-.02c.08,0,.13-.22.13-.31l-.03-3.5c0-.19-.55-.09-.67.06-.24.31-.4.75-.46,1.15-.01.07-.25.08-.24,0l.07-1.6h3.62s.09,1.58.09,1.58c0,.05-.16.15-.18.12-.2-.25-.27-1.72-1.22-1.32v3.83s.43.04.43.04c.08,0,.11.13.11.33Z" fill="#606060"/>
        <path d="M16.54,91.92l-1.88.02c-.08,0-.23-.1-.22-.18s.15-.18.22-.18c.08,0,.24,0,.26-.04l.1-.28-.02-3.39-.1-.21c-.07-.15-.68-.17-1.03,1.2l-.05.21s-.11,0-.14-.03-.08-.12-.08-.17l.08-1.53h3.64s.05,1.67.05,1.67c0,.04-.15.07-.17.04-.11-.17-.39-1.74-1.1-1.4-.07.04-.14.2-.14.3v3.38c0,.11.19.26.28.26h.22c.05,0,.06.12.07.32Z" fill="#606060"/>
        <path d="M28.65,90.3l-.09,1.63h-3.58s-.09-.24-.09-.24c-.05-.14.5,0,.59-.33l-.02-3.63-.49-.1c-.07-.01-.06-.17-.05-.28h1.97s.15.05.18.08.06.14.02.15l-.27.06-.28.06c-.06.01-.11.18-.11.25v3.51c.44.2.88.16,1.29-.08.29-.17.52-.58.62-.97l.05-.21c.02-.06.25.03.25.1Z" fill="#606060"/>
        <path d="M85.14,91.93h-2.07s-.07-.24-.07-.24c-.04-.16.5,0,.61-.26v-3.55c-.22-.43-.79,0-.57-.52h2.05s.08.2.08.2c.03.07-.17.1-.24.1l-.26.02s-.09.16-.09.21v3.71s.51,0,.51,0c.09,0,.07.26.04.34Z" fill="#606060"/>
        <path d="M80.18,92.01c-.31,0-.45-.31-.46-.56s.1-.55.38-.6c.34-.07.58.22.6.46.04.35-.08.71-.52.7Z" fill="#606060"/>
        <path d="M36.53,92c-.37,0-.52-.33-.51-.61s.19-.57.54-.54c.3.02.44.29.45.55s-.14.6-.48.6Z" fill="#606060"/>
      </g>
      <g>
        <path d="M27.41,70.81h-6.99c-.03-.07-.05-.29-.02-.38s.33-.01.45-.06c.86-.36,1.43-1.34,1.43-2.37v-25.78s-6.36,0-6.36,0c-1.55.36-2.57,1.64-2.65,3.25-.11.05-.39.05-.48,0v-1.78s.01-3.15.01-3.15h22.38s0,4.92,0,4.92c-.16.05-.35.05-.5,0-.04-1.63-1.14-2.94-2.72-3.24h-6.38s0,25.89,0,25.89c0,.81.87,2.52,1.84,2.27l-.02.44Z" fill="#606060"/>
        <path d="M90.54,44.32c0,2.16-1.75,3.92-3.92,3.92s-3.92-1.75-3.92-3.92,1.75-3.92,3.92-3.92,3.92,1.75,3.92,3.92ZM89.8,44.32c0-1.75-1.42-3.17-3.17-3.17s-3.17,1.42-3.17,3.17,1.42,3.17,3.17,3.17,3.17-1.42,3.17-3.17Z" fill="#606060"/>
        <path d="M87.42,46.38l-.68-1.21c-.21-.37-.65-.48-1.07-.4v1.61s-.83,0-.83,0v-4.13s2.2,0,2.2,0c.66,0,1.09.45,1.16,1.02.08.62-.33,1.15-1.02,1.27.56.52.88,1.15,1.26,1.83h-1.03ZM86.85,43.99c.36-.01.5-.3.48-.57-.02-.19-.24-.41-.5-.42l-1.16-.02v1.05s1.18-.04,1.18-.04Z" fill="#606060"/>
        <path d="M77.78,70.82h-6.9c-.04-.16-.08-.3-.07-.39s.34-.01.45-.06c.77-.29,1.42-1.19,1.42-2.14v-25.2c0-.86-.83-2.24-1.83-2.07l-.06-.43h7.03s.02.4.02.4c-1.51.06-1.84,1.76-1.84,3.23v23.68c.07,1.06.47,1.99,1.38,2.53.14-.02.38-.04.45.03s0,.36-.05.4Z" fill="#606060"/>
        <path d="M38.03,48.4c2.62-4.96,8.03-7.78,13.54-8.22l.57-3.49-2.72-1.14c-3.14-1.92-4.86-5.39-4.54-9.04.12-1.45.39-2.77,1.11-4.06.48-.86,1.02-1.68,1.9-2.14-.57-.59-1.27-.77-1.94-.46l.88-1.43c-.45-.3-.79-.51-1.04-.98.55-.94.81-1.94,1-3.09,1.39,1.67,2.15,1.21,2.39,1.36.51.34.52.97.39,1.57.52.29,1.06.55,1.66.76l-1.36.8c-.39.23-.55.65-.63,1.16,1.41.22,2.43,1.21,2.97,2.57-1.69-.34-2.91.77-4.12.19-.81,2.01-.47,4.17.93,5.7-.36,2.13.31,4.12,2.35,4.93,2.01.8,4.43.63,6.3-.51.82-.5,1.42-1.26,1.9-2.02.37-.58.48-1.15.61-1.81.19-1.03.08-2.19-.76-2.91s-2.89-.1-4.31-.37c.23-.4.45-.72.74-1.04l1.8-2.03c-1.91-.53-2.97-2.07-2.75-3.94.18-1.57.68-3.03,1.24-4.5.74-1.96-1.38-2.86-2.97-3.94l4.43-.16c-.6-1.54.85-3.56,1.96-4.8,1.83-2.05,3.9-3.78,6.22-5.38-.08,3.49,2.07,4.23,3.4,6.89,1.58-.93,3.4-1.28,5.27-1.09-1.38,1.65-1.38,3.8-.49,5.65.92,1.93,1.85,5.47.09,6.98l3.28,1.27c-2.4,1.79-4.63,3.54-6.78,5.51-1.16,1.05-2.12,2.15-3.15,3.33l-3.04,3.48c-1.39,1.59-3.92,4.03-5.88,4.64l.14,3.9,2.58.52,1.24.16v4.81s-.46,0-.46,0c-.71-3.42-4.32-4.35-7.54-4.39-2.43-.03-4.8.25-7.01,1.23-2.65,1.18-4.79,3.04-6.17,5.62-1.47,2.74-2.04,5.98-1.45,9.04,1.61,8.32,10.17,13.71,18.39,11.65.63-.16,1.18-.41,1.79-.7l-.04-11.25c0-.89-.7-1.73-1.41-1.95-.13-.04-.44,0-.45-.09s.01-.25.04-.36h7.05s0,.43,0,.43c-1.21-.12-1.89,1.46-1.89,2.59v12.15c-1.25.41-2.44.62-3.71.81-4.94.72-9.89.8-14.48-1.36-3.25-1.53-5.91-4.07-7.41-7.34-2.03-4.42-1.93-9.39.37-13.73ZM68.52,9.95c.9-.99,2.01-1.97,3.2-1.47-.51,1.49-.26,2.95.29,4.4,1.4,2.87.75,4.82-1.26,7.15.91,0,1.79-.03,2.61.37l-2.63,2.43c-1.04,1.15-2.06,2.29-2.68,3.78l5.02-4.59,2.45-2.07c-.6-.47-1.3-.79-2.05-.75l-1.17.06c1.03-.98,1.78-2.09,2.09-3.49-.1-1.17-.32-2.3-.81-3.37-1.06-1.85-1.24-3.91-.38-5.91-1.66.01-3.47.35-4.18,1.82-.55-3.01-3.53-3.75-3.93-7.09-2.01,1.33-3.61,3.02-5.18,4.79-1.22,1.37-1.87,2.97-1.66,4.89-1.12-.25-2.16-.41-3.27-.09,1.27.6,2.02,1.65,1.91,2.96l-1.36,4.7c-.32,1.45.29,2.77,1.62,3.35l1.9.83c-.79.52-1.54.99-1.95,1.86,1.97-.1,3.51.36,4.08,2.32.14-.76.04-1.6-.48-2.19-.47-.53-1.16-.57-1.9-.62.33-.65.96-1.04,1.64-1.26-2.27-1.16-3.79-2.96-3.35-5.49l.91-3.86c-.09-.74-.41-1.35-.96-1.95l1.91-.05c.61-3.51,2.17-6.51,5.53-7.96.29.69.7,1.23,1.17,1.78,1.23,1.46,2.37,2.79,2.87,4.73ZM65.67,27.37c1.44-2.75,3.36-4.82,5.8-6.57-.71-.31-1.4-.14-2.12.08,3.65-4.45.58-6.98,1.03-10,.16-1.04-1.39-.09-2.22.87-.43-1.29-.99-2.46-1.74-3.59l-2.23-3.32c-2.65,1.68-4.1,4.6-3.97,7.72l-1.7-.25c.53.57.71,1.2.64,1.96l-.31,3.37c-.07,1.59.34,3.17,1.54,4.24.42.38,1.03.54,1.48.88-.41.32-.77.62-1.04,1.02,1.53-.27,2.25.49,3.09,1.5l1.75,2.1ZM48.44,19.25c-.46-.44-.74-.57-1.26-.59.12-.17.34-.5.26-.64-.1-.18-.51-.46-.46-.65l.35-1.24c.43.28.85.49,1.3.57l.04,1.03c.53-.41.38-1.03.24-1.5-.8-.05-1.4-.49-2.02-.92-.14.77-.33,1.42-.65,2.11l.93.97-.5,1.03c.72-.05,1.3.14,1.69.68.08.03.37.09.4,0,.14-.36-.28-1.18,1.36-1.92l-.66-.32c-.65.29-1.01.64-1.01,1.39ZM48.72,20.3c-.51.19-.71.73-.5,1.16.18.38.65.63,1.09.44.41-.17.68-.63.49-1.08-.16-.38-.61-.7-1.08-.52ZM57.06,40.25c-.35-.9-.7-1.6-1.13-2.31-.26-.31-.5-.58-.86-.85l-1.89,3.01c1.37-.05,2.52.02,3.88.15Z" fill="#606060"/>
        <path d="M57.71,32.11c1.1-.89,1.38-2.29,1.92-2.31-.48.83-.85,1.69-1.6,2.33-2.51,2.11-7.14,2.02-8.42-.91-.32-.74-.36-1.47-.35-2.28l.3.12c.22.09-.53,2.4,1.87,3.65,1.97,1.03,4.52.81,6.27-.6Z" fill="#606060"/>
        <path d="M55.95,32.45c1.26-.38,1.95-1.21,2.68-2.36-.29,1.31-1.46,2.11-2.7,2.54-1.78.63-3.84.33-5.16-1.04-.54-.57-.85-1.29-.77-2.04.34,0,.4.27.39.54-.09,2.16,2.97,3.15,5.55,2.36Z" fill="#606060"/>
        <path d="M53.86,31.67c1.07.17,1.85-.37,2.82-.76-1.23,1.43-4.29,1.19-5-.51.78.13.5,1,2.17,1.27Z" fill="#606060"/>
        <path d="M53.25,32.21c-.71-.04-1.35-.4-1.87-.87-.39-.33-.65-.71-.59-1.28l.43.21c.22,1.03,1.03,1.6,2.03,1.93Z" fill="#606060"/>
        <path d="M57.85,30.58c-.74,1.07-2.03,1.75-3.38,1.72,1.08-.17,2.09-.54,2.83-1.39.1-.19.25-.37.55-.32Z" fill="#606060"/>
        <path d="M55.19,31.14c-.65.18-1.43.21-2.07-.24l2.07.24Z" fill="#606060"/>
        <path d="M53.87,32.27c-.14.04-.33.04-.48,0h.48Z" fill="#606060"/>
        <path d="M65.39,24.27c-1.52-1.49-2.7-3.2-3.44-5.17-1.39-3.84-.44-7.47,2.1-10.56,1.54,1.25,2.72,2.75,3.58,4.47,1.27,2.58,1.29,5.46,0,8.02-.58,1.19-1.32,2.24-2.24,3.24ZM65.13,12.68l-.95-.91c-2.48,3.24-1.69,6.69,1.15,9.46,2.55-2.6,2.28-6.15-.2-8.54Z" fill="#606060"/>
        <circle cx="48.99" cy="21.11" r=".38" fill="#606060"/>
        <path d="M65.48,18.91c-1.69-1.05-1.76-2.82-.82-4.43.55.59.92,1.23,1.17,1.95.3.83.24,1.7-.35,2.48Z" fill="#606060"/>
      </g>
      <rect x="0" y="73.79" width="98.63" height=".08" fill="#606060"/>
    </g>
  </g>
</svg>