<?xml version="1.0" encoding="UTF-8"?>
<svg id="Layer_2" data-name="Layer 2" xmlns="http://www.w3.org/2000/svg" viewBox="0 0 231.53 100.64">
  <g id="Layer_1-2" data-name="Layer 1">
    <g>
      <path id="path2" d="M215.15,29.84c1.2-.42,2.17.41,2.39.57h0c.83.66,1.74.86,2.5.06-.34-1.14-1.45-1.62-2.54-1.62h0c-.96,0-1.91.37-2.35.98Z" fill="#606060"/>
      <path id="path8" d="M194.6,83.38h0c0-.1-.07-.17-.17-.17h0c-4.59.59-9.65-1.42-13.87-5.78h0c-4.13-4.25-5.22-8.47-5.4-11.25h0c-.29-3.9,1.39-7.88,3.69-10.85h0s4.34-6.4,12.76-6.05h0c.08,0,.15-.06.15-.15h0c0-.08-.13-.14-.13-.14h0c-.09-.07-1.45-.49-3.46-.49-3.7,0-9.61,1.42-13.89,9.06h0c-4.85,8.59.21,16.56.21,16.56h0c5.26,8.32,12.31,10.29,16.8,10.06h0c.97-.11,1.98-.3,3.02-.6h0s.09-.02.14-.04h0s.13-.06.13-.16Z" fill="#606060"/>
      <path id="path13" d="M76.54,11.36s.03.09.03.09h0c1.07,2.37,6.41,10.38,15.11,14.71h0c11.64,6.4,26.55,6.99,37.22,10.51h0c5.8,1.82,11.68,4.77,16.62,8.5h0c9.69,6.82,23.14,24.66,27.05,29.74h0c1.96,2.52,4.17,4.52,4.83,5.07h0c2.39,2.11,6.81,4.69,12.84,4.29h0c.35-.02.71-.06,1.09-.1-4.5.23-11.54-1.74-16.8-10.06h0c-8.58-12.46-16.29-22.49-23.48-28.94h0c-6.99-6.28-13.27-9.09-18.51-11h0c-10.35-3.94-23.63-3.87-36.47-8.55h0c-4.48-1.6-7.89-3.65-10.61-5.64h0c-4.88-3.57-7.36-7.12-8.59-8.73h0s-.08-.07-.13-.07h0c-.1,0-.19.08-.19.18Z" fill="#606060"/>
      <path id="path16" d="M73.5.18s.02.08.04.12h0s2.05,3.41,6.35,7.97h0c5.14,5.36,13.12,10.52,22.99,11.64h0c4.69.61,10.79.45,16.3-.58h0c9.3-1.73,13.85-4.43,22.63-5.41h0c6.64-.89,12.64-.3,17.89,1.37h0c6.51,2.05,12.13,5.77,17.57,8.89h0c5.94,3.4,11.93,6.09,17.99,6.69h0c4.55.47,8.69-.22,11.62-1.62h0c5.34-2.75,7.59-6.74,7.59-6.74h0s4.25,4.38,10.36,7.46h0c1.38.71,2.81,1.44,4.34,1.94h0s-.57,3.73-1.86,5.43h0c.41.28.45.44.45.44,2.87-2.23,3.88-6.15,3.77-7.69h0c-1.02-.42-9.46-3.59-15.79-9.84h0s2.89-5.49.49-10.46h0c-2.41-4.98-7.43-6.57-8.78-6.81h0s-.02,0-.02,0h0c-.11,0-.19.08-.19.18h0c-1.45,5.77,1.7,13.25,5.77,17.78h0c-3.2,4.49-7.96,7.63-15.3,7.12h0c-6.97-.29-13.8-3.87-21-8.32h0c-7.86-4.54-15.08-9.97-29.01-9.87h0c-3.27,0-9.17.41-16.11,2.49h0c-6.33,1.99-15.12,5.64-27.42,4.98h0c-5.91-.27-12.05-2.13-17.19-5.3h0c-5.71-3.51-10.35-8.47-13.15-11.98h0s-.09-.06-.15-.06h0c-.1,0-.18.07-.18.18ZM207.71,3.43s11.76,4.23,6.61,15.32h0c-5.54-6.12-6.61-12.53-6.61-15.32Z" fill="#606060"/>
      <path id="path22" d="M216.87,35.01h-.08c-1.6,0-3.29.19-5,.64h0c-2.3.61-5.33,2.13-7.56,4.08h0c-5.02,3.87-10.78,13.1-14.85,15.85h0c-2.36,1.72-5.6,2.99-7.94,2.99h0c-.08,0-.14.06-.14.15,0,.07.06.13.14.14h0c7.32,1.17,12.58-3.67,16.78-8.53h0c4.07-4.72,8.77-9.66,12.01-11.21h0c2.02-1.03,4.21-1.7,6.35-1.97h0c5.72-.72,11.06.67,11.06.67h0s.09-.01.11-.04h0s-.04-.17-.45-.45h-.01s-4.61-2.32-10.42-2.32Z" fill="#606060"/>
      <path id="path26" d="M79.58,57.81h-1.32c-2.04,0-3.71,1.66-3.71,3.7h0v14.65c0,.06-.01,1.53-.86,2.38h0c-.51.51-1.27.76-2.35.76h-4.83c-1.08,0-1.85-.25-2.34-.76h0c-.7-.7-.87-1.91-.86-2.46h0v-14.57c0-2.04-1.66-3.7-3.7-3.7h-1.33v18.17c-.02.61,0,3.7,2.24,6.03h0c1.01,1.06,2.88,2.32,5.99,2.32h4.83c3.11,0,4.98-1.26,6.01-2.32h0c2.34-2.44,2.24-5.77,2.23-5.9h0v-18.3Z" fill="#606060"/>
      <path id="path30" d="M42.43,84h7.83c2.03,0,3.77-1.66,3.77-3.7h0v-11.39h-6.04c-2.03,0-3.76,1.67-3.76,3.7h0v.7h4.9v5.67h-6.59c-.37-.01-1.65-.12-2.38-.86h0c-.51-.5-.77-1.27-.77-2.35h0v-9.72c0-1.08.26-1.85.77-2.35h0c.68-.68,1.78-.86,2.28-.86h0c.06,0,.12,0,.21,0h11.39v-1.34c0-2.03-1.74-3.69-3.77-3.7h-7.73c-.83,0-3.69.16-5.85,2.24h0c-1.06,1.02-2.32,2.88-2.32,5.99v9.72c0,3.11,1.26,4.98,2.32,5.99h0c2.18,2.11,5.1,2.24,5.75,2.25Z" fill="#606060"/>
      <path id="path34" d="M108.21,83.88h1.65c1.88-.15,3.38-1.76,3.38-3.67h0v-17.37h7.84c1.11.08,1.91.37,2.4.85h0c.51.5.76,1.27.76,2.35h0v2.17c0,1.08-.25,1.85-.76,2.35h0c-.68.68-1.83.86-2.34.86h-5.79c1.36,2.06,3.76,5.68,5.73,8.54h0c2.44,3.56,4.36,3.91,6.11,3.92h2.66l-6.02-8.82.61-.15c1.06-.27,1.9-.62,2.5-1.08h0c1.55-1.19,2.34-3.08,2.34-5.62h0v-2.17c0-3.12-1.26-4.98-2.32-5.99h0c-2.16-2.08-5.08-2.25-5.92-2.25h-12.83v26.08Z" fill="#606060"/>
      <path id="path38" d="M81.09,83.92h2.66c2.58,0,3.14-1.02,3.63-2.47h0c.4-1.12,5.95-18.4,5.95-18.4h0s5.54,17.28,5.95,18.4h0c.49,1.45,1.04,2.47,3.62,2.47h2.67l-8.95-26.11h-3.99c-2.49,0-3.57,2.68-3.91,3.83h0l-7.64,22.28Z" fill="#606060"/>
      <path id="path42" d="M153.04,75.77v-9.72c0-3.12-1.25-4.98-2.32-5.99h0c-2.13-2.05-4.98-2.24-5.88-2.25h-11.47v.02s0,22.59,0,22.59c.04,1.72,1.26,3.15,2.93,3.5h8.68c1.05,0,3.71-.21,5.73-2.17h0c1.06-1.01,2.32-2.87,2.32-5.99ZM138.75,62.84h6.13c.16,0,1.58.05,2.39.85h0c.51.5.76,1.27.76,2.35h0v9.72c0,1.08-.25,1.85-.77,2.36h0c-.68.67-1.81.85-2.32.85h-6.19v-16.13Z" fill="#606060"/>
      <path id="path46" d="M24.06,73.44h5.57v-3.26h-1.88c-1.89,0-3.47,1.42-3.68,3.26Z" fill="#606060"/>
      <path id="path50" d="M24.47,57.81h-2.66c-2.58,0-3.14,1.01-3.63,2.46h0c-.4,1.14-5.94,18.4-5.94,18.4h0s-5.55-17.24-5.95-18.4h0c-.5-1.45-1.06-2.46-3.62-2.46H0l7.62,22.26c.36,1.16,1.43,3.85,3.93,3.85h3.98l8.94-26.11Z" fill="#606060"/>
      <path id="path51" d="M36.86,89.25c.16-.03.34-.05.54-.08s.42-.05.65-.06c.23-.02.46-.03.7-.04.24,0,.47-.01.7-.01.39,0,.75.04,1.08.12.33.08.62.2.86.37.24.17.43.38.57.65.14.26.21.58.21.95,0,.28-.05.54-.14.8s-.23.48-.4.68c-.17.2-.38.37-.62.5s-.51.22-.82.26v.06c.16.03.32.09.48.18.16.09.3.2.43.34.13.14.23.3.3.49s.11.4.11.63c0,.54-.11.99-.32,1.37-.21.38-.49.69-.85.93s-.77.41-1.24.53c-.47.11-.97.17-1.49.17h-.52c-.22,0-.44,0-.69-.02-.24-.01-.49-.03-.73-.06s-.47-.06-.67-.11l1.85-8.66ZM36.87,96.61s.09.03.18.04c.09,0,.19.01.29.02.11,0,.21,0,.32.01.11,0,.2,0,.28,0,.21,0,.43-.03.65-.08s.43-.13.61-.25c.18-.12.33-.27.45-.45.12-.18.18-.41.18-.68,0-.21-.05-.38-.14-.51-.09-.13-.21-.24-.37-.32-.15-.08-.33-.13-.52-.16-.2-.03-.4-.04-.61-.04h-.81l-.51,2.42ZM37.67,92.88h.54c.12,0,.26,0,.42,0,.16,0,.3-.01.41-.03.15-.03.31-.07.49-.13.17-.06.33-.14.47-.25.14-.11.26-.25.35-.41.09-.17.14-.38.14-.63,0-.36-.12-.61-.36-.74-.24-.13-.55-.2-.92-.2-.22,0-.42,0-.61.01-.19,0-.33.02-.43.04l-.49,2.35ZM44.66,91.7v1.1h.06c.19-.33.41-.62.68-.85.27-.23.6-.35,1.01-.35.18,0,.39.03.63.1l-.39,1.34c-.08-.03-.16-.05-.24-.06s-.16-.03-.24-.03c-.35,0-.66.11-.95.33-.29.22-.51.48-.66.77l-.82,3.92h-1.56l1.34-6.27h1.15ZM47.96,91.7h1.56l-1.34,6.27h-1.56l1.34-6.27ZM48.2,89.92c0-.28.09-.49.27-.64.18-.15.41-.23.69-.23s.5.08.69.23c.19.15.28.36.28.64s-.1.48-.28.63c-.19.15-.42.23-.69.23s-.51-.08-.69-.23c-.18-.15-.27-.37-.27-.63ZM53.3,97.98l.83-3.89c.05-.23.08-.44.08-.61s-.04-.33-.11-.43-.22-.16-.42-.16c-.15,0-.3.04-.46.11-.15.08-.3.18-.43.3-.14.13-.26.27-.38.42-.12.15-.22.31-.3.47l-.81,3.79h-1.56l1.34-6.27h1.18l-.06,1.1h.05c.11-.13.24-.28.39-.43s.32-.29.51-.41c.19-.13.41-.23.65-.31.24-.08.51-.13.82-.13.38,0,.68.1.91.31.23.21.34.55.34,1.02,0,.13,0,.26-.02.4-.01.14-.04.3-.08.46l-.91,4.25h-1.56ZM61.26,97.98c-.11.49-.26.91-.44,1.25s-.41.61-.66.82-.55.36-.89.45c-.33.09-.7.14-1.11.14-.3,0-.56-.02-.79-.06-.23-.04-.44-.09-.61-.15-.18-.06-.33-.12-.46-.18-.13-.06-.23-.12-.31-.17l.58-1.14c.08.03.16.07.27.12.1.05.22.09.35.14.13.05.28.08.46.11.17.03.37.04.6.04.42,0,.76-.13,1.01-.39.25-.26.43-.61.54-1.07l.24-.98h-.05c-.19.3-.46.57-.79.81-.33.24-.71.36-1.13.36-.46,0-.82-.17-1.11-.51-.28-.34-.42-.79-.42-1.36,0-.64.09-1.25.28-1.81s.44-1.06.78-1.48c.33-.42.73-.75,1.18-1,.46-.24.96-.36,1.51-.36.51,0,.96.04,1.35.13.38.09.69.19.93.3l-1.28,6ZM60.8,92.97c-.09-.05-.21-.08-.35-.1-.14-.02-.29-.03-.43-.03-.27,0-.52.08-.75.24-.23.16-.43.38-.6.65-.17.28-.3.6-.4.97-.1.37-.15.77-.15,1.2,0,.27.06.48.17.64s.26.24.45.24c.14,0,.29-.04.44-.13.15-.09.3-.2.44-.33.14-.13.26-.28.37-.45.11-.16.2-.32.27-.46l.54-2.45ZM69.6,97.98l.76-3.56c.08-.37.13-.67.13-.92,0-.22-.04-.37-.13-.47-.08-.1-.21-.14-.39-.14-.16,0-.33.05-.51.15-.18.1-.35.23-.51.38-.16.15-.31.31-.44.48-.13.17-.23.33-.3.47l-.75,3.61h-1.56l1.87-8.78h1.56l-.8,3.61h.05c.11-.13.24-.28.4-.43.16-.15.33-.29.52-.41s.4-.23.62-.31c.22-.08.47-.13.73-.13.4,0,.72.1.94.3s.34.56.34,1.07c0,.31-.05.7-.15,1.18l-.83,3.9h-1.56ZM72.8,95.94c0-.66.1-1.26.28-1.81.19-.54.44-1.01.76-1.39.32-.38.68-.68,1.1-.9.42-.21.85-.32,1.31-.32.4,0,.75.06,1.02.19.28.13.5.29.68.5.17.21.3.45.37.72.08.27.11.54.11.83,0,.65-.09,1.25-.28,1.79-.19.54-.43,1-.75,1.39-.31.38-.67.68-1.09.9-.41.21-.85.32-1.3.32-.4,0-.73-.06-1.01-.19-.28-.13-.51-.3-.69-.51-.18-.21-.31-.45-.4-.71-.08-.26-.13-.53-.13-.8ZM74.41,95.73c0,.75.27,1.13.82,1.13.2,0,.4-.09.59-.26.19-.18.37-.41.52-.69.15-.28.27-.61.36-.97s.13-.72.13-1.08c0-.33-.06-.59-.17-.77-.11-.18-.33-.27-.64-.27-.2,0-.4.08-.59.25-.19.17-.37.39-.52.66-.15.27-.27.58-.37.93-.09.35-.14.71-.14,1.07ZM82.23,97.97l.72-3.41c.05-.23.09-.44.12-.62.03-.18.04-.34.04-.48,0-.38-.15-.58-.44-.58-.14,0-.29.04-.43.11s-.28.17-.4.29c-.12.12-.24.24-.34.38-.11.14-.19.27-.26.4l-.81,3.92h-1.56l1.34-6.27h1.21l-.08,1.1h.05c.13-.13.26-.28.41-.43.15-.15.31-.29.5-.41.19-.13.39-.23.62-.31.23-.08.48-.13.75-.13.34,0,.59.12.77.36.17.24.25.56.23.97.13-.16.27-.32.44-.48s.34-.3.53-.43c.19-.13.39-.23.61-.31.21-.08.44-.12.66-.12.39,0,.69.09.89.27s.31.52.31,1.01c0,.36-.06.83-.19,1.41l-.8,3.76h-1.56l.75-3.53c.04-.19.08-.37.1-.54.03-.17.04-.31.04-.44,0-.19-.04-.34-.11-.44-.07-.1-.19-.15-.36-.15-.14,0-.27.04-.41.12-.14.08-.27.18-.4.3-.13.12-.24.25-.35.39-.11.14-.19.28-.25.4l-.81,3.88h-1.56ZM93.43,97.37c-.26.22-.6.4-1.01.55-.41.15-.89.23-1.44.23-.68,0-1.22-.2-1.61-.6-.39-.4-.59-.95-.59-1.66,0-.67.11-1.27.32-1.81.21-.54.49-1,.83-1.37.34-.38.73-.67,1.16-.87.43-.2.86-.31,1.29-.31.35,0,.64.04.89.13.25.09.45.21.61.36.16.15.28.33.35.53.08.2.11.41.11.64,0,.34-.09.64-.27.9-.18.26-.42.47-.74.65-.32.17-.7.3-1.14.39-.45.09-.94.13-1.47.13-.07,0-.13,0-.19,0-.06,0-.12,0-.19,0-.02.1-.03.19-.04.27,0,.08-.01.15-.01.22,0,.38.1.66.3.84.2.18.48.28.84.28s.7-.05,1-.16c.3-.11.52-.22.67-.33l.33,1ZM90.57,94.27c.24,0,.49,0,.75-.03.27-.02.51-.06.74-.12.23-.06.42-.15.57-.28s.23-.29.23-.5c0-.13-.05-.25-.14-.38s-.29-.19-.58-.19c-.37,0-.69.14-.97.43s-.47.64-.6,1.07ZM103.06,95.47c-.07.32-.12.64-.15.97-.03.33-.04.64-.04.93,0,.12,0,.23,0,.33,0,.1.01.2.02.3h-1.15l-.18-1.08h-.05c-.09.15-.21.3-.36.45-.15.15-.31.28-.49.4-.18.12-.36.22-.56.29-.2.07-.4.11-.61.11-.56,0-.97-.18-1.23-.54-.27-.36-.4-.84-.4-1.44s.08-1.2.23-1.76c.16-.56.4-1.05.73-1.48.33-.43.74-.77,1.25-1.02.5-.26,1.1-.38,1.79-.38.3,0,.62.03.97.08s.69.13,1.02.22l-.78,3.64ZM100.09,96.86c.15,0,.3-.03.43-.09.13-.06.26-.14.37-.24.11-.1.22-.21.3-.33s.17-.23.23-.33l.63-2.92c-.09-.04-.2-.07-.32-.09-.12-.02-.24-.03-.36-.03-.3,0-.57.09-.81.27-.24.18-.44.41-.6.7s-.29.61-.37.98c-.08.36-.13.73-.13,1.1,0,.27.04.5.13.7.09.2.25.29.49.29ZM109.08,89.19h1.56l-.78,3.61h.05c.11-.15.24-.3.38-.45.14-.15.3-.28.47-.4s.36-.22.56-.3c.2-.08.43-.11.67-.11.46,0,.8.16,1.02.48.23.32.34.74.34,1.27,0,.79-.11,1.49-.34,2.1-.22.6-.52,1.11-.88,1.51-.36.41-.77.71-1.23.92-.46.21-.91.31-1.38.31-.51,0-.97-.05-1.36-.14-.39-.1-.69-.22-.89-.36l1.8-8.43ZM109.03,96.66c.09.07.21.11.34.14s.28.04.44.04c.21,0,.43-.07.66-.21.23-.14.44-.34.63-.61.19-.27.35-.6.47-.99.12-.39.18-.83.18-1.32,0-.58-.17-.87-.51-.87-.17,0-.34.05-.5.14-.16.09-.32.21-.47.35-.15.14-.29.29-.41.45-.12.16-.22.31-.3.45l-.53,2.43ZM118.57,97.37c-.26.22-.6.4-1.01.55-.41.15-.89.23-1.44.23-.68,0-1.22-.2-1.61-.6-.39-.4-.59-.95-.59-1.66,0-.67.11-1.27.32-1.81.21-.54.49-1,.83-1.37.34-.38.73-.67,1.16-.87.43-.2.86-.31,1.29-.31.35,0,.64.04.89.13.25.09.45.21.61.36.16.15.28.33.35.53s.11.41.11.64c0,.34-.09.64-.27.9-.18.26-.42.47-.74.65s-.7.3-1.14.39c-.45.09-.94.13-1.47.13-.07,0-.13,0-.19,0-.06,0-.12,0-.19,0-.02.1-.03.19-.04.27,0,.08-.01.15-.01.22,0,.38.1.66.3.84.2.18.48.28.84.28s.7-.05,1-.16c.3-.11.52-.22.67-.33l.33,1ZM115.71,94.27c.24,0,.49,0,.75-.03.27-.02.51-.06.74-.12.23-.06.42-.15.57-.28s.23-.29.23-.5c0-.13-.05-.25-.14-.38s-.29-.19-.58-.19c-.37,0-.69.14-.97.43-.27.28-.47.64-.6,1.07ZM120.31,91.7h.82l.25-1.18,1.66-.46-.35,1.64h1.48l-.29,1.29h-1.47l-.62,2.84c-.05.23-.08.41-.08.55,0,.18.04.31.13.38.08.07.21.1.38.1s.31-.02.44-.05.27-.09.41-.16v1.15c-.09.05-.2.1-.34.14-.13.05-.27.08-.42.11s-.31.05-.47.07c-.16.02-.31.03-.44.03-.43,0-.76-.1-.99-.3-.23-.2-.35-.5-.35-.9,0-.08,0-.17.02-.26.01-.09.03-.19.04-.29l.73-3.41h-.85l.3-1.29ZM124.36,91.7h.82l.25-1.18,1.66-.46-.35,1.64h1.48l-.29,1.29h-1.47l-.62,2.84c-.05.23-.08.41-.08.55,0,.18.04.31.13.38.08.07.21.1.38.1s.31-.02.44-.05c.13-.03.27-.09.41-.16v1.15c-.09.05-.2.1-.34.14-.13.05-.27.08-.42.11s-.31.05-.47.07c-.16.02-.31.03-.44.03-.43,0-.76-.1-.99-.3-.23-.2-.35-.5-.35-.9,0-.08,0-.17.02-.26.01-.09.03-.19.04-.29l.73-3.41h-.85l.3-1.29ZM132.68,97.37c-.26.22-.6.4-1.01.55-.41.15-.89.23-1.44.23-.68,0-1.22-.2-1.61-.6-.39-.4-.59-.95-.59-1.66,0-.67.11-1.27.32-1.81.21-.54.49-1,.83-1.37.34-.38.73-.67,1.16-.87.43-.2.86-.31,1.29-.31.35,0,.64.04.89.13.25.09.45.21.61.36.16.15.28.33.35.53s.11.41.11.64c0,.34-.09.64-.27.9-.18.26-.42.47-.74.65s-.7.3-1.14.39c-.45.09-.94.13-1.47.13-.07,0-.13,0-.19,0-.06,0-.12,0-.19,0-.02.1-.03.19-.04.27,0,.08-.01.15-.01.22,0,.38.1.66.3.84.2.18.48.28.84.28s.7-.05,1-.16c.3-.11.52-.22.67-.33l.33,1ZM129.82,94.27c.24,0,.49,0,.75-.03.27-.02.51-.06.74-.12.23-.06.42-.15.57-.28.15-.12.23-.29.23-.5,0-.13-.05-.25-.14-.38s-.29-.19-.58-.19c-.37,0-.69.14-.97.43-.27.28-.47.64-.6,1.07ZM136.21,91.7v1.1h.06c.19-.33.41-.62.68-.85.27-.23.6-.35,1.01-.35.18,0,.39.03.63.1l-.39,1.34c-.08-.03-.16-.05-.24-.06s-.16-.03-.24-.03c-.35,0-.66.11-.95.33-.29.22-.51.48-.66.77l-.82,3.92h-1.56l1.34-6.27h1.15ZM141.84,91.7h.82l.25-1.18,1.66-.46-.35,1.64h1.48l-.29,1.29h-1.47l-.62,2.84c-.05.23-.08.41-.08.55,0,.18.04.31.13.38.08.07.21.1.38.1s.31-.02.44-.05.27-.09.41-.16v1.15c-.09.05-.2.1-.34.14-.13.05-.27.08-.42.11s-.31.05-.47.07c-.16.02-.31.03-.44.03-.43,0-.76-.1-.99-.3-.23-.2-.35-.5-.35-.9,0-.08,0-.17.02-.26.01-.09.03-.19.04-.29l.73-3.41h-.85l.3-1.29ZM145.51,95.94c0-.66.1-1.26.28-1.81.19-.54.44-1.01.76-1.39.32-.38.68-.68,1.1-.9.42-.21.85-.32,1.31-.32.4,0,.75.06,1.02.19.28.13.5.29.68.5.17.21.3.45.37.72.08.27.11.54.11.83,0,.65-.09,1.25-.28,1.79-.19.54-.43,1-.75,1.39-.31.38-.67.68-1.09.9-.41.21-.85.32-1.3.32-.4,0-.73-.06-1.01-.19-.28-.13-.51-.3-.69-.51-.18-.21-.31-.45-.4-.71-.08-.26-.13-.53-.13-.8ZM147.11,95.73c0,.75.27,1.13.82,1.13.2,0,.4-.09.59-.26.19-.18.37-.41.52-.69.15-.28.27-.61.36-.97s.13-.72.13-1.08c0-.33-.06-.59-.17-.77-.11-.18-.33-.27-.64-.27-.2,0-.4.08-.59.25-.19.17-.37.39-.52.66-.15.27-.27.58-.37.93-.09.35-.14.71-.14,1.07ZM154.93,97.97l.72-3.41c.05-.23.09-.44.12-.62.03-.18.04-.34.04-.48,0-.38-.15-.58-.44-.58-.14,0-.29.04-.43.11-.14.08-.28.17-.4.29-.12.12-.24.24-.34.38-.11.14-.19.27-.26.4l-.81,3.92h-1.56l1.34-6.27h1.21l-.08,1.1h.05c.13-.13.26-.28.41-.43.15-.15.31-.29.5-.41s.39-.23.62-.31c.23-.08.48-.13.75-.13.34,0,.59.12.77.36.17.24.25.56.23.97.13-.16.27-.32.44-.48s.34-.3.53-.43c.19-.13.39-.23.61-.31.21-.08.44-.12.66-.12.39,0,.68.09.89.27s.31.52.31,1.01c0,.36-.06.83-.19,1.41l-.8,3.76h-1.56l.75-3.53c.04-.19.08-.37.1-.54.03-.17.04-.31.04-.44,0-.19-.04-.34-.11-.44-.07-.1-.19-.15-.36-.15-.14,0-.27.04-.41.12-.14.08-.27.18-.4.3-.13.12-.24.25-.35.39-.11.14-.19.28-.25.4l-.81,3.88h-1.56ZM161.48,95.94c0-.66.09-1.26.28-1.81.19-.54.44-1.01.76-1.39.32-.38.68-.68,1.1-.9s.85-.32,1.31-.32c.4,0,.75.06,1.02.19.28.13.5.29.68.5.17.21.3.45.37.72.08.27.11.54.11.83,0,.65-.09,1.25-.28,1.79-.19.54-.43,1-.75,1.39-.31.38-.67.68-1.09.9-.41.21-.85.32-1.3.32-.4,0-.73-.06-1.01-.19-.28-.13-.51-.3-.69-.51-.18-.21-.31-.45-.4-.71-.08-.26-.13-.53-.13-.8ZM163.09,95.73c0,.75.27,1.13.82,1.13.2,0,.4-.09.59-.26.19-.18.37-.41.52-.69.15-.28.27-.61.36-.97.09-.36.13-.72.13-1.08,0-.33-.06-.59-.17-.77-.11-.18-.33-.27-.64-.27-.2,0-.4.08-.59.25-.19.17-.37.39-.52.66-.15.27-.27.58-.37.93-.09.35-.14.71-.14,1.07ZM170.05,91.7v1.1h.06c.19-.33.41-.62.68-.85.27-.23.6-.35,1.01-.35.18,0,.39.03.63.1l-.39,1.34c-.08-.03-.16-.05-.24-.06s-.16-.03-.24-.03c-.35,0-.66.11-.96.33-.29.22-.51.48-.66.77l-.82,3.92h-1.56l1.34-6.27h1.15ZM174.38,91.7v1.1h.06c.19-.33.41-.62.68-.85.27-.23.6-.35,1.01-.35.18,0,.39.03.63.1l-.39,1.34c-.08-.02-.16-.05-.24-.06-.08-.02-.16-.03-.24-.03-.35,0-.66.11-.95.33-.29.22-.51.48-.66.77l-.82,3.92h-1.56l1.34-6.27h1.15Z" fill="#606060" fill-rule="evenodd"/>
      <path id="path52" d="M176.43,95.94c0-.66.1-1.26.28-1.81.19-.54.44-1.01.76-1.39s.68-.68,1.1-.9c.42-.21.85-.32,1.31-.32.4,0,.75.06,1.02.19.28.13.5.29.68.5.17.21.3.45.37.72.08.27.11.54.11.83,0,.65-.09,1.25-.28,1.79-.19.54-.43,1-.75,1.39-.31.38-.67.68-1.09.9-.41.21-.85.32-1.3.32-.4,0-.73-.06-1.01-.19-.28-.13-.51-.3-.69-.51-.18-.21-.31-.45-.4-.71-.08-.26-.13-.53-.13-.8ZM178.04,95.73c0,.75.27,1.13.82,1.13.2,0,.4-.09.59-.26.19-.18.37-.41.52-.69.15-.28.27-.61.36-.97s.13-.72.13-1.08c0-.33-.06-.59-.17-.77-.11-.18-.33-.27-.64-.27-.2,0-.4.08-.59.25-.19.17-.37.39-.52.66-.15.27-.27.58-.37.93-.09.35-.14.71-.14,1.07ZM187.83,91.7l.4,3.21v1.04s.05,0,.05,0l.38-1.05,1.47-3.2h1.52l-3.23,6.34h-1.15l-.44-3.51v-.79h-.05l-.33.8-1.9,3.5h-1.19l-.58-6.34h1.59l.2,3.15-.08,1.12h.06l.43-1.13,1.67-3.14h1.16Z" fill="#606060" fill-rule="evenodd"/>
    </g>
  </g>
</svg>