<?xml version="1.0" encoding="UTF-8"?>
<svg id="Layer_2" data-name="Layer 2" xmlns="http://www.w3.org/2000/svg" viewBox="0 0 110.44 70.25">
  <g id="Layer_1-2" data-name="Layer 1">
    <g>
      <g>
        <path d="M86.72,27.73c-.77.69-1.78.71-2.5.02-.52-.51-.82-1.17-.74-1.95.14-1.39,1.08-2.72,2.43-3.11.76-.22,1.52.03,2.01.52,1.24,1.25.11,3.35-1.19,4.52Z" fill="#606060"/>
        <path d="M50.28,28c-.64.45-1.36.33-1.91-.07-.69-.51-1-1.33-.89-2.22.16-1.28,1-2.49,2.21-2.95.61-.23,1.28-.12,1.81.21.48.3.93.84.88,1.54-.11,1.38-.95,2.69-2.1,3.49Z" fill="#606060"/>
        <path d="M67.57,28.23c-1.19.25-2.09-.48-2.44-1.6-.28-1.64.72-3.47,2.38-3.93,1.19-.34,2.6.53,2.54,1.79-.08,1.59-1.15,2.94-2.47,3.74Z" fill="#606060"/>
        <path d="M41.08,39.59c-.52.47-1.22.3-1.76.26v-3.32c.57,0,1.34-.18,1.85.3.69.66.63,2.1-.09,2.76Z" fill="#606060"/>
        <path d="M32.31,39.21c-.2.51-.63.78-1.08.8-.48.02-.92-.22-1.14-.68-.58-1.19-.18-2.89.97-2.97.47-.03.92.22,1.17.67.35.64.36,1.46.08,2.17Z" fill="#606060"/>
        <path d="M36.93,37.09c.54,1.11.18,2.79-.96,2.91-.45.04-.94-.18-1.17-.62-.37-.69-.39-1.55-.07-2.26.21-.47.63-.75,1.09-.75s.89.26,1.11.72Z" fill="#606060"/>
        <path d="M67.89,38.05l-.05-1.54c.28-.12.71-.11.98.15.22.21.29.63.13.96-.15.32-.48.46-1.06.43Z" fill="#606060"/>
        <path d="M54.68,39.89v-1.53c.3-.13.76-.08,1.01.18s.26.75.08,1.06-.66.41-1.09.29Z" fill="#606060"/>
        <path d="M54.77,37.81c-.17-.31-.11-.94-.03-1.26.07-.24.72-.08.87.11.19.24.19.62.07.92-.1.24-.74.54-.91.23Z" fill="#606060"/>
        <path d="M100.68,42.73h1.17s0,4.14,0,4.14h8.16s-5.88,6.83-5.88,6.83l6.31,7.17h-18.08s-.05-2.54-.05-2.54l2.17-.77c1.25-.45,2.43-.93,3.61-1.67l-3.28-.02-5,1.7-22.63,7.57-9.27,3.16c-1.88.4-3.74.44-5.6,0l-36.61-12.36-4.01-.04c2.11.85,4.24,1.37,6.21,2.4l-.03,2.57H0s0-.17,0-.17l6.09-7.01L.26,46.9l7.9-.04.04-4.13h1.39s1.5,0,1.5,0l.08-23.59c0-2.38,1.66-4.95,3.98-5.67L52.65,1.92c1.6-.49,3.56-.45,5.15.03l27.74,8.44,9.43,2.89c2.44.99,3.88,3.22,4.16,5.86l.02,23.58h1.53ZM31.05,19.13c-.35-.88-1.02-1.48-1.93-1.49-.55.6-1.19,1.12-1.57,1.84.18.38,1.08-.16,1.73.42.89.79.14,3.94-.35,5.43-.79,2.39-1.84,4.66-3.39,6.63-.18.23-.41.43-.66.4-.19-.02-.49-.21-.61-.48-1.41-3.13-1.93-6.71-1.4-10.12s2.72-3.56,1.14-4.1c-2.31-.48-4.6-.37-6.89.19-.35.02-.93.02-1.08.37-.29.65-.43,1.33-.58,2.1l2.06-.88c1.58-.67,3.22-1.01,4.98-.88-2.59,3.35-1.79,9.01-.18,12.66.34.77.8,1.42,1.41,1.94,1.56,1.32,3.3-.56,4.32-2.13,2.01-3.12,4.03-8.24,3-11.9ZM91.23,21.48v-1.68c.18-.08.36-.07.61-.03.03-.14.03-.27,0-.4l-1.66.02v.37s.61,0,.61,0v1.75s.45-.02.45-.02ZM93.76,21.48h.37s.02-2.1.02-2.1c-.2-.04-.42-.05-.64.01l-.39,1.3-.4-1.29c-.21-.07-.42-.07-.67-.01l.02,2.09c.15.02.28.02.4,0l.07-1.28.37,1.24c.03.09.37.07.4-.02l.4-1.31.06,1.36ZM80.11,27.87l-2.85-2.45,3.79-3.23c-.6-.21-1.17-.11-1.7-.05l-3.85,3.45.03-6.06-1.81-.02c.25,3.11.18,6.15.11,9.27h1.66s0-2.73,0-2.73l3.03,2.7c.86.12,1.67.08,2.53.05.48-.02.9-.57.73-.99-.54-.02-1.26.42-1.68.05ZM34.08,21.59c.25-.05.25-.78.04-.78-.8.02-1.53-.08-2.31.01-.25.03-.17.79.11.8.72.04,1.43.1,2.16-.04ZM55.3,28.71c.35-.07.54-.68.57-.92l-1.7.22c-.17-.84-.13-1.69-.07-2.55l.24-3.41-1.56.37c-1.42-.41-2.86-.58-4.33-.33-2.23.82-3.37,3.42-2.37,5.6.87,1.9,4.73,1.52,6.34.11.02.3-.05.99.25,1.02.86.1,1.78.07,2.65-.11ZM54.71,32.29c.23.77.86,1.31,1.68,1.28,2.26-.1,3.41-.08,4.19-2.32l1.82-5.23,1.39-3.79c-.59-.12-1.11-.09-1.67.01l-1.75,5.37c.1-1.63-.27-5.26-1.4-5.6h-2.24c-.81-.12-1.52.55-1.45,1.34l2.43-.49c.25-.05.52.5.6.75.55,1.7.61,3.42.3,5.18l1.22.03c-.51,1.27-1.29,4-2.38,4.09-.35.03-.71-.14-.93-.48-.76-1.2-.39-2.68.85-3.57-.98-.36-1.89.29-2.3,1.11-.36.73-.62,1.48-.37,2.31ZM72.78,28.75c.4-.02.64-.58.63-.91l-1.63.19c-.13-1.94,0-3.82.21-5.73.07-.64-1.05.23-1.69.08-1.25-.3-2.53-.59-3.82-.36-1.93.34-3.14,2.08-3.18,3.99-.02,1.11.4,2.17,1.44,2.64,1.41.64,4.05.3,5.29-.87.05.45,0,.77.24,1.09l2.52-.11ZM91.92,27.81l-1.71.2c-.08-1.96.05-3.87.24-5.79.05-.52-1.02.26-1.64.14-1.29-.24-2.59-.61-3.93-.35-2.44.48-3.85,3.23-2.87,5.49.9,2.08,4.74,1.72,6.45.29.07.43,0,.73.24,1.06l2.61-.12c.35-.02.56-.6.62-.93ZM42.2,27.06c-1.16,1.35-2.73,1.33-3.22,1.55-.04.02-.01.22.04.22l5.11-.02c.45,0,.78-.61.77-.98-.77.11-1.37.33-2.16.25,1.53-.69,2.29-2.12,2.19-3.77-.07-1.19-.84-2.23-2.07-2.23h-2.13c-.91,0-1.73.34-2.48.84-.01-.24-.05-.75-.3-.75l-1.81-.02c.37,1.09.42,2.07.33,3.14l-.3,3.53h1.71c.07-2.28.34-4.98,2.44-6.01.56-.27,1.21-.27,1.79.01,1.16.56,1.48,2.62.09,4.24ZM35.68,27.84l-1.51.16c-.03-2.01-.09-3.94.08-5.91l-2.48.05c.42.55.74.95.74,1.55v5.12s2.55-.05,2.55-.05c.38,0,.65-.6.62-.93ZM30.02,40.07c.7.47,1.57.41,2.23-.01.62-.4.92-1.13.93-1.9.02-1.2-.79-2.14-1.95-2.17s-1.98.82-2.05,1.99c-.05.79.14,1.61.85,2.09ZM37.84,38.35c.1-1.3-.72-2.36-1.94-2.37s-2.03.93-2.06,2.17c-.02,1.18.69,2.2,1.88,2.25s2.02-.85,2.11-2.05ZM45.27,38.3c-.43-.62-1.6-.5-1.55-1.33.02-.33.26-.56.56-.59s.55.11.74.43c.15-.02.22-.31.22-.47,0-.17-.26-.21-.42-.26-.71-.24-1.45.11-1.62.75-.2.72.17,1.34.89,1.55.41.12.76.39.77.8s-.24.74-.62.81c-.35.06-.78-.09-1-.47-.19-.03-.22.22-.25.37-.08.42,1.3.85,2.06.09.4-.41.58-1.15.21-1.68ZM76.92,39.87c-.6.18-1.33.15-1.74-.35-.58-.72-.59-1.81-.1-2.58.27-.42.73-.59,1.17-.57s.81.17,1.1.6l.18-.63c-.73-.44-1.7-.49-2.42-.07-.78.46-1.09,1.3-1.02,2.23.08,1,.79,1.79,1.82,1.87.56.04,1.11-.08,1.63-.3v-1.49c-.23-.04-.4-.03-.6,0v1.28ZM83.72,38.34c-.45-.68-1.66-.57-1.61-1.38.02-.35.25-.58.58-.6.29-.01.56.13.72.44.17-.01.24-.3.24-.47,0-.18-.31-.24-.47-.29-.74-.22-1.47.16-1.63.85-.34,1.47,1.48,1.35,1.7,2.04.1.32.04.71-.24.9-.46.31-1.05.1-1.37-.37-.18.07-.22.32-.21.48.02.3,1.26.81,2.05.05.4-.38.61-1.1.24-1.65ZM28.3,37.92c-.41-.07-.85.07-1.25-.02v-1.36c.48-.11.91-.02,1.44.04.04-.15.04-.32,0-.5h-2.03s0,4.22,0,4.22h.57s0-1.98,0-1.98l1.26.02c.06-.04.09-.4,0-.42ZM40.13,40.32c1.41.02,2.24-1.05,2.19-2.36-.04-1.04-.69-1.88-1.78-1.88h-1.81s0,4.21,0,4.21l1.41.02ZM49.78,38.4c.21-.19.41-.25.64-.17.14.05.3.2.37.41.13.36.05.73-.21.97-.24.22-.6.32-.98.31-.48-.02-.96-.28-1.05-.7s.07-.96.53-1.07c.83-.21-.44-.36-.36-1.09.04-.35.23-.58.49-.63.35-.08.61.07.83.35.11-.09.25-.45.14-.52-.44-.31-1.09-.3-1.53-.05-.35.2-.53.53-.55.84-.02.4.13.7.55.93-.53.26-.8.64-.79,1.17,0,.44.24.87.72,1.07.75.32,1.69.21,2.3-.34.3-.27.4-.63.4-.99,0-.33-.19-.59-.48-.82.55-.02,1.15-.23,1.01-.88-.88.8-2.04.1-2.03,1.2ZM59.32,38.35l.02-.46-1.31.03v-1.39c.5-.07.93,0,1.46.03.05-.13.05-.31,0-.48l-2.05.03v4.2s2.12,0,2.12,0c.02-.21.02-.33-.01-.47l-1.52.06v-1.57s1.28.03,1.28.03ZM61.59,40.3c.04.11.34.06.37-.01l1.63-4.13c-.24-.09-.38-.08-.54-.05l-1.15,3.16-1.12-3.12c-.24-.07-.45-.07-.71,0l1.52,4.17ZM69.21,40.31l.77-.02-1.32-1.95c.64-.14.98-.54,1.03-1.04.05-.54-.21-1.15-.8-1.16l-1.62-.05v4.22s.58,0,.58,0l.07-1.96,1.3,1.96ZM72.51,38.87l.46,1.43.71-.02-1.57-4.21c-.04-.1-.28-.07-.32.03l-1.62,4.17c.19.05.34.04.51.01l.49-1.43h1.34ZM80.46,38.34l.02-.45-1.3.02v-1.42s1.46.06,1.46.06c.04-.14.04-.31.01-.48h-2.06s0,4.22,0,4.22h2.13s.02-.49.02-.49l-1.55.07v-1.57s1.28.02,1.28.02ZM55.76,38.03c.54-.22.71-.66.64-1.15-.06-.43-.46-.77-.98-.77h-1.33s.01,4.2.01,4.2h1.3c.61.01,1.06-.45,1.14-.99.08-.58-.14-1.06-.77-1.29ZM66.07,38.28c.1-.04.06-.38,0-.37l-1.26.03v-1.43s1.43.02,1.43.02c.1-.01.09-.36.04-.43h-2.08s0,4.21,0,4.21h2.14c.04-.16.05-.36-.03-.52-.55.08-.99.15-1.5.09l.02-1.56c.45-.03.87.11,1.26-.04ZM9.2,43.78v11.04s91.6,0,91.6,0v-11.04s-91.6,0-91.6,0ZM16.42,59.9l-8.24-4.04v-8.06s-5.89.02-5.89.02l5.05,5.89-5.37,6.22,14.45-.02ZM108.33,59.91l-5.45-6.19,5.1-5.9-6.14-.02v8.05s-7.89,4.06-7.89,4.06h14.37ZM44.02,60.8c.18-.45.13-.99-.27-1.3-.71-.56-2-.35-1.89-1.11.04-.3.3-.45.6-.5.53-.09.91.18,1.02.66.03.13.5.09.5-.04-.04-.81-.83-1.21-1.57-1.1-.54.08-.99.39-1.08.89-.09.54.2,1.04.75,1.2l1.02.29c.31.09.49.32.48.6-.01.26-.15.47-.44.57-.49.17-1.13.04-1.36-.47-.06-.13-.05-.33-.17-.33h-.43c-.01.41.16.82.46,1.05.71.55,2.05.37,2.38-.43ZM50.77,60.45c-.3-.63-.28-1.34-.02-1.93.21-.47.61-.67,1.08-.63.45.03.79.31.91.81.21-.02.35-.03.52-.11-.14-.7-.7-1.14-1.36-1.19-.6-.05-1.24.21-1.58.77-.42.68-.44,1.57-.16,2.31s.95,1.07,1.67,1.05c.7-.02,1.36-.55,1.45-1.28.02-.13-.37-.2-.5-.15-.12.5-.41.88-.89.93-.43.04-.9-.12-1.12-.58ZM61.45,60.48c-.09-.06-.44-.07-.45.04-.02.53.42.98.92,1.01s1.01-.16,1.23-.69c.33-.79.34-1.77.09-2.59-.2-.66-.88-.96-1.43-.81-.61.17-.94.77-.9,1.4.03.49.26.96.66,1.13.44.2.9.13,1.3-.28.02.35-.03.73-.25,1.06-.15.24-.44.35-.7.28-.23-.06-.38-.29-.46-.56ZM64.37,60.46l-.49.04c.05.61.42.98.96,1.03.46.04,1-.16,1.21-.68.32-.79.35-1.77.1-2.59-.2-.66-.89-.96-1.44-.81-.63.17-.93.76-.89,1.4.02.49.25.96.65,1.14.45.2.91.12,1.25-.28.08.4,0,.75-.19,1.06-.15.25-.44.35-.71.29-.23-.06-.4-.29-.45-.59ZM45.42,57.45h-.57s0,4.01,0,4.01h.57s0-4.01,0-4.01ZM49.25,61.43v-3.97c-.19-.03-.35-.03-.5,0l-.04,2.96-1.83-2.92c-.07-.11-.4-.05-.58-.04v3.98c.18.03.33.03.51,0l.04-2.93,1.82,2.92c.19.04.36.05.57,0ZM56.32,59.65v-.49s-1.88-.01-1.88-.01v-1.19s2.02,0,2.02,0c.03-.17.03-.32,0-.5h-2.55s0,4.02,0,4.02h2.64c.03-.16.03-.31,0-.5h-2.11s0-1.32,0-1.32h1.88ZM59.58,61.46h.51s0-3.99,0-3.99c-.1-.04-.36-.05-.39.03-.38.88-1.21.64-1,1.42l.88-.45v2.99ZM67.62,61.45h.47s0-3.99,0-3.99c-.54-.19-.36.52-1.36.91-.1.04-.1.36-.02.51l.89-.43.02,2.99Z" fill="#606060"/>
        <polygon points="72.37 38.47 71.33 38.48 71.85 37.06 72.37 38.47" fill="#606060"/>
        <path d="M62.85,58.81c-.03.5-.34.83-.77.8-.45-.03-.69-.44-.65-.91s.3-.83.72-.8.73.4.7.91Z" fill="#606060"/>
        <path d="M65.73,58.72c0,.36-.1.65-.35.81-.23.14-.54.11-.76-.05s-.29-.47-.28-.78c.02-.41.26-.78.64-.8.43-.02.75.32.75.82Z" fill="#606060"/>
        <path d="M77.34,47.64c.19-.09.4-.12.6,0l-1.3,4.04c-.04.12-.46.12-.51.01l-1-3.3-.99,3.33c-.17.06-.33.06-.51,0l-1.33-4.09c.16-.1.65-.15.7.03l.98,3.03.92-3.06c.04-.15.51-.1.65-.02l.96,3.15.83-3.13Z" fill="#606060"/>
        <path d="M56.16,51.09c-.19.46-.56.76-1.07.76-.47,0-.92-.21-1.17-.69-.73-1.36-.33-3.54,1.1-3.65.48-.04.83.19,1.11.65l.04-2.9c.1-.1.61-.11.61.04l.04,5.88.33.4c-.13.22-.39.22-.59.15s-.29-.25-.41-.65ZM55.79,48.28c-.14-.23-.38-.37-.59-.37-.2,0-.48.13-.6.36-.7,1.31-.27,3.24.6,3.21.81-.03,1.38-1.89.59-3.2Z" fill="#606060"/>
        <path d="M30.83,51.31l-.04-2.68c0-.38-.27-.69-.62-.68-.27,0-.65.26-.66.63l-.07,2.82c0,.37-.7.46-.91.27-.05-.04-.06-.16-.03-.22.03-.05.19-.1.3-.16l.03-6c0-.15.51-.13.61-.04l.05,2.61c.33-.38.76-.45,1.23-.32.37.1.7.51.71,1l.06,2.74.27.17c.05.03.04.19-.02.25-.13.14-.92.13-.92-.4Z" fill="#606060"/>
        <path d="M82.94,51.05c-.33.98.04,2.51-1.25,2.69-.51.07-.98-.12-1.16-.56-.16-.41-.04-.91.33-1.18s1.03-.32,1.21.28c-.32-.14-.54-.33-.81-.14-.21.15-.32.4-.27.71.04.28.22.52.47.57.74.15.95-1.05.47-2.47l-1.1-3.3c.19-.11.69-.13.76.09l1,3.06.82-2.73c.05-.16.02-.35.13-.43.1-.08.5-.09.54.06l-1.13,3.37Z" fill="#606060"/>
        <path d="M45.4,47.64l.02,3.62c.15.07.24.22.23.32-.03.26-.55.23-.71.09-.1-.09-.11-.21-.21-.43-.24.5-.71.65-1.2.59s-.92-.48-.92-1.05l-.03-3.16c.12-.08.56-.09.59.05l.05,2.83c0,.45.3.76.71.79s.8-.29.81-.76l.07-2.85c0-.15.48-.14.6-.04Z" fill="#606060"/>
        <path d="M61.7,51.54c-.48-.61-.3-1.54.32-1.92l1.15-.71c.18-.11.26-.32.26-.49,0-.2-.12-.44-.36-.49-.34-.06-.62.15-.82.46-.18-.05-.24-.3-.22-.49.03-.24.9-.57,1.55-.27.24.11.53.45.53.83v2.37c0,.31.17.47.25.74.06.2-.36.25-.51.2-.21-.07-.3-.2-.36-.53-.41.73-1.4.82-1.8.31ZM63.53,50.46l-.02-1.36-.95.69c-.27.19-.41.48-.44.76s.04.68.37.8c.54.2,1.05-.32,1.04-.89Z" fill="#606060"/>
        <path d="M79.94,51.28c-.34.56-1.16.81-1.69.34-.36-.32-.36-.87-.24-1.31.26-.97,1.66-1.06,1.88-1.79.09-.32-.18-.62-.45-.61s-.55.17-.69.5c-.22.03-.23-.28-.23-.44.01-.36,1.02-.63,1.55-.34.25.13.5.47.5.85v2.72s.4.34.4.34c-.09.27-.33.26-.55.24s-.34-.11-.47-.49ZM79,51.36c.57.17.99-.38.98-.87l-.03-1.37-.85.65c-.29.22-.47.48-.49.79-.02.27.03.7.39.81Z" fill="#606060"/>
        <path d="M33.5,51.31c.84.34,1.36-.5,1.5-.47.06.01.16.18.1.28-.45.74-1.68,1.04-2.38.36-.95-.93-.92-2.66-.02-3.58.41-.42.99-.5,1.49-.31.42.16.81.66.73,1.19-.14,1.02-1.87.8-2.02,1.63-.08.42.32.79.59.9ZM34.29,48.43c-.05-.25-.25-.53-.6-.55-.7-.05-1.11,1.09-.96,2.04.72-.78,1.72-.7,1.55-1.49Z" fill="#606060"/>
        <path d="M51.72,51.31c.76.34,1.27-.46,1.44-.47.33-.01-.01.98-1.23,1.01-.56.01-1.06-.31-1.35-.87-.45-.88-.4-2.04.16-2.85.37-.54.94-.76,1.57-.58.47.13.93.7.82,1.29-.17.93-1.72.72-1.96,1.48-.13.42.23.85.55.99ZM52.5,48.43c-.04-.23-.19-.5-.51-.55-.68-.1-1.22,1-.97,2.02.61-.8,1.63-.65,1.48-1.47Z" fill="#606060"/>
        <path d="M71.62,51.04l.18-.17c.06-.06.12.01.13.06.01.04.08.16.02.25-.46.68-1.58.95-2.23.32-.99-.95-.96-2.62-.06-3.6.39-.43.99-.51,1.47-.31.45.19.81.74.67,1.28-.25.95-1.77.7-1.93,1.52-.08.4.27.78.56.9.41.17.87.07,1.21-.26ZM71.11,48.21c-.14-.3-.53-.45-.85-.22-.56.42-.69,1.18-.57,1.9.74-.74,1.84-.75,1.42-1.68Z" fill="#606060"/>
        <path d="M67.92,50.85c0,.25.2.46.33.5.37.12.7-.54.76-.16s-.49.78-1.08.64c-.39-.1-.67-.44-.67-.93l-.02-4.24c-.1-.06-.3-.12-.3-.19,0-.12.05-.24.2-.26.24-.03.49,0,.61.16.26.33.03.95.16,1.15.1.15.74-.05.84.1.05.08.03.34-.06.34l-.81.04.04,2.85Z" fill="#606060"/>
        <path d="M27.12,48l.04,2.88c0,.23.2.45.37.49.23.04.44-.11.57-.37.19.08.2.24.17.39-.07.37-.79.62-1.29.34-.28-.15-.47-.52-.47-.9l-.02-4.11-.32-.28c.1-.29.39-.27.61-.21s.35.28.35.55v.79s.87,0,.87,0c.02.16.02.27-.01.41l-.86.02Z" fill="#606060"/>
        <path d="M38.28,50.82c0,.27.2.49.37.54.24.07.46-.08.58-.34.15.05.22.26.13.42-.19.37-.64.48-1.03.39s-.68-.45-.68-.92l-.04-4.25c0-.06-.21-.11-.26-.11-.06,0-.1-.16-.03-.23.18-.17.51-.13.66-.03.42.27.16.99.28,1.22.09.17.6,0,.78.08.07.03.07.18.05.29-.04.21-.43.06-.86.15l.03,2.8Z" fill="#606060"/>
        <path d="M60.08,48l.04,2.89c0,.23.2.46.37.48.37.05.71-.63.68-.24,0,.06.06.16,0,.27-.18.39-.61.5-1,.43-.41-.07-.67-.45-.7-.92l-.03-4.27-.26-.08c-.08-.02-.09-.16-.04-.24.1-.15.54-.17.75,0,.12.1.19.27.19.47v.79s.82,0,.82,0c.03.12.03.25,0,.41l-.83.02Z" fill="#606060"/>
        <path d="M49.19,50.82c0,.24.16.48.3.53.41.15.56-.32.68-.32.07,0,.16.15.13.26-.11.44-.57.6-.99.55-.44-.05-.76-.41-.77-.94l-.04-4.22c-.07-.08-.33-.16-.27-.3.15-.31.7-.17.82.03.19.33.02.93.11,1.11.08.15.68-.05.82.13.05.07.04.32-.05.32l-.79.05.05,2.8Z" fill="#606060"/>
        <path d="M47.39,51.76c-.45.19-.87.03-1.35-.06-.02-.23.04-.5.27-.71.18.36.46.53.76.46.32-.07.54-.4.49-.79s-.37-.67-.71-.87c-.72-.42-1.02-1.31-.47-1.99.29-.36.9-.41,1.29-.14.14.1.04.45-.1.52-.18-.22-.43-.35-.66-.25-.24.11-.31.41-.19.67.28.6,1.4.72,1.43,1.85.01.53-.2,1.07-.77,1.31Z" fill="#606060"/>
        <path d="M66.16,51.75c-.49.21-.99.05-1.42-.09.07-.29.11-.47.28-.7.19.33.48.53.75.48.35-.06.56-.42.53-.79-.07-.84-1.38-.97-1.44-1.9-.03-.45.11-.93.53-1.15.33-.18.76-.14,1.06.05.15.09.03.51-.08.45-.24-.12-.44-.31-.69-.19-.23.11-.34.42-.2.71.24.53,1.42.73,1.43,1.84,0,.49-.21,1.06-.74,1.29Z" fill="#606060"/>
        <path d="M40.04,51.77c-.19,0-.31-.01-.37-.11-.1-.15.13-.28.24-.37l.05-3.68c.21-.06.37-.05.51-.02.09.02.13.16.17.36.23-.39.69-.56,1.1-.36.12.06.21.2.21.29,0,.14-.04.29-.2.42-.17-.21-.39-.35-.62-.28-.18.06-.47.29-.48.56l-.05,2.68c0,.31-.21.51-.56.51Z" fill="#606060"/>
      </g>
      <g>
        <path d="M100.68,42.73h-1.53s-.02-23.59-.02-23.59c-.27-2.64-1.71-4.87-4.16-5.86l-9.43-2.89L57.8,1.95c-1.59-.48-3.55-.53-5.15-.03L15.14,13.47c-2.32.71-3.97,3.28-3.98,5.67l-.08,23.59h-1.5s0-23.33,0-23.33c0-2.1.88-4.03,2.22-5.53.98-1.09,2.18-1.69,3.56-2.11L52.36.41c1.71-.52,3.82-.55,5.54-.03l26.79,8.13,11.08,3.47c2.76,1.23,4.8,3.93,4.81,7.07l.09,23.68Z" fill="#969696"/>
        <path d="M92.31,58.33l-15.71,5.23-10.79,3.64-7.64,2.57c-1.86.62-4.24.66-6.15.02l-34.13-11.49c-1.96-1.03-4.1-1.55-6.21-2.4l4.01.04,36.61,12.36c1.86.45,3.73.41,5.6,0l9.27-3.16,22.63-7.57,5-1.7,3.28.02c-1.18.73-2.36,1.22-3.61,1.67l-2.17.77Z" fill="#969696"/>
        <path d="M24.04,50.26c-.57-.11-1.05.09-1.53.52.33-1.03.14-2-.57-2.63-.77-.67-1.72-.84-2.66-.44l-1.01.06c-.43.16-.87-.04-1.13-.32.2-.13.37-.12.5-.1.11.01.15.19.2.27.11-.26,0-.44-.07-.64-.38.16-.5-.24-.71-.21-.04,0-.05.07-.02.11l.11.11c.07.07.12.14.11.19s-.21.1-.26.04c-.19-.25-.25-.59-.25-.84.8.21,1.36.52,1.75,1.31.42-.92-1.04-1.5-2.11-1.8-.02.88.25,1.75,1.1,2.12l-2.3.94c-.7.29-1.46.27-2.14-.05-.69-.33-1.14-1.06-.96-1.8.08-.34.3-.6.57-.67.71-.16.83.6,1.19.98.1-.42-.18-.84-.46-1.06-.32-.25-.81-.28-1.13.02-.71.64-.56,1.81.17,2.44.78.68,1.89.87,2.86.55l1.42-.47c-.59.43-.81,1.13-.79,1.8.97.06,1.89-.62,1.64-1.55-.33.63-.58,1.18-1.29,1.21.08-.99.66-1.25.66-.99,0,.13-.33.14-.34.36,0,.09-.08.23.15.31.19-.59.63-.62.29-.88-.06-.04.04-.16.11-.11.03.02.15.01.21,0,.13-.03.1-.18.02-.21-.09-.03-.17-.04-.29-.16.59-.18,1.12-.45,1.83-.53-.3.52-.37,1.03-.06,1.46.25.35.68.48,1.03.35.39-.15.58-.53.56-.97-.01-.44-.29-.69-.57-1.07.98-.14,1.99.31,2.4,1.17.26.53.21,1.18-.05,1.69-.08-.72-.28-1.38-.89-1.74l-.22.96c-.27.54-.18,1.16.29,1.57.38-.42.55-1.11-.03-1.41.04.42.35.7.05,1.05-.3-.51-.2-1.05.08-1.59.33.45.54,1.04.35,1.58-.21.6-.73,1.04-1.27,1.29.36-.73.21-1.51-.42-1.91-.4-.26-.85-.34-1.36-.49-.03.49-.08.93,0,1.41.21.73.85,1.19,1.58,1.33.78-.25,1.37-.76,1.81-1.44.67-.89,1.79-1.04,2.79-.57-.4.87-1.43,1.1-2.14.59h.69c0-.38.47-.21.63-.38-.15-.14-.53-.22-.71-.14l-1.03.51c.45.57,1.16.67,1.8.48.56-.17,1.03-.69,1.11-1.34l-1.3-.26ZM20.01,48.76c.11.26.11.68-.26.82-.37.15-.65-.22-.69-.49-.04-.27.02-.72.36-.83.25-.08.51.3.6.49ZM20.28,52.28c-.22-.58-.46-1.05-.98-1.31l.65,1.33c-.8-.24-.94-1.08-.83-1.81l.74.31c.56.24.82.9.43,1.48Z" fill="#969696"/>
        <path d="M98.5,47.05c-.1-.53-.5-.91-1.01-.89-.93.04-1.24,1.45-.85,1.18.01,0,.26-.91.86-.92.43-.01.74.36.79.8.09.95-.63,1.69-1.57,1.86-.6.11-1.2,0-1.78-.23l-1.34-.52s-.05-.02-.07-.01l-.14-.08c-.17-.09-.42-.11-.42-.34.75-.28,1.06-1.09,1.03-1.98-.97.25-2.48.78-2.18,1.76.46-.7.96-1.11,1.81-1.29.11.28-.14.76-.38.92-.1-.07-.16-.19-.09-.28.06-.07.22-.1.25-.33-.16-.01-.29.19-.47.23l-.31.07c-.08.02-.13.28-.05.28.22,0,.36.03.38.19l-.23.33c-.23-.02-.66,0-.91-.09h-.7c-.84-.4-1.73-.24-2.49.31-.67.48-1.04,1.34-.86,2.21.03.16.11.3.08.52-.82-.74-1.72-.52-2.76-.23.07.74.56,1.2,1.14,1.35.64.17,1.34.06,1.75-.51l-.98-.49c-.23-.11-.59.02-.85.11.37.33.87-.05.68.45.24-.04.43-.18.74-.04-.72.49-1.76.31-2.16-.6.98-.48,2.09-.27,2.82.56.38.65.92,1.15,1.62,1.45,1.06-.06,1.84-.89,1.78-1.97l-.04-.76-1,.33c-.84.24-1.21,1.08-.93,1.87l-.09.09c-.58-.31-1.32-1.17-1.05-1.86l.44,1.08c.36-.37.54-.88.41-1.39l-.28-1.16c-.58.45-.85,1.06-.91,1.73-.12-.26-.2-.51-.22-.72-.12-1.35,1.27-2.38,2.67-2.13-.32.29-.59.56-.65.88-.07.44,0,.87.39,1.11.42.25.93.04,1.17-.28.28-.38.27-.94.03-1.27-.03,0-.07-.16-.02-.21.63.1,1.18.3,1.79.59l-.5.17c.17.23.33.15.58.17-.06.07-.22.22-.17.29.15.22.29.39.36.61l-.1.06c-.4-.03-.43-.54-.74-.91-.15.95.78,1.66,1.64,1.57.03-.71-.15-1.23-.63-1.74l1.3.38c.88.26,1.83.2,2.63-.36.61-.43.93-1.19.79-1.93ZM90.37,50.9c.28-.18.56-.3.9-.37.11.8-.13,1.6-.97,1.82l.82-1.41c-.51.26-.85.75-1.11,1.35-.28-.5-.14-1.08.35-1.39ZM89.66,52.31c.12.08-.02.24-.1.1l.1-.1ZM88.92,49.56c.23.5.35,1.05.04,1.56-.21-.27-.11-.56.13-.9-.29-.12-.36.2-.56.34-.03-.43.17-.66.39-1ZM91.35,48.94c-.01.27-.15.71-.56.69-.4-.02-.52-.46-.45-.73.06-.23.29-.63.64-.66.27-.02.39.48.38.7ZM93.77,49.45l-.1.11-.04-.08.08-.09.06.06ZM93.52,49.42c0-.07-.01-.21.17-.07l-.17.07ZM93.8,49.48c.22.21.25.56.3.89-.28.01-.47-.09-.54-.28l.07-.09c.11.04.16-.03.15-.09-.02-.11-.07-.23-.11-.31l.13-.11Z" fill="#969696"/>
      </g>
      <g>
        <polygon points="108.33 59.91 93.96 59.91 101.85 55.85 101.85 47.8 107.98 47.82 102.89 53.72 108.33 59.91" fill="#fcfcfb"/>
        <polygon points="16.42 59.9 1.97 59.92 7.34 53.71 2.29 47.82 8.19 47.8 8.18 55.86 16.42 59.9" fill="#fcfcfb"/>
        <path d="M20.28,52.28c-.22-.58-.46-1.05-.98-1.31l.65,1.33c-.8-.24-.94-1.08-.83-1.81l.74.31c.56.24.82.9.43,1.48Z" fill="#fcfcfb"/>
        <path d="M19.75,49.58c-.37.15-.65-.22-.69-.49s.02-.72.36-.83c.25-.08.51.3.6.49.11.26.11.68-.26.82Z" fill="#fcfcfb"/>
        <path d="M9.2,43.78h91.6s0,11.04,0,11.04H9.2s0-11.04,0-11.04ZM30.83,51.31c0,.53.79.54.92.4.05-.05.07-.21.02-.25l-.27-.17-.06-2.74c-.01-.49-.34-.9-.71-1-.47-.13-.9-.06-1.23.32l-.05-2.61c-.1-.09-.6-.11-.61.04l-.03,6c-.11.06-.27.1-.3.16-.03.06-.02.17.03.22.21.19.9.1.91-.27l.07-2.82c0-.37.39-.63.66-.63.35,0,.61.31.62.68l.04,2.68ZM56.16,51.09c.11.4.2.58.41.65s.47.07.59-.15l-.33-.4-.04-5.88c0-.15-.52-.14-.61-.04l-.04,2.9c-.28-.47-.63-.69-1.11-.65-1.43.11-1.83,2.29-1.1,3.65.26.48.7.69,1.17.69.51,0,.87-.3,1.07-.76ZM21.43,51.2c-.3-.51-.2-1.05.08-1.59.33.45.54,1.04.35,1.58-.21.6-.73,1.04-1.27,1.29.36-.73.21-1.51-.42-1.91-.4-.26-.85-.34-1.36-.49-.03.49-.08.93,0,1.41.21.73.85,1.19,1.58,1.33.78-.25,1.37-.76,1.81-1.44.67-.89,1.79-1.04,2.79-.57-.4.87-1.43,1.1-2.14.59h.69c0-.38.47-.21.63-.38-.15-.14-.53-.22-.71-.14l-1.03.51c.45.57,1.16.67,1.8.48.56-.17,1.03-.69,1.11-1.34l-1.3-.26c-.57-.11-1.05.09-1.53.52.33-1.03.14-2-.57-2.63-.77-.67-1.72-.84-2.66-.44l-1.01.06c-.43.16-.87-.04-1.13-.32.2-.13.37-.12.5-.1s.15.19.2.27c.11-.26,0-.44-.07-.64-.38.16-.5-.24-.71-.21-.04,0-.05.07-.02.11l.11.11c.07.07.12.14.11.19s-.21.1-.26.04c-.19-.25-.25-.59-.25-.84.8.21,1.36.52,1.75,1.31.42-.92-1.04-1.5-2.11-1.8-.02.88.25,1.75,1.1,2.12l-2.3.94c-.7.29-1.46.27-2.14-.05s-1.14-1.06-.96-1.8c.08-.34.3-.6.57-.67.71-.16.83.6,1.19.98.1-.42-.18-.84-.46-1.06-.32-.25-.81-.28-1.13.02-.71.64-.56,1.81.17,2.44.78.68,1.89.87,2.86.55l1.42-.47c-.59.43-.81,1.13-.79,1.8.97.06,1.89-.62,1.64-1.55-.33.63-.58,1.18-1.29,1.21.08-.99.66-1.25.66-.99,0,.13-.33.14-.34.36,0,.09-.08.23.15.31.19-.59.63-.62.29-.88-.06-.04.04-.16.11-.11.03.02.15.01.21,0,.13-.03.1-.18.02-.21-.09-.03-.17-.04-.29-.16.59-.18,1.12-.45,1.83-.53-.3.52-.37,1.03-.06,1.46.25.35.68.48,1.03.35.39-.15.58-.53.56-.97s-.29-.69-.57-1.07c.98-.14,1.99.31,2.4,1.17.26.53.21,1.18-.05,1.69-.08-.72-.28-1.38-.89-1.74l-.22.96c-.27.54-.18,1.16.29,1.57.38-.42.55-1.11-.03-1.41.04.42.35.7.05,1.05ZM93.25,47.32c-.1-.07-.16-.19-.09-.28.06-.07.22-.1.25-.33-.16-.01-.29.19-.47.23l-.31.07c-.08.02-.13.28-.05.28.22,0,.36.03.38.19l-.23.33c-.23-.02-.66,0-.91-.09h-.7c-.84-.4-1.73-.24-2.49.31-.67.48-1.04,1.34-.86,2.21.03.16.11.3.08.52-.82-.74-1.72-.52-2.76-.23.07.74.56,1.2,1.14,1.35.64.17,1.34.06,1.75-.51l-.98-.49c-.23-.11-.59.02-.85.11.37.33.87-.05.68.45.24-.04.43-.18.74-.04-.72.49-1.76.31-2.16-.6.98-.48,2.09-.27,2.82.56.38.65.92,1.15,1.62,1.45,1.06-.06,1.84-.89,1.78-1.97l-.04-.76-1,.33c-.84.24-1.21,1.08-.93,1.87,0,0,.02.03.03.03.12.08-.02.24-.1.1,0,0,0-.03-.02-.04-.58-.31-1.32-1.17-1.05-1.86l.44,1.08c.36-.37.54-.88.41-1.39l-.28-1.16c-.58.45-.85,1.06-.91,1.73-.12-.26-.2-.51-.22-.72-.12-1.35,1.27-2.38,2.67-2.13-.32.29-.59.56-.65.88-.07.44,0,.87.39,1.11.42.25.93.04,1.17-.28.28-.38.27-.94.03-1.27-.03,0-.07-.16-.02-.21.63.1,1.18.3,1.79.59l-.5.17c.17.23.33.15.58.17-.06.07-.22.22-.17.29.15.22.29.39.36.61,0,.01.01.02.03.02.11.04.16-.03.15-.09-.02-.11-.07-.23-.11-.31v-.03s-.04-.08-.04-.08c-.01,0-.06.01-.13-.05.06.13-.09-.29.19-.08,0,0,0,.02.02.04l.06.06.03.03c.22.21.25.56.3.89-.28.01-.47-.09-.54-.28-.01-.03-.04-.04-.05-.05-.4-.03-.43-.54-.74-.91-.15.95.78,1.66,1.64,1.57.03-.71-.15-1.23-.63-1.74l1.3.38c.88.26,1.83.2,2.63-.36.61-.43.93-1.19.79-1.93-.1-.53-.5-.91-1.01-.89-.93.04-1.24,1.45-.85,1.18.01,0,.26-.91.86-.92.43-.01.74.36.79.8.09.95-.63,1.69-1.57,1.86-.6.11-1.2,0-1.78-.23l-1.34-.52s-.05-.02-.07-.01l-.14-.08c-.17-.09-.42-.11-.42-.34.75-.28,1.06-1.09,1.03-1.98-.97.25-2.48.78-2.18,1.76.46-.7.96-1.11,1.81-1.29.11.28-.14.76-.38.92ZM27.12,48l.86-.02c.03-.14.04-.25.01-.41h-.86s-.01-.8-.01-.8c0-.27-.13-.49-.35-.55s-.51-.09-.61.21l.32.28.02,4.11c0,.38.19.75.47.9.5.28,1.22.02,1.29-.34.03-.15.02-.32-.17-.39-.13.26-.33.41-.57.37-.17-.03-.37-.25-.37-.49l-.04-2.88ZM38.28,50.82l-.03-2.8c.43-.09.82.06.86-.15.02-.11.02-.26-.05-.29-.18-.08-.69.09-.78-.08-.12-.23.15-.95-.28-1.22-.16-.1-.49-.14-.66.03-.07.07-.03.24.03.23.04,0,.26.05.26.11l.04,4.25c0,.47.31.83.68.92s.83-.02,1.03-.39c.09-.17.01-.37-.13-.42-.12.26-.34.41-.58.34-.17-.05-.37-.27-.37-.54ZM49.19,50.82l-.05-2.8.79-.05c.09,0,.1-.25.05-.32-.13-.18-.74.03-.82-.13-.09-.18.08-.78-.11-1.11-.12-.2-.67-.34-.82-.03-.06.14.19.22.27.3l.04,4.22c0,.53.33.89.77.94.41.05.87-.11.99-.55.03-.11-.07-.26-.13-.26-.12,0-.27.47-.68.32-.13-.05-.29-.28-.3-.53ZM60.08,48l.83-.02c.03-.15.02-.29,0-.41h-.82s0-.78,0-.78c0-.2-.06-.37-.19-.47-.21-.16-.65-.15-.75,0-.06.08-.04.22.04.24l.26.08.03,4.27c.03.47.29.85.7.92.39.07.82-.04,1-.43.05-.11-.01-.21,0-.27.03-.4-.31.29-.68.24-.17-.02-.36-.25-.37-.48l-.04-2.89ZM67.92,50.85l-.04-2.85.81-.04c.09,0,.11-.27.06-.34-.1-.15-.74.05-.84-.1-.13-.2.1-.82-.16-1.15-.12-.16-.37-.19-.61-.16-.15.02-.21.14-.2.26,0,.07.2.13.3.19l.02,4.24c0,.49.27.83.67.93.59.15,1.14-.26,1.08-.64s-.4.28-.76.16c-.13-.04-.33-.25-.33-.5ZM33.5,51.31c-.27-.11-.67-.48-.59-.9.16-.83,1.89-.6,2.02-1.63.07-.53-.32-1.04-.73-1.19-.5-.19-1.08-.11-1.49.31-.9.92-.93,2.64.02,3.58.7.68,1.93.38,2.38-.36.06-.1-.04-.27-.1-.28-.14-.03-.66.81-1.5.47ZM40.04,51.77c.35,0,.56-.2.56-.51l.05-2.68c0-.27.3-.5.48-.56.23-.07.45.07.62.28.16-.12.21-.28.2-.42,0-.09-.09-.23-.21-.29-.41-.2-.87-.03-1.1.36-.04-.21-.08-.35-.17-.36-.14-.03-.3-.04-.51.02l-.05,3.68c-.11.09-.34.22-.24.37.06.1.18.11.37.11ZM47.39,51.76c.57-.24.79-.78.77-1.31-.03-1.14-1.15-1.26-1.43-1.85-.12-.26-.05-.56.19-.67.22-.1.47.03.66.25.14-.06.24-.42.1-.52-.38-.27-.99-.22-1.29.14-.55.68-.25,1.57.47,1.99.34.2.66.49.71.87s-.17.71-.49.79c-.3.07-.59-.1-.76-.46-.23.21-.29.48-.27.71.47.09.9.25,1.35.06ZM51.72,51.31c-.31-.14-.68-.58-.55-.99.24-.75,1.79-.55,1.96-1.48.11-.59-.35-1.16-.82-1.29-.63-.18-1.2.04-1.57.58-.56.81-.61,1.97-.16,2.85.29.56.79.89,1.35.87,1.21-.03,1.55-1.02,1.23-1.01-.18,0-.68.81-1.44.47ZM61.7,51.54c.4.51,1.39.42,1.8-.31.07.33.16.46.36.53.14.05.57,0,.51-.2-.08-.26-.24-.43-.24-.74v-2.37c0-.39-.3-.72-.54-.83-.65-.3-1.52.03-1.55.27-.02.19.03.44.22.49.2-.32.47-.53.82-.46.24.05.36.29.36.49,0,.17-.09.38-.26.49l-1.15.71c-.61.38-.79,1.32-.32,1.92ZM66.16,51.75c.53-.23.75-.8.74-1.29-.01-1.11-1.19-1.31-1.43-1.84-.13-.29-.03-.6.2-.71.25-.12.44.07.69.19.11.06.23-.36.08-.45-.31-.19-.74-.23-1.06-.05-.42.23-.55.7-.53,1.15.06.93,1.37,1.06,1.44,1.9.03.37-.18.73-.53.79-.27.05-.56-.15-.75-.48-.18.23-.21.41-.28.7.44.14.94.3,1.42.09ZM71.62,51.04c-.34.33-.79.43-1.21.26-.29-.12-.63-.5-.56-.9.16-.82,1.68-.58,1.93-1.52.14-.55-.22-1.09-.67-1.28-.49-.21-1.08-.12-1.47.31-.9.98-.92,2.65.06,3.6.66.63,1.78.36,2.23-.32.06-.1,0-.21-.02-.25-.01-.05-.07-.12-.13-.06l-.18.17ZM79.94,51.28c.13.37.25.47.47.49s.46.04.55-.24l-.38-.34v-2.72c-.02-.38-.27-.72-.52-.85-.53-.29-1.54-.02-1.55.34,0,.17,0,.48.23.44.14-.33.42-.5.69-.5s.54.29.45.61c-.21.73-1.62.81-1.88,1.79-.11.43-.12.99.24,1.31.54.48,1.35.22,1.69-.34ZM45.4,47.64c-.12-.1-.6-.11-.6.04l-.07,2.85c-.01.47-.41.79-.81.76s-.7-.34-.71-.79l-.05-2.83c-.02-.14-.46-.13-.59-.05l.03,3.16c0,.56.45.99.92,1.05s.96-.09,1.2-.59c.09.22.11.34.21.43.16.15.69.17.71-.09,0-.1-.09-.24-.23-.32l-.02-3.62ZM77.34,47.64l-.83,3.13-.96-3.15c-.13-.08-.6-.12-.65.02l-.92,3.06-.98-3.03c-.06-.18-.54-.13-.7-.03l1.33,4.09c.18.06.33.06.51,0l.99-3.33,1,3.3c.05.11.47.11.51-.01l1.3-4.04c-.2-.13-.41-.09-.6,0ZM82.94,51.05l1.13-3.37c-.04-.15-.44-.13-.54-.06-.11.08-.08.27-.13.43l-.82,2.73-1-3.06c-.07-.22-.57-.2-.76-.09l1.1,3.3c.47,1.42.27,2.62-.47,2.47-.24-.05-.42-.29-.47-.57-.05-.31.06-.56.27-.71.27-.19.49,0,.81.14-.18-.6-.84-.55-1.21-.28s-.49.77-.33,1.18c.17.43.65.63,1.16.56,1.29-.18.93-1.71,1.25-2.69Z" fill="#fcfcfb"/>
        <path d="M55.79,48.28c.78,1.31.22,3.17-.59,3.2-.87.03-1.3-1.9-.6-3.21.12-.23.41-.36.6-.36.22,0,.46.15.59.37Z" fill="#fcfcfb"/>
        <path d="M90.3,52.34l.82-1.41c-.51.26-.85.75-1.11,1.35-.28-.5-.14-1.08.35-1.39.28-.18.56-.3.9-.37.11.8-.13,1.6-.97,1.82Z" fill="#fcfcfb"/>
        <path d="M89.09,50.22c-.29-.12-.36.2-.56.34-.03-.43.17-.66.39-1,.23.5.35,1.05.04,1.56-.21-.27-.11-.56.13-.9Z" fill="#fcfcfb"/>
        <path d="M63.53,50.46c0,.57-.51,1.09-1.04.89-.32-.12-.39-.52-.37-.8s.17-.57.44-.76l.95-.69.02,1.36Z" fill="#fcfcfb"/>
        <path d="M79,51.36c-.36-.11-.41-.54-.39-.81.02-.31.21-.57.49-.79l.85-.65.03,1.37c.01.49-.41,1.04-.98.87Z" fill="#fcfcfb"/>
        <path d="M34.29,48.43c.17.79-.83.71-1.55,1.49-.16-.95.26-2.09.96-2.04.35.02.54.3.6.55Z" fill="#fcfcfb"/>
        <path d="M52.5,48.43c.15.83-.87.67-1.48,1.47-.25-1.02.29-2.13.97-2.02.32.05.47.32.51.55Z" fill="#fcfcfb"/>
        <path d="M71.11,48.21c.42.93-.68.94-1.42,1.68-.12-.71,0-1.48.57-1.9.31-.23.71-.08.85.22Z" fill="#fcfcfb"/>
        <path d="M90.79,49.63c-.4-.02-.52-.46-.45-.73.06-.23.29-.63.64-.66.27-.02.39.48.38.7-.01.27-.15.71-.56.69Z" fill="#fcfcfb"/>
      </g>
    </g>
  </g>
</svg>