<?xml version="1.0" encoding="UTF-8"?>
<svg id="Layer_2" data-name="Layer 2" xmlns="http://www.w3.org/2000/svg" viewBox="0 0 149.46 36.53">
  <g id="Layer_1-2" data-name="Layer 1">
    <g>
      <path d="M115.7,33.15l-6.62.02-.04-19.44-8.41,12.78c-.5-.44-.8-.87-1.1-1.43l-7.29-10.99-.04,19.13h-6.61s0-2.39,0-2.39V3s7.13-.05,7.13-.05l7.91,12.77,4.08-6.63,3.3-5.28c.07-.32.49-.85.82-.85l6.84.04v30.16Z" fill="#606060"/>
      <path d="M140.85,26.93c1.75-.68,3.02-1.77,4.47-2.92l1.35,1.4,2.78,2.73c-.02.32-.31.73-.58.97-3.5,3.04-5.41,4.01-10.07,4.6-.98.12-1.93.11-2.93,0-3.68-.4-7.1-1.75-9.73-4.45l-1.28-1.45c-2.54-3.42-3.52-7.41-3.04-11.63.35-3.1,1.8-6.69,4-8.86l1.03-1.01c4.15-3.41,8.67-4.33,13.98-3.55,3.3.48,6.16,2.03,8.49,4.42l-1.25,1.53-1.94,2.25-1.06,1.15-1.61-1.25c-3.05-2.37-7.3-2.95-10.58-.85-4.84,3.09-5.49,10.52-1.8,14.64,2.45,2.73,6.26,3.64,9.76,2.28Z" fill="#606060"/>
      <polygon points="67.57 33.5 61.7 33.5 58.04 24.4 57.67 23.52 53.91 14.07 53.04 11.93 52.7 11.05 50.11 4.61 49.62 2.95 56.84 2.97 58.78 8.06 64.73 24 72.54 3 79.78 2.98 74.53 16.14 71.41 23.92 67.57 33.5" fill="#606060"/>
      <path d="M32.78,11.57c1.78-2.51,1.86-5.83.23-8.37-2.37-3.74-8.03-4.15-10.79-1.41l-1.97,1.96v7.9l5.44-5.45c.74-.74,1.67-.86,2.39-.2.76.7.64,1.76-.09,2.49l-2.8,2.8-1.08,1.11-1.14,1.12-1.42,1.46-1.31,1.29v7.91l.96-1.01,11.57-11.6Z" fill="#606060"/>
      <path d="M20.24,16.26l-1.61-1.53-1.39-1.39-1.25-1.25-1.01-1.01-2.97-3.09c-.56-.58-.14-1.68.32-2.01.68-.49,1.6-.61,2.26.06l5.59,5.67.06-.06V3.75l-.03.03-2.19-2.12C14.5-1.27,9.18-.19,7.03,3.86c-1.24,2.34-1.05,5.87.87,7.94l1.18,1.28,1.19,1.16,1.25,1.25,1.24,1.26,1.16,1.17,1.41,1.39,1.18,1.17,1.28,1.28,1.21,1.21,1.25,1.23.02-.02v-7.91h0Z" fill="#969696"/>
      <path d="M5.65,13.91c-1.79-1.79-2.55-4.11-2.67-6.59-3.7,3.01-4.03,7.93-.55,11.34l.78.77,6.53,6.53,1.1,1.12,9.4,9.39v-7.91L5.65,13.91Z" fill="#969696"/>
      <path d="M37.5,7.3c-.03,3.2-1.54,5.6-3.64,7.69l-3.55,3.54-1.21,1.21-1.39,1.4-1.1,1.1-1.39,1.4-1.17,1.18-1.25,1.25-1.16,1.17-1.39,1.36h-.01s0,7.9,0,7.9l.05.05,18.11-18.19c3.12-3.13,2.67-8.18-.9-11.04Z" fill="#606060"/>
    </g>
  </g>
</svg>