<?xml version="1.0" encoding="UTF-8"?>
<svg id="Layer_2" data-name="Layer 2" xmlns="http://www.w3.org/2000/svg" viewBox="0 0 213.54 47.9">
  <g id="Layer_1-2" data-name="Layer 1">
    <g>
      <path d="M10.38,47.5c0,.12.07.23.19.23h.35c.16,0,.23-.09.23-.23v-6.48c0-.12-.1-.23-.23-.23h-.31c-.12,0-.23.1-.23.23v6.48ZM10.76,37.4c.33,0,.59-.26.59-.57,0-.33-.26-.61-.59-.61s-.59.28-.59.61c0,.31.26.57.59.57Z" fill="#606060"/>
      <path d="M21.29,47.5c0,.12.07.23.19.23h.33c.16,0,.23-.09.23-.23v-4.94c.07-.09,1.06-1.2,2.48-1.2,1.32,0,2.06.83,2.06,2.43v3.71c0,.12.1.23.23.23h.31c.12,0,.23-.1.23-.23v-3.71c0-1.94-.85-3.17-2.79-3.17-1.39,0-2.34.85-2.56,1.09l-.07-.74c-.02-.1-.09-.17-.21-.17h-.17c-.14,0-.24.1-.24.23v6.48Z" fill="#606060"/>
      <path d="M37.68,45.94c0,1.11.12,1.96,1.56,1.96.99,0,1.75-.43,2.01-.64.1-.07.12-.17.05-.29l-.12-.21c-.05-.09-.12-.16-.28-.07-.23.14-.97.47-1.58.47-.81,0-.9-.45-.9-1.27v-4.42h2.41c.14,0,.23-.09.23-.23v-.23c0-.12-.09-.23-.23-.23h-2.41v-1.91c0-.12-.1-.23-.23-.23l-.29.02c-.12,0-.23.09-.23.23v1.89h-.81c-.12,0-.21.05-.21.17v.28c0,.14.03.23.21.23h.81v4.47Z" fill="#606060"/>
      <path d="M50.88,43.84c.09-1.42,1.11-2.53,2.63-2.53s2.37,1.18,2.37,2.53h-5.01ZM50.1,44.24c0,2.03,1.3,3.66,3.41,3.66,1.07,0,2.17-.47,2.51-.81.1-.1.12-.21.07-.28l-.17-.24c-.09-.12-.16-.1-.31,0-.42.28-1.13.64-2.04.64-1.56,0-2.63-1.25-2.7-2.74h5.53c.26,0,.26-.4.26-.68,0-1.84-1.32-3.17-3.14-3.17-2.11,0-3.41,1.65-3.41,3.62Z" fill="#606060"/>
      <path d="M66.22,47.5c0,.12.07.23.19.23h.35c.16,0,.23-.09.23-.23v-4.94c.05-.1.71-1.2,2.06-1.2.47,0,.81.17.9.21.12.05.23.03.28-.09l.14-.35c.05-.14-.03-.26-.19-.31-.14-.05-.52-.21-1.07-.21-1.3,0-1.99.83-2.17,1.07l-.07-.71c-.02-.12-.1-.19-.21-.19h-.21c-.12,0-.23.1-.23.23v6.48Z" fill="#606060"/>
      <path d="M79.35,47.5c0,.12.07.23.19.23h.35c.16,0,.23-.09.23-.23v-6.48c0-.12-.1-.23-.23-.23h-.31c-.12,0-.23.1-.23.23v6.48ZM79.73,37.4c.33,0,.59-.26.59-.57,0-.33-.26-.61-.59-.61s-.59.28-.59.61c0,.31.26.57.59.57Z" fill="#606060"/>
      <path d="M90.49,44.24c0-1.59,1.2-2.89,2.74-2.89s2.72,1.3,2.72,2.89-1.2,2.95-2.72,2.95-2.74-1.3-2.74-2.95M89.75,44.24c0,2.03,1.52,3.66,3.48,3.66s3.48-1.63,3.48-3.66-1.54-3.62-3.48-3.62-3.48,1.65-3.48,3.62Z" fill="#606060"/>
      <path d="M126.67,47.12c.38.29,1.09.78,2.27.78,1.39,0,2.46-.88,2.46-1.92,0-1.26-1.14-1.7-2.44-2.18-1.02-.36-1.65-.69-1.65-1.39,0-.47.4-1.11,1.49-1.11.75,0,1.44.38,1.59.49.12.07.26.03.33-.09l.1-.19c.07-.12.03-.26-.07-.33-.35-.23-1.04-.55-1.96-.55-1.59,0-2.27,1.04-2.27,1.8,0,1.07.9,1.61,2.13,2.04,1.16.43,1.94.76,1.94,1.56,0,.68-.68,1.23-1.66,1.23s-1.68-.54-1.85-.68c-.12-.1-.26-.07-.31.02l-.17.28c-.05.09,0,.19.07.24M106.34,47.5c0,.12.07.23.19.23h.35c.16,0,.23-.09.23-.23v-4.94c.05-.1.71-1.2,2.06-1.2.47,0,.81.17.9.21.12.05.23.03.28-.09l.14-.35c.05-.14-.03-.26-.19-.31-.14-.05-.52-.21-1.07-.21-1.3,0-1.99.83-2.17,1.07l-.07-.71c-.02-.12-.1-.19-.21-.19h-.21c-.12,0-.23.1-.23.23v6.48Z" fill="#606060"/>
      <path d="M141.22,45.94c0,1.11.12,1.96,1.56,1.96.99,0,1.75-.43,2.01-.64.1-.07.12-.17.05-.29l-.12-.21c-.05-.09-.12-.16-.28-.07-.23.14-.97.47-1.58.47-.81,0-.9-.45-.9-1.27v-4.42h2.41c.14,0,.23-.09.23-.23v-.23c0-.12-.09-.23-.23-.23h-2.41v-1.91c0-.12-.1-.23-.23-.23l-.29.02c-.12,0-.23.09-.23.23v1.89h-.81c-.12,0-.21.05-.21.17v.28c0,.14.03.23.21.23h.81v4.47Z" fill="#606060"/>
      <path d="M154.04,44.74c0,1.96.83,3.15,2.77,3.15,1.37,0,2.2-.81,2.39-1.06l.07.68c.02.1.07.21.21.21h.21c.12,0,.23-.1.23-.23v-6.48c0-.12-.1-.23-.23-.23h-.31c-.14,0-.23.09-.23.23v4.94c-.05.09-.85,1.21-2.29,1.21-1.32,0-2.06-.81-2.06-2.43v-3.72c0-.12-.1-.23-.23-.23h-.31c-.12,0-.23.1-.23.23v3.72Z" fill="#606060"/>
      <path d="M170.33,44.26c0-1.65,1.13-2.89,2.72-2.89,1.26,0,2.06.73,2.06.73v3.88c-.03.07-.78,1.23-2.29,1.23s-2.49-1.33-2.49-2.95M169.57,44.26c0,2.03,1.4,3.64,3.21,3.64,1.33,0,2.18-.78,2.39-1.01l.05.61c.02.16.1.23.24.23h.17c.12,0,.23-.1.23-.23v-11.68c0-.12-.1-.23-.21-.23h-.31c-.14,0-.23.1-.23.23v5.49s-.81-.69-2.13-.69c-1.98,0-3.41,1.59-3.41,3.64Z" fill="#606060"/>
      <path d="M186.01,47.5c0,.12.07.23.19.23h.35c.16,0,.23-.09.23-.23v-6.48c0-.12-.1-.23-.23-.23h-.31c-.12,0-.23.1-.23.23v6.48ZM186.39,37.4c.33,0,.59-.26.59-.57,0-.33-.26-.61-.59-.61s-.59.28-.59.61c0,.31.26.57.59.57Z" fill="#606060"/>
      <path d="M197.15,44.24c0-1.59,1.2-2.89,2.74-2.89s2.72,1.3,2.72,2.89-1.2,2.95-2.72,2.95-2.74-1.3-2.74-2.95M196.4,44.24c0,2.03,1.52,3.66,3.48,3.66s3.48-1.63,3.48-3.66-1.54-3.62-3.48-3.62-3.48,1.65-3.48,3.62Z" fill="#606060"/>
      <path d="M196.79,27.85c0,.08.03.16.09.21.05.05.12.08.21.08h16.16c.08,0,.15-.03.21-.08h0c.05-.05.09-.13.09-.21v-1.19c0-.08-.03-.16-.09-.21h0c-.05-.05-.12-.08-.21-.08h-14.27v-11.43h12.26c.08,0,.16-.03.21-.09h0c.05-.05.08-.12.08-.21v-1.19c0-.07-.04-.14-.09-.2h0c-.06-.06-.13-.09-.2-.09h-12.26V2.19h14.27c.08,0,.16-.03.21-.08.05-.06.09-.13.09-.21V.7c0-.08-.03-.16-.09-.21-.05-.05-.12-.08-.21-.08h-16.16c-.08,0-.16.03-.21.08h0c-.05.06-.09.13-.09.21v27.15ZM163.88,14.32c0,3.96,1.59,7.52,4.17,10.08,2.59,2.57,6.17,4.15,10.15,4.15,1.81,0,3.58-.32,5.24-.98,1.58-.63,3.07-1.58,4.38-2.85h0s.02-.02.03-.03h0c.05-.07.08-.15.08-.24,0-.05,0-.09-.02-.11h0s-.03-.03-.03-.03l-1.2-1.08s-.07-.03-.11-.03c-.07,0-.16.05-.28.14h0c-1.11.85-2.2,1.63-3.49,2.22-1.3.59-2.78.97-4.64.97-3.33,0-6.28-1.38-8.41-3.58-2.19-2.25-3.51-5.35-3.51-8.68s1.32-6.45,3.51-8.71c2.13-2.2,5.08-3.59,8.42-3.59,1.43,0,2.88.31,4.26.85,1.42.56,2.76,1.37,3.89,2.35l.02.02c.12.12.2.18.25.19,0,0,.04-.03.1-.11l.03-.04,1.11-1.11c.06-.06.09-.13.09-.2,0-.08-.04-.17-.11-.25-1.35-1.15-2.75-2.07-4.31-2.7-1.56-.63-3.28-.98-5.29-.98-3.97,0-7.55,1.6-10.14,4.18-2.59,2.59-4.18,6.17-4.18,10.14ZM139.44,18.68l5.99-13.45.13-.29h.95l.13.29c1.09,2.42,2.04,4.58,3,6.73,1.04,2.34,2.07,4.68,2.99,6.72l.31.68h-13.8l.3-.68ZM133.4,28.15h1.64c.06,0,.12-.02.16-.04h0s.08-.07.09-.1v-.02s3-6.77,3-6.77l.13-.29h15.19l.13.29,3.03,6.77v.02s.05.07.1.1h0s.09.04.16.04h1.64c.07,0,.13-.01.17-.03.04-.02.07-.05.09-.08.02-.03.03-.07.03-.12s-.01-.1-.04-.15h0S146.54.18,146.54.18h0c-.03-.06-.07-.11-.11-.14-.03-.02-.08-.04-.16-.04h-.41c-.07,0-.12.02-.16.04-.04.03-.07.07-.1.12h0s-12.47,27.6-12.47,27.6h0c-.02.06-.04.11-.04.16s.01.09.03.12c.02.03.05.06.09.08.04.02.1.03.17.03ZM114.24,15.18V2.56h7.01c1.83,0,3.52.7,4.75,1.86,1.21,1.14,1.97,2.71,1.97,4.49,0,1.88-.76,3.55-1.96,4.77-1.23,1.24-2.93,1.99-4.76,1.99h-7.01v-.49ZM112.09,27.85c0,.08.03.16.09.21.05.05.12.08.21.08h1.56c.07,0,.14-.04.2-.09.06-.06.09-.13.09-.2v-10.12h7.25c2.37,0,4.54-.98,6.12-2.57,1.57-1.58,2.55-3.76,2.55-6.17s-.98-4.49-2.56-6.05c-1.58-1.56-3.75-2.53-6.14-2.53h-9.06c-.08,0-.16.03-.21.08h0c-.05.06-.09.13-.09.21v27.15ZM86.65,25.37c.33.3,1.73,1.52,3.93,2.37h0c1.23.47,2.71.83,4.39.83,2.33,0,4.46-.76,6-2.04,1.46-1.22,2.38-2.91,2.38-4.86,0-2.22-.83-3.82-2.31-5.13-1.53-1.35-3.77-2.42-6.49-3.53h0c-1.77-.74-3.21-1.53-4.21-2.5-1.05-1.01-1.62-2.21-1.62-3.73,0-1.11.49-2.62,1.83-3.69.96-.77,2.36-1.31,4.31-1.31,2.43,0,4.89,1.51,5.51,1.89h0s.11.07.11.07c.2.11.34.15.44.12h0c.1-.03.21-.15.34-.34h0c.11-.17.17-.27.24-.38h0c.09-.15.19-.3.26-.41h0s.03-.06.05-.09c.09-.18.09-.31.05-.4-.04-.09-.1-.16-.15-.19h0s0,0-.01,0l-.06-.03s-2.87-2.01-6.74-2.01c-2.64,0-4.53.77-5.83,1.85-1.74,1.45-2.42,3.47-2.42,4.96,0,2.2.63,3.72,1.78,4.92,1.18,1.23,2.94,2.16,5.14,3.12h0c2.4,1,4.24,1.94,5.48,2.99,1.32,1.12,1.99,2.36,1.99,3.93,0,1.39-.64,2.69-1.77,3.61-1.04.85-2.49,1.39-4.21,1.39-3.63,0-6.61-2.66-7.18-3.18l-.07-.06h0c-.13-.11-.23-.14-.3-.11-.13.05-.29.21-.44.41h-.01c-.08.11-.19.25-.29.38h0c-.09.12-.19.24-.3.38-.24.4-.03.58.15.73l.02.02h0Z" fill="#606060" fill-rule="evenodd"/>
      <path d="M12.13,28.05c-.3-.17-.5-.43-.6-.68L.19,2.09h0c-.13-.28-.19-.54-.19-.79s.07-.48.19-.68c.13-.2.31-.35.54-.46.23-.1.5-.16.82-.16h2.08c.36,0,.66.09.91.25.29.18.5.43.64.7v.02s8.02,18.48,8.02,18.48L21.73.96h0c.14-.28.34-.53.61-.7h0c.25-.16.54-.26.87-.26h1.74c.32,0,.59.06.82.16.23.11.41.26.54.46.13.2.19.43.19.68s-.06.51-.19.79h0l-11.47,25.3c-.1.25-.31.49-.6.66-.24.14-.54.23-.89.23h-.34c-.35,0-.65-.09-.89-.23" fill="#606060" fill-rule="evenodd"/>
      <path d="M30.24,15.75c0,7.11,2.62,12.15,10.4,12.15,5.57,0,8.72-3.56,8.72-3.56l.47,1.74c.2.67.47,1.14,1.21,1.14h1.27c.67,0,1.28-.6,1.28-1.27V1.66c0-.67-.6-1.27-1.28-1.27h-2.08c-.67,0-1.27.6-1.27,1.27v17.92s-2.89,3.82-7.99,3.82c-3.76,0-6.04-2.48-6.04-7.58V1.66c0-.67-.6-1.27-1.27-1.27h-2.15c-.67,0-1.27.6-1.27,1.27v14.09Z" fill="#606060" fill-rule="evenodd"/>
      <path d="M62.02,11.86c.47-4.16,3.96-7.38,8.45-7.38,4.09,0,7.31,3.49,7.52,7.38h-15.97ZM57.33,14.48c0,7.72,5.03,14.09,13.15,14.09,4.63,0,8.25-1.81,9.86-3.09,1.01-.74.74-1.14.27-1.74-.4-.54-.74-1.01-1.14-1.54-.54-.74-.94-.4-1.88.13-1.54.94-3.82,2.01-6.64,2.01-4.76,0-8.72-4.23-8.99-8.72h19.33c.6,0,1.14-.47,1.21-1.14.07-.47.13-1.34.13-1.81,0-7.05-5.1-12.28-12.15-12.28-8.12,0-13.15,6.51-13.15,14.09Z" fill="#606060" fill-rule="evenodd"/>
    </g>
  </g>
</svg>