<?xml version="1.0" encoding="UTF-8"?>
<svg id="Layer_2" data-name="Layer 2" xmlns="http://www.w3.org/2000/svg" viewBox="0 0 211.8 59.43">
  <g id="Layer_1-2" data-name="Layer 1">
    <g>
      <g>
        <path d="M39.62,37.51c-.1.09-.2.12-.27.11-.14.03-.28,0-.28-.12h.56Z" fill="#969696"/>
        <path d="M120.74,56.76l-6.33.07c.03-3.75.55-7.4,1.72-10.94,1.23-3.42,2.89-6.57,5.57-9.14-1.03,4.01-1.4,7.88-1.26,11.94l.31,8.07Z" fill="#969696"/>
        <path d="M72.2,34.66c-.09-.03-.16-.15-.13-.25-.04-.1.03-.22.14-.18.15.07.13.19.11.25l-.12.17Z" fill="#969696"/>
        <path d="M173.93,32.34c-1.8.04-3.42.1-5.11-.19-2.72-.44-5.01-1.79-7.06-3.61-1.17-1.08-2.07-2.33-3.08-3.59,1.72-.88,3.29-1.79,5.09-2.34,2.45-.8,4.93-.94,7.39-.18,2.22.78,4.06,2.06,5.73,3.72,1.8,1.82,3.25,3.87,4.58,6.15-2.59-.18-4.96-.14-7.53.04Z" fill="#969696"/>
        <path d="M137.35,33.7c-2.36,1.2-4.85,1.59-7.4,1.26-1.33-.2-2.59-.42-3.91-1.01,1.36-1.53,2.34-3.13,3.2-4.88.63-1.48,1.75-2.45,3.24-3.08,2.11-.83,4.37-1.01,6.68-.93,2.4.07,4.68.37,6.96,1.32l-3.23,2.94c-1.63,1.73-3.39,3.18-5.53,4.37Z" fill="#969696"/>
        <path d="M153.75,35.28c-1.79.51-3.58.68-5.43.43-2.18-.35-4.16-1.15-6.03-2.34.38-.45.79-.82,1.28-1.16.44-.62.94-1.14,1.56-1.59,2.18-2.2,5.13-3.23,8.25-2.85,2.34.24,4.42,1.14,6.39,2.37l2.85,2.07-3.96,1.29-4.9,1.78Z" fill="#969696"/>
        <path d="M135.03,22.91l-4.52.36c.14-2.91,1.24-5.6,3.35-7.6,1.56-1.37,3.36-2.15,5.36-2.71,2.17-.51,4.35-.68,6.71-.66l-1.58,3.61c-.55,1.24-1.27,2.29-2.12,3.37-1.87,2.03-4.38,3.27-7.21,3.63Z" fill="#969696"/>
        <path d="M125.21,30.99l-1.9,1.92c-1.24-1.57-2.21-3.17-2.82-5.03-.99-2.92-.69-5.94.85-8.62,1.2-2.15,2.78-3.97,4.64-5.65l.48,2.15,1.23,6.56c.5,3.17-.41,6.19-2.49,8.67Z" fill="#969696"/>
        <path d="M175.3,17.82c-2.21.93-4.45,1.18-6.72.63-1.31-.39-2.51-.96-3.74-1.7l1.52-1.77,1.78-1.49c2.28-1.78,5.03-2.48,7.9-1.94,2.13.36,4.06,1.18,5.99,2.29l-2.11,1.33c-1.47,1.01-2.91,1.98-4.63,2.66Z" fill="#969696"/>
        <path d="M156.82,10.48c-1.03,1.32-2.29,2.39-3.88,2.96-1.71.6-3.45.8-5.21.76.7-2.96,2.5-5.31,5.17-6.55,1.97-.87,4.04-1.12,6.27-.89l-2.35,3.71Z" fill="#969696"/>
        <path d="M193.71,27.99l-7.27-1.16c-1.73-.33-3.38-.63-4.99-1.31-2.69-.96-4.81-2.73-6.45-5.14,2.92-1.28,6.03-1.73,9.12-1.09,2.11.39,3.82,1.39,5.39,2.83,1.79,1.63,3.2,3.61,4.32,5.7-.04.05.02.09.06.07.13.12-.04.25-.13.13l-.05-.03Z" fill="#969696"/>
      </g>
      <g>
        <path d="M86.48,9.13h-1.08s-4.88-6.58-4.88-6.58l.02,6.6-1.15-.02.13-7.84-.42-.89c.49-.09.93-.13,1.44-.06l4.9,6.65-.02-6.58c.39-.08.73-.09,1.14-.05l-.07,8.77Z" fill="#606060"/>
        <path d="M92.03,9.12h-3.38s-.06-8-.06-8l-.55-.16c-.1-.1-.12-.26-.07-.45,1.47-.16,2.93-.34,4.41-.11,2.34.31,3.83,2.26,3.55,4.59-.02,2.25-1.58,3.95-3.9,4.13ZM94.55,4.45c.02-1.73-1.14-3.1-2.8-3.34-.61-.05-1.17-.09-1.83.03v7.12c1.23.34,2.49.19,3.49-.52.89-.84,1.23-2.01,1.14-3.29Z" fill="#606060"/>
        <path d="M67.97,9.13l.02-4.21h-4.12s0,4.23,0,4.23h-1.29s-.04-8.07-.04-8.07l-.44-.14c-.15-.08-.19-.28-.1-.45l1.86-.23.05,3.9,4.04-.05-.02-3.56c.43-.16.82-.21,1.34-.22v8.79s-1.3,0-1.3,0Z" fill="#606060"/>
        <path d="M75.72,6.26l-3.11-.05-1.08,2.94-1.13-.04,3.19-7.99c.03-.27-.02-.48-.09-.72l1.33-.14,3.34,8.84-1.44.05-1.01-2.89ZM75.39,5.42l-1.26-3.55-1.29,3.58,2.55-.03Z" fill="#606060"/>
        <path d="M110.63,4.47c1.1.43,1.77,1.38,1.66,2.43-.04,1.13-.85,2.01-2,2.26-1.1.25-2.19.07-3.27-.37,0-.58-.22-1.12.04-1.82.53.65.8,1.24,1.39,1.36.72.29,1.45.21,2.06-.18.41-.38.59-.89.49-1.44-.08-.48-.5-.89-1.05-1.1-.85-.38-1.71-.63-2.44-1.25-1.03-1.14-.73-3,.61-3.78,1.15-.53,2.43-.49,3.6.03l.1,1.66c-.09.04-.22.06-.43.08-.16-.83-.86-1.36-1.72-1.34-.73,0-1.34.42-1.47,1.08-.19.7.15,1.39.87,1.7l1.58.68Z" fill="#606060"/>
        <path d="M55.77,6.71c.51.92,1.27,1.52,2.26,1.68.99.15,1.9-.11,2.81-.55l.06.75c-1.4.73-3.03.95-4.55.36-1.59-.72-2.48-2.35-2.38-4.1-.13-1.99,1-3.78,2.87-4.42,1.27-.35,2.52-.25,3.82.22.07.61.1,1.27.02,1.96-.55-.2-.47-.64-.69-.97-.69-.56-1.56-.73-2.45-.54-.75.17-1.46.77-1.84,1.61-.51,1.29-.51,2.69.07,4.02Z" fill="#606060"/>
        <path d="M100.71,5.2l-.02,3.94h-1.29s-.03-3.82-.03-3.82l-2.4-4.2c-.21-.22-.42-.32-.54-.7l1.53-.12,2.26,4.03,2.08-3.87c.39-.11.79-.11,1.23-.03l-2.82,4.75Z" fill="#606060"/>
        <path d="M104.84,2.71c-.09.22-.23.36-.36.41-.18.03-.43.03-.56-.19.62-.79.72-1.63.63-2.62.34-.27.78-.31,1.21-.31.18,1.01-.23,1.91-.92,2.71Z" fill="#606060"/>
        <path d="M25.72,38c.98-.19,1.9-.12,2.92-.08-.06.65-.38,1.08-.62,1.67l-7.18,19.41-2.17.03-4.1-12.73-4.52,12.66c-.75.14-1.41.12-2.18.06L1.85,40.14c-.24-.77-.85-1.14-1.63-1.13-.14-.26-.2-.5-.22-.85,1.69,0,3.34-.17,5.11-.36.39,1.62.75,3.13,1.28,4.72l3.63,11.74,3.79-10.89-1.05-3.48c-.14-.5-.51-.81-1.04-.89-.1-.28-.1-.54-.04-.77l4.15-.47.33,1.44,4.62,14.97c1.81-5.43,3.47-10.72,4.97-16.15Z" fill="#606060"/>
        <path d="M79.41,59.26l-5.4-.32.02-18.15c-.05-.48-.07-.88-.27-1.29-.51-.4-1.14-.47-1.78-.38l-.14-1.03,6.8-.52c2.6-.09,5.12.04,7.58.81,3.02.93,5.2,3.26,5.82,6.35.43,2.1.44,4.18-.02,6.28-.85,3.79-3.59,6.66-7.33,7.69-1.69.56-3.41.62-5.27.56ZM87.73,52.78c.95-2.76.93-5.64.12-8.37-.78-2.23-2.37-3.92-4.59-4.71-1.88-.61-3.84-.73-5.78-.21v17.76c1.64.52,3.2.53,4.77.25,2.59-.47,4.57-2.17,5.49-4.72Z" fill="#606060"/>
        <path d="M63.77,59.03c-2.54.63-5.06.5-7.48-.29-2.87-1.1-4.67-3.52-5.42-6.5-.52-2.5-.52-5.08.11-7.57.86-3.11,2.99-5.48,6.03-6.53,2.05-.67,4.14-.78,6.27-.47,3.63.47,6.41,3.03,7.38,6.58.67,2.6.65,5.31-.02,7.91-.93,3.41-3.4,5.93-6.87,6.87ZM64.63,56.62c1.09-1.05,1.68-2.22,2.09-3.62.56-2.18.63-4.42.36-6.67-.25-1.64-.73-3.15-1.65-4.52-1.68-2.57-4.86-3.42-7.62-2.04-1.25.66-2.07,1.8-2.61,3.13-.63,1.59-.82,3.24-.83,4.96-.01,2.6.52,5.13,1.92,7.28,1.86,2.87,5.62,3.56,8.34,1.47Z" fill="#606060"/>
        <path d="M97.57,59.31l-3.71-.57-.06-5.23c.33-.09.62-.1.92,0,.24,1.1.56,2.11,1.25,3,1.72,1.46,4.21,1.74,6.21.77,1.68-1.05,2.36-3.1,1.32-4.75-.82-1.02-1.95-1.58-3.15-2.07-1.54-.62-3.05-1.18-4.42-2.1-1.74-1.25-2.67-3.17-2.31-5.29.07-1.59.83-2.97,2.08-3.93,1.26-.97,2.73-1.41,4.33-1.54,2.01-.14,3.99.16,5.91.68l.12,4.74h-.97c-.18-1.15-.66-2.2-1.57-2.95-1.33-.9-3-1.06-4.51-.49-1.33.48-2.07,1.71-2.14,3.06-.01,1.34.85,2.47,2.13,3.07l4.47,1.94c1.31.57,2.38,1.37,3.19,2.53,1.77,3.36.21,7.43-3.43,8.67-1.8.62-3.68.68-5.67.48Z" fill="#606060"/>
        <path d="M39.07,37.51c0,.11.15.15.28.12.08,0,.18-.03.27-.11,1.52.14,2.97.39,4.31,1.08,2.17,1.04,3.66,2.88,4.37,5.21.85,2.88.83,5.92-.05,8.79-1.01,3.18-3.38,5.52-6.6,6.4-2.21.58-4.46.57-6.67.03-2.76-.72-4.79-2.59-5.84-5.26-1.15-3.12-1.19-6.59-.16-9.74.89-2.29,2.28-4.15,4.44-5.28,1.76-.91,3.66-1.22,5.64-1.23ZM42.51,56.5c1.06-1.08,1.67-2.28,2.04-3.68.6-2.57.64-5.19.04-7.76-.44-1.67-1.13-3.17-2.36-4.37-1.47-1.37-3.43-1.9-5.48-1.36-1.65.41-3.05,1.73-3.75,3.54-.96,2.63-1.1,5.45-.54,8.23.33,1.6.87,3.05,1.83,4.36,1.9,2.67,5.67,3.19,8.21,1.04Z" fill="#606060"/>
        <path d="M137.61,59.16l-.66-6.17-2.53,6.24-.84.04-2.28-6.17-.79,6.06h-1.02s1.21-7.19,1.21-7.19c.1-.43.03-.8-.18-1.23l1.34-.15,2.47,6.66,2.17-5.08c.24-.43.33-.88.25-1.44.42-.09.83-.12,1.3-.1l.98,8.54-1.41-.02Z" fill="#606060"/>
        <path d="M177.24,56.61c-.18-.79-.69-1.29-1.47-1.29-.18.06-.37-.03-.34-.18-.06-.21.02-.37.29-.35.77,0,1.43-.44,1.61-.99.33-.78.14-1.52-.26-2-.58-.51-1.41-.64-2.04-.33v7.68s-1.32-.02-1.32-.02l-.02-7.65c-.3-.21-.66-.08-.88-.57,1.38-.26,2.75-.41,4.11-.22.68.11,1.3.32,1.73.86.39.6.42,1.3.18,2.01-.22.53-.71,1-1.47,1.33.56.23.98.62,1.23,1.24l.57,1.73c.15.63.48.96,1.14,1.36-.75.31-1.55.24-2.12-.21l-.92-2.41Z" fill="#606060"/>
        <path d="M162.87,59.16l-4.68-6.29.08,6.26c-.35.1-.76.08-1.12.03-.02-.48.01-.88.13-1.33l.1-5.6c.04-.59-.22-.98-.77-1.39l1.69-.22,4.63,6.24-.07-6.04c.39-.1.74-.11,1.09-.05l-.16,8.36c-.27.08-.54.08-.93.03Z" fill="#606060"/>
        <path d="M155.31,59.11c-.58.27-1.04.05-1.25-.45l-4.27-5.64.08,6.14h-1.12s.18-7.06.18-7.06c0-.53-.27-.86-.74-1.27l1.66-.15,4.64,6.19-.11-6.01c.34-.13.74-.12,1.14-.1l-.15,2.16-.06,6.18ZM149.74,52.93l-.07.07.07.07.07-.07-.07-.07Z" fill="#606060"/>
        <path d="M146.92,59.05c-.38.16-.82.1-1.25.09-.03-.23,0-.4-.16-.75-.94.79-2.06,1.16-3.29.86-1-.2-1.72-1.04-1.68-2.09l-.02-5.59-.89-.6,2.22-.31.04,6.06c.07.68.38,1.25,1.02,1.48.91.28,1.91.05,2.61-.6v-6.65c.45-.18.9-.21,1.41-.19l-.02,8.29Z" fill="#606060"/>
        <path d="M169.85,56.15h-2.83s-1.05,2.97-1.05,2.97c-.35.11-.7.12-1.03,0l2.9-7.16c.23-.38.25-.76.12-1.22.44-.12.8-.15,1.29-.12l3.17,8.5-1.53.05-1.04-3.02ZM169.62,55.47l-1.17-3.27-1.19,3.26h2.36Z" fill="#606060"/>
        <path d="M45.32,13.97l-2.9,7.55-4.89,13.48-2.19.09-1.46-4.6-2.65-8.33-3.37,9.5-1.14,3.35-2.18.07-6.13-19.14c-.33-.61-.79-.95-1.48-.94-.13-.23-.18-.52-.09-.78,1.72.05,3.26-.19,4.95-.37.26,1.46.63,2.75,1.03,4.15l3.8,12.24,3.8-10.85-1.1-3.59c-.13-.44-.47-.71-.94-.73-.2-.22-.26-.52-.15-.77l4.24-.44c.3,1.55.78,2.96,1.22,4.48l3.72,11.85,4.99-16.19,2.92-.03Z" fill="#606060"/>
        <path d="M81.74,35.22l-4.82-.24v-18.92c-.32-.84-1.13-1-1.99-.88-.19-.28-.21-.65-.21-.98,2.78-.28,5.46-.61,8.28-.59,2.59-.01,5.11.35,7.42,1.42,2.18,1.03,3.67,2.79,4.35,5.11.69,2.77.6,5.67-.4,8.35-1.12,2.9-3.32,5.05-6.25,6.05-2.05.69-4.15.86-6.39.68ZM90.66,28.51c.76-2.48.83-5.01.21-7.46-.79-3.04-3.16-5.19-6.26-5.67-1.45-.24-2.87-.26-4.26.19v17.67c2.71.87,5.59.52,7.84-1.07,1.2-.94,1.91-2.17,2.47-3.66Z" fill="#606060"/>
        <path d="M72.21,34.24c-.11-.04-.18.08-.14.18-.03.1.03.21.13.25.05.18.03.3-.02.43l-1.99.03-12.05-16.55.1,7.43.31,8.98-2.55.08.3-9.33.02-9.65-1.65-2.21,3.98-.29,8.54,11.7,3.17,4.44.19-.19-.11-9.51-.22-6.08,2.52-.11-.42,14.97-.09,5.42ZM70.52,29.69l-.05.23c.12-.02.15-.17.05-.23Z" fill="#606060"/>
        <path d="M105.94,25.17l-.03,9.85-3.38.03.02-9.55-4.97-9.12c-.43-.89-1.23-1.39-2.23-1.33-.08-.27-.09-.5-.02-.76l4.1-.5c.29-.01.56.03.78.23l3.84,7.34,1.04,2.11,4.68-9.24c.91-.39,1.84-.33,2.82-.29l-1.36,2.18-5.28,9.05Z" fill="#606060"/>
        <path d="M48.3,35.1v-18.48c-.03-.52-.14-.95-.43-1.18-.39-.26-.84-.33-1.38-.25-.15-.25-.13-.54-.15-.9l5.31-.53v21.24s-3.34.11-3.34.11Z" fill="#606060"/>
        <path d="M181.63,28.27c1.54,2.2,2.81,4.58,3.91,7.18l-2.87-.65c-3.06-.42-6.09-.38-9.18.05,2.41,1.77,4.17,3.91,5.63,6.38,1.06,1.86,2.05,3.68,2.47,5.89-2.98-.73-5.79-.83-8.71-.84l-5.47-.3c-3.86-.49-7.21-2.56-9.37-5.77-.75-1.09-1.31-2.16-1.82-3.48-5.3,2.41-11.29,1.61-15.94-2.01-3.57,2.43-7.97,3.31-12.23,2.29-1.3-.27-2.41-.69-3.73-1.28-1.17,4.33-1.65,8.64-1.56,13.11l.23,10.35h-10.94c-.07-4.45.3-8.88,1.58-13.19,1.42-4.63,3.87-8.72,7.61-11.94-1.2-1.58-2.2-3.17-2.84-5.02-1.25-3.46-1.04-7.16.67-10.41.83-1.72,1.95-3.14,3.21-4.57,1.59-1.72,3.33-3.18,5.26-4.58l1.81,8.34c1.62-3.22,4.28-5.47,7.68-6.64,3.13-1.11,6.42-1.36,9.81-1.1,2.08-3.35,5.54-5.39,9.49-5.69,2.42-.1,4.75.02,7.12.38-1.09,1.37-1.88,2.59-2.66,3.96-1.03,1.75-2.1,3.36-3.5,4.84,2.02.34,3.79.98,5.59,2.06,1.6-2.18,3.47-4.07,5.88-5.34,2.42-1.29,5.03-1.65,7.72-1.08,3.8.83,7.33,2.6,10.16,5.28-1.66.64-3.19,1.09-4.57,2.14,2.31.22,4.33.6,6.24,1.64,2.21,1.31,3.95,3.1,5.51,5.15,1.78,2.52,3.17,5.18,4.43,8.1-3.13-.99-6.11-1.49-9.24-1.95-2.47-.36-4.82-.7-7.19-1.44l-.18.15ZM156.82,10.48l2.35-3.71c-2.23-.23-4.3.01-6.27.89-2.68,1.24-4.47,3.59-5.17,6.55,1.76.04,3.5-.16,5.21-.76,1.59-.57,2.85-1.64,3.88-2.96ZM175.3,17.82c1.72-.69,3.15-1.66,4.63-2.66l2.11-1.33c-1.93-1.11-3.86-1.93-5.99-2.29-2.87-.54-5.62.16-7.9,1.94l-1.78,1.49-1.52,1.77c1.22.75,2.43,1.32,3.74,1.7,2.27.54,4.51.3,6.72-.63ZM135.03,22.91c2.83-.36,5.34-1.6,7.21-3.63.85-1.09,1.57-2.13,2.12-3.37l1.58-3.61c-2.36-.02-4.54.14-6.71.66-2,.56-3.81,1.34-5.36,2.71-2.1,2.01-3.2,4.7-3.35,7.6l4.52-.36ZM125.21,30.99c2.09-2.48,2.99-5.5,2.49-8.67l-1.23-6.56-.48-2.15c-1.86,1.68-3.45,3.5-4.64,5.65-1.54,2.67-1.84,5.7-.85,8.62.61,1.86,1.58,3.46,2.82,5.03l1.9-1.92ZM159.74,21.74c1.5-.9,3.02-1.53,4.79-2.17-2.09-1.66-4.39-2.84-6.93-3.5-3.57-.9-7.15-.14-10.03,2.12-1.67,1.22-3.04,2.67-4.35,4.16,3.52,2.37,7.64,2.96,11.55,1.65,1.78-.54,3.34-1.36,4.97-2.26ZM193.83,27.82c-1.12-2.09-2.53-4.07-4.32-5.7-1.58-1.44-3.28-2.44-5.39-2.83-3.09-.64-6.2-.19-9.12,1.09,1.64,2.41,3.76,4.18,6.45,5.14,1.61.69,3.26.98,4.99,1.31l7.27,1.16c.02-.07.06-.12.12-.17ZM173.93,32.34c2.57-.18,4.94-.22,7.53-.04-1.33-2.29-2.79-4.33-4.58-6.15-1.67-1.66-3.51-2.93-5.73-3.72-2.46-.76-4.95-.62-7.39.18-1.8.55-3.36,1.46-5.09,2.34,1.01,1.26,1.91,2.51,3.08,3.59,2.05,1.82,4.34,3.17,7.06,3.61,1.69.29,3.31.22,5.11.19ZM137.35,33.7c2.14-1.19,3.9-2.64,5.53-4.37l3.23-2.94c-2.27-.95-4.55-1.26-6.96-1.32-2.31-.08-4.57.1-6.68.93-1.49.63-2.61,1.6-3.24,3.08-.86,1.75-1.84,3.35-3.2,4.88,1.32.59,2.57.8,3.91,1.01,2.55.32,5.05-.06,7.4-1.26ZM153.75,35.28l4.9-1.78,3.96-1.29-2.85-2.07c-1.97-1.24-4.05-2.13-6.39-2.37-3.11-.37-6.07.65-8.25,2.85-.62.45-1.12.97-1.56,1.59-.48.34-.9.71-1.28,1.16,1.88,1.19,3.85,1.99,6.03,2.34,1.85.26,3.64.08,5.43-.43ZM193.89,27.89l-.13.13c.09.13.27-.01.13-.13ZM181.69,28.1c-.06-.1-.2-.07-.21.05l.21-.05ZM173.65,43.86l4.38.21c-1.4-2.61-3.03-4.92-5.25-6.72-2.76-2.37-6.26-3.35-9.84-2.72-1.62.26-3.1.76-4.57,1.4l1.12,2.16c1.87,3.14,5.07,5.16,8.73,5.48l5.43.18ZM120.74,56.76l-.31-8.07c-.14-4.06.23-7.93,1.26-11.94-2.69,2.57-4.34,5.72-5.57,9.14-1.16,3.54-1.69,7.2-1.72,10.94l6.33-.07Z" fill="#606060"/>
        <path d="M203.94,21.98c-2.44,1.18-4.98,1.29-7.46.36-1.91-.67-3.56-1.75-5.13-3.05,1.07-1.68,2.2-3.26,3.75-4.53,1.8-1.51,4-2.21,6.35-1.95l4.72.85,5.63.96-3.48,4.19c-1.32,1.26-2.67,2.38-4.38,3.17ZM204.1,19.29c1.35-.78,2.37-1.78,3.38-3.01l-4.57-1c-1.53-.25-3.04-.35-4.51.15-1.72.63-3.03,1.91-4.01,3.4,1.09.66,2.03,1.09,3.11,1.43,2.26.67,4.56.32,6.61-.98Z" fill="#606060"/>
      </g>
      <g>
        <path d="M173.65,43.86l-5.43-.18c-3.66-.33-6.86-2.34-8.73-5.48l-1.12-2.16c1.47-.65,2.95-1.15,4.57-1.4,3.58-.63,7.08.35,9.84,2.72,2.22,1.8,3.85,4.12,5.25,6.72l-4.38-.21Z" fill="#d3d3d3"/>
        <path d="M159.74,21.74c-1.62.89-3.18,1.72-4.97,2.26-3.91,1.31-8.03.72-11.55-1.65,1.31-1.49,2.68-2.95,4.35-4.16,2.88-2.26,6.46-3.01,10.03-2.12,2.54.66,4.84,1.85,6.93,3.5-1.77.64-3.28,1.27-4.79,2.17Z" fill="#d3d3d3"/>
        <path d="M204.1,19.29c-2.05,1.3-4.35,1.64-6.61.98-1.08-.34-2.02-.77-3.11-1.43.98-1.49,2.29-2.78,4.01-3.4,1.47-.51,2.99-.41,4.51-.15l4.57,1c-1.01,1.23-2.03,2.23-3.38,3.01Z" fill="#d3d3d3"/>
      </g>
    </g>
  </g>
</svg>