<?xml version="1.0" encoding="UTF-8"?>
<svg id="Layer_2" data-name="Layer 2" xmlns="http://www.w3.org/2000/svg" viewBox="0 0 402.79 162.88">
  <g id="Layer_1-2" data-name="Layer 1">
    <g>
      <path d="M402.32.18c-37.45,94.98-130.04,162.19-238.33,162.19-61.91,0-118.68-21.96-162.96-58.53" fill="none" stroke="#ed3d24" stroke-miterlimit="10"/>
      <path d="M9.38,104.35c-.03.27-.28.47-.55.44l-7.61-.82,2.48,7.24c.09.26-.05.55-.31.64-.26.09-.55-.05-.64-.31L.03,103.56c-.06-.16-.02-.34.08-.47.11-.13.27-.2.44-.19l8.39.9c.1.01.19.05.26.11.13.1.2.27.19.44Z" fill="#ed3d24"/>
    </g>
  </g>
</svg>