<?xml version="1.0" encoding="UTF-8"?>
<svg id="Layer_2" data-name="Layer 2" xmlns="http://www.w3.org/2000/svg" viewBox="0 0 356.68 219.2">
  <g id="Layer_1-2" data-name="Layer 1">
    <g>
      <path d="M4.84,218C5.49,97.77,103.15.5,223.54.5c49.96,0,96.02,16.76,132.84,44.95" fill="none" stroke="#ed3d24" stroke-miterlimit="10"/>
      <path d="M9.84,211.29c-.23-.15-.54-.09-.69.14l-4.27,6.35-3.94-6.55c-.14-.24-.45-.31-.69-.17-.24.14-.31.45-.17.69l4.35,7.23c.09.15.25.24.42.24.17,0,.33-.08.43-.22l4.71-7c.05-.08.08-.17.08-.27,0-.16-.07-.33-.22-.43Z" fill="#ed3d24"/>
    </g>
  </g>
</svg>