<?xml version="1.0" encoding="UTF-8"?>
<svg id="Layer_2" data-name="Layer 2" xmlns="http://www.w3.org/2000/svg" viewBox="0 0 570.39 349.46">
  <g id="Layer_1-2" data-name="Layer 1">
    <g>
      <path d="M560.71,2.41c-1.29,191.34-156.8,346.05-348.45,346.05-79.61,0-152.98-26.7-211.66-71.62" fill="none" stroke="#ed3d24" stroke-miterlimit="10" stroke-width="2"/>
      <path d="M550.72,15.83c.46.31,1.08.19,1.39-.27l8.54-12.69,7.89,13.11c.29.47.9.63,1.37.34.47-.29.62-.9.34-1.37l-8.7-14.45c-.18-.29-.49-.48-.83-.48-.34,0-.66.16-.86.44l-9.42,14c-.11.16-.17.35-.17.53,0,.33.15.66.44.86Z" fill="#ed3d24"/>
    </g>
  </g>
</svg>