<?xml version="1.0" encoding="UTF-8"?>
<svg id="Layer_2" data-name="Layer 2" xmlns="http://www.w3.org/2000/svg" viewBox="0 0 527.17 172.32">
  <g id="Layer_1-2" data-name="Layer 1">
    <g>
      <g>
        <path d="M200.41,8.63h16.6v24.93c3.81-2.25,8.2-3.47,12.89-3.47,14.65,0,26.56,12.47,26.56,28.1s-11.91,28.1-26.56,28.1l-11.03-11.65h-1.86v10.63h-16.6V8.63ZM228.33,45.42c-6.25,0-11.33,5.62-11.33,12.77s5.08,12.77,11.33,12.77,11.52-5.82,11.52-12.77-5.27-12.77-11.52-12.77Z" fill="#ed3d24"/>
        <path d="M259.88,31.11h16.6v8.69h2.25l9.18-9.71h13.28v15.33h-14.65c-5.47,0-10.06,5.11-10.06,11.24v28.61h-16.6V31.11Z" fill="#ed3d24"/>
        <path d="M358.7,31.21v54.05h-16.6v-9.6h-2.83l-10.06,10.63c-14.65,0-26.56-12.46-26.56-28.1s11.91-28.1,26.56-28.1c7.32,0,13.96,3.17,18.75,8.18l1.95-7.05h8.79ZM330.77,70.96c6.25,0,11.33-5.62,11.33-12.77s-5.08-12.77-11.33-12.77-11.52,5.72-11.52,12.77,5.27,12.77,11.52,12.77Z" fill="#ed3d24"/>
        <path d="M362.62,31.11h16.6v8.69h2.25l9.18-9.71c13.86,0,25.09,11.85,25.09,26.57v28.61h-16.6v-28.61c0-6.23-4.39-11.24-9.86-11.24s-10.06,5.11-10.06,11.24v28.61h-16.6V31.11Z" fill="#ed3d24"/>
        <path d="M475.21,8.63v76.64h-16.6v-9.6h-2.83l-10.06,10.63c-14.65,0-26.56-12.46-26.56-28.1s11.91-28.1,26.56-28.1c4.69,0,9.08,1.23,12.89,3.47V8.63h16.6ZM447.28,70.96c6.25,0,11.33-5.62,11.33-12.77s-5.08-12.77-11.33-12.77-11.52,5.72-11.52,12.77,5.27,12.77,11.52,12.77Z" fill="#ed3d24"/>
      </g>
      <g>
        <path d="M284.33,130.09c0-4.55-31.9-1.82-31.9-21.14,0-10.52,6.67-16.59,18.56-16.59h27.55v15.17h-27.45c-1.35,0-2.22.51-2.22,1.32,0,4.96,31.9,2.83,31.9,21.54,0,9.91-7.83,16.59-25.04,16.59-8.8,0-19.14-2.63-25.42-6.88l10.44-11.93c3.77,2.22,12.47,3.64,17.98,3.64,3.58,0,5.6-.61,5.6-1.72Z" fill="#ed3d24"/>
        <path d="M331.39,91.36c-15.36,0-27.71,12.15-27.71,27.31s12.45,27.31,27.71,27.31h20.03v-15.16h-19.93c-3.86,0-7.24-2.03-9.27-5.18h23.75l10.08-10.49h2.77c-1.89-13.81-13.64-23.79-27.44-23.79ZM321.17,113.69c1.83-4.23,5.89-7.17,10.32-7.17s8.32,2.94,10.15,7.17h-20.47Z" fill="#ed3d24"/>
        <path d="M219.65,91.36c-15.36,0-27.71,12.15-27.71,27.31s12.45,27.31,27.71,27.31h20.03v-15.16h-19.93c-3.86,0-7.24-2.03-9.27-5.18h23.75l10.08-10.49h2.77c-1.89-13.81-13.64-23.79-27.44-23.79ZM209.43,113.69c1.83-4.23,5.89-7.17,10.32-7.17s8.32,2.94,10.15,7.17h-20.47Z" fill="#ed3d24"/>
        <path d="M499.72,91.36c-15.36,0-27.71,12.15-27.71,27.31s12.45,27.31,27.71,27.31h20.03v-15.16h-19.93c-3.86,0-7.24-2.03-9.27-5.18h23.75l10.08-10.49h2.77c-1.89-13.81-13.64-23.79-27.44-23.79ZM489.5,113.69c1.83-4.23,5.89-7.17,10.32-7.17s8.32,2.94,10.15,7.17h-20.47Z" fill="#ed3d24"/>
        <path d="M362.53,92.36h16.43v8.6h2.22l9.08-9.61c13.73,0,24.84,11.73,24.84,26.3v28.32h-16.43v-28.32c0-6.17-4.35-11.13-9.76-11.13s-9.96,5.06-9.96,11.13v28.32h-16.43v-53.61Z" fill="#ed3d24"/>
        <path d="M452.52,130.09c0-4.55-31.9-1.82-31.9-21.14,0-10.52,6.67-16.59,18.56-16.59h27.55v15.17h-27.45c-1.35,0-2.22.51-2.22,1.32,0,4.96,31.9,2.83,31.9,21.54,0,9.91-7.83,16.59-25.03,16.59-8.8,0-19.14-2.63-25.42-6.88l10.44-11.93c3.77,2.22,12.47,3.64,17.98,3.64,3.58,0,5.61-.61,5.61-1.72Z" fill="#ed3d24"/>
        <path d="M358.87,115.15v.14s0-.1-.03-.14h.03Z" fill="#ed3d24"/>
      </g>
      <path d="M143.76,154.33c-17.38,11.57-38.11,17.46-58.75,16.84-20.16-.41-39.67-7.28-55.06-20.05-13.29-11.03-23.11-26.83-27.38-43.52C-2.22,88.94-.17,68.89,7.62,51.34c6.68-15.06,19.62-27.98,33.69-36.23C57.62,5.53,77.67-.53,96.65.04c19.36.58,38.11,7.79,53.1,20.01,11.13,9.07,19.4,20.34,24.81,33.6,6.7,16.4,8.01,34.02,4.16,51.27-4.92,20.28-17.34,37.69-34.96,49.41ZM64.15,91.56c-10.03-.87-13.91-11.19-9.1-19.22,1.38-2.3,10.85-10.08,33.78-16.9,7.21-2.14,14.64-3.65,21.6-6.56,6.2-2.6,12.92-6.59,13.56-14.07.4-4.66-3.52-8.52-6.95-11.07-13.99-10.4-33.63-12.44-50.31-8.85-16.45,3.55-31.93,13.01-40.37,27.82-5.76,10.12-8.69,21.91-8.63,33.53.08,16.56,5.27,33,14.46,46.75,9.39,14.05,23.06,25.2,38.73,31.54,14.69,5.93,31.73,7.21,47.06,3.09,3.85-1.03,7.6-2.4,11.21-4.1,3.78-1.78,6.92-4.35,10.26-6.84,1.11-.83,2.23-1.67,3.22-2.64,1.06-1.05,1.96-2.24,2.86-3.44,1.41-1.88,2.84-3.77,3.91-5.87,2.99-5.84,2.87-12.63.08-18.51-4.13-8.7-9.44-13.97-21.54-18.26-13.46-4.77-26.19-3.13-63.81-6.4ZM100.85,77.01c1.7.11,3.4.27,5.1.46,13.38,1.52,27.15,5.83,37.62,14.6,4.01,3.36,7.46,7.5,9.72,12.24,2.42,5.06,4.07,15.36,2.86,20.94l1.42-2.93c3.65-6.99,4.55-15.76,4.91-23.55.82-17.55-3.85-34.87-13.49-49.56-6.42-9.78-14.87-18.18-24.7-24.52.28.18,1.48,2.58,1.59,3.01,1.74,6.85.96,12.72-4.49,17.59-5.15,4.61-11.75,7.29-18.33,9.13-7.3,2.04-14.86,3.65-22.18,5.83-7.1,2.11-15.2,4.74-21.04,9.47-1.65,1.34-5.14,3.94-4.53,6.43.82,3.4,7.43,2.41,9.8,2.18,4.57-.43,9.14-.85,13.72-1.15,7.33-.48,14.69-.66,22.02-.17Z" fill="#ed3d24"/>
      <text transform="translate(191.94 167.2) scale(.95 1)" fill="#ed3d24" font-family="Hero, Hero" font-size="20.5"><tspan x="0" y="0">Sense the Strategy, Drive the Results.</tspan></text>
    </g>
  </g>
</svg>