<?xml version="1.0" encoding="UTF-8"?>
<svg id="Layer_2" data-name="Layer 2" xmlns="http://www.w3.org/2000/svg" viewBox="0 0 266.34 93.6">
  <g id="Layer_1-2" data-name="Layer 1">
    <g>
      <rect width="266.34" height="93.6" fill="#ed3d24"/>
      <g>
        <g>
          <path d="M109.32,19.99h6.21v9.33c1.42-.84,3.07-1.3,4.82-1.3,5.48,0,9.94,4.66,9.94,10.51s-4.46,10.51-9.94,10.51l-4.13-4.36h-.69v3.98h-6.21v-28.67ZM119.77,33.76c-2.34,0-4.24,2.1-4.24,4.78s1.9,4.78,4.24,4.78,4.31-2.18,4.31-4.78-1.97-4.78-4.31-4.78Z" fill="#f7f7f7"/>
          <path d="M131.57,28.4h6.21v3.25h.84l3.43-3.63h4.97v5.73h-5.48c-2.05,0-3.76,1.91-3.76,4.21v10.7h-6.21v-20.26Z" fill="#f7f7f7"/>
          <path d="M168.54,28.44v20.22h-6.21v-3.59h-1.06l-3.76,3.98c-5.48,0-9.94-4.66-9.94-10.51s4.46-10.51,9.94-10.51c2.74,0,5.22,1.19,7.01,3.06l.73-2.64h3.29ZM158.1,43.31c2.34,0,4.24-2.1,4.24-4.78s-1.9-4.78-4.24-4.78-4.31,2.14-4.31,4.78,1.97,4.78,4.31,4.78Z" fill="#f7f7f7"/>
          <path d="M170.01,28.4h6.21v3.25h.84l3.43-3.63c5.19,0,9.39,4.43,9.39,9.94v10.7h-6.21v-10.7c0-2.33-1.64-4.21-3.69-4.21s-3.76,1.91-3.76,4.21v10.7h-6.21v-20.26Z" fill="#f7f7f7"/>
          <path d="M212.13,19.99v28.67h-6.21v-3.59h-1.06l-3.76,3.98c-5.48,0-9.94-4.66-9.94-10.51s4.46-10.51,9.94-10.51c1.75,0,3.4.46,4.82,1.3v-9.33h6.21ZM201.68,43.31c2.34,0,4.24-2.1,4.24-4.78s-1.9-4.78-4.24-4.78-4.31,2.14-4.31,4.78,1.97,4.78,4.31,4.78Z" fill="#f7f7f7"/>
        </g>
        <g>
          <path d="M140.72,65.43c0-1.7-11.93-.68-11.93-7.91,0-3.94,2.49-6.21,6.94-6.21h10.31v5.68h-10.27c-.51,0-.83.19-.83.49,0,1.85,11.93,1.06,11.93,8.06,0,3.71-2.93,6.21-9.37,6.21-3.29,0-7.16-.98-9.51-2.57l3.91-4.46c1.41.83,4.67,1.36,6.73,1.36,1.34,0,2.1-.23,2.1-.64Z" fill="#f7f7f7"/>
          <path d="M158.33,50.94c-5.75,0-10.37,4.54-10.37,10.22s4.66,10.22,10.37,10.22h7.49v-5.67h-7.46c-1.44,0-2.71-.76-3.47-1.94h8.89l3.77-3.92h1.04c-.71-5.17-5.1-8.9-10.27-8.9ZM154.5,59.3c.68-1.58,2.2-2.68,3.86-2.68s3.11,1.1,3.8,2.68h-7.66Z" fill="#f7f7f7"/>
          <path d="M116.52,50.94c-5.75,0-10.37,4.54-10.37,10.22s4.66,10.22,10.37,10.22h7.49v-5.67h-7.46c-1.44,0-2.71-.76-3.47-1.94h8.89l3.77-3.92h1.04c-.71-5.17-5.1-8.9-10.27-8.9ZM112.7,59.3c.68-1.58,2.2-2.68,3.86-2.68s3.11,1.1,3.8,2.68h-7.66Z" fill="#f7f7f7"/>
          <path d="M221.3,50.94c-5.75,0-10.37,4.54-10.37,10.22s4.66,10.22,10.37,10.22h7.49v-5.67h-7.46c-1.44,0-2.71-.76-3.47-1.94h8.89l3.77-3.92h1.04c-.71-5.17-5.1-8.9-10.27-8.9ZM217.48,59.3c.68-1.58,2.2-2.68,3.86-2.68s3.11,1.1,3.8,2.68h-7.66Z" fill="#f7f7f7"/>
          <path d="M169.98,51.32h6.15v3.22h.83l3.4-3.6c5.14,0,9.29,4.39,9.29,9.84v10.6h-6.15v-10.6c0-2.31-1.63-4.16-3.65-4.16s-3.72,1.89-3.72,4.16v10.6h-6.15v-20.06Z" fill="#f7f7f7"/>
          <path d="M203.64,65.43c0-1.7-11.93-.68-11.93-7.91,0-3.94,2.5-6.21,6.94-6.21h10.31v5.68h-10.27c-.51,0-.83.19-.83.49,0,1.85,11.93,1.06,11.93,8.06,0,3.71-2.93,6.21-9.37,6.21-3.29,0-7.16-.98-9.51-2.57l3.91-4.46c1.41.83,4.66,1.36,6.73,1.36,1.34,0,2.1-.23,2.1-.64Z" fill="#f7f7f7"/>
          <path d="M168.61,59.84v.05s0-.04-.01-.05h.01Z" fill="#f7f7f7"/>
        </g>
        <path d="M88.13,74.5c-6.5,4.33-14.26,6.53-21.98,6.3-7.54-.15-14.84-2.72-20.6-7.5-4.97-4.13-8.65-10.04-10.24-16.28-1.79-6.98-1.02-14.48,1.89-21.05,2.5-5.63,7.34-10.47,12.6-13.55,6.1-3.58,13.6-5.85,20.71-5.64,7.24.22,14.26,2.91,19.87,7.49,4.16,3.39,7.26,7.61,9.28,12.57,2.51,6.14,3,12.73,1.55,19.18-1.84,7.59-6.49,14.1-13.08,18.48ZM58.35,51.02c-3.75-.33-5.2-4.19-3.4-7.19.51-.86,4.06-3.77,12.64-6.32,2.7-.8,5.48-1.36,8.08-2.45,2.32-.97,4.83-2.47,5.07-5.26.15-1.74-1.32-3.19-2.6-4.14-5.23-3.89-12.58-4.66-18.82-3.31-6.16,1.33-11.94,4.87-15.1,10.41-2.16,3.78-3.25,8.2-3.23,12.55.03,6.19,1.97,12.35,5.41,17.49,3.51,5.26,8.63,9.43,14.49,11.8,5.5,2.22,11.87,2.7,17.61,1.15,1.44-.39,2.84-.9,4.19-1.53s2.59-1.63,3.84-2.56c.42-.31.83-.62,1.2-.99.4-.39.73-.84,1.07-1.29.53-.7,1.06-1.41,1.46-2.2,1.12-2.19,1.08-4.73.03-6.92-1.55-3.25-3.53-5.23-8.06-6.83-5.04-1.78-9.8-1.17-23.87-2.4ZM72.08,45.57c.64.04,1.27.1,1.91.17,5.01.57,10.16,2.18,14.07,5.46,1.5,1.26,2.79,2.8,3.64,4.58.9,1.89,1.52,5.75,1.07,7.83l.53-1.1c1.37-2.62,1.7-5.89,1.84-8.81.31-6.57-1.44-13.04-5.05-18.54-2.4-3.66-5.56-6.8-9.24-9.17.1.07.56.96.6,1.12.65,2.56.36,4.76-1.68,6.58-1.93,1.72-4.4,2.73-6.86,3.42-2.73.76-5.56,1.37-8.3,2.18-2.66.79-5.69,1.77-7.87,3.54-.62.5-1.92,1.47-1.7,2.41.31,1.27,2.78.9,3.66.82,1.71-.16,3.42-.32,5.13-.43,2.74-.18,5.5-.25,8.24-.06Z" fill="#f7f7f7"/>
        <text transform="translate(106.15 79.32) scale(.95 1)" fill="#d3d3d3" font-family="Hero, Hero" font-size="7.67"><tspan x="0" y="0">Sense the Strategy, Drive the Results.</tspan></text>
      </g>
    </g>
  </g>
</svg>