<?xml version="1.0" encoding="UTF-8"?>
<svg id="Layer_2" data-name="Layer 2" xmlns="http://www.w3.org/2000/svg" viewBox="0 0 266.34 93.6">
  <g id="Layer_1-2" data-name="Layer 1">
    <g>
      <rect width="266.34" height="93.6" fill="#ed3d24"/>
      <g>
        <g>
          <path d="M109.32,19.99h6.21v9.33c1.42-.84,3.07-1.3,4.82-1.3,5.48,0,9.94,4.66,9.94,10.51s-4.46,10.51-9.94,10.51l-4.13-4.36h-.69v3.98h-6.21v-28.67ZM119.77,33.76c-2.34,0-4.24,2.1-4.24,4.78s1.9,4.78,4.24,4.78,4.31-2.18,4.31-4.78-1.97-4.78-4.31-4.78Z" fill="#f7f7f7"/>
          <path d="M131.57,28.4h6.21v3.25h.84l3.43-3.63h4.97v5.73h-5.48c-2.05,0-3.76,1.91-3.76,4.21v10.7h-6.21v-20.26Z" fill="#f7f7f7"/>
          <path d="M168.54,28.44v20.22h-6.21v-3.59h-1.06l-3.76,3.98c-5.48,0-9.94-4.66-9.94-10.51s4.46-10.51,9.94-10.51c2.74,0,5.22,1.19,7.01,3.06l.73-2.64h3.29ZM158.1,43.31c2.34,0,4.24-2.1,4.24-4.78s-1.9-4.78-4.24-4.78-4.31,2.14-4.31,4.78,1.97,4.78,4.31,4.78Z" fill="#f7f7f7"/>
          <path d="M170.01,28.4h6.21v3.25h.84l3.43-3.63c5.19,0,9.39,4.43,9.39,9.94v10.7h-6.21v-10.7c0-2.33-1.64-4.21-3.69-4.21s-3.76,1.91-3.76,4.21v10.7h-6.21v-20.26Z" fill="#f7f7f7"/>
          <path d="M212.13,19.99v28.67h-6.21v-3.59h-1.06l-3.76,3.98c-5.48,0-9.94-4.66-9.94-10.51s4.46-10.51,9.94-10.51c1.75,0,3.4.46,4.82,1.3v-9.33h6.21ZM201.68,43.31c2.34,0,4.24-2.1,4.24-4.78s-1.9-4.78-4.24-4.78-4.31,2.14-4.31,4.78,1.97,4.78,4.31,4.78Z" fill="#f7f7f7"/>
        </g>
        <g>
          <path d="M140.72,65.43c0-1.7-11.93-.68-11.93-7.91,0-3.94,2.49-6.21,6.94-6.21h10.31v5.68h-10.27c-.51,0-.83.19-.83.49,0,1.85,11.93,1.06,11.93,8.06,0,3.71-2.93,6.21-9.37,6.21-3.29,0-7.16-.98-9.51-2.57l3.91-4.46c1.41.83,4.67,1.36,6.73,1.36,1.34,0,2.1-.23,2.1-.64Z" fill="#f7f7f7"/>
          <path d="M158.33,50.94c-5.75,0-10.37,4.54-10.37,10.22s4.66,10.22,10.37,10.22h7.49v-5.67h-7.46c-1.44,0-2.71-.76-3.47-1.94h8.89l3.77-3.92h1.04c-.71-5.17-5.1-8.9-10.27-8.9ZM154.5,59.3c.68-1.58,2.2-2.68,3.86-2.68s3.11,1.1,3.8,2.68h-7.66Z" fill="#f7f7f7"/>
          <path d="M116.52,50.94c-5.75,0-10.37,4.54-10.37,10.22s4.66,10.22,10.37,10.22h7.49v-5.67h-7.46c-1.44,0-2.71-.76-3.47-1.94h8.89l3.77-3.92h1.04c-.71-5.17-5.1-8.9-10.27-8.9ZM112.7,59.3c.68-1.58,2.2-2.68,3.86-2.68s3.11,1.1,3.8,2.68h-7.66Z" fill="#f7f7f7"/>
          <path d="M221.3,50.94c-5.75,0-10.37,4.54-10.37,10.22s4.66,10.22,10.37,10.22h7.49v-5.67h-7.46c-1.44,0-2.71-.76-3.47-1.94h8.89l3.77-3.92h1.04c-.71-5.17-5.1-8.9-10.27-8.9ZM217.48,59.3c.68-1.58,2.2-2.68,3.86-2.68s3.11,1.1,3.8,2.68h-7.66Z" fill="#f7f7f7"/>
          <path d="M169.98,51.32h6.15v3.22h.83l3.4-3.6c5.14,0,9.29,4.39,9.29,9.84v10.6h-6.15v-10.6c0-2.31-1.63-4.16-3.65-4.16s-3.72,1.89-3.72,4.16v10.6h-6.15v-20.06Z" fill="#f7f7f7"/>
          <path d="M203.64,65.43c0-1.7-11.93-.68-11.93-7.91,0-3.94,2.5-6.21,6.94-6.21h10.31v5.68h-10.27c-.51,0-.83.19-.83.49,0,1.85,11.93,1.06,11.93,8.06,0,3.71-2.93,6.21-9.37,6.21-3.29,0-7.16-.98-9.51-2.57l3.91-4.46c1.41.83,4.66,1.36,6.73,1.36,1.34,0,2.1-.23,2.1-.64Z" fill="#f7f7f7"/>
          <path d="M168.61,59.84v.05s0-.04-.01-.05h.01Z" fill="#f7f7f7"/>
        </g>
        <path d="M88.13,74.5c-6.5,4.33-14.26,6.53-21.98,6.3-7.54-.15-14.84-2.72-20.6-7.5-4.97-4.13-8.65-10.04-10.24-16.28-1.79-6.98-1.02-14.48,1.89-21.05,2.5-5.63,7.34-10.47,12.6-13.55,6.1-3.58,13.6-5.85,20.71-5.64,7.24.22,14.26,2.91,19.87,7.49,4.16,3.39,7.26,7.61,9.28,12.57,2.51,6.14,3,12.73,1.55,19.18-1.84,7.59-6.49,14.1-13.08,18.48ZM58.35,51.02c-3.75-.33-5.2-4.19-3.4-7.19.51-.86,4.06-3.77,12.64-6.32,2.7-.8,5.48-1.36,8.08-2.45,2.32-.97,4.83-2.47,5.07-5.26.15-1.74-1.32-3.19-2.6-4.14-5.23-3.89-12.58-4.66-18.82-3.31-6.16,1.33-11.94,4.87-15.1,10.41-2.16,3.78-3.25,8.2-3.23,12.55.03,6.19,1.97,12.35,5.41,17.49,3.51,5.26,8.63,9.43,14.49,11.8,5.5,2.22,11.87,2.7,17.61,1.15,1.44-.39,2.84-.9,4.19-1.53s2.59-1.63,3.84-2.56c.42-.31.83-.62,1.2-.99.4-.39.73-.84,1.07-1.29.53-.7,1.06-1.41,1.46-2.2,1.12-2.19,1.08-4.73.03-6.92-1.55-3.25-3.53-5.23-8.06-6.83-5.04-1.78-9.8-1.17-23.87-2.4ZM72.08,45.57c.64.04,1.27.1,1.91.17,5.01.57,10.16,2.18,14.07,5.46,1.5,1.26,2.79,2.8,3.64,4.58.9,1.89,1.52,5.75,1.07,7.83l.53-1.1c1.37-2.62,1.7-5.89,1.84-8.81.31-6.57-1.44-13.04-5.05-18.54-2.4-3.66-5.56-6.8-9.24-9.17.1.07.56.96.6,1.12.65,2.56.36,4.76-1.68,6.58-1.93,1.72-4.4,2.73-6.86,3.42-2.73.76-5.56,1.37-8.3,2.18-2.66.79-5.69,1.77-7.87,3.54-.62.5-1.92,1.47-1.7,2.41.31,1.27,2.78.9,3.66.82,1.71-.16,3.42-.32,5.13-.43,2.74-.18,5.5-.25,8.24-.06Z" fill="#f7f7f7"/>
        <g>
          <path d="M106.85,78.11c.19.64.99.78,1.57.78.62,0,1.57-.2,1.57-.97,0-.67-.76-.72-1.56-.79-1-.08-2.07-.18-2.07-1.33,0-1.01,1.1-1.47,1.99-1.47.76,0,1.71.19,2.01,1.07.11.31-.38.45-.49.18-.22-.58-.99-.68-1.51-.68-.49,0-1.43.21-1.43.91s.72.74,1.57.81c.99.09,2.06.15,2.06,1.3s-1.24,1.54-2.13,1.54c-.74,0-1.87-.27-2.11-1.19-.09-.34.48-.45.54-.14Z" fill="#d3d3d3"/>
          <path d="M113.4,75.43c.82.24,1.33.94,1.34,1.93h0c.01.16-.06.35-.35.35h-2.86c.09.63.6,1.15,1.33,1.15.33,0,.68-.09.96-.32.25-.25.63.07.35.38-.33.33-.82.47-1.29.46-.57,0-1.13-.23-1.47-.68-.78-1.09-.44-2.85.91-3.25.34-.11.73-.1,1.09,0h0ZM111.5,77.24h2.73c-.05-.65-.43-1.15-.99-1.3h0c-.24-.07-.54-.07-.78,0-.58.16-.92.68-.96,1.3Z" fill="#d3d3d3"/>
          <path d="M118.55,77.07c0-.71-.54-1.2-1.12-1.2-.7,0-1.36.61-1.36,1.45v1.78c0,.17-.09.27-.26.27s-.28-.1-.28-.27v-3.44c0-.35.52-.36.52,0v.48c.26-.56.82-.8,1.38-.8.84,0,1.65.61,1.65,1.72v2.03c0,.17-.09.27-.26.27s-.27-.1-.27-.27v-2.03Z" fill="#d3d3d3"/>
          <path d="M120.29,78.36c.07.35.64.52,1.17.52.36,0,1.12-.17,1.12-.7,0-.49-.55-.51-1.14-.56-.78-.08-1.62-.15-1.62-1.09,0-.82.88-1.17,1.58-1.17.56,0,1.33.1,1.59.79.1.35-.4.49-.49.2-.16-.45-.77-.48-1.09-.48-.42,0-1.05.19-1.05.67s.54.48,1.12.53c.8.08,1.65.15,1.65,1.11s-1.04,1.21-1.65,1.21-1.53-.16-1.67-.93c-.09-.32.44-.48.51-.1Z" fill="#d3d3d3"/>
          <path d="M126.02,75.43c.82.24,1.33.94,1.34,1.93h0c.01.16-.06.35-.35.35h-2.86c.09.63.6,1.15,1.33,1.15.33,0,.68-.09.96-.32.25-.25.63.07.35.38-.33.33-.82.47-1.29.46-.57,0-1.13-.23-1.47-.68-.78-1.09-.44-2.85.91-3.25.34-.11.73-.1,1.09,0h0ZM124.12,77.24h2.73c-.05-.65-.43-1.15-.99-1.3h0c-.24-.07-.54-.07-.78,0-.58.16-.92.68-.96,1.3Z" fill="#d3d3d3"/>
          <path d="M131.57,75.42c.33,0,.33.48,0,.48h-.79v2.07c0,.44.07.9.56.9.11,0,.27-.04.34-.08.3-.18.54.27.22.46-.18.11-.36.13-.56.13-.87,0-1.08-.68-1.08-1.4v-2.07h-.48c-.34,0-.32-.48,0-.48h.48v-.89c0-.37.52-.36.52,0v.89h.79Z" fill="#d3d3d3"/>
          <path d="M135.65,77.07c0-.71-.54-1.2-1.12-1.2-.7,0-1.36.52-1.36,1.31v1.91c0,.17-.09.28-.26.28s-.28-.11-.28-.28v-4.6c0-.33.54-.32.54,0v1.61c.26-.54.83-.76,1.37-.76.84,0,1.65.61,1.65,1.72v2.03c0,.17-.09.28-.26.28s-.27-.11-.27-.28v-2.03Z" fill="#d3d3d3"/>
          <path d="M139.38,75.43c.82.24,1.33.94,1.34,1.93h0c.01.16-.06.35-.35.35h-2.86c.09.63.6,1.15,1.33,1.15.33,0,.68-.09.96-.32.25-.25.63.07.35.38-.33.33-.82.47-1.29.46-.57,0-1.13-.23-1.47-.68-.78-1.09-.44-2.85.91-3.25.34-.11.73-.1,1.09,0h0ZM137.48,77.24h2.73c-.05-.65-.43-1.15-.99-1.3h0c-.24-.07-.54-.07-.78,0-.58.16-.92.68-.96,1.3Z" fill="#d3d3d3"/>
          <path d="M143.55,78.11c.19.64.99.78,1.57.78.62,0,1.57-.2,1.57-.97,0-.67-.76-.72-1.56-.79-1-.08-2.07-.18-2.07-1.33,0-1.01,1.1-1.47,1.99-1.47.76,0,1.71.19,2.01,1.07.11.31-.38.45-.49.18-.22-.58-.99-.68-1.51-.68-.49,0-1.43.21-1.43.91s.72.74,1.57.81c.99.09,2.06.15,2.06,1.3s-1.24,1.54-2.13,1.54c-.74,0-1.87-.27-2.11-1.19-.09-.34.48-.45.54-.14Z" fill="#d3d3d3"/>
          <path d="M149.48,75.42c.33,0,.33.48,0,.48h-.79v2.07c0,.44.07.9.56.9.11,0,.27-.04.34-.08.3-.18.54.27.22.46-.18.11-.36.13-.56.13-.87,0-1.08-.68-1.08-1.4v-2.07h-.48c-.34,0-.32-.48,0-.48h.48v-.89c0-.37.52-.36.52,0v.89h.79Z" fill="#d3d3d3"/>
          <path d="M151.03,76.05c.23-.51.67-.65,1.08-.65.17,0,.28.09.28.27s-.11.26-.28.26c-.75,0-1.07.63-1.07,1.4v1.73c0,.16-.12.27-.26.27-.16,0-.27-.11-.27-.27v-3.4c0-.34.51-.37.51,0v.38Z" fill="#d3d3d3"/>
          <path d="M153.72,75.52c.24-.12.5-.15.78-.15.41,0,.88.15,1.15.6v-.29c0-.16.09-.28.26-.28s.27.12.27.28v3.41c0,.17-.11.28-.27.28-.17,0-.26-.11-.26-.28v-.37c-.21.45-.75.7-1.17.7-.35,0-.74-.1-1.04-.33-.55-.4-.83-1.05-.81-1.8.01-.78.42-1.49,1.12-1.77h0ZM155.64,77.69v-.61c0-.76-.5-1.15-1.15-1.18-.51,0-1.04.28-1.24.82-.06.16-.1.37-.11.57-.01.5.14.96.53,1.3.22.18.48.27.75.29.67,0,1.19-.43,1.23-1.2Z" fill="#d3d3d3"/>
          <path d="M158.75,75.42c.33,0,.33.48,0,.48h-.79v2.07c0,.44.07.9.56.9.11,0,.27-.04.34-.08.3-.18.54.27.22.46-.18.11-.36.13-.56.13-.87,0-1.08-.68-1.08-1.4v-2.07h-.48c-.34,0-.32-.48,0-.48h.48v-.89c0-.37.52-.36.52,0v.89h.79Z" fill="#d3d3d3"/>
          <path d="M162.02,75.43c.82.24,1.33.94,1.34,1.93h0c.01.16-.06.35-.35.35h-2.86c.09.63.6,1.15,1.33,1.15.33,0,.68-.09.96-.32.25-.25.63.07.35.38-.33.33-.82.47-1.29.46-.57,0-1.13-.23-1.47-.68-.78-1.09-.44-2.85.91-3.25.34-.11.73-.1,1.09,0h0ZM160.12,77.24h2.73c-.05-.65-.43-1.15-.99-1.3h0c-.24-.07-.54-.07-.78,0-.58.16-.92.68-.96,1.3Z" fill="#d3d3d3"/>
          <path d="M167.51,79.14c0,1.11-.8,1.69-1.79,1.69-.55,0-.99-.14-1.38-.53-.29-.3.11-.65.35-.4.36.29.62.38,1.03.38.66,0,1.28-.35,1.28-1.14v-.41c-.25.48-.73.67-1.16.68-.28,0-.54-.04-.78-.15-.67-.29-1.09-.99-1.1-1.77-.02-.89.37-1.65,1.16-2,.22-.09.46-.13.68-.13.44,0,.95.18,1.19.6v-.29c0-.17.09-.28.26-.28s.27.11.27.28v3.47ZM165.01,76.18h0c-.4.35-.55.81-.54,1.31,0,.2.04.41.11.57.2.54.72.83,1.24.82h0c.65-.03,1.16-.53,1.16-1.18v-.61c0-.48-.19-.85-.62-1.05-.43-.21-.96-.18-1.36.15Z" fill="#d3d3d3"/>
          <path d="M168.07,75.75c-.13-.31.35-.57.49-.22l1.4,2.96,1.38-2.97c.13-.3.61-.12.49.21l-2.33,4.9c-.17.36-.63.17-.49-.19l.64-1.37-1.59-3.31Z" fill="#d3d3d3"/>
          <path d="M172.31,79.92c-.16.34-.56.11-.43-.21l.3-.74c.14-.34.62-.09.46.22l-.33.72Z" fill="#d3d3d3"/>
          <path d="M175.23,79.32c-.18,0-.33-.15-.33-.33v-4.23c0-.18.15-.32.33-.32h1.58c1.44,0,2.16,1.22,2.16,2.44s-.72,2.44-2.16,2.44h-1.58ZM175.42,78.82h1.39c1.09,0,1.63-.97,1.63-1.94s-.54-1.95-1.63-1.95h-1.39v3.89Z" fill="#d3d3d3"/>
          <path d="M180.21,76.05c.23-.51.67-.65,1.08-.65.17,0,.28.09.28.27s-.11.26-.28.26c-.75,0-1.07.63-1.07,1.4v1.73c0,.16-.12.27-.26.27-.16,0-.27-.11-.27-.27v-3.4c0-.34.51-.37.51,0v.38Z" fill="#d3d3d3"/>
          <path d="M182.5,74.84c0,.35-.54.35-.54,0v-.35c0-.35.54-.35.54,0v.35ZM181.96,75.67c0-.33.53-.34.53,0v3.46c0,.34-.53.33-.53,0v-3.45Z" fill="#d3d3d3"/>
          <path d="M182.89,75.73c-.11-.32.37-.51.5-.21.5,1.06.91,1.93,1.42,2.99l1.43-3.01c.11-.28.6-.12.47.19l-1.67,3.52c-.09.2-.34.26-.48,0l-1.67-3.5Z" fill="#d3d3d3"/>
          <path d="M189.44,75.43c.82.24,1.33.94,1.34,1.93h0c.01.16-.06.35-.35.35h-2.86c.09.63.6,1.15,1.33,1.15.33,0,.68-.09.96-.32.25-.25.63.07.35.38-.33.33-.82.47-1.29.46-.57,0-1.13-.23-1.47-.68-.78-1.09-.44-2.85.91-3.25.34-.11.73-.1,1.09,0h0ZM187.54,77.24h2.73c-.05-.65-.43-1.15-.99-1.3h0c-.24-.07-.54-.07-.78,0-.58.16-.92.68-.96,1.3Z" fill="#d3d3d3"/>
          <path d="M195,75.42c.33,0,.33.48,0,.48h-.79v2.07c0,.44.07.9.56.9.11,0,.27-.04.34-.08.3-.18.54.27.22.46-.18.11-.36.13-.56.13-.87,0-1.08-.68-1.08-1.4v-2.07h-.48c-.34,0-.32-.48,0-.48h.48v-.89c0-.37.52-.36.52,0v.89h.79Z" fill="#d3d3d3"/>
          <path d="M199.07,77.07c0-.71-.54-1.2-1.12-1.2-.7,0-1.36.52-1.36,1.31v1.91c0,.17-.09.28-.26.28s-.28-.11-.28-.28v-4.6c0-.33.54-.32.54,0v1.61c.26-.54.83-.76,1.37-.76.84,0,1.65.61,1.65,1.72v2.03c0,.17-.09.28-.26.28s-.27-.11-.27-.28v-2.03Z" fill="#d3d3d3"/>
          <path d="M202.8,75.43c.82.24,1.33.94,1.34,1.93h0c.01.16-.06.35-.35.35h-2.86c.09.63.6,1.15,1.33,1.15.33,0,.68-.09.96-.32.25-.25.63.07.35.38-.33.33-.82.47-1.29.46-.57,0-1.13-.23-1.47-.68-.78-1.09-.44-2.85.91-3.25.34-.11.73-.1,1.09,0h0ZM200.9,77.24h2.73c-.05-.65-.43-1.15-.99-1.3h0c-.24-.07-.54-.07-.78,0-.58.16-.92.68-.96,1.3Z" fill="#d3d3d3"/>
          <path d="M207.36,77.61v1.49c0,.35-.53.35-.53,0v-4.41c0-.16.11-.27.27-.27h1.72c1.25,0,1.89.75,1.89,1.65,0,.77-.4,1.34-1.29,1.5l1.17,1.34c.28.29-.12.63-.36.37l-1.46-1.68h-1.41ZM207.36,77.13h1.46c.95,0,1.36-.47,1.35-1.04,0-.63-.51-1.14-1.35-1.14h-1.46v2.18Z" fill="#d3d3d3"/>
          <path d="M213.61,75.43c.82.24,1.33.94,1.34,1.93h0c.01.16-.06.35-.35.35h-2.86c.09.63.6,1.15,1.33,1.15.33,0,.68-.09.96-.32.25-.25.63.07.35.38-.33.33-.82.47-1.29.46-.57,0-1.13-.23-1.47-.68-.78-1.09-.44-2.85.91-3.25.34-.11.73-.1,1.09,0h0ZM211.71,77.24h2.73c-.05-.65-.43-1.15-.99-1.3h0c-.24-.07-.54-.07-.78,0-.58.16-.92.68-.96,1.3Z" fill="#d3d3d3"/>
          <path d="M215.96,78.36c.07.35.64.52,1.17.52.36,0,1.12-.17,1.12-.7,0-.49-.55-.51-1.14-.56-.78-.08-1.62-.15-1.62-1.09,0-.82.88-1.17,1.58-1.17.56,0,1.33.1,1.59.79.1.35-.4.49-.49.2-.16-.45-.77-.48-1.09-.48-.42,0-1.05.19-1.05.67s.54.48,1.12.53c.8.08,1.65.15,1.65,1.11s-1.04,1.21-1.65,1.21-1.53-.16-1.67-.93c-.09-.32.44-.48.51-.1Z" fill="#d3d3d3"/>
          <path d="M219.99,77.68c0,.71.54,1.2,1.12,1.2.7,0,1.36-.61,1.36-1.45v-1.78c0-.17.09-.27.26-.27s.28.1.28.27v3.44c0,.35-.52.36-.52,0v-.48c-.26.56-.82.81-1.38.81-.84,0-1.65-.61-1.65-1.72v-2.03c0-.17.09-.27.26-.27s.27.1.27.27v2.03Z" fill="#d3d3d3"/>
          <path d="M224.45,79.09c0,.15-.12.26-.26.26-.16,0-.27-.12-.27-.26v-4.6c0-.15.11-.26.27-.26.14,0,.26.12.26.26v4.6Z" fill="#d3d3d3"/>
          <path d="M226.9,75.42c.33,0,.33.48,0,.48h-.79v2.07c0,.44.07.9.56.9.11,0,.27-.04.34-.08.3-.18.54.27.22.46-.18.11-.36.13-.56.13-.87,0-1.08-.68-1.08-1.4v-2.07h-.48c-.34,0-.32-.48,0-.48h.48v-.89c0-.37.52-.36.52,0v.89h.79Z" fill="#d3d3d3"/>
          <path d="M228.18,78.36c.07.35.64.52,1.17.52.36,0,1.12-.17,1.12-.7,0-.49-.55-.51-1.14-.56-.78-.08-1.62-.15-1.62-1.09,0-.82.88-1.17,1.58-1.17.56,0,1.33.1,1.59.79.1.35-.4.49-.49.2-.16-.45-.77-.48-1.09-.48-.42,0-1.05.19-1.05.67s.54.48,1.12.53c.8.08,1.65.15,1.65,1.11s-1.04,1.21-1.65,1.21-1.53-.16-1.67-.93c-.09-.32.44-.48.51-.1Z" fill="#d3d3d3"/>
          <path d="M231.92,79.01c0,.19-.12.32-.31.32s-.33-.13-.33-.32.14-.32.33-.32.31.13.31.32Z" fill="#d3d3d3"/>
        </g>
      </g>
    </g>
  </g>
</svg>