<?xml version="1.0" encoding="UTF-8"?>
<svg id="Layer_2" data-name="Layer 2" xmlns="http://www.w3.org/2000/svg" viewBox="0 0 528.11 171.22">
  <g id="Layer_1-2" data-name="Layer 1">
    <g>
      <g>
        <path d="M200.41,8.63h16.6v24.93c3.81-2.25,8.2-3.47,12.89-3.47,14.65,0,26.56,12.47,26.56,28.1s-11.91,28.1-26.56,28.1l-11.03-11.65h-1.86v10.63h-16.6V8.63ZM228.33,45.42c-6.25,0-11.33,5.62-11.33,12.77s5.08,12.77,11.33,12.77,11.52-5.82,11.52-12.77-5.27-12.77-11.52-12.77Z" fill="#ed3d24"/>
        <path d="M259.88,31.11h16.6v8.69h2.25l9.18-9.71h13.28v15.33h-14.65c-5.47,0-10.06,5.11-10.06,11.24v28.61h-16.6V31.11Z" fill="#ed3d24"/>
        <path d="M358.7,31.21v54.05h-16.6v-9.6h-2.83l-10.06,10.63c-14.65,0-26.56-12.46-26.56-28.1s11.91-28.1,26.56-28.1c7.32,0,13.96,3.17,18.75,8.18l1.95-7.05h8.79ZM330.77,70.96c6.25,0,11.33-5.62,11.33-12.77s-5.08-12.77-11.33-12.77-11.52,5.72-11.52,12.77,5.27,12.77,11.52,12.77Z" fill="#ed3d24"/>
        <path d="M362.62,31.11h16.6v8.69h2.25l9.18-9.71c13.86,0,25.09,11.85,25.09,26.57v28.61h-16.6v-28.61c0-6.23-4.39-11.24-9.86-11.24s-10.06,5.11-10.06,11.24v28.61h-16.6V31.11Z" fill="#ed3d24"/>
        <path d="M475.21,8.63v76.64h-16.6v-9.6h-2.83l-10.06,10.63c-14.65,0-26.56-12.46-26.56-28.1s11.91-28.1,26.56-28.1c4.69,0,9.08,1.23,12.89,3.47V8.63h16.6ZM447.28,70.96c6.25,0,11.33-5.62,11.33-12.77s-5.08-12.77-11.33-12.77-11.52,5.72-11.52,12.77,5.27,12.77,11.52,12.77Z" fill="#ed3d24"/>
      </g>
      <g>
        <path d="M284.33,130.09c0-4.55-31.9-1.82-31.9-21.14,0-10.52,6.67-16.59,18.56-16.59h27.55v15.17h-27.45c-1.35,0-2.22.51-2.22,1.32,0,4.96,31.9,2.83,31.9,21.54,0,9.91-7.83,16.59-25.04,16.59-8.8,0-19.14-2.63-25.42-6.88l10.44-11.93c3.77,2.22,12.47,3.64,17.98,3.64,3.58,0,5.6-.61,5.6-1.72Z" fill="#ed3d24"/>
        <path d="M331.39,91.36c-15.36,0-27.71,12.15-27.71,27.31s12.45,27.31,27.71,27.31h20.03v-15.16h-19.93c-3.86,0-7.24-2.03-9.27-5.18h23.75l10.08-10.49h2.77c-1.89-13.81-13.64-23.79-27.44-23.79ZM321.17,113.69c1.83-4.23,5.89-7.17,10.32-7.17s8.32,2.94,10.15,7.17h-20.47Z" fill="#ed3d24"/>
        <path d="M219.65,91.36c-15.36,0-27.71,12.15-27.71,27.31s12.45,27.31,27.71,27.31h20.03v-15.16h-19.93c-3.86,0-7.24-2.03-9.27-5.18h23.75l10.08-10.49h2.77c-1.89-13.81-13.64-23.79-27.44-23.79ZM209.43,113.69c1.83-4.23,5.89-7.17,10.32-7.17s8.32,2.94,10.15,7.17h-20.47Z" fill="#ed3d24"/>
        <path d="M499.72,91.36c-15.36,0-27.71,12.15-27.71,27.31s12.45,27.31,27.71,27.31h20.03v-15.16h-19.93c-3.86,0-7.24-2.03-9.27-5.18h23.75l10.08-10.49h2.77c-1.89-13.81-13.64-23.79-27.44-23.79ZM489.5,113.69c1.83-4.23,5.89-7.17,10.32-7.17s8.32,2.94,10.15,7.17h-20.47Z" fill="#ed3d24"/>
        <path d="M362.53,92.36h16.43v8.6h2.22l9.08-9.61c13.73,0,24.84,11.73,24.84,26.3v28.32h-16.43v-28.32c0-6.17-4.35-11.13-9.76-11.13s-9.96,5.06-9.96,11.13v28.32h-16.43v-53.61Z" fill="#ed3d24"/>
        <path d="M452.52,130.09c0-4.55-31.9-1.82-31.9-21.14,0-10.52,6.67-16.59,18.56-16.59h27.55v15.17h-27.45c-1.35,0-2.22.51-2.22,1.32,0,4.96,31.9,2.83,31.9,21.54,0,9.91-7.83,16.59-25.03,16.59-8.8,0-19.14-2.63-25.42-6.88l10.44-11.93c3.77,2.22,12.47,3.64,17.98,3.64,3.58,0,5.61-.61,5.61-1.72Z" fill="#ed3d24"/>
        <path d="M358.87,115.15v.14s0-.1-.03-.14h.03Z" fill="#ed3d24"/>
      </g>
      <path d="M143.76,154.33c-17.38,11.57-38.11,17.46-58.75,16.84-20.16-.41-39.67-7.28-55.06-20.05-13.29-11.03-23.11-26.83-27.38-43.52C-2.22,88.94-.17,68.89,7.62,51.34c6.68-15.06,19.62-27.98,33.69-36.23C57.62,5.53,77.67-.53,96.65.04c19.36.58,38.11,7.79,53.1,20.01,11.13,9.07,19.4,20.34,24.81,33.6,6.7,16.4,8.01,34.02,4.16,51.27-4.92,20.28-17.34,37.69-34.96,49.41ZM64.15,91.56c-10.03-.87-13.91-11.19-9.1-19.22,1.38-2.3,10.85-10.08,33.78-16.9,7.21-2.14,14.64-3.65,21.6-6.56,6.2-2.6,12.92-6.59,13.56-14.07.4-4.66-3.52-8.52-6.95-11.07-13.99-10.4-33.63-12.44-50.31-8.85-16.45,3.55-31.93,13.01-40.37,27.82-5.76,10.12-8.69,21.91-8.63,33.53.08,16.56,5.27,33,14.46,46.75,9.39,14.05,23.06,25.2,38.73,31.54,14.69,5.93,31.73,7.21,47.06,3.09,3.85-1.03,7.6-2.4,11.21-4.1,3.78-1.78,6.92-4.35,10.26-6.84,1.11-.83,2.23-1.67,3.22-2.64,1.06-1.05,1.96-2.24,2.86-3.44,1.41-1.88,2.84-3.77,3.91-5.87,2.99-5.84,2.87-12.63.08-18.51-4.13-8.7-9.44-13.97-21.54-18.26-13.46-4.77-26.19-3.13-63.81-6.4ZM100.85,77.01c1.7.11,3.4.27,5.1.46,13.38,1.52,27.15,5.83,37.62,14.6,4.01,3.36,7.46,7.5,9.72,12.24,2.42,5.06,4.07,15.36,2.86,20.94l1.42-2.93c3.65-6.99,4.55-15.76,4.91-23.55.82-17.55-3.85-34.87-13.49-49.56-6.42-9.78-14.87-18.18-24.7-24.52.28.18,1.48,2.58,1.59,3.01,1.74,6.85.96,12.72-4.49,17.59-5.15,4.61-11.75,7.29-18.33,9.13-7.3,2.04-14.86,3.65-22.18,5.83-7.1,2.11-15.2,4.74-21.04,9.47-1.65,1.34-5.14,3.94-4.53,6.43.82,3.4,7.43,2.41,9.8,2.18,4.57-.43,9.14-.85,13.72-1.15,7.33-.48,14.69-.66,22.02-.17Z" fill="#ed3d24"/>
      <g>
        <path d="M193.8,163.96c.5,1.7,2.66,2.07,4.21,2.07,1.65,0,4.21-.53,4.21-2.6,0-1.78-2.04-1.93-4.17-2.11-2.68-.23-5.55-.49-5.55-3.55,0-2.71,2.95-3.92,5.31-3.92,2.04,0,4.58.51,5.39,2.85.29.82-1.03,1.19-1.32.49-.58-1.56-2.66-1.83-4.05-1.83-1.3,0-3.82.55-3.82,2.42s1.94,1.97,4.19,2.15c2.66.25,5.51.39,5.51,3.47s-3.32,4.1-5.7,4.1c-1.98,0-5-.72-5.64-3.18-.23-.9,1.28-1.21,1.44-.37Z" fill="#ed3d24"/>
        <path d="M211.31,156.8c2.19.64,3.55,2.52,3.59,5.15v-.02c.04.45-.16.94-.95.94h-7.66c.25,1.68,1.61,3.08,3.55,3.08.89,0,1.82-.25,2.58-.86.68-.66,1.69.18.93,1-.89.88-2.19,1.25-3.45,1.23-1.51,0-3.03-.62-3.94-1.83-2.09-2.91-1.18-7.63,2.42-8.7.91-.29,1.96-.27,2.91,0h.02ZM206.23,161.62h7.31c-.14-1.74-1.14-3.08-2.66-3.49h.02c-.64-.18-1.43-.18-2.09.02-1.55.43-2.46,1.8-2.58,3.47Z" fill="#ed3d24"/>
        <path d="M225.08,161.17c0-1.89-1.43-3.2-3.01-3.2-1.88,0-3.65,1.64-3.65,3.88v4.76c0,.45-.25.72-.7.72s-.74-.27-.74-.72v-9.19c0-.94,1.4-.96,1.4.02v1.27c.7-1.5,2.19-2.13,3.7-2.13,2.25,0,4.4,1.64,4.4,4.59v5.43c0,.45-.25.72-.7.72s-.72-.27-.72-.72v-5.43Z" fill="#ed3d24"/>
        <path d="M229.71,164.61c.2.92,1.71,1.39,3.12,1.39.95,0,2.99-.45,2.99-1.87,0-1.31-1.47-1.37-3.04-1.5-2.09-.21-4.34-.39-4.34-2.91,0-2.19,2.37-3.14,4.23-3.14,1.49,0,3.57.27,4.25,2.11.27.92-1.07,1.31-1.32.53-.43-1.19-2.06-1.27-2.93-1.27-1.12,0-2.81.51-2.81,1.78s1.44,1.29,2.99,1.42c2.13.21,4.4.41,4.4,2.97s-2.79,3.22-4.4,3.22-4.09-.43-4.48-2.48c-.23-.86,1.18-1.29,1.36-.27Z" fill="#ed3d24"/>
        <path d="M245.03,156.8c2.19.64,3.55,2.52,3.59,5.15v-.02c.04.45-.15.94-.95.94h-7.66c.25,1.68,1.61,3.08,3.55,3.08.89,0,1.82-.25,2.58-.86.68-.66,1.69.18.93,1-.89.88-2.19,1.25-3.45,1.23-1.51,0-3.03-.62-3.94-1.83-2.1-2.91-1.18-7.63,2.42-8.7.91-.29,1.96-.27,2.91,0h.02ZM239.95,161.62h7.31c-.13-1.74-1.14-3.08-2.66-3.49h.02c-.64-.18-1.44-.18-2.1.02-1.55.43-2.46,1.8-2.58,3.47Z" fill="#ed3d24"/>
        <path d="M259.89,156.76c.87,0,.87,1.29,0,1.29h-2.11v5.54c0,1.17.17,2.4,1.49,2.4.29,0,.72-.1.91-.23.81-.49,1.45.72.58,1.23-.49.29-.97.35-1.49.35-2.33,0-2.89-1.8-2.89-3.75v-5.54h-1.28c-.91,0-.85-1.29,0-1.29h1.28v-2.38c0-.98,1.4-.96,1.4,0v2.38h2.11Z" fill="#ed3d24"/>
        <path d="M270.79,161.17c0-1.89-1.43-3.2-3.01-3.2-1.88,0-3.65,1.39-3.65,3.51v5.11c0,.45-.25.74-.7.74s-.74-.29-.74-.74v-12.28c0-.88,1.43-.86,1.43,0v4.31c.7-1.44,2.21-2.03,3.67-2.03,2.25,0,4.4,1.64,4.4,4.59v5.41c0,.45-.25.74-.7.74s-.72-.29-.72-.74v-5.41Z" fill="#ed3d24"/>
        <path d="M280.75,156.8c2.19.64,3.55,2.52,3.59,5.15v-.02c.04.45-.16.94-.95.94h-7.66c.25,1.68,1.61,3.08,3.55,3.08.89,0,1.82-.25,2.58-.86.68-.66,1.69.18.93,1-.89.88-2.19,1.25-3.45,1.23-1.51,0-3.03-.62-3.94-1.83-2.09-2.91-1.18-7.63,2.42-8.7.91-.29,1.96-.27,2.91,0h.02ZM275.67,161.62h7.31c-.14-1.74-1.14-3.08-2.66-3.49h.02c-.64-.18-1.44-.18-2.09.02-1.55.43-2.46,1.8-2.58,3.47Z" fill="#ed3d24"/>
        <path d="M291.9,163.96c.5,1.7,2.66,2.07,4.21,2.07,1.65,0,4.21-.53,4.21-2.6,0-1.78-2.04-1.93-4.17-2.11-2.68-.23-5.55-.49-5.55-3.55,0-2.71,2.95-3.92,5.31-3.92,2.04,0,4.58.51,5.39,2.85.29.82-1.03,1.19-1.32.49-.58-1.56-2.66-1.83-4.05-1.83-1.3,0-3.82.55-3.82,2.42s1.94,1.97,4.19,2.15c2.66.25,5.51.39,5.51,3.47s-3.32,4.1-5.7,4.1c-1.98,0-5-.72-5.64-3.18-.23-.9,1.28-1.21,1.43-.37Z" fill="#ed3d24"/>
        <path d="M307.75,156.76c.87,0,.87,1.29,0,1.29h-2.11v5.54c0,1.17.17,2.4,1.49,2.4.29,0,.72-.1.91-.23.81-.49,1.45.72.58,1.23-.49.29-.97.35-1.49.35-2.33,0-2.89-1.8-2.89-3.75v-5.54h-1.28c-.91,0-.85-1.29,0-1.29h1.28v-2.38c0-.98,1.4-.96,1.4,0v2.38h2.11Z" fill="#ed3d24"/>
        <path d="M311.88,158.46c.62-1.37,1.78-1.74,2.89-1.74.45,0,.74.25.74.72s-.29.7-.74.7c-2,0-2.85,1.68-2.85,3.75v4.63c0,.43-.33.72-.7.72-.43,0-.72-.29-.72-.72v-9.08c0-.9,1.38-.98,1.38,0v1.03Z" fill="#ed3d24"/>
        <path d="M319.07,157.02c.64-.31,1.34-.41,2.08-.39,1.11.02,2.37.39,3.06,1.6v-.78c0-.43.25-.74.7-.74s.72.31.72.74v9.11c0,.45-.29.74-.72.74s-.7-.29-.7-.74v-.98c-.56,1.19-2,1.87-3.14,1.87-.93,0-1.98-.27-2.79-.88-1.47-1.07-2.23-2.81-2.17-4.82.04-2.07,1.12-3.98,2.99-4.74l-.02.02ZM324.21,162.83v-1.62c0-2.03-1.34-3.08-3.08-3.16-1.38-.02-2.77.76-3.32,2.19-.17.43-.27.98-.29,1.52-.04,1.33.37,2.56,1.42,3.49.58.47,1.28.72,2,.78,1.78,0,3.18-1.15,3.28-3.2Z" fill="#ed3d24"/>
        <path d="M332.53,156.76c.87,0,.87,1.29,0,1.29h-2.11v5.54c0,1.17.17,2.4,1.49,2.4.29,0,.72-.1.91-.23.81-.49,1.45.72.58,1.23-.48.29-.97.35-1.49.35-2.33,0-2.89-1.8-2.89-3.75v-5.54h-1.28c-.91,0-.85-1.29,0-1.29h1.28v-2.38c0-.98,1.4-.96,1.4,0v2.38h2.11Z" fill="#ed3d24"/>
        <path d="M341.28,156.8c2.19.64,3.55,2.52,3.59,5.15v-.02c.04.45-.16.94-.95.94h-7.66c.25,1.68,1.61,3.08,3.55,3.08.89,0,1.82-.25,2.58-.86.68-.66,1.69.18.93,1-.89.88-2.19,1.25-3.45,1.23-1.51,0-3.03-.62-3.94-1.83-2.09-2.91-1.18-7.63,2.42-8.7.91-.29,1.96-.27,2.91,0h.02ZM336.2,161.62h7.31c-.14-1.74-1.14-3.08-2.66-3.49h.02c-.64-.18-1.44-.18-2.09.02-1.55.43-2.46,1.8-2.58,3.47Z" fill="#ed3d24"/>
        <path d="M355.94,166.7c0,2.97-2.13,4.51-4.79,4.51-1.47,0-2.66-.37-3.7-1.42-.78-.8.29-1.74.95-1.07.97.78,1.67,1.03,2.75,1.03,1.76,0,3.41-.94,3.41-3.06v-1.11c-.68,1.29-1.94,1.78-3.1,1.8-.74.02-1.44-.1-2.09-.39-1.8-.78-2.91-2.65-2.95-4.72-.06-2.38.99-4.41,3.1-5.33.6-.25,1.24-.35,1.82-.35,1.18,0,2.54.47,3.18,1.6v-.78c0-.45.25-.74.7-.74s.72.29.72.74v9.27ZM349.25,158.79h.02c-1.07.92-1.47,2.15-1.44,3.49.02.53.12,1.09.29,1.52.54,1.44,1.94,2.21,3.32,2.19h-.02c1.75-.08,3.1-1.42,3.1-3.16v-1.62c0-1.29-.5-2.28-1.65-2.81-1.16-.55-2.56-.47-3.63.39Z" fill="#ed3d24"/>
        <path d="M357.43,157.64c-.35-.82.93-1.52,1.32-.59l3.74,7.92,3.7-7.94c.35-.8,1.63-.31,1.32.55l-6.23,13.08c-.47.96-1.69.45-1.32-.51l1.71-3.67-4.25-8.84Z" fill="#ed3d24"/>
        <path d="M368.78,168.8c-.43.9-1.49.29-1.14-.55l.79-1.97c.39-.9,1.65-.25,1.22.59l-.87,1.93Z" fill="#ed3d24"/>
        <path d="M376.57,167.2c-.48,0-.89-.41-.89-.88v-11.3c0-.47.41-.86.89-.86h4.23c3.86,0,5.78,3.26,5.78,6.52s-1.92,6.52-5.78,6.52h-4.23ZM377.08,165.86h3.72c2.91,0,4.36-2.6,4.36-5.19s-1.46-5.21-4.36-5.21h-3.72v10.4Z" fill="#ed3d24"/>
        <path d="M389.9,158.46c.62-1.37,1.78-1.74,2.89-1.74.45,0,.74.25.74.72s-.29.7-.74.7c-2,0-2.85,1.68-2.85,3.75v4.63c0,.43-.33.72-.7.72-.43,0-.72-.29-.72-.72v-9.08c0-.9,1.38-.98,1.38,0v1.03Z" fill="#ed3d24"/>
        <path d="M396,155.22c0,.92-1.45.94-1.45,0v-.92c0-.94,1.45-.94,1.45,0v.92ZM394.57,157.43c0-.88,1.42-.9,1.42-.02v9.25c0,.9-1.42.88-1.42,0v-9.23Z" fill="#ed3d24"/>
        <path d="M397.05,157.6c-.29-.86.99-1.35,1.34-.55,1.34,2.83,2.44,5.15,3.8,8l3.84-8.04c.29-.76,1.61-.33,1.26.51l-4.48,9.41c-.25.53-.91.7-1.28.02l-4.48-9.35Z" fill="#ed3d24"/>
        <path d="M414.56,156.8c2.19.64,3.55,2.52,3.59,5.15v-.02c.04.45-.16.94-.95.94h-7.66c.25,1.68,1.61,3.08,3.55,3.08.89,0,1.82-.25,2.58-.86.68-.66,1.69.18.93,1-.89.88-2.19,1.25-3.45,1.23-1.51,0-3.03-.62-3.94-1.83-2.09-2.91-1.18-7.63,2.42-8.7.91-.29,1.96-.27,2.91,0h.02ZM409.48,161.62h7.31c-.14-1.74-1.14-3.08-2.66-3.49h.02c-.64-.18-1.44-.18-2.09.02-1.55.43-2.46,1.8-2.58,3.47Z" fill="#ed3d24"/>
        <path d="M429.42,156.76c.87,0,.87,1.29,0,1.29h-2.11v5.54c0,1.17.17,2.4,1.49,2.4.29,0,.72-.1.91-.23.81-.49,1.45.72.58,1.23-.48.29-.97.35-1.49.35-2.33,0-2.89-1.8-2.89-3.75v-5.54h-1.28c-.91,0-.85-1.29,0-1.29h1.28v-2.38c0-.98,1.4-.96,1.4,0v2.38h2.11Z" fill="#ed3d24"/>
        <path d="M440.32,161.17c0-1.89-1.44-3.2-3.01-3.2-1.88,0-3.65,1.39-3.65,3.51v5.11c0,.45-.25.74-.7.74s-.74-.29-.74-.74v-12.28c0-.88,1.43-.86,1.43,0v4.31c.7-1.44,2.21-2.03,3.67-2.03,2.25,0,4.4,1.64,4.4,4.59v5.41c0,.45-.25.74-.7.74s-.72-.29-.72-.74v-5.41Z" fill="#ed3d24"/>
        <path d="M450.28,156.8c2.19.64,3.55,2.52,3.59,5.15v-.02c.04.45-.16.94-.95.94h-7.66c.25,1.68,1.61,3.08,3.55,3.08.89,0,1.82-.25,2.58-.86.68-.66,1.69.18.93,1-.89.88-2.19,1.25-3.45,1.23-1.51,0-3.03-.62-3.94-1.83-2.09-2.91-1.18-7.63,2.42-8.7.91-.29,1.96-.27,2.91,0h.02ZM445.2,161.62h7.31c-.14-1.74-1.14-3.08-2.66-3.49h.02c-.64-.18-1.44-.18-2.09.02-1.55.43-2.46,1.8-2.58,3.47Z" fill="#ed3d24"/>
        <path d="M462.46,162.62v3.98c0,.94-1.42.94-1.42.02v-11.77c0-.43.29-.72.72-.72h4.6c3.35,0,5.06,2.01,5.06,4.41,0,2.07-1.07,3.57-3.45,4l3.14,3.59c.74.78-.33,1.68-.97.98l-3.92-4.49h-3.76ZM462.46,161.33h3.92c2.54,0,3.65-1.25,3.61-2.79-.02-1.68-1.36-3.04-3.61-3.04h-3.92v5.82Z" fill="#ed3d24"/>
        <path d="M479.16,156.8c2.19.64,3.55,2.52,3.59,5.15v-.02c.04.45-.16.94-.95.94h-7.66c.25,1.68,1.61,3.08,3.55,3.08.89,0,1.82-.25,2.58-.86.68-.66,1.69.18.93,1-.89.88-2.19,1.25-3.45,1.23-1.51,0-3.03-.62-3.94-1.83-2.09-2.91-1.18-7.63,2.42-8.7.91-.29,1.96-.27,2.91,0h.02ZM474.08,161.62h7.31c-.14-1.74-1.14-3.08-2.66-3.49h.02c-.64-.18-1.43-.18-2.09.02-1.55.43-2.46,1.8-2.58,3.47Z" fill="#ed3d24"/>
        <path d="M485.44,164.61c.19.92,1.71,1.39,3.12,1.39.95,0,2.99-.45,2.99-1.87,0-1.31-1.47-1.37-3.04-1.5-2.09-.21-4.34-.39-4.34-2.91,0-2.19,2.37-3.14,4.23-3.14,1.49,0,3.57.27,4.25,2.11.27.92-1.07,1.31-1.32.53-.43-1.19-2.06-1.27-2.93-1.27-1.12,0-2.81.51-2.81,1.78s1.44,1.29,2.99,1.42c2.13.21,4.4.41,4.4,2.97s-2.79,3.22-4.4,3.22-4.09-.43-4.48-2.48c-.23-.86,1.18-1.29,1.36-.27Z" fill="#ed3d24"/>
        <path d="M496.21,162.81c0,1.89,1.43,3.2,3.01,3.2,1.88,0,3.65-1.64,3.65-3.88v-4.76c0-.45.25-.72.7-.72s.74.27.74.72v9.19c0,.94-1.4.96-1.4-.02v-1.29c-.7,1.5-2.19,2.15-3.7,2.15-2.25,0-4.4-1.64-4.4-4.59v-5.43c0-.45.25-.72.7-.72s.72.27.72.72v5.43Z" fill="#ed3d24"/>
        <path d="M508.15,166.58c0,.39-.31.7-.7.7-.43,0-.72-.31-.72-.7v-12.3c0-.39.29-.7.72-.7.39,0,.7.31.7.7v12.3Z" fill="#ed3d24"/>
        <path d="M514.69,156.76c.87,0,.87,1.29,0,1.29h-2.11v5.54c0,1.17.17,2.4,1.49,2.4.29,0,.72-.1.91-.23.81-.49,1.45.72.58,1.23-.48.29-.97.35-1.49.35-2.33,0-2.89-1.8-2.89-3.75v-5.54h-1.28c-.91,0-.85-1.29,0-1.29h1.28v-2.38c0-.98,1.4-.96,1.4,0v2.38h2.11Z" fill="#ed3d24"/>
        <path d="M518.1,164.61c.19.92,1.71,1.39,3.12,1.39.95,0,2.99-.45,2.99-1.87,0-1.31-1.47-1.37-3.04-1.5-2.09-.21-4.34-.39-4.34-2.91,0-2.19,2.37-3.14,4.23-3.14,1.49,0,3.57.27,4.25,2.11.27.92-1.07,1.31-1.32.53-.43-1.19-2.06-1.27-2.93-1.27-1.12,0-2.81.51-2.81,1.78s1.44,1.29,2.99,1.42c2.13.21,4.4.41,4.4,2.97s-2.79,3.22-4.4,3.22-4.09-.43-4.48-2.48c-.23-.86,1.18-1.29,1.36-.27Z" fill="#ed3d24"/>
        <path d="M528.11,166.36c0,.51-.33.86-.83.86s-.87-.35-.87-.86.37-.86.87-.86.83.35.83.86Z" fill="#ed3d24"/>
      </g>
    </g>
  </g>
</svg>