<?xml version="1.0" encoding="UTF-8"?>
<svg xmlns="http://www.w3.org/2000/svg" viewBox="0 0 1465.49 1387.3">
  <g isolation="isolate">
    <g id="Layer_2" data-name="Layer 2">
      <g id="Layer_1-2" data-name="Layer 1">
        <path d="M1164.81,1250.48c-140.84,93.71-308.81,141.44-476.05,136.47-163.35-3.31-321.42-58.98-446.17-162.49-107.68-89.34-187.27-217.36-221.88-352.6C-18,720.63-1.38,558.22,61.7,415.97c54.12-122.02,158.98-226.67,272.94-293.55C466.84,44.83,629.3-4.32,783.1.3c156.9,4.72,308.8,63.09,430.27,162.14,90.16,73.52,157.19,164.83,201.06,272.27,54.26,132.91,64.94,275.63,33.67,415.43-39.88,164.3-140.46,305.38-283.29,400.35ZM519.81,741.9c-81.31-7.07-112.73-90.7-73.74-155.77,11.15-18.6,87.88-81.67,273.71-136.95,58.41-17.37,118.62-29.55,174.98-53.17,50.27-21.07,104.69-53.42,109.91-113.97,3.25-37.73-28.54-69.02-56.34-89.69-113.33-84.29-272.52-100.84-407.68-71.67-133.31,28.77-258.69,105.38-327.07,225.44-46.69,81.97-70.38,177.52-69.95,271.71.61,134.14,42.7,267.41,117.15,378.81,76.1,113.86,186.82,204.22,313.85,255.53,119.03,48.08,257.07,58.38,381.34,25,31.17-8.37,61.61-19.48,90.81-33.24,30.61-14.43,56.07-35.24,83.11-55.45,9.01-6.73,18.05-13.5,26.06-21.4,8.6-8.49,15.89-18.18,23.15-27.84,11.46-15.24,22.97-30.57,31.66-47.54,24.22-47.33,23.29-102.36.68-149.98-33.48-70.5-76.52-113.23-174.55-147.95-109.08-38.64-212.18-25.37-517.07-51.88ZM817.19,623.96c13.8.93,27.59,2.15,41.35,3.71,108.43,12.31,219.97,47.21,304.79,118.31,32.52,27.26,60.42,60.74,78.76,99.16,19.58,40.99,32.98,124.5,23.17,169.64l11.47-23.75c29.6-56.66,36.84-127.68,39.81-190.8,6.67-142.24-31.17-282.52-109.31-401.6-51.98-79.22-120.51-147.3-200.12-198.69,2.25,1.45,12.03,20.87,12.92,24.36,14.09,55.48,7.77,103.04-36.39,142.53-41.75,37.34-95.21,59.04-148.53,73.98-59.11,16.56-120.43,29.61-179.72,47.27-57.53,17.14-123.15,38.39-170.45,76.73-13.39,10.85-41.61,31.91-36.73,52.1,6.66,27.54,60.21,19.52,79.37,17.7,37.02-3.52,74.07-6.86,111.19-9.28,59.36-3.87,119.05-5.38,178.43-1.38Z" fill="#666" mix-blend-mode="multiply" opacity=".42"/>
      </g>
    </g>
  </g>
</svg>